<?xml version="1.0" encoding="UTF-8" standalone="no"?>
<!-- Created with Inkscape (http://www.inkscape.org/) -->

<svg
   xmlns:dc="http://purl.org/dc/elements/1.1/"
   xmlns:cc="http://creativecommons.org/ns#"
   xmlns:rdf="http://www.w3.org/1999/02/22-rdf-syntax-ns#"
   xmlns:svg="http://www.w3.org/2000/svg"
   xmlns="http://www.w3.org/2000/svg"
   xmlns:sodipodi="http://sodipodi.sourceforge.net/DTD/sodipodi-0.dtd"
   xmlns:inkscape="http://www.inkscape.org/namespaces/inkscape"
   width="242mm"
   height="242mm"
   viewBox="0 0 242 242"
   version="1.1"
   id="svg8"
   inkscape:version="0.92.4 (5da689c313, 2019-01-14)"
   sodipodi:docname="logo.svg">
  <defs
     id="defs2">
    <inkscape:path-effect
       effect="skeletal"
       id="path-effect11511"
       is_visible="true"
       pattern="M 0,5 C 0,2.24 2.24,0 5,0 7.76,0 10,2.24 10,5 10,7.76 7.76,10 5,10 2.24,10 0,7.76 0,5 Z"
       copytype="single_stretched"
       prop_scale="0.26458333"
       scale_y_rel="false"
       spacing="0"
       normal_offset="0"
       tang_offset="0"
       prop_units="false"
       vertical_pattern="false"
       fuse_tolerance="0" />
    <inkscape:path-effect
       effect="skeletal"
       id="path-effect11485"
       is_visible="true"
       pattern="M 0,5 C 0,2.24 2.24,0 5,0 7.76,0 10,2.24 10,5 10,7.76 7.76,10 5,10 2.24,10 0,7.76 0,5 Z"
       copytype="single_stretched"
       prop_scale="0.26458333"
       scale_y_rel="false"
       spacing="0"
       normal_offset="0"
       tang_offset="0"
       prop_units="false"
       vertical_pattern="false"
       fuse_tolerance="0" />
    <inkscape:path-effect
       effect="skeletal"
       id="path-effect11474"
       is_visible="true"
       pattern="M 0,5 C 0,2.24 2.24,0 5,0 7.76,0 10,2.24 10,5 10,7.76 7.76,10 5,10 2.24,10 0,7.76 0,5 Z"
       copytype="single_stretched"
       prop_scale="0.26458333"
       scale_y_rel="false"
       spacing="0"
       normal_offset="0"
       tang_offset="0"
       prop_units="false"
       vertical_pattern="false"
       fuse_tolerance="0" />
  </defs>
  <sodipodi:namedview
     id="base"
     pagecolor="#ffffff"
     bordercolor="#666666"
     borderopacity="1.0"
     inkscape:pageopacity="0.0"
     inkscape:pageshadow="2"
     inkscape:zoom="2.8"
     inkscape:cx="437.52218"
     inkscape:cy="64.158156"
     inkscape:document-units="mm"
     inkscape:current-layer="layer4"
     showgrid="true"
     inkscape:window-width="1699"
     inkscape:window-height="1056"
     inkscape:window-x="129"
     inkscape:window-y="0"
     inkscape:window-maximized="1"
     fit-margin-top="0"
     fit-margin-left="0"
     fit-margin-right="0"
     fit-margin-bottom="0"
     units="mm">
    <inkscape:grid
       type="xygrid"
       id="grid973"
       originx="118.02708"
       originy="-11.412572" />
  </sodipodi:namedview>
  <metadata
     id="metadata5">
    <rdf:RDF>
      <cc:Work
         rdf:about="">
        <dc:format>image/svg+xml</dc:format>
        <dc:type
           rdf:resource="http://purl.org/dc/dcmitype/StillImage" />
        <dc:title></dc:title>
      </cc:Work>
    </rdf:RDF>
  </metadata>
  <g
     inkscape:groupmode="layer"
     id="layer1"
     inkscape:label="back"
     transform="translate(22.777105,25.875227)">
    <circle
       style="opacity:1;fill:#fffdff;fill-opacity:1;fill-rule:evenodd;stroke:none;stroke-width:0.26458326;stroke-linecap:round;stroke-linejoin:round;stroke-miterlimit:4;stroke-dasharray:none;stroke-opacity:1"
       id="path819"
       cx="98.222893"
       cy="92.033005"
       r="117.57095" />
  </g>
  <g
     transform="translate(22.777105,25.875227)"
     inkscape:label="back copy"
     id="g11531"
     inkscape:groupmode="layer"
     style="opacity:1"
     sodipodi:insensitive="true">
    <path
       style="color:#000000;font-style:normal;font-variant:normal;font-weight:normal;font-stretch:normal;font-size:medium;line-height:normal;font-family:sans-serif;font-variant-ligatures:normal;font-variant-position:normal;font-variant-caps:normal;font-variant-numeric:normal;font-variant-alternates:normal;font-feature-settings:normal;text-indent:0;text-align:start;text-decoration:none;text-decoration-line:none;text-decoration-style:solid;text-decoration-color:#000000;letter-spacing:normal;word-spacing:normal;text-transform:none;writing-mode:lr-tb;direction:ltr;text-orientation:mixed;dominant-baseline:auto;baseline-shift:baseline;text-anchor:start;white-space:normal;shape-padding:0;clip-rule:nonzero;display:inline;overflow:visible;visibility:visible;opacity:1;isolation:auto;mix-blend-mode:normal;color-interpolation:sRGB;color-interpolation-filters:linearRGB;solid-color:#000000;solid-opacity:1;vector-effect:none;fill:#e94025;fill-opacity:1;fill-rule:evenodd;stroke:none;stroke-width:10;stroke-linecap:round;stroke-linejoin:round;stroke-miterlimit:4;stroke-dasharray:none;stroke-dashoffset:0;stroke-opacity:1;color-rendering:auto;image-rendering:auto;shape-rendering:auto;text-rendering:auto;enable-background:accumulate"
       d="m 98.222637,-8.9838841 c -3.636489,0 -7.228603,0.1930328 -10.767013,0.5668693 4.537388,2.8607893 8.653407,5.9694171 12.346573,9.0873284 C 149.97968,1.511533 190.2974,42.349451 190.2974,92.730133 c 0,44.803537 -31.88777,82.054437 -74.23734,90.345767 l -0.99725,9.97399 c 48.1219,-8.03905 84.87385,-49.93785 84.87385,-100.319757 0,-56.117852 -45.59616,-101.7140171 -101.714023,-101.7140171 z M 28.395712,18.816577 C 8.7688605,37.366996 -3.4908814,63.633301 -3.4908814,92.730133 c 0,46.700397 31.5787624,86.107317 74.5182824,98.020407 l 9.851454,-7.57801 C 38.283428,175.07533 6.1483709,137.70783 6.1483709,92.730133 c 0,-24.805158 9.7751501,-47.295814 25.6869081,-63.839938 -0.966526,-3.157027 -2.113247,-6.597417 -3.439567,-10.073618 z"
       id="circle11529"
       inkscape:connector-curvature="0" />
  </g>
  <g
     inkscape:label="ala sotto"
     id="g964"
     inkscape:groupmode="layer"
     transform="translate(118.02709,-43.587444)"
     sodipodi:insensitive="true">
    <path
       inkscape:connector-curvature="0"
       id="path962"
       d="m -77.109897,64.639427 c 32.022834,35.317857 24.370608,78.880543 37.299573,104.039933 14.359585,27.94334 63.827927,21.40512 51.144238,68.85315 C 78.770638,156.776 -28.5135,83.508156 -77.109897,64.639427 Z"
       style="opacity:1;fill:#e94025;fill-opacity:1;fill-rule:evenodd;stroke:none;stroke-width:0.5291667;stroke-linecap:round;stroke-linejoin:round;stroke-miterlimit:4;stroke-dasharray:none;stroke-opacity:1"
       sodipodi:nodetypes="cscc" />
  </g>
  <g
     inkscape:groupmode="layer"
     id="layer4"
     inkscape:label="ghirigoro"
     transform="translate(118.02709,-43.587444)">
    <path
       style="opacity:1;fill:#802415;fill-opacity:1;fill-rule:evenodd;stroke:none;stroke-width:3.99999928;stroke-linecap:round;stroke-linejoin:round;stroke-miterlimit:4;stroke-dasharray:none;stroke-opacity:1"
       d="m -21.166677,285.09377 c -9.260417,0 -28.882356,-4.1742 -33.013391,-10.43194 -4.099501,-6.6373 -2.589118,-12.6555 1.84332,-17.42649 4.565706,-6.07605 7.507923,-9.06537 7.554929,-16.86635 -0.562069,-6.03091 -7.693813,-9.32613 -14.147359,-9.18414 -14.188035,-1.33122 -29.347385,2.23332 -42.716552,-3.37692 -11.51492,-5.14926 -14.87936,-19.02347 -7.94794,-28.16434 7.71657,-11.28178 22.111171,-17.31402 35.504974,-22.50057 5.947264,-2.28396 13.273538,-1.01304 18.200683,2.45083 1.104301,2.33204 -5.695838,0.47583 -6.72777,0.55227 -18.397081,-0.10368 -36.735028,9.46598 -44.418927,23.86251 -2.82309,5.08667 -3.59954,11.73484 1.20137,16.15886 5.82809,6.42869 15.875588,8.09543 24.872436,7.79656 11.308499,0.0264 23.587616,-1.98864 33.970112,2.91281 6.285905,3.0072 10.236225,10.27194 5.219212,15.60846 -4.923257,7.2299 -9.708873,10.33822 -10.395429,19.31227 1.889761,14.25237 23.062832,18.07664 31.000332,17.97327 1.322916,0 1.322916,1.32291 0,1.32291 z"
       id="path11600"
       inkscape:connector-curvature="0"
       sodipodi:nodetypes="cccccccccccccccccc" />
  </g>
  <g
     inkscape:groupmode="layer"
     id="layer2"
     inkscape:label="corpo ala sopra"
     transform="translate(118.02709,-43.587444)"
     sodipodi:insensitive="true">
    <path
       style="opacity:1;fill:#ff7f6b;fill-opacity:1;fill-rule:evenodd;stroke:none;stroke-width:0.5291667;stroke-linecap:round;stroke-linejoin:round;stroke-miterlimit:4;stroke-dasharray:none;stroke-opacity:1"
       d="m -17.247874,62.726358 c 26.2826506,52.538402 -6.716855,72.301632 -1.515152,96.113012 5.201703,23.81138 48.243857,45.57104 26.9523586,79.69539 1.684869,0.26887 3.4019984,0.99606 4.6777504,1.87534 1.428832,1.07284 2.517386,2.25279 3.322796,3.68608 27.493071,-38.90714 24.525885,-73.65089 43.780789,-77.60457 10.344092,-1.34797 11.530772,10.29504 7.74578,20.19205 3.672361,-2.86916 7.730694,-5.54453 9.276953,-12.66589 C 104.1168,166.07358 69.390187,159.09592 73.319723,114.23486 63.903511,122.53552 62.025396,137.214 63.43299,143.77517 54.860757,139.60619 51.208406,138.991 40.996114,143.56898 33.335006,112.24794 2.7136297,75.733379 -17.247874,62.726358 Z M 6.4840106,239.27632 c -0.29959,2.6e-4 -0.60026,0.0136 -0.900721,0.0403 -1.642657,1.54385 -2.5421349,2.82888 -3.2948877,5.17384 2.2326887,0.0294 4.4594487,0.76628 6.2900557,2.04484 1.8162244,1.27661 3.2108504,3.0657 4.0038884,5.13922 2.021362,-1.43311 2.92067,-2.71804 3.757909,-4.95784 -0.643625,-2.26498 -2.045274,-4.24026 -3.970816,-5.59552 -1.732648,-1.2068 -3.7883094,-1.8469 -5.8854284,-1.84485 z"
       id="path11506"
       inkscape:connector-curvature="0" />
    <path
       style="opacity:1;fill:#e94025;fill-opacity:1;fill-rule:evenodd;stroke:none;stroke-width:0.5291667;stroke-linecap:round;stroke-linejoin:round;stroke-miterlimit:4;stroke-dasharray:none;stroke-opacity:1"
       d="m 3.5499426,245.48918 -18.1777016,17.78858 c 2.054979,5.26807 -1.490631,14.29709 -2.647384,17.31625 -0.145134,0.37887 -0.272087,0.70977 -0.378272,0.99529 -0.393142,0.0767 -0.816401,0.38759 -1.122929,0.82527 -0.412302,0.58883 -0.523192,1.27588 -0.270266,1.66605 l 12.1253572,-17.31677 c -0.632891,-0.98652 -0.607671,-2.2574 0.06408,-3.21789 0.9158145,-1.30787 2.718199,-1.6258 4.026111,-0.71004 1.307868,0.91582 1.625801,2.7182 0.710034,4.02611 -0.673466,0.95901 -1.858092,1.41793 -3.0013685,1.16065 l -12.1424117,17.34107 c 0.453049,0.10428 1.060048,-0.23531 1.472779,-0.82373 0.306234,-0.43734 0.453163,-0.94111 0.390673,-1.33635 0.232304,-0.19767 0.500277,-0.43014 0.807186,-0.6966 2.441458,-2.11962 9.7293147,-8.56389 15.38252417,-8.43463 L 11.283837,250.9152 c -0.758311,-1.46196 -1.8571834,-2.72031 -3.2034204,-3.66902 -1.348211,-0.93915 -2.901556,-1.54178 -4.530474,-1.757 z"
       id="path11407"
       inkscape:connector-curvature="0" />
    <path
       style="opacity:1;fill:#ff7f6b;fill-opacity:1;fill-rule:evenodd;stroke:none;stroke-width:0.5291667;stroke-linecap:round;stroke-linejoin:round;stroke-miterlimit:4;stroke-dasharray:none;stroke-opacity:1"
       d="m 68.206091,157.24863 c 0,0 5.831617,4.10035 5.193817,9.84053 0,0 -6.890257,-2.50138 -5.193817,-9.84053 z"
       id="rect955"
       inkscape:connector-curvature="0" />
  </g>
  <g
     inkscape:groupmode="layer"
     id="layer3"
     inkscape:label="penna"
     sodipodi:insensitive="true"
     style="display:none"
     transform="translate(15.595564,17.181763)">
    <path
       inkscape:connector-curvature="0"
       style="fill:#000000;fill-opacity:1;stroke-width:0.26458326;stroke-linejoin:miter"
       d="m 143.44395,221.32385 c -3.65365,0 -7.26238,0.76856 -10.45681,2.26818 l -1.16675,0.54707 -0.8673,3.71243 c -1.10742,4.74127 -1.12861,5.52248 -0.0282,7.02115 0.21895,0.31767 0.53818,1.13991 0.68932,1.85158 0.27685,1.25249 0.81079,2.05118 2.01638,3.08492 l 0.62858,0.53055 0.52264,-1.26662 c 0.63422,-1.52534 1.25573,-2.15265 2.81954,-2.85545 1.12297,-0.50809 2.62025,-0.76206 4.37941,-0.76206 1.484,0 3.15446,0.18052 4.94428,0.54184 0.38844,0.0791 0.71332,0.14874 1.00289,0.22092 0.93368,0.23279 1.48669,0.48422 2.50512,1.08313 1.71707,1.00586 2.4232,1.78016 2.8769,3.17023 l 0.23024,0.77576 0.79526,-0.31062 c 1.29105,-0.48238 2.22643,-1.67088 2.48195,-3.07649 0.0706,-0.39395 0.37009,-1.23314 0.65824,-1.87527 0.51981,-1.08723 0.52264,-1.22156 0.15397,-3.42731 -0.23166,-1.25164 -0.53818,-3.44737 -0.71192,-4.89588 l -0.30934,-2.58217 -1.79956,-0.89004 c -0.99725,-0.51868 -2.11159,-1.0303 -2.46854,-1.1707 -0.72463,-0.29042 -2.01017,-0.66446 -3.24656,-0.97281 -1.03256,-0.25751 -2.02994,-0.46924 -2.63747,-0.5482 -1.00148,-0.11724 -2.0065,-0.17417 -3.00855,-0.17417 z"
       id="path11354" />
    <path
       inkscape:connector-curvature="0"
       style="fill:#000000;fill-opacity:1;stroke-width:0.26458326;stroke-linejoin:miter"
       d="m 142.19527,236.31076 c -2.98241,0 -5.38103,0.8389 -6.54792,2.39935 -0.30228,0.40779 -0.67377,2.29636 -1.54672,8.0652 -0.64128,4.14666 -1.70209,11.06142 -2.3811,15.36946 -0.99724,6.2692 -1.18652,7.98137 -0.99724,8.53199 0.14125,0.38845 0.6992,1.17862 1.25574,1.76192 4.18532,4.43897 7.39487,10.97288 8.93947,18.31495 0.50992,2.36983 0.75147,3.03821 1.17805,3.26043 0.0283,0.0155 0.0565,0.0254 0.0848,0.0339 0.0112,0.003 0.0282,0.004 0.0424,0.004 0.22176,0 0.27968,-0.60795 0.44494,-3.6379 0.0989,-1.84795 0.35172,-6.37819 0.57208,-10.06509 0.82068,-13.80574 0.80231,-12.68348 0.28815,-13.60752 -0.94215,-1.71173 -0.26131,-4.50205 1.21902,-4.95461 0.17374,-0.0565 0.34183,-0.0819 0.50286,-0.0819 0.113,0 0.23448,0.0155 0.34607,0.0424 1.63571,0.40808 2.33929,3.66374 0.76276,5.38088 -0.52122,0.56642 -0.56077,0.81729 -0.85458,5.77827 -0.5184,8.30582 -1.2176,19.61703 -1.23172,19.90464 -0.007,0.11301 -0.0848,0.18166 -0.16951,0.18166 -0.0141,0 -0.0283,-0.002 -0.0424,-0.007 -0.0141,-0.004 -0.0282,-0.0112 -0.0424,-0.0184 -0.0424,-0.0268 -0.113,-0.0452 -0.17233,-0.0622 -0.0989,-0.0268 -0.22035,-0.0395 -0.32629,-0.0395 -0.0283,0 -0.0565,0.001 -0.0848,0.003 -0.82775,0.0678 0.0141,1.88571 1.7271,3.77125 2.25962,2.44234 8.73691,6.73832 15.58471,10.32165 5.90409,3.09271 9.00022,4.3181 15.99068,6.27867 0.64977,0.18617 1.16393,0.32855 1.57949,0.43223 0.60315,0.15029 0.99725,0.21866 1.28964,0.21866 0.31924,0 0.51699,-0.0805 0.73452,-0.22572 0.94357,-0.6403 0.97041,-1.73569 0.0989,-3.75168 -1.32496,-3.10983 -3.45802,-5.57664 -8.32404,-9.57788 -3.91737,-3.21358 -7.29642,-6.41896 -7.12988,-6.73925 0.003,-0.007 0.0424,-0.007 0.0989,-0.007 0.32206,0 1.41112,0.0763 2.70175,0.1962 6.13137,0.56967 10.63705,0.84201 14.15962,0.84201 1.83417,0 3.40179,-0.0735 4.7937,-0.21796 1.38569,-0.13984 3.46521,-0.52856 4.60216,-0.88763 4.11441,-1.25461 5.65478,-3.25965 5.16082,-6.66166 -0.25002,-1.78151 -1.48867,-4.05461 -4.36218,-8.01504 -2.23137,-3.10658 -2.77406,-3.97726 -3.19373,-5.25857 -0.59184,-1.77835 -0.45765,-2.86292 0.43789,-3.84521 1.04103,-1.13256 2.62208,-1.69094 7.02422,-2.41109 5.23018,-0.87817 7.74956,-1.76282 10.31147,-3.64332 2.20693,-1.59038 2.66544,-2.16659 4.22092,-5.15914 1.52807,-2.93842 1.9928,-4.48455 2.13391,-7.14866 0.0565,-1.08582 -0.0282,-1.8934 -0.17516,-1.93194 -0.004,-0.001 -0.007,-0.002 -0.0112,-0.002 -0.0283,0 -0.0565,0.0297 -0.0989,0.0876 -0.0706,0.14239 -0.24578,0.77704 -0.38139,1.38513 -0.41669,1.88786 -1.47538,4.14295 -2.5917,5.46324 -2.55329,3.0393 -5.90198,4.69193 -12.7687,6.28026 -6.55146,1.503 -9.24812,2.25027 -10.4256,2.90512 -1.04245,0.56713 -1.23314,0.76164 -1.77061,1.79455 -1.24161,2.38624 -0.74157,4.29803 2.79342,10.68413 3.42171,6.16892 3.99449,7.98288 3.19811,10.08029 -0.46896,1.24938 -1.78629,2.21609 -3.85225,2.83883 -1.56028,0.47164 -3.145,0.70824 -5.16152,0.70824 -2.25087,0 -5.03934,-0.29494 -8.93256,-0.88707 -5.20121,-0.79893 -7.14415,-1.02352 -9.28935,-1.02352 -0.27404,0 -0.5523,0.004 -0.84046,0.0112 -1.86821,0.0226 -2.49128,0.26527 -2.91744,1.08482 -0.87012,1.67386 2.28223,5.5763 8.96547,11.04269 1.51522,1.26308 3.46281,2.9996 4.31979,3.87533 1.70507,1.76895 3.10347,3.60501 2.96462,3.87194 -0.0424,0.0932 -0.113,0.14464 -0.14831,0.14464 -0.003,0 -0.007,-3.8e-4 -0.007,-10e-4 -0.002,-6.6e-4 -0.004,-0.001 -0.007,-0.002 -0.0141,-0.0112 -0.24295,-0.0706 -0.58902,-0.15622 -0.30935,-0.0777 -0.71615,-0.17487 -1.15545,-0.27545 -0.0989,-0.0226 -0.19069,-0.0466 -0.28674,-0.0706 -6.6396,-1.65604 -13.93319,-5.54393 -27.29699,-14.54499 l -1.66128,-1.1125 1.35462,-3.8667 c 1.68416,-4.84879 3.2813,-8.18152 5.26675,-11.086 2.51854,-3.66818 2.49001,-3.57011 2.12558,-6.65593 -0.70203,-6.13452 -1.00572,-15.20775 -0.82492,-24.9111 0.0424,-2.78266 0.0565,-5.33226 0.007,-5.67422 -0.0282,-0.35016 -0.37008,-1.02959 -0.76559,-1.52968 -0.94781,-1.17636 -3.45237,-2.53727 -5.68741,-3.09473 -0.12713,-0.0339 -0.26414,-0.0636 -0.3941,-0.0904 -1.33484,-0.27473 -2.61883,-0.40836 -3.80931,-0.40836 z"
       id="path10146" />
  </g>
</svg>
