<?xml version="1.0" encoding="UTF-8" standalone="no"?>
<!-- Created with Inkscape (http://www.inkscape.org/) -->

<svg
   xmlns:dc="http://purl.org/dc/elements/1.1/"
   xmlns:cc="http://creativecommons.org/ns#"
   xmlns:rdf="http://www.w3.org/1999/02/22-rdf-syntax-ns#"
   xmlns:svg="http://www.w3.org/2000/svg"
   xmlns="http://www.w3.org/2000/svg"
   xmlns:sodipodi="http://sodipodi.sourceforge.net/DTD/sodipodi-0.dtd"
   xmlns:inkscape="http://www.inkscape.org/namespaces/inkscape"
   version="1.1"
   id="svg8668"
   xml:space="preserve"
   width="4600"
   height="2900"
   viewBox="0 0 4599.9999 2900"
   sodipodi:docname="comunita.svg"
   inkscape:version="0.92.4 (5da689c313, 2019-01-14)"><metadata
     id="metadata8674"><rdf:RDF><cc:Work
         rdf:about=""><dc:format>image/svg+xml</dc:format><dc:type
           rdf:resource="http://purl.org/dc/dcmitype/StillImage" /><dc:title /></cc:Work></rdf:RDF></metadata><defs
     id="defs8672" /><sodipodi:namedview
     pagecolor="#ffffff"
     bordercolor="#666666"
     borderopacity="1"
     objecttolerance="10"
     gridtolerance="10"
     guidetolerance="10"
     inkscape:pageopacity="0"
     inkscape:pageshadow="2"
     inkscape:window-width="1699"
     inkscape:window-height="1056"
     id="namedview8670"
     showgrid="false"
     fit-margin-top="0"
     fit-margin-left="0"
     fit-margin-right="0"
     fit-margin-bottom="0"
     inkscape:zoom="0.089243696"
     inkscape:cx="2140.2791"
     inkscape:cy="881.01435"
     inkscape:window-x="129"
     inkscape:window-y="0"
     inkscape:window-maximized="1"
     inkscape:current-layer="g8676" /><g
     id="g8676"
     inkscape:groupmode="layer"
     inkscape:label="ink_ext_XXXXXX"
     transform="matrix(1.3333333,0,0,-1.3333333,-266.67176,3152.319)"><g
       id="g9782"
       transform="matrix(1.0255771,0,0,1.0255771,-71.153479,-289.48339)"
       style="stroke-width:0.97506076"><g
         id="g8684"
         transform="matrix(0.23007978,0,0,0.23007978,-33.794175,213.54866)"
         style="stroke-width:0.72926629"><path
           d="m 3149.16,1143.3 c 0,0 -2890.663,2893.17 -1095.53,4623.01 C 3848.76,7496.16 5267.59,5250.48 6248.8,5415.93 7490.83,5625.36 8027.97,8776.36 9884.65,8779.34 11997.2,8782.75 13547.8,7533.9 12721.9,4559.73 12112.7,2366.1 16300,4162.46 15685,1100.64 L 3149.16,1143.3"
           style="fill:#fff7f6;fill-opacity:1;fill-rule:nonzero;stroke:none;stroke-width:0.72926629"
           id="path8686"
           inkscape:connector-curvature="0" /></g><g
         id="g8688"
         transform="matrix(0.1407733,0,0,0.1407733,-33.794175,213.54866)"
         style="stroke-width:0.72926629"><path
           d="m 15451.5,2483.03 c -642.2,103.44 -1127.1,-121.57 -1593.3,-56.89 -371.9,51.57 -565.6,427.69 -1065.3,534.26 118.8,70.09 257.3,157.76 323.5,221.49 128.6,123.85 313.2,371.56 0,381.34 -225.4,7.03 -401,-368.42 -481.7,-579.66 -74,6.18 -154.1,6.65 -241.4,0.19 103.2,332.43 304.3,975.82 353.5,1099.38 66.9,168.21 -214.2,728.97 -545.6,99.64 -232.5,-441.37 -74.7,-951.5 40.3,-1216.78 -90.8,-14.62 -176.4,-35.71 -258.3,-61.36 -273.8,624.87 -1145.1,2406.2 -2089.44,2184.81 C 8864.14,4848.2 11070,3650.61 11626.3,2762.75 11171.8,2552.08 10772.5,2296.21 10082.2,2483.03 8247.81,2979.68 8102.3,1862.25 8102.3,1862.25 l 8197.7,-2.75 c 0,0 -206.2,520.2 -848.5,623.53"
           style="fill:#acd29a;fill-opacity:1;fill-rule:nonzero;stroke:none;stroke-width:0.72926629"
           id="path8690"
           inkscape:connector-curvature="0" /></g><path
         d="m 1827.4372,1129.1159 c 1.1766,-11.0974 16.9003,-10.6963 34.6562,-8.0356 17.7559,2.6607 13.1699,-2.0056 38.1458,-1.5242 24.9626,0.4813 33.3058,9.0116 34.3888,12.6217 0.976,3.1955 -11.1376,5.4685 -24.1069,8.1693 -1.6312,0.3343 -3.2624,0.6953 -4.9069,1.0429 -14.6139,3.2089 -24.5883,13.7408 -37.3036,22.8059 -12.0601,8.5865 -20.1759,47.9384 -20.1759,47.9384 l -35.4985,0.2099 c 0,0 11.1509,-35.5881 16.967,-47.9637 3.4095,-7.2802 -0.2273,-16.6262 -1.3771,-23.6323 -0.6151,-3.8106 -1.2167,-7.7147 -0.7889,-11.6323"
         style="fill:#ffb07b;fill-opacity:1;fill-rule:nonzero;stroke:none;stroke-width:0.09750606"
         id="path8692"
         inkscape:connector-curvature="0" /><path
         d="m 1862.0934,1121.0803 c 17.7559,2.6607 13.1699,-2.0056 38.1458,-1.5242 24.9626,0.4813 33.3058,9.0116 34.3888,12.6217 0.976,3.1955 -11.1376,5.4685 -24.1069,8.1693 l -0.1471,-0.2407 c 0,0 -15.7771,-9.1587 -36.4077,-7.7816 -16.8066,1.1232 -34.1347,7.5543 -45.7402,8.4234 -0.6151,-3.8106 -1.2167,-7.7147 -0.7889,-11.6323 1.1766,-11.0974 16.9003,-10.6963 34.6562,-8.0356"
         style="fill:#365da4;fill-opacity:1;fill-rule:nonzero;stroke:none;stroke-width:0.09750606"
         id="path8694"
         inkscape:connector-curvature="0" /><path
         d="m 1549.8804,1130.8808 c 0.7755,-11.1375 16.4857,-11.3381 34.3352,-9.3459 17.8496,1.9922 13.0897,-2.5003 38.0657,-2.9549 24.9626,-0.4679 33.6132,7.7549 34.8433,11.3114 1.083,3.1688 -10.9236,5.883 -23.786,9.0785 -1.6178,0.3878 -3.2356,0.8156 -4.8534,1.2301 -14.4936,3.7571 -24.0668,14.654 -36.4345,24.1898 -11.7125,9.0358 -2.0724,46.5131 -2.0724,46.5131 l -26.9414,12.722 c 0,0 -3.7036,-38.6259 -5.7092,-58.1614 -0.8156,-7.9996 -4.8,-16.0379 -6.2039,-23.0039 -0.7621,-3.7838 -1.5108,-7.6479 -1.2434,-11.5788"
         style="fill:#ffb07b;fill-opacity:1;fill-rule:nonzero;stroke:none;stroke-width:0.09750606"
         id="path8696"
         inkscape:connector-curvature="0" /><path
         d="m 1584.2156,1121.5349 c 17.8496,1.9922 13.0897,-2.5003 38.0657,-2.9549 24.9626,-0.4679 33.6132,7.7549 34.8433,11.3114 1.083,3.1688 -10.9236,5.883 -23.786,9.0785 l -0.1471,-0.2406 c 0,0 -16.1247,-8.5571 -36.6884,-6.3911 -16.7532,1.7515 -33.8272,8.8245 -45.3793,10.1214 -0.7621,-3.7838 -1.5108,-7.6479 -1.2434,-11.5788 0.7755,-11.1375 16.4857,-11.3381 34.3352,-9.3459"
         style="fill:#365da4;fill-opacity:1;fill-rule:nonzero;stroke:none;stroke-width:0.09750606"
         id="path8698"
         inkscape:connector-curvature="0" /><path
         d="m 1610.395,1687.0909 c 0,0 -7.4607,-36.1269 -14.9348,-219.3567 0,0 -13.8652,-33.9261 -23.9197,-75.4079 -10.0546,-41.4818 -17.1409,-214.5714 -17.1409,-214.5714 0,0 4.0111,-5.7787 16.1782,-6.5087 9.9342,-0.5963 17.6757,3.7611 17.6757,3.7611 0,0 69.8873,226.7051 103.9017,314.7186 34.0277,88.0216 53.963,213.6903 53.963,213.6903 l -135.7232,-16.3253"
         style="fill:#2b478b;fill-opacity:1;fill-rule:nonzero;stroke:none;stroke-width:0.09750606"
         id="path8700"
         inkscape:connector-curvature="0" /><path
         d="m 1694.4549,1671.6213 c 0,0 5.5086,-36.4745 61.9318,-210.96 0,0 -1.2568,-36.6243 3.6769,-79.022 4.9337,-42.3976 62.0522,-209.3235 62.0522,-209.3235 0,0 7.581,-2.6353 18.9593,0.3677 10.576,2.7917 18.879,9.1561 18.879,9.1561 0,0 -21.9007,238.5874 -20.4567,332.9372 1.444,94.3511 -23.3716,219.1508 -23.3716,219.1508 l -121.6709,-62.3063"
         style="fill:#2b478b;fill-opacity:1;fill-rule:nonzero;stroke:none;stroke-width:0.09750606"
         id="path8702"
         inkscape:connector-curvature="0" /><path
         d="m 1794.3855,2176.9436 c -8.8512,5.6289 -19.7214,6.7387 -27.3826,6.6718 2.0724,1.9253 5.9765,2.4735 5.9765,2.4735 -4.7063,0.9493 -15.4963,-3.2222 -15.4963,-3.2222 -64.5391,28.6528 -79.7413,-67.7347 -79.4739,-90.3173 0.2407,-22.5827 -0.8824,-48.508 -34.7497,-67.0528 -66.6249,-36.5012 -15.5498,-108.5813 -15.5498,-108.5813 -11.9933,-34.4155 32.4099,-76.5724 32.4099,-76.5724 -0.7621,18.2773 83.1374,134.7071 128.3696,161.2741 11.445,15.1621 16.6194,42.6918 17.0071,44.8712 -2.9415,-21.9007 -7.3136,-34.0411 -11.0172,-40.8199 38.7876,32.2762 23.3448,156.3672 -0.094,171.2753"
         style="fill:#c65447;fill-opacity:1;fill-rule:nonzero;stroke:none;stroke-width:0.09750606"
         id="path8704"
         inkscape:connector-curvature="0" /><path
         d="m 1780.3198,2014.0917 c 0.2273,-0.107 -21.152,-11.2178 -37.25,-6.819 -15.1353,4.1315 -25.0295,23.7593 -24.8155,23.7994 6.4044,1.2702 8.2629,10.0813 8.1158,47.933 l 2.9014,-0.5749 46.9703,-9.3058 1.7516,-0.3343 c 0,0 -1.1098,-15.3359 -1.1499,-29.7893 -0.013,-3.0485 0.04,-6.0568 0.1471,-8.878 0.3209,-8.3833 1.2568,-15.0551 3.3292,-16.0311"
         style="fill:#ffb07b;fill-opacity:1;fill-rule:nonzero;stroke:none;stroke-width:0.09750606"
         id="path8706"
         inkscape:connector-curvature="0" /><path
         d="m 1776.8435,2039.0008 c -0.013,-3.0485 0.04,-6.0568 0.1471,-8.878 -27.3158,1.0964 -43.0662,32.3431 -49.016,46.0478 l 48.2672,-7.0462 1.7516,-0.3343 c 0,0 -1.1098,-15.3359 -1.1499,-29.7893"
         style="fill:#ea8e50;fill-opacity:1;fill-rule:nonzero;stroke:none;stroke-width:0.09750606"
         id="path8708"
         inkscape:connector-curvature="0" /><path
         d="m 1724.2442,2083.7383 c 0,0 -14.293,22.5692 -17.7158,41.8762 -2.4602,13.7849 4.5593,64.8599 55.9018,57.5062 0,0 14.908,-1.4707 28.9202,-10.937 11.151,-7.5276 27.2356,-23.7727 9.239,-68.3497 l -4.6663,-15.0551 -71.6789,-5.0406"
         style="fill:#c65447;fill-opacity:1;fill-rule:nonzero;stroke:none;stroke-width:0.09750606"
         id="path8710"
         inkscape:connector-curvature="0" /><path
         d="m 1780.868,2046.0871 c 0,0 -63.9642,8.4501 -58.0812,48.2004 5.883,39.7503 1.5777,67.6143 42.6651,63.8973 41.0873,-3.7169 46.7564,-20.0556 48.0266,-33.8004 1.2568,-13.7448 -15.8306,-79.4739 -32.6105,-78.2973"
         style="fill:#ffb07b;fill-opacity:1;fill-rule:nonzero;stroke:none;stroke-width:0.09750606"
         id="path8712"
         inkscape:connector-curvature="0" /><path
         d="m 1794.6529,2154.8289 c 0,0 -24.4144,-44.0289 -52.2516,-46.9169 -27.8373,-2.9014 -38.3866,6.0167 -38.3866,6.0167 0,0 22.9972,13.2635 31.5142,41.1408 0,0 49.2566,23.9064 59.124,-0.2406"
         style="fill:#c65447;fill-opacity:1;fill-rule:nonzero;stroke:none;stroke-width:0.09750606"
         id="path8714"
         inkscape:connector-curvature="0" /><path
         d="m 1789.7593,2151.6868 c 0,0 11.4986,-12.3543 13.1699,-22.9437 1.6713,-10.6027 0,-31.6478 6.1772,-31.8483 0,0 17.8762,29.7358 5.7626,49.8717 -12.849,21.3392 -25.1097,4.9203 -25.1097,4.9203"
         style="fill:#c65447;fill-opacity:1;fill-rule:nonzero;stroke:none;stroke-width:0.09750606"
         id="path8716"
         inkscape:connector-curvature="0" /><g
         id="g8718"
         transform="matrix(0.13956729,0,0,0.13956729,-33.794175,213.54866)"
         style="stroke-width:0.72926629"><path
           d="m 16109.1,10017.4 c -96.2,203.7 -363.5,372.2 -588.6,372.2 -166.3,0.1 -313,-56.7 -426.5,-149.1 -65,-52.9 -162.8,-18 -180.4,63.8 l -197.2,915.8 c -28.7,133.5 -160.2,218.4 -293.8,189.7 l -3189.2,-686.4 c -130.5,-28.1 -213.5,-156.6 -185.4,-287.1 l 685.6,-3185.77 c 19.7,-91.13 86.5,-159.87 169.3,-186.28 l -41.9,-11.87 h 123.9 l 1,0.18 c 15.1,0.44 30.4,2.18 45.8,5.49 l 69.4,14.94 v 0 0 l 818.6,176.17 c 114.9,24.72 161.4,163.68 84.3,252.28 -74.6,85.57 -128.3,191.57 -151.1,311.64 -64.4,338.36 144.8,673.52 477.2,763.59 369.8,100.19 743.2,-130.65 822.8,-500.38 29.9,-139.09 13.9,-277.37 -37.9,-399.01 -20.1,-47.26 -3.5,-96.34 31,-124.31 l -47.7,-23.3 110.7,0.07 v 0.01 c 8.2,-0.2 16.7,0.5 25.5,2.38 l 977.3,210.35 c 133.7,28.76 218.6,160.36 189.9,293.94 l -195.9,910.09 c -18.1,84.22 58.7,158.04 142.1,136.6 96.5,-24.79 200.1,-28.14 304,-5.76 409,88.02 648.1,535.62 457.2,940.05"
           style="fill:#d86713;fill-opacity:1;fill-rule:nonzero;stroke:none;stroke-width:0.72926629"
           id="path8720"
           inkscape:connector-curvature="0" /></g><g
         id="g8722"
         transform="matrix(0.13860194,0,0,0.13860194,-33.794175,213.54866)"
         style="stroke-width:0.72926629"><path
           d="m 15515.1,10461.9 c -167.5,0.1 -315.2,-57 -429.5,-150.1 -65.3,-53.3 -163.9,-18.2 -181.7,64.2 l -198.4,922.1 c -28.9,134.5 -161.4,220 -295.9,191.1 L 11198.2,10798 c -131.4,-28.3 -215,-157.7 -186.7,-289 l 690.4,-3208.01 c 29.4,-136.4 163.7,-223.17 300.1,-193.82 l 894.2,192.44 c 115.7,24.89 162.6,164.82 84.9,254.04 -75.1,86.17 -129.1,192.9 -152.1,313.81 -64.9,340.7 145.7,678.21 480.5,768.9 372.4,100.89 748.4,-131.56 828.5,-503.86 30.2,-140.07 14,-279.3 -38.2,-401.79 -33.9,-79.59 35.8,-164.35 120.4,-146.16 l 984.1,211.81 c 134.5,28.96 220.1,161.48 191.1,295.99 l -197.1,916.43 c -18.4,84.8 59,159.13 143,137.54 97.2,-24.96 201.4,-28.33 306.2,-5.8 411.8,88.64 652.5,539.35 460.2,946.58 -96.8,205.1 -365.9,374.8 -592.6,374.8"
           style="fill:#f1a34f;fill-opacity:1;fill-rule:nonzero;stroke:none;stroke-width:0.72926629"
           id="path8724"
           inkscape:connector-curvature="0" /></g><path
         d="m 1953.7611,1832.6281 c 0,0 27.7704,-4.5459 35.0439,-22.596 7.2735,-18.0635 -2.888,-30.2841 -6.7922,-30.2439 -3.9041,0.04 -11.405,2.9281 -14.908,12.3008 -3.5164,9.3593 -13.3437,40.5391 -13.3437,40.5391"
         style="fill:#ffb07b;fill-opacity:1;fill-rule:nonzero;stroke:none;stroke-width:0.09750606"
         id="path8726"
         inkscape:connector-curvature="0" /><path
         d="m 1571.5405,1752.0712 c 0,0 31.1665,0.04 42.3843,-18.3843 11.2044,-18.4245 2.313,-33.6266 -1.9655,-34.2818 -4.2785,-0.6551 -12.9961,1.1499 -18.5181,10.7498 -5.5219,9.6 -21.9007,41.9163 -21.9007,41.9163"
         style="fill:#ffb07b;fill-opacity:1;fill-rule:nonzero;stroke:none;stroke-width:0.09750606"
         id="path8728"
         inkscape:connector-curvature="0" /><path
         d="m 1954.5366,1811.6766 c -2.7543,0.5883 -14.8412,2.0056 -30.2038,4.4257 -28.3052,4.4389 -67.748,12.2606 -80.9848,24.4679 -3.5832,3.3158 -11.9398,21.5531 -20.6172,42.4645 -8.771,-46.2885 -9.2657,-81.8004 -6.9392,-108.8354 l -191.2507,-41.1542 c 16.3921,33.1453 41.7826,74.2594 37.0227,107.5251 -1.7649,12.3275 -8.5303,29.2545 -11.0573,48.2672 -0.2006,1.6312 -0.3878,3.2758 -0.5349,4.9337 -26.821,-22.0879 -57.8003,-46.4489 -58.5491,-51.3157 -1.2301,-8.1694 19.6546,-98.5802 19.6546,-98.5802 -5.1878,-11.9398 -27.717,-9.4262 -27.717,-9.4262 -21.0985,15.0685 -52.1447,100.4788 -49.6578,119.398 2.4869,18.9192 79.4472,126.7517 98.0722,152.5165 18.3977,25.4707 85.5708,24.8289 87.1886,24.8156 h 0.013 c 0.013,0 0.013,0 0.027,0 53.4149,-32.0757 58.2282,-5.4151 58.2282,-5.4151 0,0 48.2005,-9.1587 56.4768,-23.3982 8.2896,-14.2395 44.6171,-122.2058 47.1842,-126.003 5.3749,-7.9554 93.1786,-39.7637 94.7563,-48.9759 1.5911,-9.2122 -13.2367,-17.3816 -21.1119,-15.7103"
         style="fill:#80bdcc;fill-opacity:1;fill-rule:nonzero;stroke:none;stroke-width:0.09750606"
         id="path8730"
         inkscape:connector-curvature="0" /><path
         d="m 1691.2192,1747.3247 -66.6783,-14.2796 c 16.6061,33.0651 38.4266,74.2327 33.6534,107.2978 -1.7783,12.3409 -5.7894,26.9414 -7.7148,46.0477 -0.1872,1.8318 -0.5081,7.3805 -0.5081,7.3805 0,0 47.2244,-37.1698 48.0534,-77.3881 0.4412,-20.8712 -3.2089,-48.1603 -6.8056,-69.0583"
         style="fill:#5f9aa8;fill-opacity:1;fill-rule:nonzero;stroke:none;stroke-width:0.09750606"
         id="path8732"
         inkscape:connector-curvature="0" /><path
         d="m 1926.0977,1815.8616 c -28.6395,4.439 -68.577,12.2607 -81.9742,24.4679 -3.6234,3.3292 -12.0868,21.5799 -20.8712,42.518 0,0 -3.0752,33.6534 5.7225,32.3965 8.7978,-1.2568 21.7404,-60.9424 30.9793,-64.7129 8.263,-3.3827 53.9631,-20.9247 66.1436,-34.6695"
         style="fill:#5f9aa8;fill-opacity:1;fill-rule:nonzero;stroke:none;stroke-width:0.09750606"
         id="path8734"
         inkscape:connector-curvature="0" /><g
         id="g8736"
         transform="matrix(0.2070452,0,0,0.2070452,-33.794175,213.54866)"
         style="stroke-width:0.72926629"><path
           d="m 16280.6,1546.5 c -19.5,-65.74 -109.6,-109.53 -121.7,-189.86 -5.9,-39.2 -20.5,-69.62 -39.1,-90.54 h -280.3 c 2.8,15.43 15.1,32.03 51.5,39.97 77.9,17.05 107.2,111.4 102.5,199.03 -2.1,36.68 -1.1,78.59 0.7,114.82 2.4,50.18 6.5,89.57 6.5,89.57 l 165.5,38.94 17.4,-22.34 16.6,-21.51 c 0,0 99.8,-92.41 80.4,-158.08"
           style="fill:#2c3a64;fill-opacity:1;fill-rule:nonzero;stroke:none;stroke-width:0.72926629"
           id="path8738"
           inkscape:connector-curvature="0" /></g><g
         id="g8740"
         transform="matrix(0.19038965,0,0,0.19038965,-33.794175,213.54866)"
         style="stroke-width:0.72926629"><path
           d="m 16285.5,1376.86 h -616.6 c 13.9,16.37 37.6,32.17 77.7,38.7 94.9,15.38 259.2,70.43 295.9,191.79 1.2,3.86 2.2,7.86 3.1,11.93 29.1,129.64 240.8,-39.75 240.8,-39.75 0,0 0.7,-5.19 1.7,-13.97 3.7,-36.52 11.9,-135.54 -2.6,-188.7"
           style="fill:#2c3a64;fill-opacity:1;fill-rule:nonzero;stroke:none;stroke-width:0.72926629"
           id="path8742"
           inkscape:connector-curvature="0" /></g><g
         id="g8744"
         transform="matrix(0.19471231,0,0,0.19471231,-33.794175,213.54866)"
         style="stroke-width:0.72926629"><path
           d="m 15421.7,4705.3 c 0,0 31.4,-392.23 68.4,-863.7 50.2,-640.46 110.5,-1427.18 116.5,-1576.19 10.4,-258.81 51.8,-672.74 51.8,-672.74 0,0 98.2,-98.33 295,-56.92 0,0 175.2,590.95 225.3,1216.17 0.8,10.3 1.5,20.6 2.4,30.9 46.5,636.54 118.9,1976.8 118.9,1976.8 l -878.3,-54.32"
           style="fill:#35488b;fill-opacity:1;fill-rule:nonzero;stroke:none;stroke-width:0.72926629"
           id="path8746"
           inkscape:connector-curvature="0" /></g><g
         id="g8748"
         transform="matrix(0.19471231,0,0,0.19471231,-33.794175,213.54866)"
         style="stroke-width:0.72926629"><path
           d="m 15421.7,4705.3 c 0,0 31.4,-392.23 68.4,-863.7 l 688.6,-1089.68 c 0.8,10.3 1.5,20.6 2.4,30.9 46.5,636.54 118.9,1976.8 118.9,1976.8 l -878.3,-54.32"
           style="fill:#2c3a64;fill-opacity:1;fill-rule:nonzero;stroke:none;stroke-width:0.72926629"
           id="path8750"
           inkscape:connector-curvature="0" /></g><g
         id="g8752"
         transform="matrix(0.20577902,0,0,0.20577902,-33.794175,213.54866)"
         style="stroke-width:0.72926629"><path
           d="m 14728.2,4408.22 c 0,0 536.2,-1344.13 888.7,-1975.75 352.6,-631.69 462.8,-807.97 462.8,-807.97 0,0 202,80.83 220.3,135.93 0,0 -134.8,1219.45 -370.9,1516.71 -133.4,167.96 -290.2,672.04 -297.5,848.31 -7.3,176.28 -47.7,525.15 -47.7,525.15 l -855.7,-242.38"
           style="fill:#35488b;fill-opacity:1;fill-rule:nonzero;stroke:none;stroke-width:0.72926629"
           id="path8754"
           inkscape:connector-curvature="0" /></g><g
         id="g8756"
         transform="matrix(0.194842,0,0,0.194842,-33.794175,213.54866)"
         style="stroke-width:0.72926629"><path
           d="m 15845.3,6846.84 c -25.2,148.66 -26,236.78 -26,236.78 l 287.3,231.54 c -10.6,-318.38 193.4,-471.48 193.4,-471.48 0,0 -382.9,-188.46 -604.2,-118.66 0,0 54.5,69.64 149.5,121.82"
           style="fill:#935c2f;fill-opacity:1;fill-rule:nonzero;stroke:none;stroke-width:0.72926629"
           id="path8758"
           inkscape:connector-curvature="0" /></g><g
         id="g8760"
         transform="matrix(0.19431788,0,0,0.19431788,-33.794175,213.54866)"
         style="stroke-width:0.72926629"><path
           d="m 15794.2,7108.02 c 0,0 366.5,-60.88 400.9,167.93 34.4,228.82 104.9,375.07 -127.7,423.62 -232.5,48.54 -291.2,-31.92 -321.2,-105.5 -30.1,-73.59 -46.4,-464.31 48,-486.05"
           style="fill:#a16d3c;fill-opacity:1;fill-rule:nonzero;stroke:none;stroke-width:0.72926629"
           id="path8762"
           inkscape:connector-curvature="0" /></g><g
         id="g8764"
         transform="matrix(0.17294257,0,0,0.17294257,-33.794175,213.54866)"
         style="stroke-width:0.72926629"><path
           d="m 16300,7456.53 -87.7,54.28 c 0,0 -109.3,161.37 -296,61.11 0,0 -73.9,-47.14 -24.3,-86.63 49.7,-39.48 36.3,-17.18 105,-74.37 68.8,-57.19 157.7,-77.62 215.2,-46.09 l 73.6,6.95 14.2,84.75"
           style="fill:#a16d3c;fill-opacity:1;fill-rule:nonzero;stroke:none;stroke-width:0.72926629"
           id="path8766"
           inkscape:connector-curvature="0" /></g><g
         id="g8768"
         transform="matrix(0.19563219,0,0,0.19563219,-33.794175,213.54866)"
         style="stroke-width:0.72926629"><path
           d="m 14317.6,6576.8 c 19.9,62.46 29.4,67.96 29.4,67.96 0,0 626.8,-74.05 685.9,-78.42 59,-4.38 879.7,164.7 879.7,164.7 l 387.4,-470.51 c 0,0 -1142.4,-43.07 -1291.9,-29.06 -247,23.15 -695.1,253.17 -695.1,253.17 0,0 -11.1,43.11 4.6,92.16"
           style="fill:#d3782f;fill-opacity:1;fill-rule:nonzero;stroke:none;stroke-width:0.72926629"
           id="path8770"
           inkscape:connector-curvature="0" /></g><g
         id="g8772"
         transform="matrix(0.1972674,0,0,0.1972674,-33.794175,213.54866)"
         style="stroke-width:0.72926629"><path
           d="m 16298.9,4779.6 c 1.1,-24.08 -48.5,-50.51 -70.1,-60.2 -162.2,-72.72 -313.3,-123.29 -484,-139.69 -202.6,-20.81 -441.9,24.74 -524,23.66 -8.8,0 -16.4,3.25 -22.9,8.74 -5.5,4.4 -9.9,251.78 -5.5,563.67 0,12.04 0,25.22 1.1,37.27 v 4.33 c 0.3,32.48 0.8,65.49 1.5,98.81 2,91.16 5.4,184.74 9.4,277.74 5.9,137.1 14.1,271.84 25.4,391.21 11.8,124.67 26.7,232.65 45.7,309.23 43.8,176.21 144.5,292.27 236.4,377.64 l 75.5,66.7 c 75.6,-15.29 155.5,-10.89 235.4,28.47 86.5,42.69 180.6,88.68 195.9,77.72 116.7,-87.21 195.2,-285.21 235.5,-536.84 21.7,-135.43 32.2,-286.35 31.6,-443.96 -0.2,-60.44 -2.1,-121.79 -5.5,-183.72 -19.5,-332.34 0.5,-620.48 11.9,-787.95 3.3,-48.16 6,-86.45 6.7,-112.83"
           style="fill:#e69d43;fill-opacity:1;fill-rule:nonzero;stroke:none;stroke-width:0.72926629"
           id="path8774"
           inkscape:connector-curvature="0" /></g><g
         id="g8776"
         transform="matrix(0.17593086,0,0,0.17593086,-33.794175,213.54866)"
         style="stroke-width:0.72926629"><path
           d="m 16123.7,8804.23 -2559.9,406.56 c -109,17.29 -211.2,-56.94 -228.5,-165.79 L 13222,8331.48 c -5.3,-33.05 3.2,-125.93 3.2,-125.93 l 92.2,-13.73 c 5.3,-1.14 10.6,-1.95 16,-2.39 v 0 0 c 16.7,-1.34 34.1,0.74 51.5,7.03 84.9,30.72 178.9,40.06 274.5,22.52 269.5,-49.41 458.1,-300.85 429.3,-573.31 -31.9,-303.06 -310.3,-513.75 -607.4,-466.57 -111.8,17.75 -209.8,69.39 -285.1,142.78 -14.6,14.23 -32.2,21.74 -49.9,23.57 v 0 l -96.6,14.49 -120.2,-870.38 c -17.1,-107.35 56.1,-208.18 163.5,-225.24 l 731.3,-116.14 c 67.7,-10.74 100.4,-88.92 60.5,-144.65 -46.1,-64.44 -78.3,-140.29 -91.6,-223.86 -52.2,-328.64 211.1,-634.5 566,-609.04 178.6,12.77 380.4,162.61 445.1,329.62 47.9,123.34 47.9,248.44 11.9,359.19 -20.6,63.31 33.4,125.91 99.2,115.46 l 735.8,-116.86 c 107.3,-17.05 208.2,56.12 225.2,163.43 l 407,2562.79 c 16.6,104.83 -54.8,203.31 -159.7,219.97"
           style="fill:#4a75cb;fill-opacity:1;fill-rule:nonzero;stroke:none;stroke-width:0.72926629"
           id="path8778"
           inkscape:connector-curvature="0" /></g><g
         id="g8780"
         transform="matrix(0.19396356,0,0,0.19396356,-33.794175,213.54866)"
         style="stroke-width:0.72926629"><path
           d="m 16300,6422.36 c 0,0 -178,-830.6 -846.2,-1015.63 2.1,92.7 5.5,187.88 9.6,282.47 6,139.43 14.2,276.47 25.7,397.87 12,6.16 23.1,10.95 33.4,14.32 226.7,74.77 777.5,320.97 777.5,320.97"
           style="fill:#d3782f;fill-opacity:1;fill-rule:nonzero;stroke:none;stroke-width:0.72926629"
           id="path8782"
           inkscape:connector-curvature="0" /></g><g
         id="g8784"
         transform="matrix(0.17490936,0,0,0.17490936,-33.794175,213.54866)"
         style="stroke-width:0.72926629"><path
           d="m 14795.5,5546.74 c 48.1,124.06 48.2,249.88 12,361.28 -20.7,63.68 33.6,126.63 99.8,116.14 l 740.1,-117.55 c 107.9,-17.14 209.3,56.46 226.4,164.38 l 409.5,2577.76 c 16.7,105.44 -55.2,204.5 -160.6,221.24 l -2575,408.95 c -109.5,17.38 -212.3,-57.28 -229.7,-166.76 l -114,-717.69 c -14.7,-92.84 75.5,-167.8 163.9,-135.8 85.3,30.9 180,40.29 276.1,22.65 271.1,-49.69 460.7,-302.61 431.8,-576.66 -32.1,-304.83 -312.2,-516.74 -611,-469.29 -112.4,17.86 -210.9,69.78 -286.8,143.61 -49.2,47.97 -132,20.67 -142.8,-47.23 l -125.4,-789.95 c -17.1,-107.97 56.5,-209.4 164.4,-226.55 l 735.6,-116.82 c 68.1,-10.81 101,-89.44 60.9,-145.5 -46.4,-64.82 -78.8,-141.1 -92.1,-225.17 -52.6,-330.55 212.3,-638.19 569.2,-612.59 179.7,12.84 382.7,163.57 447.7,331.55"
           style="fill:#699dee;fill-opacity:1;fill-rule:nonzero;stroke:none;stroke-width:0.72926629"
           id="path8786"
           inkscape:connector-curvature="0" /></g><g
         id="g8788"
         transform="matrix(0.17297465,0,0,0.17297465,-33.794175,213.54866)"
         style="stroke-width:0.72926629"><path
           d="m 16300,6854.67 -107.1,17.7 c 0,0 -122,176.61 -334.7,77.53 0,0 -84.4,-47.18 -28.6,-91.35 55.8,-44.17 40.9,-19.82 118.2,-83.67 77.3,-63.86 177.9,-89.35 243.2,-58.14 l 83.5,4.34 25.5,133.59"
           style="fill:#a16d3c;fill-opacity:1;fill-rule:nonzero;stroke:none;stroke-width:0.72926629"
           id="path8790"
           inkscape:connector-curvature="0" /></g><g
         id="g8792"
         transform="matrix(0.19633815,0,0,0.19633815,-33.794175,213.54866)"
         style="stroke-width:0.72926629"><path
           d="m 14288.3,5991.07 c 3,69.4 40,76.81 40,76.81 0,0 714.5,47.26 776.1,59.2 61.6,11.96 630.6,483.42 630.6,483.42 0,0 220.1,197.78 374.3,131.04 134,-57.99 175.9,-172.41 182.7,-277.63 8,-125.39 -62.8,-242.61 -176.6,-295.78 -255.5,-119.36 -766.6,-353.66 -883,-373.87 -259,-44.99 -924.9,99.21 -924.9,99.21 0,0 -21.6,43.09 -19.2,97.6"
           style="fill:#e69d43;fill-opacity:1;fill-rule:nonzero;stroke:none;stroke-width:0.72926629"
           id="path8794"
           inkscape:connector-curvature="0" /></g><g
         id="g8796"
         transform="matrix(0.19538618,0,0,0.19538618,-33.794175,213.54866)"
         style="stroke-width:0.72926629"><path
           d="m 15660,7552.53 c 0,0 -147.9,109.7 -51.4,280.15 0,0 116.3,-38.59 281.6,0 165.4,38.59 313.3,-16.08 332.6,-73.96 0,0 64.3,-25.74 70.8,-122.21 6.4,-96.47 -187.1,-400.36 -187.1,-400.36 0,0 -41.3,51.44 -30.1,86.81 11.3,35.38 46.7,114.17 3.3,114.17 -43.4,0 -57.9,-64.33 -75.6,-38.59 -17.6,25.73 14.5,133.46 -36.9,151.14 -51.5,17.69 -249.3,-29.68 -307.2,2.85"
           style="fill:#2c3a64;fill-opacity:1;fill-rule:nonzero;stroke:none;stroke-width:0.72926629"
           id="path8798"
           inkscape:connector-curvature="0" /></g><path
         d="m 2043.5302,491.73393 -127.3133,578.04397 h 35.0439 c 8.3164,0 15.1086,6.7922 15.1086,15.1086 v 19.5209 c 0,8.303 -6.7922,15.0952 -15.1086,15.0952 h -444.5536 c -8.303,0 -15.0952,-6.7922 -15.0952,-15.0952 v -19.5209 c 0,-8.3164 6.7922,-15.1086 15.0952,-15.1086 h 45.1253 L 1424.5192,491.73393 c -1.7114,-7.76822 3.2222,-15.53644 10.9637,-17.24786 7.7549,-1.72479 15.4964,3.23564 17.2078,11.00387 l 128.6904,584.28796 h 305.2872 l 128.6904,-584.28796 c 1.7114,-7.76823 9.4529,-12.72866 17.1944,-11.00387 v 0 c 7.7548,1.71142 12.6885,9.47964 10.9771,17.24786"
         style="fill:#c3e0f4;fill-opacity:1;fill-rule:nonzero;stroke:none;stroke-width:0.09750606"
         id="path8800"
         inkscape:connector-curvature="0" /><g
         id="g8802"
         transform="matrix(0.18212939,0,0,0.18212939,-33.794175,213.54866)"
         style="stroke-width:0.72926629"><path
           d="m 16041.3,3471.06 c -258.8,248.35 -1190.2,-1318.85 -1190.2,-1318.85 0,0 1448.9,1070.42 1190.2,1318.85"
           style="fill:#acd29a;fill-opacity:1;fill-rule:nonzero;stroke:none;stroke-width:0.72926629"
           id="path8804"
           inkscape:connector-curvature="0" /></g><g
         id="g8806"
         transform="matrix(0.18178176,0,0,0.18178176,-33.794175,213.54866)"
         style="stroke-width:0.72926629"><path
           d="m 16040.8,2751.8 c -229.5,91.79 -962.9,-681.38 -1128.1,-859.9 -126.3,16.77 -265,27.66 -416.9,30.38 -1161.3,20.74 -1688.1,-505.23 -1688.1,-505.23 l 3239.6,-11.03 c 0,0 -287,364.38 -1101.1,481.25 199,93.93 787.3,367.61 1001.3,420.2 259.2,63.77 352.5,340.7 93.3,444.33"
           style="fill:#acd29a;fill-opacity:1;fill-rule:nonzero;stroke:none;stroke-width:0.72926629"
           id="path8808"
           inkscape:connector-curvature="0" /></g><g
         id="g8810"
         transform="matrix(0.1708541,0,0,0.1708541,-33.794175,213.54866)"
         style="stroke-width:0.72926629"><path
           d="m 16094.6,4604.52 h -744 c -96.3,0 -157.5,-103.22 -111,-187.42 44.9,-81.39 -113.2,-786.4 -446.4,-804.79 -313.4,-17.29 -572.6,232.73 -572.6,542.47 0,116.53 36.7,224.52 99.1,312.95 40.6,57.52 -0.3,136.79 -70.6,136.79 h -818.9 c -111.9,0 -202.6,-90.7 -202.6,-202.6 0,0 -74.3,-878.9 -137.4,-847.36 -65,32.47 -137.5,52.27 -214.1,56.18 v 0.08 h -0.8 c -9.1,0.47 -18.3,0.71 -27.6,0.71 -9.2,0 -144,2.34 -144,2.34 l -20.5,-1086.11 117.1,-1.26 c 111.3,3.37 207.9,13.78 293.9,57.52 61,31.15 133.4,-13.61 133.4,-82.17 v -767.22 c 0,-111.83 90.7,-202.53 202.5,-202.53 h 2672 c 109.3,0 197.9,88.59 197.9,197.91 V 4399.1 c 0,113.47 -92,205.42 -205.4,205.42"
           style="fill:#d86713;fill-opacity:1;fill-rule:nonzero;stroke:none;stroke-width:0.72926629"
           id="path8812"
           inkscape:connector-curvature="0" /></g><g
         id="g8814"
         transform="matrix(0.16934458,0,0,0.16934458,-33.794175,213.54866)"
         style="stroke-width:0.72926629"><path
           d="m 12695,2563.09 c 134.4,-28.98 262.7,-8.61 370.5,46.34 61.6,31.43 134.7,-13.81 134.7,-82.98 v -773.98 c 0,-112.91 91.5,-204.42 204.3,-204.42 h 2695.8 c 110.3,0 199.7,89.38 199.7,199.68 v 2692.89 c 0,114.48 -92.8,207.33 -207.3,207.33 h -750.6 c -97.1,0 -158.9,-104.14 -111.9,-189.17 45.3,-82.12 70.2,-177.1 67.8,-278 -6.8,-284.55 -234,-518.97 -518.3,-533.97 -316.1,-16.58 -577.7,234.81 -577.7,547.31 0,117.56 37.1,226.52 100.1,315.74 40.9,58.03 -0.4,138.09 -71.3,138.09 h -826.2 c -112.9,0 -204.4,-91.59 -204.4,-204.49 v -769.25 c 0,-71.22 -74.9,-117.48 -138.6,-85.67 -73.6,36.8 -156.7,57.56 -244.7,57.56 -345.6,0 -616.5,-320.08 -532.6,-680.03 42.3,-181.2 228.8,-363.82 410.7,-402.98"
           style="fill:#f1a34f;fill-opacity:1;fill-rule:nonzero;stroke:none;stroke-width:0.72926629"
           id="path8816"
           inkscape:connector-curvature="0" /></g><path
         d="m 794.22751,473.14903 82.04901,-0.60167 c 0,0 -2.85459,19.85509 -58.08652,24.97597 v 0 c -21.41275,59.47169 -84.31798,219.47569 -138.94289,211.92139 -53.93366,-7.47407 73.79946,-154.26808 125.76365,-211.34646 -7.3524,-0.0134 -14.20609,-0.60167 -20.53164,-1.61782 -12.5174,24.92249 -37.33828,60.15358 -77.17281,58.54913 -42.39364,-1.71142 15.36263,-40.4322 55.1263,-64.20483 -20.14122,-7.22003 -31.01807,-17.22112 -31.01807,-17.22112 l 61.88105,-0.45459 c 0.72868,-0.38775 1.12311,-0.60167 1.12311,-0.60167 0,0 -0.0642,0.21392 -0.19119,0.60167"
         style="fill:#acd29a;fill-opacity:1;fill-rule:nonzero;stroke:none;stroke-width:0.09750606"
         id="path8818"
         inkscape:connector-curvature="0" /><path
         d="m 1087.3796,1136.1622 12.1391,-9.8541 c 0,0 33.2108,11.9131 40.7049,-27.5564 0,0 1.9962,-16.82 -8.6573,-16.8468 -10.6536,-0.04 -6.2587,1.8318 -21.3446,1.3906 -15.0859,-0.4413 -27.5899,7.5141 -29.8,19.7615 l -7.2174,10.3754 14.1753,22.7298"
         style="fill:#ea8e50;fill-opacity:1;fill-rule:nonzero;stroke:none;stroke-width:0.09750606"
         id="path8820"
         inkscape:connector-curvature="0" /><path
         d="m 1086.0065,1115.0101 c 9.6842,10.1081 8.9047,17.5822 8.9047,17.5822 0,0 -112.15521,91.8268 -123.52944,99.3089 -7.75084,5.0968 -90.34804,78.3226 -128.95785,122.9625 -19.15047,22.1441 -42.87363,13.5509 -70.01428,5.764 l -22.35136,-6.4125 c -26.98956,-7.7428 -34.00904,-45.4902 -11.86358,-63.8331 62.36639,-51.658 166.11695,-109.7632 185.52815,-121.9731 48.19106,-30.3215 142.52086,-66.3415 142.52086,-66.3415 0,0 11.445,4.2518 19.7628,12.9426"
         style="fill:#1e3d70;fill-opacity:1;fill-rule:nonzero;stroke:none;stroke-width:0.09750606"
         id="path8822"
         inkscape:connector-curvature="0" /><path
         d="m 1217.2627,551.8073 c 0,0 27.2182,-20.38992 68.9233,-9.62672 0,0 33.6293,7.67463 40.9964,-9.10526 0,0 -51.5658,-26.19269 -64.6166,-33.35924 -9.834,-5.40166 -20.0985,-13.91862 -27.3546,-20.51025 -5.7426,-5.21447 -14.6874,-4.50583 -19.5823,1.51086 -2.269,2.78105 -4.8655,6.11029 -7.7108,9.96098 -7.95,10.77657 -26.4788,45.57981 -26.4788,45.57981 l 35.8234,15.54982"
         style="fill:#233862;fill-opacity:1;fill-rule:nonzero;stroke:none;stroke-width:0.09750606"
         id="path8824"
         inkscape:connector-curvature="0" /><path
         d="m 1229.9727,561.22008 c 0,0 -16.574,-38.2127 -54.8309,-31.19322 0,0 -78.0673,64.47223 -131.6158,131.44474 -17.391,21.7537 -32.1987,43.77481 -40.9002,63.92405 -35.50921,82.21481 -131.3525,204.83507 -192.28959,266.98085 l 152.46039,55.153 c 0,0 48.8342,-98.23254 113.8078,-218.90072 46.8273,-86.93457 102.0204,-185.52815 153.3683,-267.4087"
         style="fill:#2b478b;fill-opacity:1;fill-rule:nonzero;stroke:none;stroke-width:0.09750606"
         id="path8826"
         inkscape:connector-curvature="0" /><path
         d="M 1076.6044,828.62878 1043.526,661.4716 c -17.391,21.7537 -32.1987,43.77481 -40.9002,63.92405 -35.50921,82.21481 -131.3525,204.83507 -192.28959,266.98085 l 152.46039,55.153 c 0,0 48.8342,-98.23254 113.8078,-218.90072"
         style="fill:#233862;fill-opacity:1;fill-rule:nonzero;stroke:none;stroke-width:0.09750606"
         id="path8828"
         inkscape:connector-curvature="0" /><path
         d="m 951.58549,530.12045 c 0,0 -1.66194,-30.48459 35.30597,-34.56257 0,0 21.12394,-0.10697 21.18414,-19.50747 l -107.44082,-0.34763 c 0,0 -3.11933,7.83507 -3.87609,24.6016 -0.58162,12.87573 12.4813,46.54248 12.4813,46.54248 l 42.3455,-16.72641"
         style="fill:#233862;fill-opacity:1;fill-rule:nonzero;stroke:none;stroke-width:0.09750606"
         id="path8830"
         inkscape:connector-curvature="0" /><path
         d="m 912.78984,1047.5295 c 0,0 67.91913,-74.63373 111.03346,-209.08682 23.4571,-73.14965 -42.99533,-257.08672 -55.94994,-320.98403 0,0 -44.57837,-3.78384 -75.05895,7.99552 0,0 -2.31576,131.99293 15.51104,233.72857 9.97568,56.93131 -89.42816,121.76455 -132.86335,224.63668 -29.54866,69.98088 6.39909,68.79088 50.57634,70.47558 l 86.7514,-6.7655"
         style="fill:#2b478b;fill-opacity:1;fill-rule:nonzero;stroke:none;stroke-width:0.09750606"
         id="path8832"
         inkscape:connector-curvature="0" /><path
         d="m 834.38427,1380.4908 c -37.78886,-21.3379 -115.14886,-1.6593 -115.14886,-1.6593 0,0 31.41651,35.917 17.1409,93.7616 l 29.67033,-15.0672 31.87111,-16.1862 c 0,0 2.05904,-10.2164 3.49235,-28.5646 0.36502,-4.7251 0.69125,-10.0038 0.91721,-15.7705 19.40184,-5.883 32.05696,-16.5138 32.05696,-16.5138"
         style="fill:#ffb07b;fill-opacity:1;fill-rule:nonzero;stroke:none;stroke-width:0.09750606"
         id="path8834"
         inkscape:connector-curvature="0" /><path
         d="m 972.94877,1051.3802 c 0,-6.6317 -7.65056,-9.8139 -9.2764,-10.1348 -15.23963,-2.7944 -57.79638,-19.347 -96.13343,-23.1442 -32.28024,-3.3827 -62.25141,-0.1604 -95.17744,6.4446 -4.35877,0.8824 -14.59517,3.6367 -15.32252,7.8083 -0.90786,4.5727 -127.00175,257.0573 -28.97775,365.5156 2.30106,2.5444 21.65075,-2.0377 39.34518,-6.2373 16.34135,-3.8761 31.33094,-1.7154 44.71742,3.6541 l 16.59405,-8.7322 c 20.37788,-11.3555 58.93821,-51.6995 63.4494,-83.3553 2.29169,-16.0993 11.49857,-28.0204 14.16196,-42.1824 0.98942,-5.2399 2.00022,-10.3567 3.02841,-15.3426 2.00824,-9.7804 4.07932,-19.0876 6.20789,-27.9402 5.76399,-23.9424 11.85022,-44.5543 17.8268,-62.361 6.35898,-18.9031 12.59629,-34.6268 18.16775,-47.7833 7.22672,-17.0606 13.33433,-29.816 17.15025,-39.5765 2.69548,-6.8724 4.23843,-12.2606 4.23843,-16.6328"
         style="fill:#2a4e96;fill-opacity:1;fill-rule:nonzero;stroke:none;stroke-width:0.09750606"
         id="path8836"
         inkscape:connector-curvature="0" /><path
         d="m 968.71034,1068.013 c -177.99659,83.8674 -239.64098,244.8969 -239.64098,244.8969 0,0 144.6173,-53.3467 180.28829,-67.2359 2.00824,-9.7804 4.07932,-19.0876 6.20789,-27.9402 5.76399,-23.9424 11.85022,-44.5543 17.8268,-62.361 6.35898,-18.9031 12.59629,-34.6268 18.16775,-47.7833 7.22672,-17.0606 13.33433,-29.816 17.15025,-39.5765"
         style="fill:#1e3d70;fill-opacity:1;fill-rule:nonzero;stroke:none;stroke-width:0.09750606"
         id="path8838"
         inkscape:connector-curvature="0" /><path
         d="m 1471.4895,1246.3706 -38.1325,120.8982 c -3.7036,11.7406 -15.8439,17.2987 -26.4601,14.313 v 0 l -0.027,-0.01 c -0.5616,-0.1604 -1.1231,-0.353 -1.6713,-0.5602 l -13.3704,-4.4657 c 0,0 -20.9381,-21.5545 -35.9531,-25.9012 -46.1815,-13.3611 -90.0138,11.2512 -106.8619,56.2735 -18.74,50.0776 3.0017,105.0675 53.3387,120.9422 17.2224,5.4311 51.1165,-4.6903 51.1165,-4.6903 l 13.6111,4.5219 c 7.3938,2.2475 12.4612,10.2217 9.8273,18.5915 l -41.9698,133.0639 c -5.736,18.1972 -25.1231,28.2919 -43.3162,22.556 l -123.9105,-39.0818 c -11.4679,-3.61 -22.7244,6.0969 -20.8325,17.9699 2.1874,13.7314 1.3023,28.1581 -3.1621,42.3174 -17.5608,55.6878 -82.874,83.0705 -136.5884,51.2622 -27.04303,-16.0044 -46.97433,-55.3402 -44.05022,-86.627 2.16066,-23.1175 11.95718,-42.7587 26.2836,-57.3191 8.19073,-8.3298 4.62082,-22.3955 -6.51942,-25.8985 L 858.16091,1565.206 c -18.17978,-5.7359 -28.26911,-25.123 -22.53586,-43.3028 l 136.94133,-434.2356 c 5.60087,-17.7559 24.54143,-27.61 42.30402,-22.0077 l 433.7557,136.7862 c 18.4378,5.8161 28.6795,25.4814 22.8634,43.9245"
         style="fill:#4a75cb;fill-opacity:1;fill-rule:nonzero;stroke:none;stroke-width:0.09750606"
         id="path8840"
         inkscape:connector-curvature="0" /><path
         d="m 949.8821,1683.3472 c 2.16066,-23.1175 11.95718,-42.7586 26.28494,-57.319 8.18939,-8.3298 4.61948,-22.3822 -6.52076,-25.8986 l -124.67931,-39.3224 c -18.17978,-5.7359 -28.27045,-25.1217 -22.53721,-43.3029 L 959.3711,1083.2687 c 5.60087,-17.7559 24.54143,-27.6099 42.3041,-22.0077 l 433.7542,136.7876 c 18.4512,5.8161 28.6796,25.4813 22.8635,43.9245 l -38.1325,120.8968 c -4.9337,15.6408 -24.8423,20.3097 -36.1536,8.4287 -10.9103,-11.4745 -24.9493,-20.311 -41.3281,-25.0521 -46.1814,-13.3598 -95.4822,11.3394 -112.3303,56.3617 -18.74,50.0776 8.4715,104.982 58.8098,120.8567 18.9312,5.9712 38.3585,5.5407 55.9406,-0.076 11.4183,-3.6502 22.2216,7.0622 18.6116,18.4993 l -41.9698,133.0759 c -5.7359,18.1838 -25.127,28.2785 -43.3135,22.5426 l -123.9118,-39.0818 c -11.4665,-3.61 -22.7244,6.0969 -20.8325,17.9699 2.1861,13.7314 1.3023,28.1581 -3.1635,42.3174 -17.5607,55.6879 -82.8699,83.0705 -136.58563,51.2756 -27.04438,-16.0178 -46.97702,-55.3536 -44.05157,-86.6404"
         style="fill:#699dee;fill-opacity:1;fill-rule:nonzero;stroke:none;stroke-width:0.09750606"
         id="path8842"
         inkscape:connector-curvature="0" /><path
         d="m 1072.8513,1116.6146 15.3814,-5.6423 c 0,0 30.8028,21.7804 49.9773,-13.6379 0,0 6.9379,-15.4696 -4.0419,-18.8256 -10.9811,-3.3693 -6.9887,-0.2005 -22.4222,-5.3481 -15.4321,-5.1343 -30.637,-1.4307 -36.4665,9.5866 l -10.453,7.6746 8.0249,26.1927"
         style="fill:#ffb07b;fill-opacity:1;fill-rule:nonzero;stroke:none;stroke-width:0.09750606"
         id="path8844"
         inkscape:connector-curvature="0" /><path
         d="m 1085.5091,1094.8609 c 5.6878,14.8412 8.2857,21.5665 8.2857,21.5665 0,0 -116.2252,94.7322 -128.06606,102.8574 -8.07173,5.5367 -88.40933,65.5887 -127.57668,112.3892 -19.42992,23.2138 -50.06426,33.8259 -79.69314,27.614 l -24.39704,-5.1169 c -29.46041,-6.1785 -39.03231,-43.4673 -16.17956,-63.0576 64.36394,-55.1785 172.91984,-119.1761 193.16,-132.4863 50.24743,-33.0411 161.38648,-79.3429 161.38648,-79.3429 0,0 8.6159,3.9309 13.0803,15.5766"
         style="fill:#2a4e96;fill-opacity:1;fill-rule:nonzero;stroke:none;stroke-width:0.09750606"
         id="path8846"
         inkscape:connector-curvature="0" /><path
         d="m 801.4101,1412.7751 c -37.15911,-2.0872 -61.32483,28.5953 -61.32483,28.5953 0,0 16.79995,9.3058 25.96137,16.1555 l 31.87111,-16.1862 c 0,0 2.05904,-10.2164 3.49235,-28.5646"
         style="fill:#ea8e50;fill-opacity:1;fill-rule:nonzero;stroke:none;stroke-width:0.09750606"
         id="path8848"
         inkscape:connector-curvature="0" /><path
         d="m 817.24204,1450.9276 c 0,0 -56.30424,-40.4068 -80.92724,-4.9551 -24.62299,35.4517 -48.47317,54.1115 -13.56564,81.4086 34.90887,27.3024 51.36386,18.6718 62.45999,8.8392 11.09746,-9.834 46.04376,-73.869 32.03289,-85.2927"
         style="fill:#ffb07b;fill-opacity:1;fill-rule:nonzero;stroke:none;stroke-width:0.09750606"
         id="path8850"
         inkscape:connector-curvature="0" /><path
         d="m 791.15765,1568.2411 c -2.01893,13.6245 -6.56087,23.2111 -6.56087,23.2111 0,0 -3.53381,-14.6406 -30.2827,-12.6217 -26.74755,2.019 -69.14253,-2.6206 -83.27508,-33.1065 -0.89983,-1.9401 -1.70072,-3.9376 -2.41202,-5.9793 -2.55911,6.7574 -3.17548,16.8909 -3.17548,16.8909 -5.0821,-13.1284 0,-29.5433 0,-29.5433 h 10e-4 c -0.0749,-0.4773 -0.13905,-0.9573 -0.20857,-1.4373 -5.90171,-4.9912 -10.86081,-20.5049 -10.86081,-20.5049 1.78228,4.324 6.12633,7.1491 10.00109,8.8886 -0.12034,-23.7178 9.49702,-46.9048 26.37987,-53.808 24.6885,-10.0933 24.49196,-2.3933 49.32086,-18.8603 0,0 6.65847,8.2616 2.11787,13.8143 -4.54461,5.5515 -21.70289,13.6259 -12.11361,21.7016 9.58927,8.0744 13.12174,-1.0095 16.65421,4.5419 3.53381,5.5528 -14.12987,21.7029 8.57981,36.8423 22.71236,15.1407 37.85304,36.3462 35.8341,49.9706"
         style="fill:#233862;fill-opacity:1;fill-rule:nonzero;stroke:none;stroke-width:0.09750606"
         id="path8852"
         inkscape:connector-curvature="0" /><g
         id="g8854"
         transform="matrix(0.13953386,0,0,0.13953386,-33.794175,213.54866)"
         style="stroke-width:0.72926629"><path
           d="m 16300,1877.26 c 0,0 -204.1,301.65 -523.4,277.31 -97.1,-7.38 -254.8,-31.04 -438,-56.25 -138.2,482.18 -519,1628.22 -1032.7,1692.81 -524.5,65.83 502,-1208.71 921.8,-1707.76 -76.5,-10.06 -156.1,-19.93 -236.3,-28.65 -222.3,237.36 -609.6,588.93 -933,561.91 -324.1,-27.12 282.8,-362.31 721,-581.55 -268.9,-20.12 -523.8,-17.92 -679.5,42.26 -381.5,147.47 -732.1,-200.08 -732.1,-200.08 H 16300"
           style="fill:#82b378;fill-opacity:1;fill-rule:nonzero;stroke:none;stroke-width:0.72926629"
           id="path8856"
           inkscape:connector-curvature="0" /></g></g></g></svg>