<?xml version="1.0" encoding="UTF-8" standalone="no"?>
<!-- Created with Inkscape (http://www.inkscape.org/) -->

<svg
   xmlns:dc="http://purl.org/dc/elements/1.1/"
   xmlns:cc="http://creativecommons.org/ns#"
   xmlns:rdf="http://www.w3.org/1999/02/22-rdf-syntax-ns#"
   xmlns:svg="http://www.w3.org/2000/svg"
   xmlns="http://www.w3.org/2000/svg"
   xmlns:sodipodi="http://sodipodi.sourceforge.net/DTD/sodipodi-0.dtd"
   xmlns:inkscape="http://www.inkscape.org/namespaces/inkscape"
   version="1.1"
   id="svg2274"
   xml:space="preserve"
   width="4600"
   height="2900"
   viewBox="0 0 4600 2900"
   sodipodi:docname="nostri_libri.svg"
   inkscape:version="0.92.4 (5da689c313, 2019-01-14)"><metadata
     id="metadata2280"><rdf:RDF><cc:Work
         rdf:about=""><dc:format>image/svg+xml</dc:format><dc:type
           rdf:resource="http://purl.org/dc/dcmitype/StillImage" /><dc:title /></cc:Work></rdf:RDF></metadata><defs
     id="defs2278"><clipPath
       clipPathUnits="userSpaceOnUse"
       id="clipPath2370"><path
         d="M 9847.74,3539.3 H 16785.9 V 16346.6 H 9847.74 Z"
         id="path2368"
         inkscape:connector-curvature="0" /></clipPath></defs><sodipodi:namedview
     pagecolor="#ffffff"
     bordercolor="#666666"
     borderopacity="1"
     objecttolerance="10"
     gridtolerance="10"
     guidetolerance="10"
     inkscape:pageopacity="0"
     inkscape:pageshadow="2"
     inkscape:window-width="1699"
     inkscape:window-height="1056"
     id="namedview2276"
     showgrid="false"
     fit-margin-top="0"
     fit-margin-left="0"
     fit-margin-right="0"
     fit-margin-bottom="0"
     inkscape:zoom="0.15171429"
     inkscape:cx="2421.6824"
     inkscape:cy="199.11111"
     inkscape:window-x="129"
     inkscape:window-y="0"
     inkscape:window-maximized="1"
     inkscape:current-layer="g2282" /><g
     id="g2282"
     inkscape:groupmode="layer"
     inkscape:label="ink_ext_XXXXXX"
     transform="matrix(1.3333333,0,0,-1.3333333,-239.04416,3125.2535)"><g
       id="g10083"
       transform="matrix(1.0555562,0,0,1.0555562,-59.111241,-345.73251)"
       style="stroke-width:0.94736791"><path
         inkscape:connector-curvature="0"
         id="path2292"
         style="fill:#fff7f6;fill-opacity:1;fill-rule:nonzero;stroke:none;stroke-width:0.20286366"
         d="m 789.35925,487.58431 c -100.72007,0 -176.57062,0.15011 -216.26678,0.50001 -277.10653,2.45012 -463.05235,660.01128 -155.95593,774.48088 328.95907,122.6153 428.5014,141.2514 417.68121,246.7895 -8.03859,78.4394 23.53547,122.5703 78.69853,145.8574 V 535.88438 c 0,-23.48001 19.21853,-42.70003 42.70474,-42.70003 h 80.89128 v 0 h 749.0964 c 23.4797,0 42.7004,19.22002 42.7004,42.70003 V 1776.1678 c 102.4289,42.6234 191.3609,60.5999 270.1386,60.5999 212.2882,0 351.0042,-130.5682 481.7758,-261.1128 130.8145,-130.5618 253.706,-261.1301 434.4993,-261.1193 6.5311,0 13.1478,0.1798 19.8502,0.5203 15.2464,0.7902 30.0645,1.1799 44.4971,1.1799 395.9552,0 489.8101,-293.051 255.0336,-625.55181 -134.3049,-190.23943 -448.6536,-197.70928 -448.6536,-197.70928 0,0 -1494.2913,-5.3904 -2096.69085,-5.3904"
         inkscape:label="nuvola" /><path
         d="m 572.92904,502.89418 c 0.934,-11.56 17.251,-11.56 35.75,-9.28 18.499,2.29 13.611,-2.43 39.538,-2.6 25.926,-0.17 34.798,8.46 36.025,12.18 1.095,3.29 -11.412,5.97 -24.792,9.12 -1.684,0.39 -3.373,0.8 -5.062,1.21 -15.089,3.72 -28.128,11.88 -38.104,24.67 -11.246,14.41 -21.525,80.02 -21.525,80.02 l -40.515,-7.56 c 0,0 23.583,-56.24 26.002,-74.68 1.085,-8.28 -4.8,-13.8 -6.179,-21.04 -0.738,-3.94 -1.472,-7.97 -1.138,-12.04"
         style="fill:#b77446;fill-opacity:1;fill-rule:nonzero;stroke:none;stroke-width:0.09473679"
         id="path2294"
         inkscape:connector-curvature="0" /><path
         d="m 607.34604,491.88418 c 18.499,2.29 14.944,-0.7 40.871,-0.87 25.926,-0.17 34.798,8.46 36.025,12.18 1.095,3.29 -11.412,5.97 -24.792,9.12 l -0.158,-0.25 c 0,0 -16.625,-9.08 -37.99,-7.09 -17.413,1.61 -35.221,8.75 -47.235,9.96 -0.738,-3.94 -1.472,-7.97 -1.138,-12.04 0.934,-11.56 15.918,-13.3 34.417,-11.01"
         style="fill:#365da4;fill-opacity:1;fill-rule:nonzero;stroke:none;stroke-width:0.09473679"
         id="path2296"
         inkscape:connector-curvature="0" /><path
         d="m 609.15304,571.59418 c 0,0 -10.612,-7.02 -20.59,-8.84 -14.966,-2.72 -21.913,0.3 -21.913,0.3 0,0 -71.982,180.73 -67.873,241.8 0.1,1.47 0.154,3.03 0.173,4.68 0.117,10.6 -1.407,24.72 -4.037,40.97 -0.97,5.96 -2.086,12.2 -3.329,18.66 -2.884,15.06 -6.458,31.3 -10.385,47.87 -1.724,7.29 -3.529,14.64 -5.361,21.99 -18.095,72.26002 -40.208,143.48002 -40.208,143.48002 0,0 129.895,42.43 137.242,2.77 2.821,-15.22 12.208,-76.12 7.982,-169.23002 -3.411,-74.96 -1.207,-133.43 5.269,-201.28 5.697,-59.59 15.438,-110.85 23.03,-143.17"
         style="fill:#365da4;fill-opacity:1;fill-rule:nonzero;stroke:none;stroke-width:0.09473679"
         id="path2298"
         inkscape:connector-curvature="0" /><path
         d="m 498.95004,809.53418 c 0.117,10.6 -1.407,24.72 -4.037,40.97 -0.97,5.96 -2.086,12.2 -3.329,18.66 -2.884,15.06 -6.458,31.3 -10.385,47.87 -1.724,7.29 -3.529,14.64 -5.361,21.99 2.567,22.05 4.635,37.18 4.635,37.18 0,0 53.932,-73.25 18.477,-166.67"
         style="fill:#285493;fill-opacity:1;fill-rule:nonzero;stroke:none;stroke-width:0.09473679"
         id="path2300"
         inkscape:connector-curvature="0" /><path
         d="m 409.05904,502.89418 c 0.935,-11.56 17.252,-11.56 35.75,-9.28 18.499,2.29 13.612,-2.43 39.538,-2.6 25.927,-0.17 34.799,8.46 36.026,12.18 1.095,3.29 -11.412,5.97 -24.793,9.12 -1.683,0.39 -3.372,0.8 -5.061,1.21 -15.09,3.72 -25.146,14.92 -38.105,24.67 -12.275,9.23 -3.687,54.02 -3.687,54.02 l -38.095,13.6 c 0,0 5.745,-45.05 5.745,-69.84 0,-8.35 -4.8,-13.8 -6.179,-21.04 -0.738,-3.94 -1.473,-7.97 -1.139,-12.04"
         style="fill:#b77446;fill-opacity:1;fill-rule:nonzero;stroke:none;stroke-width:0.09473679"
         id="path2302"
         inkscape:connector-curvature="0" /><path
         d="m 442.78404,491.75418 c 18.499,2.29 15.637,-0.57 41.563,-0.74 25.927,-0.17 34.799,8.46 36.026,12.18 1.095,3.29 -11.412,5.97 -24.793,9.12 l -0.157,-0.25 c 0,0 -16.626,-9.08 -37.99,-7.09 -17.413,1.61 -35.222,8.75 -47.235,9.96 -0.738,-3.94 -1.473,-7.97 -1.139,-12.04 0.935,-11.56 15.225,-13.42 33.725,-11.14"
         style="fill:#365da4;fill-opacity:1;fill-rule:nonzero;stroke:none;stroke-width:0.09473679"
         id="path2304"
         inkscape:connector-curvature="0" /><path
         d="m 513.87604,1096.6442 c 0,0 -42.261,-210.63002 -49.4,-325.26002 -7.139,-114.63 -16.051,-209.54 -16.051,-209.54 0,0 -9.222,-3.33 -19.804,-2.72 -11.172,0.64 -20.029,4.08 -20.029,4.08 0,0 -41.886,172.47 -28.013,241.51 13.873,69.04 2.316,132.72 -4.343,189.98 -9.549,82.11002 27.191,120.27002 52.839,146.29002 25.963,26.33 84.801,-44.34 84.801,-44.34"
         style="fill:#365da4;fill-opacity:1;fill-rule:nonzero;stroke:none;stroke-width:0.09473679"
         id="path2306"
         inkscape:connector-curvature="0" /><path
         d="m 543.82704,1482.4142 c 4.199,34.29 -6.51,89.16 -74.952,80.4 -68.442,-8.77 -90.01,-76.04 -76.207,-105.94 13.803,-29.91 -19.87,-37.12 -30.442,-69.28 -9.081,-27.63 -12.247,-61.94 -26.942,-77.33 -47.381,-49.64 45.487,-125.97 101.472,-109.87 101.974,29.31 115.109,33.69 111.488,113.81 -1.855,41.05 -33.793,56.96 -13.514,68.84 48.987,28.69 -0.404,21.78 9.097,99.37"
         style="fill:#aa443e;fill-opacity:1;fill-rule:nonzero;stroke:none;stroke-width:0.09473679"
         id="path2308"
         inkscape:connector-curvature="0" /><path
         d="m 523.10804,1372.2942 -20.244,-30.37 -40.789,2.01 -18.84,48.7 c 0,0 5.812,1.11 8.519,61.84 l 50.91,-15.53 c 0,0 -2.706,-15.84 0.902,-33.08 2.505,-12.02 8.017,-24.85 19.542,-33.57"
         style="fill:#d9935c;fill-opacity:1;fill-rule:nonzero;stroke:none;stroke-width:0.09473679"
         id="path2310"
         inkscape:connector-curvature="0" /><path
         d="m 528.78404,1393.7242 c -2.619,0 -50.579,16.04 -119.059,-11.85 0,0 32.511,-186 18.546,-221.5 -13.965,-35.49 -19.273,-67 -19.273,-67 l 151.496,-1.88 c 0,0 -2.118,121.84 4.865,164.97 6.982,43.12 -36.575,137.26 -36.575,137.26"
         style="fill:#d9935c;fill-opacity:1;fill-rule:nonzero;stroke:none;stroke-width:0.09473679"
         id="path2312"
         inkscape:connector-curvature="0" /><path
         d="m 780.39904,1268.5642 c -0.453,5.3 -2.119,6.51 -2.119,6.51 -48.435,-7.12 -80.538,-6.72 -96.266,-9.78 -12.354,-2.4 -17.405,-2.74 -19.528,0.25 -66.911,94.09 -114.267,123.64 -114.267,123.64 0,0 -5.052,3 -24.807,5.72 0,0 -2.839,-35.77 -21.225,-38.81 -31.8,-5.24 -55.577,23.91 -63.06,35.63 0,0 -38.363,-9.24 -49.084,-21.45 -7.701,-8.78 -6.694,-29.79 -4.408,-43 0.725,-4.19 1.578,-7.6 2.322,-9.57 2.258,-5.98 10.811,-49.85 14.711,-67.31 0.091,-0.44 0.182,-0.85 0.263,-1.23 0.273,-1.17 0.509,-2.19 0.726,-3.05 l 0.019,-0.07 c 0.226,-0.93 0.417,-1.66 0.571,-2.13 0.091,-0.28 0.181,-0.57 0.272,-0.85 l 0.018,-0.06 c 5.633,-17.96 9.025,-36.26 7.03,-58.71 -0.237,-2.64 -0.844,-5.82 -1.742,-9.41 -5.088,-26.08 -26.231,-77.51 -30.621,-101.12 2.531,-5.33 8.263,-9.55 15.238,-12.92 9.097,-4.39 20.281,-7.32 29.188,-9.36 6.893,-1.58 17.496,-3.36 29.723,-4.73 6.485,-0.73 13.433,-1.34 20.508,-1.75 0.998,-0.07 1.986,-0.12 2.984,-0.16 45.642,-2.27 96.743,-1.15 103.401,20.55 3.193,10.41 -9.533,73 -11.229,91.61 -2.964,32.67 1.868,77.41 4.051,112.05 37.455,-41.27 76.112,-56.12 76.112,-56.12 9.251,0.44 19.909,2.17 31.057,4.67 11.972,2.67 24.516,6.23 36.516,10.04 33.923,10.74 65.817,25.77 65.817,25.77 0,0 -1.173,3.46 -2.171,15.15"
         style="fill:#80bdcc;fill-opacity:1;fill-rule:nonzero;stroke:none;stroke-width:0.09473679"
         id="path2314"
         inkscape:connector-curvature="0" /><path
         d="m 509.24404,1114.7842 c -8.644,-29.33 -13.669,-53.46 -35.383,-69.78 -7.075,0.41 -14.023,1.02 -20.508,1.75 -12.227,1.37 -22.83,3.15 -29.723,4.73 -8.907,2.04 -20.091,4.97 -29.188,9.36 -6.975,3.37 -12.707,7.59 -15.238,12.92 4.39,23.61 25.533,75.04 30.621,101.12 0.499,2.54 0.843,4.84 1.007,6.84 1.887,23.37 -1.143,42.56 -6.295,61.28 l -0.018,0.06 c -0.281,0.99 -0.563,1.98 -0.843,2.98 l -0.019,0.07 c -0.182,0.65 -0.426,1.69 -0.726,3.05 -0.081,0.38 -0.172,0.79 -0.263,1.23 -3.483,16.55 -12.598,68.47 -14.92,75.24 -0.735,2.14 -1.56,5.82 -2.277,10.34 l 18.241,17.55 c 0,0 104.652,-44.69 127.709,-106.33 23.056,-61.64 -9.76,-90.35 -22.177,-132.41"
         style="fill:#5f9aa8;fill-opacity:1;fill-rule:nonzero;stroke:none;stroke-width:0.09473679"
         id="path2316"
         inkscape:connector-curvature="0" /><path
         d="m 716.75304,1227.6442 c -23.165,-7.35 -48.371,-13.79 -67.573,-14.71 0,0 -38.425,14.22 -76.112,56.12 -1.587,7.12 -3.869,19.89 4.757,16.45 12.099,-4.84 56.842,-62.29 73.776,-63.5 12.119,-0.86 46.567,3.23 65.152,5.64"
         style="fill:#5f9aa8;fill-opacity:1;fill-rule:nonzero;stroke:none;stroke-width:0.09473679"
         id="path2318"
         inkscape:connector-curvature="0" /><path
         d="m 634.10004,1244.0042 c 0,0 -51.587,-25.91 -96.312,-36.63 -12.871,-3.09 -25.27,-5.27 -35.846,-5.77 0,0 -48.099,14.79 -84.806,66.21 -70.903,99.32 -16.164,110.03 -16.164,110.03 0,0 47.365,-29.55 114.268,-123.64 2.339,-3.29 8.217,-2.54 23.437,0.53 16.254,3.28 48.607,2.89 93.27,9.45 0,0 0.753,-1.66 1.206,-6.96 1.006,-11.69 0.947,-13.22 0.947,-13.22"
         style="fill:#80bdcc;fill-opacity:1;fill-rule:nonzero;stroke:none;stroke-width:0.09473679"
         id="path2320"
         inkscape:connector-curvature="0" /><path
         d="m 782.57004,1253.4142 c 0,0 -31.894,-15.03 -65.817,-25.77 -12,-3.81 -24.544,-7.37 -36.516,-10.04 -4.808,21.37 -1.488,38.04 1.777,47.69 15.728,3.06 49.342,3.27 97.778,10.38 l 2.778,-22.26"
         style="fill:#a86337;fill-opacity:1;fill-rule:nonzero;stroke:none;stroke-width:0.09473679"
         id="path2322"
         inkscape:connector-curvature="0" /><path
         d="m 767.69804,1272.6642 c 0,0 12.251,2.38 22.461,7.49 10.208,5.1 37.434,8.5 43.219,3.06 5.785,-5.45 -6.126,-27.57 -30.969,-28.25 -24.842,-0.68 -31.989,-4.76 -31.989,-4.76 l -2.722,22.46"
         style="fill:#a86337;fill-opacity:1;fill-rule:nonzero;stroke:none;stroke-width:0.09473679"
         id="path2324"
         inkscape:connector-curvature="0" /><path
         d="m 811.86904,1348.0242 -138.511,-26.92 c -6.065,-1.18 -11.026,-7.11 -11.026,-13.17 v -95.73 c 0,-6.06 4.961,-10.06 11.026,-8.88 l 138.511,26.93 c 6.064,1.17 11.026,7.1 11.026,13.16 v 95.73 c 0,6.06 -4.962,10.06 -11.026,8.88"
         style="fill:#ca5f00;fill-opacity:1;fill-rule:nonzero;stroke:none;stroke-width:0.09473679"
         id="path2326"
         inkscape:connector-curvature="0" /><path
         d="m 817.38704,1348.0242 -138.511,-26.92 c -6.064,-1.18 -11.026,-7.11 -11.026,-13.17 v -95.73 c 0,-6.06 4.962,-10.06 11.026,-8.88 l 138.511,26.93 c 6.064,1.17 11.026,7.1 11.026,13.16 v 95.73 c 0,6.06 -4.962,10.06 -11.026,8.88"
         style="fill:#e69d43;fill-opacity:1;fill-rule:nonzero;stroke:none;stroke-width:0.09473679"
         id="path2328"
         inkscape:connector-curvature="0" /><path
         d="m 681.17804,1313.6242 c -2.501,-0.49 -4.528,-2.91 -4.528,-5.41 0,-2.5 2.027,-4.13 4.528,-3.65 2.501,0.49 4.527,2.91 4.527,5.41 0,2.5 -2.026,4.13 -4.527,3.65"
         style="fill:#ca5f00;fill-opacity:1;fill-rule:nonzero;stroke:none;stroke-width:0.09473679"
         id="path2330"
         inkscape:connector-curvature="0" /><path
         d="m 696.62204,1275.8442 c -6.176,5.81 -35.24,2.18 -46.14,-3.27 -6.372,-3.19 -13.485,-5.38 -18.298,-6.65 l -0.011,0.08 c -44.661,-6.56 -77.242,-7.99 -93.496,-11.27 5.088,-10.98 8.925,-27.95 -0.889,-47.36 42.715,10.23 92.77,33.09 97.185,35.12 5.012,1.28 13.898,2.79 28.588,3.19 26.521,0.73 39.237,24.35 33.061,30.16"
         style="fill:#b77446;fill-opacity:1;fill-rule:nonzero;stroke:none;stroke-width:0.09473679"
         id="path2332"
         inkscape:connector-curvature="0" /><path
         d="m 503.56604,1405.8642 c -21.046,1.71 -51.812,48.61 -51.812,48.61 l 50.91,-15.53 c 0,0 -2.706,-15.84 0.902,-33.08"
         style="fill:#cc7c46;fill-opacity:1;fill-rule:nonzero;stroke:none;stroke-width:0.09473679"
         id="path2334"
         inkscape:connector-curvature="0" /><path
         d="m 515.99904,1435.4942 c 0,0 -60.962,-12.24 -68.002,25.84 -7.039,38.08 -19.649,62.15 18.976,71.58 38.625,9.42 48.895,-3.71 54.336,-15.84 5.442,-12.15 10.366,-77.41 -5.31,-81.58"
         style="fill:#d9935c;fill-opacity:1;fill-rule:nonzero;stroke:none;stroke-width:0.09473679"
         id="path2336"
         inkscape:connector-curvature="0" /><path
         d="m 522.07604,1539.7342 c -30.073,29.63 -57.785,14.8 -53.367,8.84 -10.421,-0.32 -23.425,-3.19 -32.723,-13.65 -18.027,-20.28 15.61,-83.66 15.61,-83.66 0,0 -4.628,38.94 15.421,60.86 7.949,8.69 12.571,15.96 15.264,21.57 4.196,-3.58 8.853,-6.64 13.799,-8.38 19.397,-6.81 30.056,-38.01 30.056,-38.01 6.939,14.56 8.896,39.66 -4.06,52.43"
         style="fill:#aa443e;fill-opacity:1;fill-rule:nonzero;stroke:none;stroke-width:0.09473679"
         id="path2338"
         inkscape:connector-curvature="0" /><path
         d="m 497.00604,1454.2342 c 0,0 1.631,-4.52 13.107,-2.47 0,0 9.636,1.72 8.749,6.8 0,0 -9.83,2.54 -21.856,-4.33"
         style="fill:#ffffff;fill-opacity:1;fill-rule:nonzero;stroke:none;stroke-width:0.09473679"
         id="path2340"
         inkscape:connector-curvature="0" /><path
         inkscape:connector-curvature="0"
         id="path2344"
         style="fill:#ca5f00;fill-opacity:1;fill-rule:nonzero;stroke:none;stroke-width:0.10230531"
         d="M 1705.3131,2076.6049 H 956.21833 c -23.48544,0 -42.70317,-19.2112 -42.70317,-42.6989 V 535.8837 c 0,-23.48005 19.21773,-42.69993 42.70317,-42.69993 h 749.09477 c 23.4769,0 42.6989,19.21988 42.6989,42.69993 V 2033.906 c 0,23.4877 -19.222,42.6989 -42.6989,42.6989" /><path
         inkscape:connector-curvature="0"
         id="path2348"
         style="fill:#e69d43;fill-opacity:1;fill-rule:nonzero;stroke:none;stroke-width:0.10230531"
         d="m 1786.2077,2076.6049 h -749.098 c -23.4855,0 -42.70106,-19.2112 -42.70106,-42.6989 V 535.8837 c 0,-23.48005 19.21556,-42.69993 42.70106,-42.69993 h 749.098 c 23.4768,0 42.6989,19.21988 42.6989,42.69993 V 2033.906 c 0,23.4877 -19.2221,42.6989 -42.6989,42.6989" /><path
         inkscape:connector-curvature="0"
         id="path2352"
         style="fill:#db8428;fill-opacity:1;fill-rule:nonzero;stroke:none;stroke-width:0.09882184"
         d="m 1533.9563,1999.7921 h -216.9272 c -4.6419,0 -8.4388,3.797 -8.4388,8.4389 0,4.6418 3.7969,8.4388 8.4388,8.4388 h 216.9272 c 4.6419,0 8.4389,-3.797 8.4389,-8.4388 0,-4.6419 -3.797,-8.4389 -8.4389,-8.4389" /><path
         inkscape:connector-curvature="0"
         id="path2356"
         style="fill:#db8428;fill-opacity:1;fill-rule:nonzero;stroke:none;stroke-width:0.09882184"
         d="m 1278.4962,1999.7921 c -4.6418,0 -8.4388,3.797 -8.4388,8.4389 0,4.6418 3.797,8.4388 8.4388,8.4388 4.6419,0 8.4389,-3.797 8.4389,-8.4388 0,-4.6419 -3.797,-8.4389 -8.4389,-8.4389" /><path
         d="m 1421.996,526.23418 c -30.07,0 -54.44,24.37 -54.44,54.44 0,30.06 24.37,54.43 54.44,54.43 30.06,0 54.43,-24.37 54.43,-54.43 0,-30.07 -24.37,-54.44 -54.43,-54.44"
         style="fill:#db8428;fill-opacity:1;fill-rule:nonzero;stroke:none;stroke-width:0.09473679"
         id="path2358"
         inkscape:connector-curvature="0" /><path
         inkscape:connector-curvature="0"
         id="path2362"
         style="fill:#a6d9f1;fill-opacity:1;fill-rule:nonzero;stroke:none;stroke-width:0.09756089"
         d="M 1757.6863,670.31443 H 1063.8704 V 1951.0531 h 693.8159 V 670.31443" /><path
         inkscape:connector-curvature="0"
         id="path2374"
         style="fill:#d5e7f7;fill-opacity:1;fill-rule:nonzero;stroke:none;stroke-width:0.09756089"
         d="m 1757.6863,1775.0071 h -693.8159 v 176.046 h 693.8159 v -176.046" /><path
         d="m 1099.206,1864.7542 c 0,30.87 25.03,55.9 55.91,55.9 30.87,0 55.9,-25.03 55.9,-55.9 0,-30.87 -25.03,-55.9 -55.9,-55.9 -30.88,0 -55.91,25.03 -55.91,55.9"
         style="fill:#c4d9ed;fill-opacity:1;fill-rule:nonzero;stroke:none;stroke-width:0.09473679"
         id="path2376"
         inkscape:connector-curvature="0" /><path
         d="m 1584.756,1866.7742 h -324.96 c -10.81,0 -19.65,8.84 -19.65,19.65 0,10.81 8.84,19.65 19.65,19.65 h 324.96 c 10.81,0 19.65,-8.84 19.65,-19.65 0,-10.81 -8.84,-19.65 -19.65,-19.65"
         style="fill:#c4d9ed;fill-opacity:1;fill-rule:nonzero;stroke:none;stroke-width:0.09473679"
         id="path2378"
         inkscape:connector-curvature="0" /><path
         d="m 1446.476,1819.4142 h -195.52 c -6.5,0 -11.82,5.32 -11.82,11.82 0,6.51 5.32,11.83 11.82,11.83 h 195.52 c 6.5,0 11.82,-5.32 11.82,-11.83 0,-6.5 -5.32,-11.82 -11.82,-11.82"
         style="fill:#c4d9ed;fill-opacity:1;fill-rule:nonzero;stroke:none;stroke-width:0.09473679"
         id="path2380"
         inkscape:connector-curvature="0" /><path
         inkscape:connector-curvature="0"
         id="path2384"
         style="fill:#d9935c;fill-opacity:1;fill-rule:nonzero;stroke:none;stroke-width:0.0956311"
         d="m 1661.8273,1299.0427 c 0,0 -6.0668,29.2748 3.6238,37.1484 9.6806,7.8737 39.0553,35.0882 44.5466,31.969 5.4914,-3.1192 14.4855,-21.5717 11.5581,-32.3929 -2.9475,-10.8263 -39.9435,-49.9744 -39.9435,-49.9744 l -19.785,13.2499" /><path
         d="m 1469.026,901.24418 c -3.09,-60.15 -13.58,-145.98 -21.37,-232.74 h -131.55 c -2.83,23.26 -6.94,45.93 -11.48,68.06 -7.37,35.86 -15.85,70.35 -21.79,103.72 -11.97,67.17 -9.73,119.67 0.64,160.41002 8.89,34.98 23.78,61.29 40.8,80.79 37.3,42.73 141.16,-40.78 141.16,-40.78 0,0 6.65,-79.66002 3.59,-139.46002"
         style="fill:#415da5;fill-opacity:1;fill-rule:nonzero;stroke:none;stroke-width:0.09473679"
         id="path2386"
         inkscape:connector-curvature="0" /><path
         d="m 1409.276,882.12418 c 0,0 -0.03,-0.43 -0.09,-1.26 -0.94,-12.34 -9.22,-113.39 -35.22,-212.36 h -57.86 c -2.83,23.26 -6.94,45.93 -11.48,68.06 9.86,58.02 19.23,104.1 19.23,104.1 l 85.42,41.46"
         style="fill:#355493;fill-opacity:1;fill-rule:nonzero;stroke:none;stroke-width:0.09473679"
         id="path2388"
         inkscape:connector-curvature="0" /><path
         d="m 1416.986,906.58418 c -1.42,-5.7 -4.19,-14.72 -7.8,-25.72 -14.84,-45.09 -43.94,-123.45 -52.23,-143.03 -9.7,-22.92 -18.85,-46.1 -27.47,-69.33 h -143.97 c 2.97,55.85 3.7,171.81 6.39,202.69 10.82,124.14 34.31,136.22002 34.31,136.22002 l 57.26,-6.72 133.43,-15.66002 c 0,0 21.9,9.47 0.08,-78.45"
         style="fill:#415da5;fill-opacity:1;fill-rule:nonzero;stroke:none;stroke-width:0.09473679"
         id="path2390"
         inkscape:connector-curvature="0" /><path
         d="m 1441.076,1578.3942 c 6.44,52.6 -9.99,136.77 -114.97,123.32 -104.99,-13.45 -138.07,-116.63 -116.9,-162.51 21.17,-45.87 -30.48,-56.94 -46.7,-106.27 -13.93,-42.38 -18.78,-95 -41.32,-118.62 -72.683,-76.14 69.77,-193.23 155.65,-168.54 156.42,44.98 176.57,51.69 171.02,174.59 -2.85,62.97 -51.84,87.37 -20.73,105.59 75.14,44.01 -0.62,33.41 13.95,152.44"
         style="fill:#163560;fill-opacity:1;fill-rule:nonzero;stroke:none;stroke-width:0.09473679"
         id="path2392"
         inkscape:connector-curvature="0" /><path
         d="m 1409.306,1409.5242 -31.14,-46.67 -62.47,3.05 -28.9,74.77 c 0,0 5.38,0.98 9.78,45.41 1.08,11.67 2.16,26.3 3.14,44.7 v 0.18 c 0,1.52 0.09,3.05 0.18,4.58 l 8.08,-2.43 70.01,-21.36 c 0,0 -0.36,-2.33 -0.81,-6.37 -0.81,-8.89 -1.61,-25.94 2.07,-44.16 3.77,-18.49 12.2,-38.24 30.06,-51.7"
         style="fill:#d9935c;fill-opacity:1;fill-rule:nonzero;stroke:none;stroke-width:0.09473679"
         id="path2394"
         inkscape:connector-curvature="0" /><path
         d="m 1409.516,1443.3342 c -4.02,0 -72.19,13.88 -187.33,-15.58 0,0 63.06,-288.9 41.63,-343.35 -21.42,-54.46 -29.56,-102.78002 -29.56,-102.78002 l 232.39,-2.89 c 0,0 -3.25,186.90002 7.46,253.05002 10.71,66.15 -64.59,211.55 -64.59,211.55"
         style="fill:#d9935c;fill-opacity:1;fill-rule:nonzero;stroke:none;stroke-width:0.09473679"
         id="path2396"
         inkscape:connector-curvature="0" /><path
         d="m 1660.616,1328.2042 c 0,0 -74.22,-100.7 -87.33,-99.71 -14.09,1.16 -49.45,126.28 -76.2,172.42 -18.75,32.2 -83.34,41.82 -87.56,42.42 h -0.01 v 0 c -0.13,0.02 -0.21,0.03 -0.21,0.03 l 0.16,-0.64 c -0.56,-5.95 -5.82,-53.73 -32.27,-58.1 -48.77,-8.05 -88.07,36.64 -99.56,54.62 0,0 -56.01,-14.14 -72.46,-32.88 -15.57,-17.74 5.74,-149.22 10.47,-161.83 4.09,-10.82 7.96,-21.38 11.32,-31.99 8.91,-28 14.35,-56.44 11.22,-91.46 -3.39,-38.24 -39.12,-125.63002 -31.39,-144.24002 8.09,-19.55 19.35,-29.46 43.97,-35.11 16.97,-3.91 40.29,-5.79 73.3,-7.44 70.01,-3.47 145.03,5.32 155.24,38.61 4.9,15.97 3.01,77.78002 0.42,106.31002 -3.41,37.51 -0.12,85.37 3.16,129.36 0.16,-0.24 0.31,-0.48 0.47,-0.73 l 0.09,-0.09 c 7.54,-11.57 16.25,-23.96 25.13,-35.54 13.46,-17.32 27.47,-32.49 39.4,-39.49 2.97,-1.71 5.75,-2.87 8.35,-3.5 7.9,-1.88 23.43,-1.88 38.5,6.73 2.43,1.35 4.94,3.05 7.36,4.94 43.98,34.91 83.12,143.96 83.12,143.96 4.21,25.4 -24.69,43.35 -24.69,43.35"
         style="fill:#ebba56;fill-opacity:1;fill-rule:nonzero;stroke:none;stroke-width:0.09473679"
         id="path2398"
         inkscape:connector-curvature="0" /><path
         d="m 1206.796,976.84418 c 8.09,-19.55 19.35,-29.46 43.97,-35.11 32.91,6.33 54.62,66.89002 65.79,96.70002 12.89,34.34 -40.12,195.42 -58.64,193.81 -13.76,-1.19 -26.9,-20.3 -27.36,-31.8 8.91,-28 10.76,-44.34 7.63,-79.36 -3.39,-38.24 -39.12,-125.63002 -31.39,-144.24002"
         style="fill:#e7a329;fill-opacity:1;fill-rule:nonzero;stroke:none;stroke-width:0.09473679"
         id="path2400"
         inkscape:connector-curvature="0" /><path
         d="m 1594.826,1135.9542 c -15.07,-8.61 -30.6,-8.61 -38.5,-6.73 -2.6,0.63 -5.38,1.79 -8.35,3.5 -11.93,7 -25.94,22.17 -39.4,39.49 -8.88,11.58 -17.59,23.97 -25.13,35.54 1.71,6.29 7.9,9.25 27.91,-11.3 33.66,-34.56 39.85,-57.72 61.22,-59.51 7.36,-0.63 14.81,-0.99 22.25,-0.99"
         style="fill:#e7a329;fill-opacity:1;fill-rule:nonzero;stroke:none;stroke-width:0.09473679"
         id="path2402"
         inkscape:connector-curvature="0" /><path
         d="m 1379.246,1461.2242 c -22.17,-6.1 -76.3,65.25 -79.53,69.56 l -0.18,0.18 h 0.18 l 8.26,2.15 70.01,-21.36 c 0,0 -0.36,-2.33 -0.81,-6.37 -0.81,-8.89 -1.61,-25.94 2.07,-44.16"
         style="fill:#cc7c46;fill-opacity:1;fill-rule:nonzero;stroke:none;stroke-width:0.09473679"
         id="path2404"
         inkscape:connector-curvature="0" /><path
         d="m 1398.386,1506.4242 c 0,0 -93.51,-18.78 -104.31,39.63 -10.8,58.42 -30.14,95.33 29.11,109.79 59.25,14.46 75,-5.68 83.35,-24.3 8.35,-18.62 15.9,-118.73 -8.15,-125.12"
         style="fill:#d9935c;fill-opacity:1;fill-rule:nonzero;stroke:none;stroke-width:0.09473679"
         id="path2406"
         inkscape:connector-curvature="0" /><path
         d="m 1407.716,1666.3142 c -46.13,45.46 -86.49,18.81 -76.46,6.64 -16.64,0.29 -39.46,-3.18 -55.28,-20.98 -27.65,-31.11 22.84,-136.58 22.84,-136.58 0,0 -6,67.98 24.76,101.6 14.66,16.03 21.95,28.91 25.57,38.01 5.78,-4.61 12.07,-8.48 18.69,-10.81 29.75,-10.44 46.1,-58.31 46.1,-58.31 10.65,22.34 13.65,60.84 -6.22,80.43"
         style="fill:#163560;fill-opacity:1;fill-rule:nonzero;stroke:none;stroke-width:0.09473679"
         id="path2408"
         inkscape:connector-curvature="0" /><path
         d="m 1297.946,1069.8542 20.84,-10.04 c 9.22,-2.71 12.83,-5.21 18.36,-4.6 13.37,1.5 40.36,0.66 59.01,-25.41 0,0 9.44,-15.47 -3.96,-17.06 -13.39,-1.6 -8.63,0.8 -27.44,-1.83 -18.8,-2.63 -37.75,15.12 -43.64,21.53 l -21.83,8 -1.34,29.41"
         style="fill:#d9935c;fill-opacity:1;fill-rule:nonzero;stroke:none;stroke-width:0.09473679"
         id="path2410"
         inkscape:connector-curvature="0" /><path
         d="m 1277.636,1439.2442 c 0,0 -55.28,-2.18 -80.91,-26.04 -28.98,-26.97 -80.95,-190.54 -80.95,-293.26 0,0 -1.04,-56.58 195.81,-94.71 0,0 9.43,7.82 12.98,15.37 6.27,13.36 6.26,22.55 6.26,22.55 0,0 -115.43,65.47 -119.59,86.08 -5.54,27.5 73.48,134.61 66.4,290.01"
         style="fill:#ebba56;fill-opacity:1;fill-rule:nonzero;stroke:none;stroke-width:0.09473679"
         id="path2412"
         inkscape:connector-curvature="0" /><path
         inkscape:connector-curvature="0"
         id="path2416"
         style="fill:#aa443e;fill-opacity:1;fill-rule:nonzero;stroke:none;stroke-width:0.10570731"
         d="m 1897.85,1438.031 c 0,0 -162.9961,32.5256 -357.9263,29.8923 l -11.2808,53.1232 -12.3853,58.2001 c 0,0 203.6669,49.3965 337.0831,143.7486 L 1897.85,1438.031" /><path
         inkscape:connector-curvature="0"
         id="path2420"
         style="fill:#e58638;fill-opacity:1;fill-rule:nonzero;stroke:none;stroke-width:0.10712552"
         d="m 1897.8378,1438.0187 v 0 c 14.4286,1.6521 24.4133,14.8798 21.8691,28.9805 l -43.9191,243.3191 c -2.1146,11.7939 -10.6745,15.5368 -22.4571,12.6759 l 44.5071,-284.9755" /><path
         inkscape:connector-curvature="0"
         id="path2424"
         style="fill:#9e3a38;fill-opacity:1;fill-rule:nonzero;stroke:none;stroke-width:0.10570731"
         d="m 1708.6103,1462.2104 c 111.8701,-8.7479 189.2397,-24.1794 189.2397,-24.1794 0,0 -185.4348,89.052 -369.2071,83.0155 l 11.2808,-53.1232 c 34.534,0.4686 68.0861,-0.1786 99.8976,-1.5398 -0.067,-0.9819 -0.078,-1.9638 -0.056,-2.9681 l 4.8091,-167.5184 c 0.5467,-18.9005 16.458,-33.9303 35.3597,-33.3903 18.9016,0.549 33.9314,16.4592 33.3959,35.3697 l -4.7199,164.334" /><path
         d="m 1593.606,1467.7642 -52.73,-0.4 c 0.77,-0.17 -49.17,-1.43 -57.63,44.53 -0.94,3.2 -1.38,6.29 -1.44,9.86 -3.11,56.03 27.9,60.99 27.9,60.99 l 70.29,14.75 8.17,-78.38 c 0,0 0,0 -0.06,-0.27 l 5.5,-51.08"
         style="fill:#e58638;fill-opacity:1;fill-rule:nonzero;stroke:none;stroke-width:0.09473679"
         id="path2426"
         inkscape:connector-curvature="0" /><path
         d="m 1593.606,1467.7642 -52.73,-0.4 c 0.77,-0.17 -49.17,-1.43 -57.63,44.53 32.59,16.37 104.92,7.22 104.92,7.22 0,0 0,0 -0.06,-0.27 l 5.5,-51.08"
         style="fill:#db772c;fill-opacity:1;fill-rule:nonzero;stroke:none;stroke-width:0.09473679"
         id="path2428"
         inkscape:connector-curvature="0" /><path
         inkscape:connector-curvature="0"
         id="path2432"
         style="fill:#d5e7f7;fill-opacity:1;fill-rule:nonzero;stroke:none;stroke-width:0.09756089"
         d="m 1757.6863,670.21454 h -693.8159 v 202.10021 h 693.8159 V 670.21454" /><path
         inkscape:connector-curvature="0"
         id="path2436"
         style="fill:#c4d9ed;fill-opacity:1;fill-rule:nonzero;stroke:none;stroke-width:0.09519058"
         d="m 1704.9567,813.35633 h -590.6658 c -6.5713,0 -11.9469,5.38065 -11.9469,11.94997 0,6.57032 5.3756,11.94996 11.9469,11.94996 h 590.6658 c 6.5814,0 11.947,-5.37964 11.947,-11.94996 0,-6.56932 -5.3656,-11.94997 -11.947,-11.94997" /><path
         inkscape:connector-curvature="0"
         id="path2440"
         style="fill:#c4d9ed;fill-opacity:1;fill-rule:nonzero;stroke:none;stroke-width:0.09519058"
         d="m 1704.9567,769.53643 h -590.6658 c -6.5713,0 -11.9469,5.37965 -11.9469,11.94997 0,6.57032 5.3756,11.94997 11.9469,11.94997 h 590.6658 c 6.5814,0 11.947,-5.37965 11.947,-11.94997 0,-6.57032 -5.3656,-11.94997 -11.947,-11.94997" /><path
         inkscape:connector-curvature="0"
         id="path2444"
         style="fill:#c4d9ed;fill-opacity:1;fill-rule:nonzero;stroke:none;stroke-width:0.09519058"
         d="m 1704.9567,723.716 h -590.6658 c -6.5713,0 -11.9469,5.38065 -11.9469,11.96001 0,6.57033 5.3756,11.94997 11.9469,11.94997 h 590.6658 c 6.5814,0 11.947,-5.37964 11.947,-11.94997 0,-6.57936 -5.3656,-11.96001 -11.947,-11.96001" /><path
         inkscape:connector-curvature="0"
         id="path2448"
         style="fill:#3b76ca;fill-opacity:1;fill-rule:nonzero;stroke:none;stroke-width:0.1932981"
         d="m 3383.5568,489.43428 h -917.3095 c -11.7321,0 -21.3423,9.60015 -21.3423,21.34023 v 502.06959 c 0,11.7403 9.6102,21.3402 21.3423,21.3402 h 917.3095 c 11.7322,0 21.3423,-9.5999 21.3423,-21.3402 V 510.77451 c 0,-11.74008 -9.6101,-21.34023 -21.3423,-21.34023" /><path
         inkscape:connector-curvature="0"
         id="path2452"
         style="fill:#699dee;fill-opacity:1;fill-rule:nonzero;stroke:none;stroke-width:0.19068336"
         d="m 3338.5556,489.43389 h -917.2998 c -11.7344,0 -21.3354,9.60011 -21.3354,21.34019 v 502.06882 c 0,11.7404 9.601,21.3393 21.3354,21.3393 h 917.2998 c 11.7546,0 21.3555,-9.5989 21.3555,-21.3393 V 510.77408 c 0,-11.74008 -9.6009,-21.34019 -21.3555,-21.34019" /><path
         inkscape:connector-curvature="0"
         id="path2456"
         style="fill:#a6d9f1;fill-opacity:1;fill-rule:nonzero;stroke:none;stroke-width:0.18451221"
         d="M 3253.7329,1008.864 V 514.79509 H 2427.4314 V 1008.864 h 826.3015" /><path
         inkscape:connector-curvature="0"
         id="path2460"
         style="fill:#3b76ca;fill-opacity:1;fill-rule:nonzero;stroke:none;stroke-width:0.18904063"
         d="m 3311.8123,700.76386 h -4.0707 c -10.895,0 -19.8146,8.93155 -19.8146,19.83058 v 82.42922 c 0,10.90104 8.9196,19.83059 19.8146,19.83059 h 4.0707 c 10.915,0 19.8346,-8.92955 19.8346,-19.83059 v -82.42922 c 0,-10.89903 -8.9196,-19.83058 -19.8346,-19.83058" /><path
         inkscape:connector-curvature="0"
         id="path2464"
         style="fill:#cff1ff;fill-opacity:1;fill-rule:nonzero;stroke:none;stroke-width:0.18451221"
         d="M 3253.7329,1008.864 V 514.79509 H 2681.9477 L 3056.438,1008.864 h 197.2949" /><path
         inkscape:connector-curvature="0"
         id="path2468"
         style="fill:#cff1ff;fill-opacity:1;fill-rule:nonzero;stroke:none;stroke-width:0.16716591"
         d="m 2955.2799,1008.8634 -408.824,-494.07017 h -54.9121 l 418.3347,494.07017 h 45.4014" /><path
         inkscape:connector-curvature="0"
         id="path2472"
         style="fill:#cff1ff;fill-opacity:1;fill-rule:nonzero;stroke:none;stroke-width:0.14373277"
         d="M 2552.0994,1008.8631 2427.4327,871.26242 v 137.60068 h 124.6667" /><path
         inkscape:connector-curvature="0"
         id="path2476"
         style="fill:#e49963;fill-opacity:1;fill-rule:nonzero;stroke:none;stroke-width:0.16119939"
         d="m 2852.6055,769.88469 c 0,-4.0599 -2.0078,-6.84874 -5.4109,-8.71874 l -0.034,-0.0204 c -6.2957,-3.46946 -17.3218,-3.80977 -29.3347,-3.2908 -1.5484,0.0613 -2.9267,0.1106 -4.1688,0.1106 -0.3063,0 -0.6296,0 -0.9529,-0.0102 -0.2552,0 -0.4934,-0.0204 -0.7486,-0.0204 -11.8769,-0.28926 -10.6177,-3.83869 -33.2143,-5.78016 -25.7445,-2.20011 -35.2221,5.68147 -36.7535,9.27174 -1.2591,3.03897 9.7669,6.49993 22.1202,10.43901 0.6125,0.19058 1.1911,0.38966 1.8036,0.57002 1.6335,0.52918 3.284,1.07028 4.9345,1.59946 14.7014,4.89025 29.1646,10.69084 32.7719,25.56068 3.8284,15.78018 -7.674,59.80949 -7.674,59.80949 l 40.8031,4.4002 c 0,0 3.9306,-46.03033 6.5,-60.36929 1.3782,-7.66038 4.8494,-13.75022 6.8742,-20.30119 0.1532,-0.45942 0.2893,-0.91884 0.4084,-1.37996 1.055,-3.85911 2.0929,-7.7999 2.0759,-11.87001" /><path
         inkscape:connector-curvature="0"
         id="path2480"
         style="fill:#9e3a38;fill-opacity:1;fill-rule:nonzero;stroke:none;stroke-width:0.16119939"
         d="m 2852.6055,769.88469 c 0,-4.0599 -2.0078,-6.84874 -5.4109,-8.71874 l -0.034,-0.0204 c -6.7041,-3.10023 -17.56,-3.54944 -29.3177,-3.21933 -1.5484,0.0493 -2.9266,0.0596 -4.1858,0.0391 -0.3063,0 -0.6296,0 -0.9529,-0.0102 -0.2552,0 -0.4934,-0.0204 -0.7486,-0.0204 -11.8769,-0.28926 -10.6177,-3.83869 -33.2143,-5.78016 -25.7445,-2.20011 -35.2221,5.68147 -36.7535,9.27174 -1.2591,3.03897 9.7669,6.49993 22.1202,10.43901 3.4711,-1.33912 19.9762,-7.06994 39.51,-3.36907 17.1686,3.22955 34.2351,11.77983 46.5033,14.63844 0.1532,-0.45942 0.2893,-0.91884 0.4084,-1.37996 1.055,-3.85911 2.0929,-7.7999 2.0759,-11.87001" /><path
         inkscape:connector-curvature="0"
         id="path2484"
         style="fill:#e49963;fill-opacity:1;fill-rule:nonzero;stroke:none;stroke-width:0.1475175"
         d="m 2587.8504,821.96249 c -2.2578,-11.32968 -18.4052,-9.43932 -36.4524,-5.02953 -18.0471,4.40979 -13.765,-0.82995 -39.4421,2.01026 -25.6771,2.83864 -33.4627,12.41966 -34.2413,16.2393 -0.7007,3.38053 11.9899,4.57952 25.5992,6.15067 1.7129,0.18997 3.4413,0.39862 5.1386,0.60884 15.3688,1.93084 26.6425,11.85131 40.5788,19.99043 13.2356,7.72025 32.9644,39.14002 32.9644,39.14002 l 35.2223,-2.79038 c 0,0 -18.4831,-28.07038 -25.6304,-40.26894 -4.2042,-7.17992 -3.9862,-16.67063 -3.4568,-24.00004 0.2647,-3.99092 0.5294,-8.06126 -0.2803,-12.05063" /><path
         inkscape:connector-curvature="0"
         id="path2488"
         style="fill:#9e3a38;fill-opacity:1;fill-rule:nonzero;stroke:none;stroke-width:0.14585771"
         d="m 2551.4017,816.93295 c -18.0442,4.40944 -13.7641,-0.82985 -39.4448,2.01073 -25.6807,2.83904 -33.4557,12.42003 -34.2409,16.2398 -0.7082,3.37945 11.9782,4.5788 25.5883,6.1492 l 0.1386,-0.26019 c 0,0 15.3961,-10.91891 36.7813,-11.4393 17.413,-0.42032 35.8729,4.56956 47.9126,4.38019 0.2618,-3.99067 0.5235,-8.05986 -0.2771,-12.05053 -2.2632,-11.32999 -18.4137,-9.43935 -36.458,-5.0299" /><path
         inkscape:connector-curvature="0"
         id="path2492"
         style="fill:#e49963;fill-opacity:1;fill-rule:nonzero;stroke:none;stroke-width:0.15036623"
         d="m 2666.232,1339.2584 c 0,0 -8.3963,20.559 -17.6338,21.3971 -9.2216,0.8396 -38.6007,5.4552 -40.6799,1.2586 -2.111,-4.195 0,-19.2988 6.2853,-24.754 6.2853,-5.4536 45.3145,-14.2657 45.3145,-14.2657 l 6.7139,16.364" /><path
         inkscape:connector-curvature="0"
         id="path2496"
         style="fill:#9e3a38;fill-opacity:1;fill-rule:nonzero;stroke:none;stroke-width:0.16067833"
         d="m 2722.8309,1047.1748 75.9152,-204.28073 c 0,0 11.6688,-1.12957 22.8458,2.08953 10.2781,2.97148 22.0656,10.75126 22.0656,10.75126 0,0 -18.8262,196.13974 -53.3577,236.93984 -34.5147,40.8002 -67.4689,-45.4999 -67.4689,-45.4999" /><path
         inkscape:connector-curvature="0"
         id="path2500"
         style="fill:#b74b42;fill-opacity:1;fill-rule:nonzero;stroke:none;stroke-width:0.17411485"
         d="m 3023.0673,1129.8133 c 0,0 -218.1196,73.7486 -266.7499,58.0495 -48.6487,-15.69 -194.705,-306.26068 -194.705,-306.26068 0,0 3.3082,-4.38886 12.2954,-7.75953 8.3624,-3.1391 28.6158,-2.93877 28.6158,-2.93877 0,0 131.8128,112.98 147.5083,145.92948 15.6955,32.9495 21.9626,64.3295 37.6581,61.1904 15.6955,-3.1299 202.4241,-76.8804 244.7873,-32.9513 42.3631,43.94 31.2807,101.0209 31.2807,101.0209 l -40.6907,-16.28" /><path
         inkscape:connector-curvature="0"
         id="path2504"
         style="fill:#163560;fill-opacity:1;fill-rule:nonzero;stroke:none;stroke-width:0.17638947"
         d="m 2889.7679,1472.899 c -3.4631,7.1925 -7.3731,19.9651 -9.2722,42.7341 0.2979,-2.2603 4.2265,-30.9781 15.2675,-47.2343 45.3556,-29.7809 132.2873,-129.2188 130.5743,-148.063 0,0 30.6281,51.943 31.1495,52.252 0,0 56.4897,71.8355 -10.4639,112.9833 -34.0353,20.9127 -33.8491,47.7519 -32.4341,71.0683 1.4337,23.3202 -9.2722,123.6854 -77.436,97.4215 0,0 -10.9479,4.8596 -15.8447,4.1316 0,0 4.0031,-0.7653 6.0325,-2.8655 -7.8944,0.4674 -19.196,-0.1191 -28.6172,-5.4777 -25.0052,-14.1987 -47.3479,-141.5986 -8.9557,-176.9503" /><path
         inkscape:connector-curvature="0"
         id="path2508"
         style="fill:#e49963;fill-opacity:1;fill-rule:nonzero;stroke:none;stroke-width:0.16760738"
         d="m 2898.4418,1466.9168 c -0.23,-0.1009 21.9026,-11.5918 38.5507,-7.0379 15.6573,4.2673 25.8832,24.5688 25.6709,24.613 -6.6345,1.318 -8.5452,10.4294 -8.4037,49.5815 l -3.0076,-0.5891 -50.4042,-9.98 c 0,0 1.15,-15.8608 1.1854,-30.8034 0.035,-12.5453 -0.7254,-24.4431 -3.5915,-25.7841" /><path
         inkscape:connector-curvature="0"
         id="path2512"
         style="fill:#d68d5d;fill-opacity:1;fill-rule:nonzero;stroke:none;stroke-width:0.1669319"
         d="m 2900.8589,1523.5028 c 0,0 1.1453,-15.8603 1.1806,-30.8026 28.2105,0.7947 43.1,26.5225 49.2143,40.7829 l -50.3949,-9.9803" /><path
         inkscape:connector-curvature="0"
         id="path2516"
         style="fill:#163560;fill-opacity:1;fill-rule:nonzero;stroke:none;stroke-width:0.1684477"
         d="m 2956.4772,1538.9747 c 0,0 14.7756,23.3513 18.314,43.3207 2.5426,14.2564 -4.7297,67.0986 -57.8225,59.4885 0,0 -15.4336,-1.5185 -29.9248,-11.3102 -11.5218,-7.7862 -28.1645,-24.5995 -9.5659,-70.7117 l 4.8363,-15.5758 74.1629,-5.2115" /><path
         inkscape:connector-curvature="0"
         id="path2520"
         style="fill:#e49963;fill-opacity:1;fill-rule:nonzero;stroke:none;stroke-width:0.16784137"
         d="m 2891.4468,1509.358 c 0,0 66.7207,-1.1002 66.7739,40.4648 0.035,41.5649 8.6811,69.4154 -33.9273,71.8762 -42.5907,2.4591 -50.8821,-13.392 -54.266,-27.2605 -3.4016,-13.8704 4.0571,-83.7234 21.4194,-85.0805" /><path
         inkscape:connector-curvature="0"
         id="path2524"
         style="fill:#163560;fill-opacity:1;fill-rule:nonzero;stroke:none;stroke-width:0.16862674"
         d="m 2893.9089,1622.7126 c 0,0 18.2623,-48.7635 46.3143,-55.9723 28.0342,-7.2105 40.1913,0.3026 40.1913,0.3026 0,0 -21.5018,17.084 -25.9695,46.9071 0,0 -46.7593,31.9732 -60.5361,8.7626" /><path
         inkscape:connector-curvature="0"
         id="path2528"
         style="fill:#163560;fill-opacity:1;fill-rule:nonzero;stroke:none;stroke-width:0.16386244"
         d="m 2898.4418,1618.7576 c 0,0 -13.647,-10.8864 -16.968,-21.4702 -3.3382,-10.5855 -4.8257,-32.3741 -11.1736,-31.632 0,0 -13.7681,33.1437 1.6951,51.8915 16.4145,19.8824 26.4465,1.2107 26.4465,1.2107" /><path
         inkscape:connector-curvature="0"
         id="path2532"
         style="fill:#699dee;fill-opacity:1;fill-rule:nonzero;stroke:none;stroke-width:0.17468706"
         d="m 3047.0328,1287.4035 c 6.5643,27.5906 -15.8209,81.1473 -39.1833,125.4825 -21.2051,40.1808 -43.2215,72.7795 -45.1945,71.6068 -55.9261,-33.1943 -60.9785,-5.5963 -60.9785,-5.5963 0,0 -50.8,-6.7469 -65.1825,-31.5089 -19.8959,-34.2416 -41.562,-136.9941 -62.8593,-135.4729 -9.7727,0.6989 -108.0906,37.6566 -108.0906,37.6566 0,0 -16.3924,-15.3451 -13.2577,-34.1771 0,0 48.5504,-32.5101 89.6145,-53.2598 21.7213,-10.9694 41.3407,-18.6512 50.5603,-16.4699 18.7157,4.3996 47.9419,47.7594 63.7074,73.2867 l 0.1106,0.1714 c 20.1541,-114.0593 -7.2466,-140.0291 6.6197,-152.0588 14.6592,-12.6991 35.5692,6.0499 81.6119,-13.8995 30.185,-13.1011 72.0788,-32.04 100.2908,-35.3295 14.7882,-1.7407 25.8149,0.839 29.429,10.8293 10.455,29.0307 -39.7549,106.1305 -27.1978,158.7394" /><path
         inkscape:connector-curvature="0"
         id="path2536"
         style="fill:#ffffff;fill-opacity:1;fill-rule:nonzero;stroke:none;stroke-width:0.16431811"
         d="m 2906.2821,1534.5545 c 0,0 -1.2488,-5.2797 -14.3788,-4.4662 0,0 -11.0312,0.6816 -10.6843,6.4851 0,0 10.6843,4.1281 25.0631,-2.0189" /><path
         inkscape:connector-curvature="0"
         id="path2540"
         style="fill:#3b76ca;fill-opacity:1;fill-rule:nonzero;stroke:none;stroke-width:0.17468706"
         d="m 3074.2306,1128.6641 c -3.6141,-9.9903 -14.6408,-12.57 -29.429,-10.8293 -19.5271,8.4986 -103.8496,41.1692 -102.9092,63.3091 1.4014,32.7812 16.2081,33.8194 5.7531,74.2805 -8.4083,32.4788 69.5157,92.8764 81.9438,106.0051 23.3809,-44.337 24.0078,-46.4354 17.4435,-74.026 -12.5571,-52.6089 37.6528,-129.7087 27.1978,-158.7394" /><path
         inkscape:connector-curvature="0"
         id="path2544"
         style="fill:#3b76ca;fill-opacity:1;fill-rule:nonzero;stroke:none;stroke-width:0.16140591"
         d="m 2856.1759,1318.9526 c -15.7765,-25.5287 -44.9955,-68.8886 -63.7025,-73.2876 -9.2342,-2.1808 -28.8612,5.4996 -50.5837,16.4699 15.8617,-4.0906 31.2634,-3.9714 46.2222,-2.53 16.2195,1.5691 20.9218,21.4499 46.5459,51.2601 16.6284,19.334 20.7003,14.4698 21.5181,8.0876" /><path
         inkscape:connector-curvature="0"
         id="path2548"
         style="fill:#c45446;fill-opacity:1;fill-rule:nonzero;stroke:none;stroke-width:0.16477001"
         d="m 2908.1612,1251.9144 c -1.1131,-2.9097 -6.1569,-4.4698 -8.6614,-5.0803 0.9913,2.2906 1.6175,4.7812 1.7914,7.39 1.5305,2.101 3.9654,3.3307 5.7395,3.0106 1.6001,-0.2904 2.5567,-1.6505 1.1305,-5.3203 z m 2.348,8.0701 c -2.0871,1.2992 -6.1917,0.8 -9.1658,0.1704 v 4.2994 c 0,0.9497 -0.052,1.8906 -0.174,2.8106 h -44.5245 c -0.1044,-0.92 -0.1739,-1.8609 -0.1739,-2.8106 v -8.7396 c 0,-12.34 10.0876,-22.4397 22.4362,-22.4397 6.6786,0 12.7138,2.9689 16.8358,7.6405 h -0.017 c 0,0 10.6094,2.5984 13.9139,6.5499 3.3394,3.9499 4.4177,10.3398 0.8697,12.5191" /><path
         inkscape:connector-curvature="0"
         id="path2552"
         style="fill:#e37970;fill-opacity:1;fill-rule:nonzero;stroke:none;stroke-width:0.16311401"
         d="m 2860.1,1264.4541 v -8.7397 c 0,-12.3398 10.1067,-22.4397 22.4517,-22.4397 1.0159,0 2.0317,0.069 3.0131,0.2187 -10.9332,1.4704 -19.4215,10.9005 -19.4215,22.221 v 8.7397 c 0,0.9504 0.069,1.8905 0.1894,2.8099 h -6.0433 c -0.1206,-0.9194 -0.1894,-1.8595 -0.1894,-2.8099" /><path
         inkscape:connector-curvature="0"
         id="path2556"
         style="fill:#c45446;fill-opacity:1;fill-rule:nonzero;stroke:none;stroke-width:0.163258"
         d="m 2888.0424,1232.4936 h -18.3185 v 2.74 h 18.3185 v -2.74" /><path
         inkscape:connector-curvature="0"
         id="path2560"
         style="fill:#e49963;fill-opacity:1;fill-rule:nonzero;stroke:none;stroke-width:0.16653968"
         d="m 2934.3097,1256.2034 c 0,0 -14.1161,10.9905 -27.4587,8.3712 -13.3427,-2.6211 -19.8821,-11.7711 -19.3723,-15.9496 0.5449,-4.1909 7.5942,-15.9602 17.7901,-17.0009 10.2135,-1.0495 39.2368,6.2705 39.2368,6.2705 l -10.1959,18.3088" /><path
         inkscape:connector-curvature="0"
         id="path2564"
         style="fill:#699dee;fill-opacity:1;fill-rule:nonzero;stroke:none;stroke-width:0.17708674"
         d="m 2962.6571,1484.4916 c 0,0 54.3952,-3.3497 73.1999,-29.6089 26.5059,-36.9644 90.1165,-201.3799 59.9842,-222.3884 -33.9269,-23.661 -165.466,0.6991 -165.466,0.6991 0,0 -4.0002,18.7392 1.5702,27.8107 5.5703,9.0602 96.2476,23.7095 100.4348,27.8892 4.1871,4.1908 -52.3017,81.6002 -52.3017,94.1541 0,12.5558 -17.4214,101.4442 -17.4214,101.4442" /><path
         inkscape:connector-curvature="0"
         id="path2568"
         style="fill:#ffefad;fill-opacity:1;fill-rule:nonzero;stroke:none;stroke-width:0.15960781"
         d="m 2756.7197,1658.5689 h -143.2543 c -37.6878,0 -68.5188,30.8343 -68.5188,68.5222 v 118.0032 c 0,37.6862 30.831,68.5188 68.5188,68.5188 h 143.2543 c 37.671,0 68.5188,-30.8326 68.5188,-68.5188 v -118.0032 c 0,-37.6879 -30.8478,-68.5222 -68.5188,-68.5222"
         inkscape:label="box3" /><path
         inkscape:connector-curvature="0"
         id="path2572"
         style="fill:#e69d43;fill-opacity:1;fill-rule:nonzero;stroke:none;stroke-width:0.15615939"
         d="m 2572.0935,1839.7118 193.813,16.7275 -101.2252,-65.756 -92.5878,49.0285" /><path
         inkscape:connector-curvature="0"
         id="path2576"
         style="fill:#ca5f00;fill-opacity:1;fill-rule:nonzero;stroke:none;stroke-width:0.15615939"
         d="m 2671.3242,1686.4532 94.5823,169.9861 -101.423,-65.4511 6.8407,-104.535" /><path
         inkscape:connector-curvature="0"
         id="path2580"
         style="fill:#ca5f00;fill-opacity:1;fill-rule:nonzero;stroke:none;stroke-width:0.15002139"
         d="m 2656.4349,1383.4724 -33.4606,8.9693 c -1.156,0.3088 -2.1695,0.041 -2.8663,-0.5796 l -0.048,0.013 -4.6873,-2.8266 3.753,-73.8161 32.1463,-8.6209 2.3595,0.19 5.4316,3.3207 -0.016,0.019 c 0.7601,0.5004 1.251,1.3603 1.251,2.4704 v 65.9759 c 0,2.1188 -1.7419,4.3183 -3.8639,4.8852" /><path
         inkscape:connector-curvature="0"
         id="path2584"
         style="fill:#e69d43;fill-opacity:1;fill-rule:nonzero;stroke:none;stroke-width:0.14972107"
         d="m 2651.2755,1306.617 -33.4568,8.9688 c -2.1335,0.5705 -3.8562,2.7688 -3.8562,4.8865 v 65.9797 c 0,2.1209 1.7227,3.39 3.8562,2.821 l 33.4568,-8.9687 c 2.1336,-0.5673 3.8562,-2.7657 3.8562,-4.885 v -65.9828 c 0,-2.1193 -1.7226,-3.3805 -3.8562,-2.8195" /><path
         inkscape:connector-curvature="0"
         id="path2588"
         style="fill:#ca5f00;fill-opacity:1;fill-rule:nonzero;stroke:none;stroke-width:0.14819108"
         d="m 2626.6016,1379.0006 -7.8055,2.3338 c -1.1732,0.3489 -2.0961,1.5956 -2.0648,2.7719 0.031,1.1747 1.0167,1.852 2.1899,1.5032 l 7.7899,-2.3338 c 1.1732,-0.3489 2.0961,-1.5956 2.0648,-2.7719 -0.031,-1.1747 -1.0167,-1.8505 -2.1743,-1.5032" /><path
         inkscape:connector-curvature="0"
         id="path2592"
         style="fill:#ffefad;fill-opacity:1;fill-rule:nonzero;stroke:none;stroke-width:0.15847285"
         d="m 2794.9719,1523.6056 c 0,2.9675 2.3921,5.3729 5.3696,5.3729 2.9608,0 5.3696,-2.4054 5.3696,-5.3729 0,-2.9675 -2.4088,-5.373 -5.3696,-5.373 -2.9775,0 -5.3696,2.4055 -5.3696,5.373"
         inkscape:label="dot31" /><path
         inkscape:connector-curvature="0"
         id="path2596"
         style="fill:#ffefad;fill-opacity:1;fill-rule:nonzero;stroke:none;stroke-width:0.15566865"
         d="m 2737.1042,1544.5338 c 0,5.6246 4.5516,10.1827 10.1712,10.1827 5.6197,0 10.1877,-4.5581 10.1877,-10.1827 0,-5.6229 -4.568,-10.1811 -10.1877,-10.1811 -5.6196,0 -10.1712,4.5582 -10.1712,10.1811"
         inkscape:label="dot32" /><path
         inkscape:connector-curvature="0"
         id="path2600"
         style="fill:#ffefad;fill-opacity:1;fill-rule:nonzero;stroke:none;stroke-width:0.15307856"
         d="m 2680.5823,1596.9246 c 0,8.9275 7.2228,16.1648 16.1583,16.1648 8.9355,0 16.1583,-7.2373 16.1583,-16.1648 0,-8.9274 -7.2228,-16.1647 -16.1583,-16.1647 -8.9355,0 -16.1583,7.2373 -16.1583,16.1647"
         inkscape:label="dot33" /><path
         inkscape:connector-curvature="0"
         id="path2604"
         style="fill:#ffefad;fill-opacity:1;fill-rule:nonzero;stroke:none;stroke-width:0.13187078"
         d="m 2139.6431,1879.5248 h 140.9509 c 37.0682,0 67.4131,30.331 67.4131,67.4131 v 116.1042 c 0,37.0821 -30.3449,67.4131 -67.4131,67.4131 h -140.9509 c -37.0821,0 -67.4131,-30.331 -67.4131,-67.4131 v -116.1042 c 0,-37.0821 30.331,-67.4131 67.4131,-67.4131"
         inkscape:label="box2" /><path
         inkscape:connector-curvature="0"
         id="path2608"
         style="fill:#e69d43;fill-opacity:1;fill-rule:nonzero;stroke:none;stroke-width:0.12986425"
         d="m 2276.0474,2072.9419 h -131.87 c -20.5892,0 -37.4225,-16.8333 -37.4225,-37.4225 v -32.3096 c 0,-19.3966 15.0101,-35.2841 33.9544,-37.0798 l -15.956,-46.3876 83.3578,46.0312 h 67.9363 c 20.603,0 37.4363,16.847 37.4363,37.4362 v 32.3096 c 0,20.5892 -16.8333,37.4225 -37.4363,37.4225" /><path
         inkscape:connector-curvature="0"
         id="path2612"
         style="fill:#ca5f00;fill-opacity:1;fill-rule:nonzero;stroke:none;stroke-width:0.12841761"
         d="m 2280.7994,2024.3801 h -145.2711 c -4.2699,0 -7.7807,3.5108 -7.7807,7.7942 v 0.3796 c 0,4.2834 3.5108,7.7942 7.7807,7.7942 h 145.2711 c 4.2834,0 7.7942,-3.5108 7.7942,-7.7942 v -0.3796 c 0,-4.2834 -3.5108,-7.7942 -7.7942,-7.7942" /><path
         inkscape:connector-curvature="0"
         id="path2616"
         style="fill:#ca5f00;fill-opacity:1;fill-rule:nonzero;stroke:none;stroke-width:0.12841761"
         d="m 2280.7994,1998.5439 h -145.2711 c -4.2699,0 -7.7807,3.5108 -7.7807,7.7942 v 0.3795 c 0,4.2835 3.5108,7.7943 7.7807,7.7943 h 145.2711 c 4.2834,0 7.7942,-3.5108 7.7942,-7.7943 v -0.3795 c 0,-4.2834 -3.5108,-7.7942 -7.7942,-7.7942" /><path
         inkscape:connector-curvature="0"
         id="path2620"
         style="fill:#ffefad;fill-opacity:1;fill-rule:nonzero;stroke:none;stroke-width:0.12956582"
         d="m 2306.1747,1699.8888 c -2.1609,2.284 -5.7715,2.3934 -8.0554,0.2188 -2.284,-2.1608 -2.3934,-5.7714 -0.2189,-8.0554 2.1609,-2.2976 5.7715,-2.3933 8.0554,-0.2188 2.2977,2.1609 2.3934,5.7715 0.2189,8.0554"
         inkscape:label="dot21" /><path
         inkscape:connector-curvature="0"
         id="path2624"
         style="fill:#ffefad;fill-opacity:1;fill-rule:nonzero;stroke:none;stroke-width:0.13138191"
         d="m 2335.4913,1758.2644 c -4.1049,4.3269 -10.9419,4.521 -15.2826,0.4161 -4.3269,-4.105 -4.5071,-10.9558 -0.416,-15.2827 4.1188,-4.3268 10.9558,-4.521 15.2826,-0.416 4.3268,4.1049 4.521,10.9558 0.416,15.2826"
         inkscape:label="dot22" /><path
         inkscape:connector-curvature="0"
         id="path2628"
         style="fill:#ffefad;fill-opacity:1;fill-rule:nonzero;stroke:none;stroke-width:0.13183098"
         d="m 2340.7961,1839.9088 c -6.5124,6.8743 -17.3804,7.1665 -24.2547,0.654 -6.8742,-6.5263 -7.1665,-17.3804 -0.654,-24.2547 6.5264,-6.8882 17.3804,-7.1804 24.2547,-0.654 6.8743,6.5124 7.1804,17.3665 0.654,24.2547"
         inkscape:label="dot23" /><path
         inkscape:connector-curvature="0"
         id="path2632"
         style="fill:#ffefad;fill-opacity:1;fill-rule:nonzero;stroke:none;stroke-width:0.09719426"
         d="M 768.82832,1988.6664 H 594.43494 c -45.87799,0 -83.41508,-37.5391 -83.41508,-83.4089 v -143.6624 c 0,-45.8698 37.53709,-83.4089 83.41508,-83.4089 h 174.39338 c 45.87799,0 83.41508,37.5391 83.41508,83.4089 v 143.6624 c 0,45.8698 -37.53709,83.4089 -83.41508,83.4089"
         inkscape:label="box1" /><path
         d="m 665.75604,1524.8642 c -2.664,-1.13 -3.907,-4.21 -2.775,-6.87 1.131,-2.67 4.207,-3.91 6.871,-2.78 2.664,1.13 3.907,4.21 2.775,6.87 -1.131,2.67 -4.207,3.91 -6.871,2.78"
         style="fill:#ffefad;fill-opacity:1;fill-rule:nonzero;stroke:none;stroke-width:0.09473679"
         id="path2638"
         inkscape:connector-curvature="0"
         inkscape:label="dot11" /><path
         d="m 703.57504,1568.1942 c -5.048,-2.15 -7.403,-7.98 -5.259,-13.02 2.144,-5.05 7.973,-7.41 13.021,-5.26 5.048,2.14 7.402,7.97 5.259,13.02 -2.144,5.05 -7.974,7.4 -13.021,5.26"
         style="fill:#ffefad;fill-opacity:1;fill-rule:nonzero;stroke:none;stroke-width:0.09473679"
         id="path2640"
         inkscape:connector-curvature="0"
         inkscape:label="dot12" /><path
         d="m 747.37204,1631.5142 c -3.402,8.01 -12.658,11.75 -20.671,8.34 -8.014,-3.4 -11.751,-12.65 -8.348,-20.67 3.403,-8.01 12.658,-11.75 20.671,-8.35 8.014,3.41 11.751,12.66 8.348,20.68"
         style="fill:#ffefad;fill-opacity:1;fill-rule:nonzero;stroke:none;stroke-width:0.09473679"
         id="path2642"
         inkscape:connector-curvature="0"
         inkscape:label="dot13" /><path
         d="m 772.31304,1835.9742 c -9.479,-24.98 -90.732,-90.58 -90.732,-90.58 0,0 -26.482,21.52 -51.008,44.69 -18.356,17.15 -35.51,35.21 -39.573,45.89 -9.629,24.83 0.603,60.34 36.113,66.36 35.359,6.02 54.468,-31 54.468,-31 0,0 19.11,37.02 54.62,31 6.168,-1.06 11.586,-3.01 16.25,-5.72 22.119,-12.34 27.686,-40.18 19.862,-60.64"
         style="fill:#d6716b;fill-opacity:1;fill-rule:nonzero;stroke:none;stroke-width:0.09473679"
         id="path2634"
         inkscape:connector-curvature="0" /><path
         d="m 772.31304,1835.9742 c -9.479,-24.98 -90.732,-90.58 -90.732,-90.58 0,0 -26.482,21.52 -51.008,44.69 96.75,27.09 117.514,83.06 121.878,106.53 22.119,-12.34 27.686,-40.18 19.862,-60.64"
         style="fill:#aa443e;fill-opacity:1;fill-rule:nonzero;stroke:none;stroke-width:0.09473679"
         id="path2636"
         inkscape:connector-curvature="0" /><path
         inkscape:connector-curvature="0"
         id="path2646"
         style="fill:#d9935c;fill-opacity:1;fill-rule:nonzero;stroke:none;stroke-width:0.13800213"
         d="m 2414.6362,1168.4357 7.7205,-12.4999 c 4.0059,-4.6002 5.0838,-7.1698 8.2594,-8.7401 7.6476,-3.77 21.8212,-13.4497 22.8846,-33.769 0,0 -0.2476,-11.5108 -7.9535,-7.7802 -7.7205,3.7291 -4.341,3.3795 -15.3098,8.3993 -10.9689,5.0299 -15.0331,20.9996 -15.9945,26.4505 l -8.9441,11.7497 9.3374,16.1897" /><path
         inkscape:connector-curvature="0"
         id="path2650"
         style="fill:#d9935c;fill-opacity:1;fill-rule:nonzero;stroke:none;stroke-width:0.10734626"
         d="m 1926.049,1351.547 c 0,0 -8.1923,20.0456 -17.1891,20.8649 -8.9968,0.8169 -37.6303,5.3176 -39.6812,1.226 -2.0509,-4.0905 0,-18.8185 6.1414,-24.1362 6.1301,-5.3187 44.1796,-13.911 44.1796,-13.911 l 6.5493,15.9563" /><path
         inkscape:connector-curvature="0"
         id="path2654"
         style="fill:#d9935c;fill-opacity:1;fill-rule:nonzero;stroke:none;stroke-width:0.12279782"
         d="m 2186.7172,515.37421 c 0.7777,-4.37078 1.5295,-8.85045 1.1147,-13.34956 -0.4148,-4.51078 -7.0513,-8.85046 -7.0643,-8.85046 -4.2904,-1.87041 -10.1492,-2.12058 -17.045,-1.87041 -2.0221,0.07 -4.1867,0.13999 -6.3384,0.33053 -3.0461,0.25924 -6.157,0.12962 -9.3845,0.55996 -1.698,0.21905 -3.2275,0.39923 -4.6015,0.51977 -0.35,0.0402 -0.7129,0.07 -1.0629,0.0907 -0.2852,0.0194 -0.5574,0.0389 -0.8296,0.0596 -7.816,0.50941 -10.6418,-0.69087 -16.8894,-1.74079 h -36.9288 c -16.3191,2.82053 -22.4502,9.41041 -23.4871,12.63017 -1.1148,3.49974 11.4973,6.22046 25.5999,9.34042 0.687,0.15036 1.361,0.30979 2.048,0.46015 1.8795,0.4096 3.772,0.84901 5.6385,1.27935 16.8117,3.93007 33.4549,8.89971 38.9508,25.02054 5.8459,17.08003 4.4589,67.79904 4.4589,67.79904 h 51.0055 c 0,0 -13.3897,-56.02954 -11.9769,-72.16982 0.7518,-8.6301 4.8867,-11.07992 6.481,-18.53955 0.1167,-0.53015 0.2204,-1.04992 0.3111,-1.5697" /><path
         inkscape:connector-curvature="0"
         id="path2658"
         style="fill:#80bdcc;fill-opacity:1;fill-rule:nonzero;stroke:none;stroke-width:0.1269473"
         d="m 2247.1892,1051.0445 c -4.3014,-24.1695 -10.452,-49.1404 -15.7852,-75.11098 -8.5626,-41.75976 -15.0348,-86.11912 -8.4152,-133.88878 0.8442,-6.1506 1.3132,-12.94038 1.407,-20.22998 1.2864,-84.43072 -36.4346,-237.43058 -36.4346,-237.43058 0,0 -10.251,-4.41932 -27.4164,-3.56976 -8.844,0.43014 -22.4048,6.1305 -22.4048,6.1305 0,0 -3.5778,94.86932 -3.7922,222.44938 -0.1474,92.46938 -18.3178,214.2298 -21.976,285.7805 -2.2244,43.2994 2.5996,100.9891 2.5996,100.9891 0,0 75.2008,60.4701 102.2018,29.5309 26.6794,-30.5708 46.1228,-84.2606 30.016,-174.6503" /><path
         inkscape:connector-curvature="0"
         id="path2662"
         style="fill:#5f9aa8;fill-opacity:1;fill-rule:nonzero;stroke:none;stroke-width:0.12509425"
         d="m 2222.9888,842.04606 c 0.8583,-6.15061 1.3204,-12.94031 1.4129,-20.23046 -56.3036,81.60055 -68.7686,259.5206 -68.7686,259.5206 l 61.8627,-30.0189 c 0,0 6.7738,-33.3609 13.9174,-75.38126 -8.5697,-41.76024 -15.0398,-86.12042 -8.4244,-133.88998" /><path
         inkscape:connector-curvature="0"
         id="path2666"
         style="fill:#d9935c;fill-opacity:1;fill-rule:nonzero;stroke:none;stroke-width:0.13204224"
         d="m 2350.5393,502.36461 c -0.4182,-4.49076 -2.927,-7.38007 -6.8853,-9.09999 l -0.056,-0.0195 c -2.4669,-1.07043 -5.4775,-1.70042 -8.9062,-2.00008 -3.4008,-0.30106 -7.1919,-0.26064 -11.2478,0 -4.042,0.24949 -8.3348,0.72895 -12.7392,1.31991 -1.7004,0.21882 -3.2335,0.40002 -4.5994,0.51988 -0.3624,0.0293 -0.7248,0.0697 -1.0733,0.0892 -0.2787,0.0209 -0.5575,0.0307 -0.8223,0.0599 -8.4463,0.56029 -11.0666,-0.88924 -18.4397,-1.98893 h -33.841 c -17.464,2.64958 -23.959,9.52928 -25.0183,12.84926 -1.129,3.49002 11.4847,6.19953 25.5898,9.31045 0.6829,0.15053 1.3659,0.30942 2.0628,0.45995 1.8676,0.40977 3.7492,0.83905 5.6308,1.26973 16.809,3.9207 33.4508,8.87002 38.9562,24.9403 5.8399,17.04035 -2.5088,66.80945 -2.5088,66.80945 l 47.2491,3.93046 c 0,0 -2.9269,-56.71988 -1.5192,-72.82082 0.7527,-8.58987 5.1431,-13.31897 6.732,-20.75896 0.1254,-0.53103 0.223,-1.03976 0.3205,-1.55964 0.7666,-4.36114 1.5332,-8.83099 1.1151,-13.3106" /><path
         inkscape:connector-curvature="0"
         id="path2670"
         style="fill:#80bdcc;fill-opacity:1;fill-rule:nonzero;stroke:none;stroke-width:0.13237572"
         d="m 2343.8818,580.06447 c 0,0 -12.1566,-5.74989 -20.9036,-7.50071 -8.7471,-1.74941 -26.8981,1.66978 -26.8981,1.66978 -3.2836,36.7406 -10.8989,94.18081 -25.6963,159.00994 -16.8515,73.8012 -41.919,161.02066 -76.8655,243.61087 -7.4616,17.63952 -38.2581,101.12955 -43.47,122.19945 -15.8035,63.6596 0.056,56.8003 0.056,56.8003 l 138.0812,16.2003 c 0,0 17.0051,-8.7401 24.844,-98.641 2.3474,-26.919 2.6269,-143.159 6.1621,-165.20001 3.3395,-20.86868 7.2659,-38.21895 11.8491,-49.48957 25.6544,-62.95955 12.8412,-278.65935 12.8412,-278.65935" /><path
         inkscape:connector-curvature="0"
         id="path2674"
         style="fill:#b84c42;fill-opacity:1;fill-rule:nonzero;stroke:none;stroke-width:0.13204224"
         d="m 2350.5393,502.00362 c -0.4182,-4.49912 -2.927,-7.39958 -6.8853,-9.12926 l -0.056,-0.0195 c -3.8747,-1.37009 -8.8505,-1.92063 -14.4953,-1.92063 -5.603,0 -11.875,0.54078 -18.37,1.31015 -1.7004,0.20071 -3.2336,0.34984 -4.6273,0.45019 -0.3624,0.0293 -0.7248,0.0697 -1.0733,0.0892 -0.2787,0.0209 -0.5575,0.0307 -0.8223,0.0613 -8.2512,0.53939 -10.9551,-0.84045 -17.9658,-1.91087 h -34.8306 c -17.0598,2.7109 -23.4573,9.50976 -24.5026,12.80047 -1.129,3.50954 11.4847,6.21905 25.5898,9.34948 3.7074,-1.83003 21.4503,-9.84984 43.4999,-7.69924 19.4014,1.84955 39.193,9.59896 53.103,11.5391 0.1254,-0.52963 0.223,-1.04951 0.3205,-1.56939 0.7666,-4.3709 1.5332,-8.85051 1.1151,-13.35102" /><path
         inkscape:connector-curvature="0"
         id="path2678"
         style="fill:#b84c42;fill-opacity:1;fill-rule:nonzero;stroke:none;stroke-width:0.12258562"
         d="m 2187.8367,502.02345 c -0.427,-4.50946 -2.9243,-7.39887 -6.8838,-9.13019 l -0.065,-0.0194 c -3.8819,-1.3703 -8.8507,-1.92023 -14.4924,-1.92023 -5.6028,0 -11.8785,0.54087 -18.3613,1.31984 -1.708,0.20056 -3.2349,0.35066 -4.6324,0.43994 -0.3623,0.0401 -0.7246,0.0699 -1.0739,0.0906 -0.2718,0.0194 -0.5564,0.0401 -0.8152,0.0595 -8.2555,0.53958 -10.9469,-0.82943 -17.9731,-1.90988 h -34.8205 c -17.0803,2.70955 -23.4724,9.5106 -24.5205,12.79985 -1.1129,3.50016 11.5033,6.22007 25.6074,9.3398 3.7007,-1.8193 21.4409,-9.83927 43.49,-7.69 19.3965,1.85036 39.1941,9.59989 53.1041,11.54083 0.1165,-0.53053 0.22,-1.0507 0.3235,-1.56958 0.7635,-4.37099 1.5269,-8.85068 1.1128,-13.35107" /><path
         inkscape:connector-curvature="0"
         id="path2682"
         style="fill:#b74b42;fill-opacity:1;fill-rule:nonzero;stroke:none;stroke-width:0.13587244"
         d="m 2132.5979,1585.4922 c -4.6755,38.0884 7.2284,99.0351 83.2559,89.2983 76.0131,-9.7398 99.9644,-84.4492 84.6327,-117.6684 -15.3317,-33.2191 22.0725,-41.2292 33.8187,-76.9525 10.0825,-30.6878 13.6106,-68.7904 29.9176,-85.8905 52.6355,-55.1325 -50.5129,-139.9173 -112.7002,-122.0384 -113.2596,32.5709 -127.8599,37.43 -123.8297,126.4199 2.0509,45.5964 37.5333,63.2644 15.0018,76.4563 -54.3996,31.8696 0.459,24.1908 -10.0968,110.3753" /><path
         inkscape:connector-curvature="0"
         id="path2686"
         style="fill:#d9935c;fill-opacity:1;fill-rule:nonzero;stroke:none;stroke-width:0.12584551"
         d="m 2244.3391,1485.7988 -20.9484,-54.1178 -45.2044,-2.2051 -22.5425,33.6742 c 14.2402,10.8235 20.2444,27.0575 22.4495,41.5886 1.8066,11.6272 1.3018,22.1479 0.797,27.8612 -0.3055,2.9065 -0.5978,4.6095 -0.5978,4.6095 l 56.3229,17.1359 0.1993,0.101 c 0.704,-14.9322 1.501,-26.6564 2.4043,-35.7757 3.2147,-32.1691 7.1201,-32.8718 7.1201,-32.8718" /><path
         inkscape:connector-curvature="0"
         id="path2690"
         style="fill:#d9935c;fill-opacity:1;fill-rule:nonzero;stroke:none;stroke-width:0.12856349"
         d="m 2155.4521,1487.7048 c 2.9177,0 52.2739,10.0463 135.6517,-11.2813 0,0 -45.6651,-209.1908 -30.1539,-248.6202 15.5112,-39.4294 21.4009,-74.4198 21.4009,-74.4198 l -168.2619,-2.0899 c 0,0 2.3613,135.3301 -5.4011,183.2303 -7.7624,47.8974 46.7643,153.1809 46.7643,153.1809" /><path
         inkscape:connector-curvature="0"
         id="path2694"
         style="fill:#e69d43;fill-opacity:1;fill-rule:nonzero;stroke:none;stroke-width:0.12993434"
         d="m 2287.6433,1320.591 c 2.4414,7.6847 5.2393,15.3324 8.2018,23.1693 3.4288,9.1289 18.8448,104.3282 7.5708,117.1767 -11.9049,13.5726 -52.461,23.8097 -52.461,23.8097 -8.3115,-13.024 -36.7707,-45.3798 -72.1013,-39.5494 -19.0506,3.1422 -22.9183,37.3838 -23.3572,41.9921 l 0.1372,0.5171 c 0,0 -0.069,-0.01 -0.1783,-0.023 v 0.025 c -0.1372,-0.029 -0.2606,-0.056 -0.4115,-0.084 -5.5547,-0.8216 -49.8277,-8.0276 -62.9806,-30.6414 -19.3935,-33.3871 -40.515,-133.576 -61.28,-132.0975 -9.5184,0.6844 -105.4158,36.7227 -105.4158,36.7227 0,0 -15.9646,-14.9634 -12.9061,-33.3254 0,0 47.3315,-31.7071 87.3802,-51.9275 5.5547,-2.8089 10.9448,-5.3888 16.0743,-7.6299 14.4285,-6.3392 26.594,-10.0094 33.2322,-8.439 1.9064,0.4499 3.9226,1.3098 6.0347,2.5291 8.6818,5.0198 18.8174,16.0305 28.5415,28.5909 6.4462,8.3595 12.7278,17.3801 18.2688,25.7889 0.1098,0.1783 0.2195,0.3511 0.3429,0.5308 2.3728,-31.8497 4.7592,-66.5096 2.2767,-93.67 -1.8652,-20.6704 -3.2368,-65.4206 0.3018,-76.9909 7.4062,-24.0991 61.7188,-30.4699 112.4243,-27.949 23.9058,1.1891 40.7756,2.5497 53.0645,5.3887 17.8299,4.0913 25.9905,11.2603 31.8469,25.4104 5.5959,13.4807 -20.2712,76.7604 -22.7262,104.4502 -2.2768,25.3596 1.6595,45.9504 8.1194,66.2257" /><path
         inkscape:connector-curvature="0"
         id="path2698"
         style="fill:#e69d43;fill-opacity:1;fill-rule:nonzero;stroke:none;stroke-width:0.13640583"
         d="m 2250.9507,1484.7438 c 0,0 40.0275,-1.5824 58.587,-18.8547 20.9929,-19.5285 52.223,-138.9431 60.6461,-197.0954 0,0 42.3601,-80.7304 55.8514,-112.7496 0,0 -2.5341,-4.3799 -7.5736,-7.6801 -4.9098,-3.1993 -11.0867,-4.4692 -11.0867,-4.4692 0,0 -76.4123,85.2889 -81.423,98.7687 -5.025,13.4898 -80.1415,129.5539 -75.0012,242.0803" /><path
         inkscape:connector-curvature="0"
         id="path2702"
         style="fill:#e58638;fill-opacity:1;fill-rule:nonzero;stroke:none;stroke-width:0.12953645"
         d="m 2302.2378,1149.914 c -5.8521,-14.1505 -14.0014,-21.3208 -31.8314,-25.4104 -23.8326,4.5791 -39.5569,48.4294 -47.6378,70.01 -9.3388,24.8703 39.2561,152.7403 52.6559,151.5754 9.9678,-0.8628 11.8958,-17.1751 12.2103,-25.4994 -6.4538,-20.2761 -10.3917,-40.8667 -8.122,-66.2266 2.4612,-27.6898 28.3311,-90.9698 22.725,-104.449" /><path
         inkscape:connector-curvature="0"
         id="path2706"
         style="fill:#e58638;fill-opacity:1;fill-rule:nonzero;stroke:none;stroke-width:0.11757214"
         d="m 2101.9912,1317.1961 c -5.535,-8.4093 -11.8147,-17.4292 -18.2681,-25.7901 -9.2582,-11.4002 -19.4967,-22.4293 -28.5439,-28.5898 -2.1098,-1.22 -4.1203,-2.08 -6.0315,-2.5293 -6.6395,-1.5699 -18.8017,2.0999 -33.235,8.4391 8.588,-0.6391 17.027,-0.3289 25.3172,0.3711 14.5326,1.2398 18.7521,16.97 41.7113,40.5497 13.7259,14.097 17.8958,11.9252 19.05,7.5493" /><path
         inkscape:connector-curvature="0"
         id="path2710"
         style="fill:#cc7c46;fill-opacity:1;fill-rule:nonzero;stroke:none;stroke-width:0.12528087"
         d="m 2234.6243,1554.3491 c -8.5163,-13.9303 -29.0666,-42.5922 -56.533,-49.6076 1.8117,11.6266 1.3092,22.1477 0.8066,27.8605 -0.3041,2.908 -0.6083,4.61 -0.6083,4.61 l 56.3347,17.1371" /><path
         inkscape:connector-curvature="0"
         id="path2714"
         style="fill:#d9935c;fill-opacity:1;fill-rule:nonzero;stroke:none;stroke-width:0.12680614"
         d="m 2163.5175,1533.3856 c 0,0 67.7152,-13.5979 75.5321,28.699 7.8169,42.2982 21.8177,69.031 -21.0815,79.5008 -42.8993,10.4712 -54.3168,-4.1119 -60.3535,-17.5961 -6.05,-13.4814 -11.5111,-85.9765 5.9029,-90.6037" /><path
         inkscape:connector-curvature="0"
         id="path2718"
         style="fill:#b74b42;fill-opacity:1;fill-rule:nonzero;stroke:none;stroke-width:0.12746361"
         d="m 2252.1592,1638.7826 c -11.4632,12.8908 -27.9854,15.3987 -40.0406,15.1901 7.2654,8.8033 -21.9443,28.1105 -55.3518,-4.8113 -14.3829,-14.181 -12.2167,-42.0574 -4.5073,-58.2324 0,0 11.84,34.6615 33.3807,42.2216 4.8032,1.6831 9.3508,4.487 13.5352,7.8237 2.6236,-6.5886 7.8978,-15.9153 18.5134,-27.5184 22.2672,-24.3446 17.9348,-73.5733 17.9348,-73.5733 0,0 36.5559,76.3758 16.5356,98.9" /><path
         inkscape:connector-curvature="0"
         id="path2722"
         style="fill:#ffffff;fill-opacity:1;fill-rule:nonzero;stroke:none;stroke-width:0.1223734"
         d="m 2184.5996,1554.193 c 0,0 -1.8084,-5.0209 -14.5577,-2.7411 0,0 -10.7083,1.9105 -9.7137,7.545 0,0 10.915,2.8276 24.2714,-4.8039" /></g></g></svg>