<?xml version="1.0" encoding="UTF-8" standalone="no"?>
<!-- Created with Inkscape (http://www.inkscape.org/) -->

<svg
   xmlns:dc="http://purl.org/dc/elements/1.1/"
   xmlns:cc="http://creativecommons.org/ns#"
   xmlns:rdf="http://www.w3.org/1999/02/22-rdf-syntax-ns#"
   xmlns:svg="http://www.w3.org/2000/svg"
   xmlns="http://www.w3.org/2000/svg"
   xmlns:sodipodi="http://sodipodi.sourceforge.net/DTD/sodipodi-0.dtd"
   xmlns:inkscape="http://www.inkscape.org/namespaces/inkscape"
   version="1.1"
   id="svg5585"
   xml:space="preserve"
   width="4600"
   height="2900"
   viewBox="0 0 4600 2900"
   sodipodi:docname="officina.svg"
   inkscape:version="0.92.4 (5da689c313, 2019-01-14)"><metadata
     id="metadata5591"><rdf:RDF><cc:Work
         rdf:about=""><dc:format>image/svg+xml</dc:format><dc:type
           rdf:resource="http://purl.org/dc/dcmitype/StillImage" /><dc:title /></cc:Work></rdf:RDF></metadata><defs
     id="defs5589"><clipPath
       clipPathUnits="userSpaceOnUse"
       id="clipPath6143"><path
         d="m 4625.63,19192.3 c -416.14,0 -753.49,337.3 -753.49,753.5 0,416.1 337.35,753.5 753.49,753.5 416.15,0 753.5,-337.4 753.5,-753.5 0,-416.2 -337.35,-753.5 -753.5,-753.5 m 0,2175.8 c -785.55,0 -1422.36,-636.8 -1422.36,-1422.3 0,-785.6 636.81,-1422.4 1422.36,-1422.4 785.56,0 1422.37,636.8 1422.37,1422.4 0,785.5 -636.81,1422.3 -1422.37,1422.3"
         id="path6141"
         inkscape:connector-curvature="0" /></clipPath></defs><sodipodi:namedview
     pagecolor="#ffffff"
     bordercolor="#666666"
     borderopacity="1"
     objecttolerance="10"
     gridtolerance="10"
     guidetolerance="10"
     inkscape:pageopacity="0"
     inkscape:pageshadow="2"
     inkscape:window-width="1699"
     inkscape:window-height="1056"
     id="namedview5587"
     showgrid="false"
     fit-margin-top="0"
     fit-margin-left="0"
     fit-margin-right="0"
     fit-margin-bottom="0"
     inkscape:zoom="0.09386842"
     inkscape:cx="-309.08072"
     inkscape:cy="1773.0866"
     inkscape:window-x="129"
     inkscape:window-y="0"
     inkscape:window-maximized="1"
     inkscape:current-layer="layer4" /><g
     inkscape:groupmode="layer"
     id="layer4"
     inkscape:label="ink_ext_XXXXXX 1" /><g
     id="g5593"
     inkscape:groupmode="layer"
     inkscape:label="ink_ext_XXXXXX"
     transform="matrix(1.3333333,0,0,-1.3333333,-384.29341,3141.7028)"><g
       transform="matrix(0.235356,0,0,0.235356,13.218503,-50.783863)"
       id="g5601"><path
         inkscape:connector-curvature="0"
         id="path5603"
         style="fill:#fff7f6;fill-opacity:1;fill-rule:nonzero;stroke:none"
         d="m 2864.74,9152.18 c 2190.84,813.34 4417.55,94.27 5927.73,-1471.86 755.29,-783.31 1925.73,-512.67 3117.33,-242.02 1190.8,270.48 2402.9,540.95 3243.1,-240.6 C 16300,6130.63 15774.5,3387.17 14201.7,2198.88 12063.7,583.754 4862.904,1434.9017 2777.56,1089.5 519.358,2036.58 2763.15,3790.43 1709.05,5471.67 465.449,7455.12 1896.57,8792.76 2864.74,9152.18"
         sodipodi:nodetypes="cccccccc" /></g><g
       transform="matrix(0.23144,0,0,0.23144,13.218503,-50.783863)"
       id="g5605"><path
         inkscape:connector-curvature="0"
         id="path5607"
         style="fill:#d4796a;fill-opacity:1;fill-rule:nonzero;stroke:none"
         d="m 15453.9,1582.74 c -1115.2,54.53 -4909,-37.81 -6062.8,-73.84 -1153.82,-36 -2493.13,47.53 -3188.81,170.32 -695.69,122.84 -4717.1,-10.45 -4534.61,-340.65 182.49,-330.19 1791.72,-147.72 3616.62,-280.41 1824.87,-132.738 5929.1,16.59 6854.9,0 925.8,-16.6 1774.7,33.18 2967.8,99.55 1193,66.32 993.3,393.44 346.9,425.03" /></g><g
       transform="matrix(0.18518,0,0,0.18518,13.218503,-50.783863)"
       id="g5609"><path
         inkscape:connector-curvature="0"
         id="path5611"
         style="fill:#cee3ff;fill-opacity:1;fill-rule:nonzero;stroke:none"
         d="m 15231.6,9902.76 -141.8,219.04 c -41.3,-4.7 -83.3,-7.2 -126,-7.2 -62.5,0 -123.8,5.3 -183.5,15.4 l -153,-211.32 c -74.9,19.44 -147.3,45.21 -216.5,76.72 l 14.1,260.5 c -90.6,51.1 -173.2,114.8 -245.4,188.6 l -23.8,-7.7 v 1608.5 l 65.4,-25.3 c 75.9,69.9 161.7,129.1 255.1,175.5 l -0.4,260.9 c 70.7,27.7 144.3,49.6 220.3,65 l 141.7,-219 c 41.4,4.7 83.4,7.2 126,7.2 62.5,0 123.8,-5.3 183.5,-15.3 l 153.1,211.2 c 74.9,-19.4 147.2,-45.2 216.4,-76.7 l -14.1,-260.5 c 90.6,-51.1 173.2,-114.8 245.5,-188.6 l 247.9,80.9 c 48.6,-59.1 92.2,-122.4 130.2,-189.3 l -164.4,-202.3 c 42.6,-92.7 72.5,-192.5 87.8,-297 l 247.9,-80.2 c 1.5,-26.4 2.4,-52.9 2.4,-79.7 0,-50.7 -2.9,-100.8 -8.4,-150 l -251.8,-67 c -20.7,-103.3 -56,-201.3 -103.4,-292 l 153.4,-210.7 c -41.4,-64.7 -88.4,-125.6 -140.1,-182.1 l -243.2,93.9 c -75.9,-69.9 -161.7,-129.1 -255.1,-175.5 l 0.3,-260.87 c -70.6,-27.73 -144.2,-49.63 -220.1,-65.07 m -267.8,1833.44 c -289.5,0 -524.1,-234.7 -524.1,-524.1 0,-289.4 234.6,-524.1 524.1,-524.1 289.4,0 524.1,234.7 524.1,524.1 0,289.4 -234.7,524.1 -524.1,524.1" /></g><g
       transform="matrix(0.180799,0,0,0.180799,13.218503,-50.783863)"
       id="g5613"><path
         inkscape:connector-curvature="0"
         id="path5615"
         style="fill:#ffffff;fill-opacity:1;fill-rule:nonzero;stroke:none"
         d="m 16058.5,10864 c -6.2,0 -12.5,2.1 -17.7,6.4 -11.7,9.7 -13.3,27.2 -3.5,38.9 133.7,160.9 207.4,364.9 207.4,574.5 0,100.4 -16.4,198.9 -48.8,292.9 -5,14.4 2.7,30.2 17.2,35.1 14.4,5 30.2,-2.7 35.1,-17.1 34.4,-99.8 51.8,-204.4 51.8,-310.9 0,-222.5 -78.2,-439.1 -220.2,-609.8 -5.5,-6.6 -13.4,-10 -21.3,-10" /></g><g
       transform="matrix(0.177598,0,0,0.177598,13.218503,-50.783863)"
       id="g5617"><path
         inkscape:connector-curvature="0"
         id="path5619"
         style="fill:#ffffff;fill-opacity:1;fill-rule:nonzero;stroke:none"
         d="m 16268.9,12349.6 c -7,0 -13.9,2.5 -19.4,7.6 -91.5,86.2 -197.5,151.5 -315,194.2 -14.6,5.3 -22.2,21.4 -16.9,36 5.3,14.7 21.5,22.2 36.1,16.9 124.8,-45.3 237.3,-114.6 334.5,-206.1 11.3,-10.6 11.8,-28.4 1.2,-39.8 -5.6,-5.8 -13,-8.8 -20.5,-8.8" /></g><g
       transform="matrix(0.170521,0,0,0.170521,13.218503,-50.783863)"
       id="g5621"><path
         inkscape:connector-curvature="0"
         id="path5623"
         style="fill:#ffffff;fill-opacity:1;fill-rule:nonzero;stroke:none"
         d="m 16029.5,13099.4 c -13.2,0 -25.1,8.8 -28.5,22.1 -3.9,15.7 5.6,31.6 21.3,35.6 80.8,20.4 164.3,30.7 248.4,30.7 16.2,0 29.3,-13.1 29.3,-29.3 0,-16.2 -13.1,-29.3 -29.3,-29.3 -79.3,0 -158,-9.7 -234.1,-29 -2.4,-0.6 -4.8,-0.8 -7.1,-0.8" /></g><g
       transform="matrix(0.160819,0,0,0.160819,13.218503,-50.783863)"
       id="g5625"
       style="display:inline"><path
         inkscape:connector-curvature="0"
         id="path5627"
         style="fill:#cee3ff;fill-opacity:1;fill-rule:nonzero;stroke:none"
         d="m 16199.3,10624.1 v 1360.8 l 100.7,32.8 v -1374.9 c -33.6,-6.3 -67.3,-12.6 -100.7,-18.7 m 100.7,3245.9 -100.7,38.8 v 364.1 H 7152.33 v -388.4 c -82.02,2.7 -164.54,4 -246.93,4 -73.81,0 -147.49,-1 -221.55,-3.2 v 528.5 H 16300 V 13870" /></g><g
       transform="matrix(0.160819,0,0,0.160819,13.218503,-50.783863)"
       id="g5629"
       style="display:inline"><path
         inkscape:connector-curvature="0"
         id="path5631"
         style="fill:#c2ddff;fill-opacity:1;fill-rule:nonzero;stroke:none"
         d="M 16300,8637.91 H 6683.85 v 5247.39 c 74.06,2.2 147.74,3.2 221.55,3.2 82.39,0 164.91,-1.3 246.93,-4 V 8970.46 h 9046.97 v 1653.64 c 33.4,6.1 67.1,12.4 100.7,18.7 V 8637.91" /></g><g
       transform="matrix(0.160819,0,0,0.160819,13.218503,-50.783863)"
       id="g5633"><path
         inkscape:connector-curvature="0"
         id="path5635"
         style="fill:#b6d5ff;fill-opacity:1;fill-rule:nonzero;stroke:none"
         d="m 16199.3,11984.9 v 1923.9 l 100.7,-38.8 v -1852.3 l -100.7,-32.8" /></g><g
       transform="matrix(0.159825,0,0,0.159825,13.218503,-50.783863)"
       id="g5637"><path
         inkscape:connector-curvature="0"
         id="path5639"
         style="fill:#ffffff;fill-opacity:1;fill-rule:nonzero;stroke:none"
         d="M 16300,9026.24 H 7196.8 V 14361.6 H 16300 V 9026.24" /></g><g
       transform="matrix(0.166229,0,0,0.166229,13.218503,-50.783863)"
       id="g5641"><path
         inkscape:connector-curvature="0"
         id="path5643"
         style="fill:#303c60;fill-opacity:1;fill-rule:nonzero;stroke:none"
         d="m 14383,11157.2 c 417.1,397 1130,388 1114.9,-216.6 -15,-604.6 34.9,-661.4 206.5,-978.53 595.6,-1100.46 -709.8,-1035.73 -1254.3,-1071.83 -544.4,-36.09 -499.3,989.61 -403,1558.06 96.2,568.5 213.8,592.7 335.9,708.9" /></g><g
       transform="matrix(0.157329,0,0,0.157329,13.218503,-50.783863)"
       id="g5645"><path
         inkscape:connector-curvature="0"
         id="path5647"
         style="fill:#4476bd;fill-opacity:1;fill-rule:nonzero;stroke:none"
         d="m 15402.1,8125.78 c -141.3,-1186.49 -398,-2063.57 -426.6,-2626.09 -28.7,-562.45 -143.1,-2777.24 -143.1,-2777.24 0,0 314.7,21.99 343.3,69.66 28.6,47.67 591.1,1296.59 562.5,2068.85 -28.6,772.21 561.8,1946.38 561.8,1946.38 l -142.4,1152.04 -755.5,166.4" /></g><g
       transform="matrix(0.156156,0,0,0.156156,13.218503,-50.783863)"
       id="g5649"><path
         inkscape:connector-curvature="0"
         id="path5651"
         style="fill:#3e6bab;fill-opacity:1;fill-rule:nonzero;stroke:none"
         d="m 15654.5,7666.44 -222.6,-93.17 c -60.5,-379.05 -127.7,-719.86 -186.6,-1022.19 354.2,-229 537.2,-992.08 615.6,-1458.6 40,522.04 286.3,1152.82 439.1,1501.64 l -645.5,1072.32" /></g><g
       transform="matrix(0.16562,0,0,0.16562,13.218503,-50.783863)"
       id="g5653"><path
         inkscape:connector-curvature="0"
         id="path5655"
         style="fill:#4476bd;fill-opacity:1;fill-rule:nonzero;stroke:none"
         d="m 15729.1,7832.62 c 0,0 452.4,-577.05 438.2,-1231.68 -21.6,-996.55 -130.3,-1281.06 58.9,-2325.98 73.8,-408.1 -163.1,-1743.14 -163.1,-1743.14 0,0 -202.3,-15.82 -311,38.28 9.1,98.05 -130.8,1693.75 -403.1,2427.24 -131.9,355.21 -317.2,1350.01 -416.8,1920.59 -99.7,570.53 -117.8,688.27 -81.5,688.27 36.2,0 878.4,226.42 878.4,226.42" /></g><g
       transform="matrix(0.133837,0,0,0.133837,13.218503,-50.783863)"
       id="g5657"><path
         inkscape:connector-curvature="0"
         id="path5659"
         style="fill:#f09959;fill-opacity:1;fill-rule:nonzero;stroke:none"
         d="m 16275.1,11675.8 c 0,0 24.9,369.5 -14.9,483.6 -39.9,114.2 -383.6,213.8 -383.6,213.8 0,0 -15,-528 19.9,-592.8 34.9,-64.7 239.1,-249 239.1,-249 l 139.5,144.4" /></g><g
       transform="matrix(0.149688,0,0,0.149688,13.218503,-50.783863)"
       id="g5661"><path
         inkscape:connector-curvature="0"
         id="path5663"
         style="fill:#a2dff2;fill-opacity:1;fill-rule:nonzero;stroke:none"
         d="m 16279.6,10680.1 c -703.6,-757.31 -933.3,-1075.97 -986.7,-1075.97 -167,294.81 -721.7,918.37 -721.7,918.37 l -236.6,-152.1 c 0,0 546.6,-1428.12 894,-1442.88 347.4,-14.77 1053.5,492.49 1062.4,550.74 9,58.26 -11.4,1201.84 -11.4,1201.84" /></g><g
       transform="matrix(0.149688,0,0,0.149688,13.218503,-50.783863)"
       id="g5665"><path
         inkscape:connector-curvature="0"
         id="path5667"
         style="fill:#96cfe0;fill-opacity:1;fill-rule:nonzero;stroke:none"
         d="m 15545.8,9001.54 c 344.2,140.16 738.6,433.3 745.2,476.72 9,58.26 -11.4,1201.84 -11.4,1201.84 -153.4,-165.1 -287.2,-311.5 -403.5,-439.6 -126,-469.36 -117.8,-980.49 -330.3,-1238.96" /></g><g
       transform="matrix(0.164948,0,0,0.164948,13.218503,-50.783863)"
       id="g5669"><path
         inkscape:connector-curvature="0"
         id="path5671"
         style="fill:#a2dff2;fill-opacity:1;fill-rule:nonzero;stroke:none"
         d="m 15422.2,10144.5 c 0,0 611.1,-306.27 744.4,-848.42 133.4,-542.13 -261.3,-1211.98 -309.8,-1569.42 -48.5,-357.45 -1163.9,-420.32 -1163.9,-37.71 0,366.84 -279.5,1145.44 -263.7,1343.81 37,465.33 717.2,1035.44 717.2,1035.44 l 275.8,76.3" /></g><g
       transform="matrix(0.156923,0,0,0.156923,13.218503,-50.783863)"
       id="g5673"><path
         inkscape:connector-curvature="0"
         id="path5675"
         style="fill:#f09959;fill-opacity:1;fill-rule:nonzero;stroke:none"
         d="m 16024.3,11401.6 275.7,-850.3 c 0,0 -294.4,-227.2 -798.3,-773.77 19.6,363.67 324.3,760.17 324.3,760.17 l -208.6,803 406.9,60.9" /></g><g
       transform="matrix(0.155507,0,0,0.155507,13.218503,-50.783863)"
       id="g5677"><path
         inkscape:connector-curvature="0"
         id="path5679"
         style="fill:#e38540;fill-opacity:1;fill-rule:nonzero;stroke:none"
         d="m 16300,11105.2 -129.8,400.2 -410.5,-61.4 210.5,-810.3 c 0,0 -20.6,-32.7 -50.9,-84.2 198.3,147.1 319.9,330.3 380.7,555.7" /></g><g
       transform="matrix(0.153522,0,0,0.153522,13.218503,-50.783863)"
       id="g5681"><path
         inkscape:connector-curvature="0"
         id="path5683"
         style="fill:#f09959;fill-opacity:1;fill-rule:nonzero;stroke:none"
         d="m 16224,11458 c -76,-276.6 -370.4,-428.8 -579.6,-371.3 -209.2,57.5 -253.9,302.9 -177.9,579.5 76,276.6 307.3,454.2 516.4,396.7 209.2,-57.5 317.1,-328.3 241.1,-604.9" /></g><g
       transform="matrix(0.16476,0,0,0.16476,13.218503,-50.783863)"
       id="g5685"><path
         inkscape:connector-curvature="0"
         id="path5687"
         style="fill:#a2dff2;fill-opacity:1;fill-rule:nonzero;stroke:none"
         d="m 14660.9,8060.87 c 85,-538.91 -230.8,-1691.79 -230.8,-1691.79 0,0 188.4,-42.79 752.8,11.83 564.5,54.63 813.3,617.99 898.3,633.71 85,15.72 128.6,-524.28 170.5,-566.94 41.9,-42.67 48.3,681.9 -61.3,966.8 -194.2,504.91 -156.2,719.1 -83.6,1025 129.1,544 -1445.9,-378.61 -1445.9,-378.61" /></g><g
       transform="matrix(0.147334,0,0,0.147334,13.218503,-50.783863)"
       id="g5689"><path
         inkscape:connector-curvature="0"
         id="path5691"
         style="fill:#4476bd;fill-opacity:1;fill-rule:nonzero;stroke:none"
         d="m 15854,3203.75 c 56.9,-230.97 -55.4,-414.17 -205.6,-547.74 -122.2,-108.59 -497.7,-154.75 -479.6,-209.05 18.1,-54.3 461.5,-71.47 610.8,-48.87 149.3,22.67 190.1,95.03 375.9,94.96 121.9,-0.07 144.5,99.02 90.2,221.47 -54.3,122.51 -73.3,190.18 -24.2,300 49,109.81 -367.5,189.23 -367.5,189.23" /></g><g
       transform="matrix(0.16729,0,0,0.16729,13.218503,-50.783863)"
       id="g5693"><path
         inkscape:connector-curvature="0"
         id="path5695"
         style="fill:#4476bd;fill-opacity:1;fill-rule:nonzero;stroke:none"
         d="m 15914.3,2821.56 c -8,-211.19 -32.5,-368.52 19.3,-466.43 200.1,-167.37 366.4,-357.52 302.9,-370.61 -302.9,-62.59 -418.4,118.95 -589.8,170.54 -210.3,63.36 19.9,327.57 -62.5,666.5 -45.8,188.48 317.6,143.29 317.6,143.29 l 12.5,-143.29" /></g><g
       transform="matrix(0.164117,0,0,0.164117,13.218503,-50.783863)"
       id="g5697"><path
         inkscape:connector-curvature="0"
         id="path5699"
         style="fill:#96cfe0;fill-opacity:1;fill-rule:nonzero;stroke:none"
         d="m 16300,7267.03 c -12.3,67.51 -27.5,128.32 -46.1,176.52 -194.9,506.9 -156.8,721.93 -83.9,1029.03 5.8,24.25 8.1,45.51 7.3,64.16 16.5,54.71 31.8,110.22 45.3,166.1 l -66.2,597.39 -477.1,566.67 c -357.6,-524.01 -116.3,-1176 -170,-1535.5 -53.6,-359.51 -652.8,-817.9 -652.8,-817.9 l 19.5,-127.53 c 26.8,-174.94 189,-296.5 364.3,-272.18 246.9,34.3 570.9,103.15 715.1,236.9 139.4,129.48 263,29.31 344.6,-83.66" /></g><g
       transform="matrix(0.152195,0,0,0.152195,13.218503,-50.783863)"
       id="g5701"><path
         inkscape:connector-curvature="0"
         id="path5703"
         style="fill:#f09959;fill-opacity:1;fill-rule:nonzero;stroke:none"
         d="m 16171.3,8124.24 c 0,0 -285.2,-79.83 -319.3,-97.63 -34.1,-17.87 -53,-112.16 -53,-112.16 0,0 -163.3,-141.79 -100.7,-191.99 62.5,-50.2 174.2,-177.28 321.9,-118.14 90.6,36.27 160.9,369.33 220.3,372.02 59.5,2.63 -69.2,147.9 -69.2,147.9" /></g><g
       transform="matrix(0.16672,0,0,0.16672,13.218503,-50.783863)"
       id="g5705"><path
         inkscape:connector-curvature="0"
         id="path5707"
         style="fill:#a2dff2;fill-opacity:1;fill-rule:nonzero;stroke:none"
         d="m 15499.9,9780.79 c 278.6,-7.9 531.3,-509.83 619.4,-945.27 88,-435.52 180.7,-1054.58 180.7,-1054.58 0,0 -461.9,-364.51 -918.2,-471.03 -398.1,-92.97 -601.4,-129.26 -601.4,-129.26 l -80.7,227.27 952.5,559.44 c 0,0 -350.2,659.79 -385.1,1157.64 -34.8,497.84 21,661.78 232.8,655.79" /></g><g
       transform="matrix(0.132021,0,0,0.132021,13.218503,-50.783863)"
       id="g5709"><path
         inkscape:connector-curvature="0"
         id="path5711"
         style="fill:#f5dc95;fill-opacity:1;fill-rule:nonzero;stroke:none"
         d="m 16300,12112.3 -877.3,-176 -111.7,557.1 877.3,176.1 111.7,-557.2" /></g><g
       transform="matrix(0.132021,0,0,0.132021,13.218503,-50.783863)"
       id="g5713"><path
         inkscape:connector-curvature="0"
         id="path5715"
         style="fill:#f09959;fill-opacity:1;fill-rule:nonzero;stroke:none"
         d="m 16288,11881.9 c 12,230.4 -102.1,544.7 -167.7,544.3 -65.7,-0.5 20.1,-206 -15.2,-342.3 -19.2,-73.9 182.9,-202 182.9,-202" /></g><g
       transform="matrix(0.161654,0,0,0.161654,13.218503,-50.783863)"
       id="g5717"><path
         inkscape:connector-curvature="0"
         id="path5719"
         style="fill:#303c60;fill-opacity:1;fill-rule:nonzero;stroke:none"
         d="m 14741.1,11374 c 16,-515.5 618.1,-476 783,-444.2 165,31.8 -200.8,-1087.54 113.4,-1152.12 230.8,-47.43 178.8,313.52 435.2,289.42 113.4,-10.7 227.3,-186.01 227.3,-186.01 0,0 -17,107.99 -103.6,186.01 -86.6,78 -313.7,556.3 -373.4,898.6 -59.6,342.3 -463.8,563.7 -583.4,570.6 -119.6,6.8 -412.4,-129.3 -412.4,-129.3 l -86.1,-33" /></g><g
       transform="matrix(0.15795,0,0,0.15795,13.218503,-50.783863)"
       id="g5721"><path
         inkscape:connector-curvature="0"
         id="path5723"
         style="fill:#303c60;fill-opacity:1;fill-rule:nonzero;stroke:none"
         d="m 15998.8,9887.57 c -8.3,0 -16.7,0.88 -25.4,2.72 -102.9,21.91 -152.8,130.11 -157,340.41 -3.7,180.3 26.1,411.7 57.6,656.7 12.8,99 26,201.3 36.9,300.4 0.9,8.5 8.4,14.6 17,13.7 8.4,-0.9 14.6,-8.6 13.6,-17 -10.9,-99.4 -24.1,-201.9 -36.8,-301 -61.1,-474 -118.8,-921.75 75.1,-963.04 6,-1.28 12.1,-1.91 18.1,-1.91 111.3,-0.02 211.6,217.05 270.1,428.45 2.2,8.2 10.7,13 19,10.7 8.2,-2.2 13,-10.7 10.7,-18.9 -38.6,-139.6 -142.4,-451.19 -298.9,-451.23" /></g><g
       transform="matrix(0.15902,0,0,0.15902,13.218503,-50.783863)"
       id="g5725"><path
         inkscape:connector-curvature="0"
         id="path5727"
         style="fill:#303c60;fill-opacity:1;fill-rule:nonzero;stroke:none"
         d="m 15850.2,9699.24 c -34.8,0 -65.2,13.49 -90.5,40.26 -208.7,220.57 -2.3,1327.2 6.5,1374.2 1.6,8.4 9.7,13.8 18,12.2 8.3,-1.5 13.7,-9.5 12.2,-17.9 -2.2,-11.3 -212.4,-1138.16 -14.4,-1347.44 23,-24.33 50.3,-34.04 83.3,-29.66 108.3,14.31 170.8,161.32 226,291 53.6,125.8 103.9,244.7 193.6,241.6 8.5,-0.3 15.1,-7.4 14.8,-15.9 -0.3,-8.5 -7.4,-15.3 -15.9,-14.8 -0.7,0.1 -1.4,0.1 -2.2,0.1 -67.2,0 -113.3,-108.4 -162.1,-223 -58.3,-137.22 -124.6,-292.78 -250.3,-309.38 -6.4,-0.85 -12.7,-1.28 -19,-1.28" /></g><g
       transform="matrix(0.154625,0,0,0.154625,13.218503,-50.783863)"
       id="g5729"><path
         inkscape:connector-curvature="0"
         id="path5731"
         style="fill:#f09959;fill-opacity:1;fill-rule:nonzero;stroke:none"
         d="m 16253.2,11323.2 c -44.3,-57.2 -113.8,-77.5 -155.2,-45.4 -41.4,32.1 -39,104.5 5.4,161.7 44.3,57.2 113.8,77.5 155.2,45.4 41.4,-32.2 39,-104.5 -5.4,-161.7" /></g><g
       transform="matrix(0.109242,0,0,0.109242,13.218503,-50.783863)"
       id="g5733"><path
         inkscape:connector-curvature="0"
         id="path5735"
         style="fill:#303c60;fill-opacity:1;fill-rule:nonzero;stroke:none"
         d="m 16082.5,13202.5 c 217.5,-435 37.4,-935.9 -390.4,-1112.9 -430.6,-178.1 -901.5,-77 -1119,358 -217.5,434.9 -56,956.5 360.8,1165 416.8,208.4 931,24.8 1148.6,-410.1" /></g><g
       transform="matrix(0.100281,0,0,0.100281,13.218503,-50.783863)"
       id="g5737"><path
         inkscape:connector-curvature="0"
         id="path5739"
         style="fill:#303c60;fill-opacity:1;fill-rule:nonzero;stroke:none"
         d="m 16242.2,13113 c -52.3,0 -155.4,18.4 -286.4,134.8 -107.6,95.3 -184.8,241.6 -217.4,411.8 -41.3,214.9 -14.4,461.8 79.8,734.2 4.3,12.6 18.1,19.3 30.9,14.9 12.6,-4.4 19.3,-18.1 14.9,-30.8 -91.3,-264.2 -117.5,-502.7 -78,-709.1 30.8,-159.8 102.5,-296.4 202,-384.7 166.2,-147.5 277.6,-120.7 278.8,-120.4 12.9,3.4 26.2,-4.2 29.7,-17 3.5,-12.9 -3.9,-26.2 -16.7,-29.8 -1.6,-0.5 -14.8,-3.9 -37.6,-3.9" /></g><g
       transform="matrix(0.121794,0,0,0.121794,13.218503,-50.783863)"
       id="g5741"><path
         inkscape:connector-curvature="0"
         id="path5743"
         style="fill:#a8ceff;fill-opacity:1;fill-rule:nonzero;stroke:none"
         d="m 13969.9,10323.6 c 222.1,-49.8 502.4,-666.79 639.7,-1062.13 138.4,-398.71 373.2,-893.32 526.9,-1046.93 153.6,-153.71 1163.5,-509.97 1163.5,-509.97 0,0 -2495.1,-4.84 -2444,0.09 51.1,4.92 113.9,2618.94 113.9,2618.94" /></g><g
       transform="matrix(0.118072,0,0,0.118072,13.218503,-50.783863)"
       id="g5745"><path
         inkscape:connector-curvature="0"
         id="path5747"
         style="fill:#93bbf0;fill-opacity:1;fill-rule:nonzero;stroke:none"
         d="m 15776.6,8151.86 c -140.9,20.16 -649.2,-45.31 -432.8,45.32 216.4,90.53 186.2,206.31 186.2,206.31 0,0 -307,-256.63 -362.3,-32.19 -47.7,193.45 -66,876.67 -247.2,1561.51 -149.6,339.49 -345.5,679.19 -510.3,716.19 0,0 -5.7,-241.1 -15.3,-579.2 63.2,-748.15 170.5,-1847.3 197.7,-2124.42 341.1,-0.51 912,0 1389.7,0.68 l 317.7,15.16 c 0,0 -382.5,170.49 -523.4,190.64" /></g><g
       transform="matrix(0.108545,0,0,0.108545,13.218503,-50.783863)"
       id="g5749"><path
         inkscape:connector-curvature="0"
         id="path5751"
         style="fill:#a8ceff;fill-opacity:1;fill-rule:nonzero;stroke:none"
         d="m 14759,11737 c 0,0 -792.6,-442.7 -977.3,-537 -184.7,-94.1 517.6,-2858.42 673.8,-2976.9 156.2,-118.47 1531.4,-20.36 1687.9,128.89 156.6,149.24 -120.2,607.3 15.4,1524.43 135.4,917.18 -413.3,1708.98 -483.8,1707.18 -70.5,-1.7 -530.6,153.4 -530.6,153.4 H 14759" /></g><g
       transform="matrix(0.108422,0,0,0.108422,13.218503,-50.783863)"
       id="g5753"><path
         inkscape:connector-curvature="0"
         id="path5755"
         style="fill:#93bbf0;fill-opacity:1;fill-rule:nonzero;stroke:none"
         d="m 14472,8232.46 c 156.3,-118.62 1141.4,-121.2 1560.8,9.22 47.3,14.76 262.2,100.35 267.2,180.86 -50.5,9.5 -251.5,-14.66 -333,4.16 -283.7,65.11 -439.9,416.43 -439.9,416.43 0,0 -156.2,56.26 -505.5,204.2 -349.4,147.94 -205.5,596 -213.7,793.28 -8.3,197.29 -345.3,842.59 -978.3,1331.79 l -58,-26.1 c -45.2,-449.7 555.6,-2804.09 700.4,-2913.84" /></g><g
       transform="matrix(0.133519,0,0,0.133519,13.218503,-50.783863)"
       id="g5757"><path
         inkscape:connector-curvature="0"
         id="path5759"
         style="fill:#75a1de;fill-opacity:1;fill-rule:nonzero;stroke:none"
         d="m 16178.3,8448.16 h -1551.4 l -706.6,-1503.61 h 1708.9 l 639.6,1361.08 c 31.2,66.36 -17.2,142.53 -90.5,142.53" /></g><g
       transform="matrix(0.120793,0,0,0.120793,13.218503,-50.783863)"
       id="g5761"><path
         inkscape:connector-curvature="0"
         id="path5763"
         style="fill:#3e6bab;fill-opacity:1;fill-rule:nonzero;stroke:none"
         d="m 15489.1,7652.62 h -1031.9 c -64,0 -115.9,51.9 -115.9,115.9 0,63.99 51.9,115.9 115.9,115.9 h 958 l 647.6,1393.88 c 27,58.11 96,83.28 154,56.29 58,-26.99 83.2,-95.87 56.2,-153.9 l -678.8,-1461.02 c -19,-40.89 -60,-67.05 -105.1,-67.05" /></g><g
       transform="matrix(0.109513,0,0,0.109513,13.218503,-50.783863)"
       id="g5765"><path
         inkscape:connector-curvature="0"
         id="path5767"
         style="fill:#f09959;fill-opacity:1;fill-rule:nonzero;stroke:none"
         d="m 15110.6,8832.34 c 493.8,-92.23 615.1,-205.55 884.3,-248.92 305.1,-49.22 268.8,-116.61 42.2,-116.61 -226.5,0 -796.1,-8.86 -991.5,34.61 -195.5,43.37 65,330.92 65,330.92" /></g><g
       transform="matrix(0.10211,0,0,0.10211,13.218503,-50.783863)"
       id="g5769"><path
         inkscape:connector-curvature="0"
         id="path5771"
         style="fill:#a8ceff;fill-opacity:1;fill-rule:nonzero;stroke:none"
         d="m 14584.1,11850.8 c -405.8,-1297.7 -981.2,-2770.09 -889.5,-2770.09 91.6,0 2422.1,-94.21 2513.7,-15.77 91.7,78.45 65.5,379.6 52.4,418.87 -13.1,39.27 -1324.9,272.06 -1324.9,272.06 0,0 172.7,336.73 238.3,994.63 65.4,657.9 -513,1346.4 -590,1100.3" /></g><g
       transform="matrix(0.103532,0,0,0.103532,13.218503,-50.783863)"
       id="g5773"><path
         inkscape:connector-curvature="0"
         id="path5775"
         style="fill:#f09959;fill-opacity:1;fill-rule:nonzero;stroke:none"
         d="m 15778,13417.5 -322.4,-1178.3 c 0,0 544.8,-850.4 694.6,-774.9 149.8,75.6 -83.7,691.3 -83.7,774.9 0,83.7 233.5,947 233.5,947 l -522,231.3" /></g><g
       transform="matrix(0.103532,0,0,0.103532,13.218503,-50.783863)"
       id="g5777"><path
         inkscape:connector-curvature="0"
         id="path5779"
         style="fill:#e38540;fill-opacity:1;fill-rule:nonzero;stroke:none"
         d="m 16077.7,12179.1 c -7,28 -11.2,48.9 -11.2,60.1 0,83.7 233.5,947 233.5,947 l -522,231.3 -106.7,-389.9 c 93.2,-402.8 261.4,-671 406.4,-848.5" /></g><g
       transform="matrix(0.10827,0,0,0.10827,13.218503,-50.783863)"
       id="g5781"><path
         inkscape:connector-curvature="0"
         id="path5783"
         style="fill:#f09959;fill-opacity:1;fill-rule:nonzero;stroke:none"
         d="m 16241.3,12849 c 58.7,-326.7 20,-760.7 -270.1,-871 -290.2,-110.3 -639.6,100.8 -780.6,471.4 -141,370.8 -20.1,760.7 270.1,871.1 290.1,110.3 710.4,-81.2 780.6,-471.5" /></g><g
       transform="matrix(0.101628,0,0,0.101628,13.218503,-50.783863)"
       id="g5785"><path
         inkscape:connector-curvature="0"
         id="path5787"
         style="fill:#f09959;fill-opacity:1;fill-rule:nonzero;stroke:none"
         d="m 16256.7,13492.9 c 43.3,-121.6 5.7,-246.2 -84,-278.2 -89.8,-31.9 -197.7,40.9 -241,162.6 -43.3,121.6 -5.7,246.2 84,278.1 89.8,31.9 197.7,-40.8 241,-162.5" /></g><g
       transform="matrix(0.107902,0,0,0.107902,13.218503,-50.783863)"
       id="g5789"><path
         inkscape:connector-curvature="0"
         id="path5791"
         style="fill:#303c60;fill-opacity:1;fill-rule:nonzero;stroke:none"
         d="m 16300,13304.6 c -99.2,-769.3 -1033.8,-670.1 -1033.8,-670.1 0,0 -192.8,253.3 -279.5,120.4 -86.8,-132.9 120.3,780 656.6,808.7 176.3,9.5 656.7,-259 656.7,-259" /></g><g
       transform="matrix(0.101613,0,0,0.101613,13.218503,-50.783863)"
       id="g5793"><path
         inkscape:connector-curvature="0"
         id="path5795"
         style="fill:#303c60;fill-opacity:1;fill-rule:nonzero;stroke:none"
         d="m 16300,14473.5 c 0,-278.6 -240.7,-504.4 -537.6,-504.4 -296.8,0 -537.6,225.8 -537.6,504.4 0,278.5 240.8,504.3 537.6,504.3 296.9,0 537.6,-225.8 537.6,-504.3" /></g><path
       inkscape:connector-curvature="0"
       id="path5797"
       style="display:inline;fill:#2e5b9a;fill-opacity:1;fill-rule:nonzero;stroke:none;stroke-width:0.1"
       d="m 1506.0885,273.27614 h 12.49 l 80.66,373.71 h -27.48 l -65.67,-373.71"
       inkscape:label="gamba21" /><g
       transform="matrix(0.115412,0,0,0.115412,13.218503,-50.783863)"
       id="g5799"
       inkscape:label="gamba22"><path
         inkscape:connector-curvature="0"
         id="path5801"
         style="fill:#2e5b9a;fill-opacity:1;fill-rule:nonzero;stroke:none"
         d="m 16300,2807.85 h -108.2 l -813.4,3352.5 h 238.1 l 683.5,-3352.5" /></g><g
       transform="matrix(0.113402,0,0,0.113402,13.218503,-50.783863)"
       id="g5803"
       style="display:inline"
       inkscape:label="seduta2a"><path
         inkscape:connector-curvature="0"
         id="path5805"
         style="fill:#2e5b9a;fill-opacity:1;fill-rule:nonzero;stroke:none"
         d="m 14421.1,6029.59 c -441.2,0 -720.8,79.18 -899.2,252.99 -221,215.43 -266.8,549.11 -267.5,983.84 -0.5,342.15 -8.7,564.98 -27.2,745.14 -6.9,67.81 42.4,128.47 110.2,135.44 67.8,6.97 128.4,-42.33 135.4,-110.14 19.4,-188.88 28,-419.12 28.5,-770 0.7,-440.64 56.6,-674.59 192.9,-807.39 140,-136.33 392.9,-192.5 819.9,-181.83 412.5,10.23 696.4,67.9 924.5,114.29 300,60.93 516.8,105.02 773.8,-17.82 61.6,-29.45 87.6,-103.08 58.2,-164.63 -29.4,-61.55 -103.1,-87.56 -164.6,-58.11 -182.4,87.12 -337.3,55.64 -618.2,-1.41 -237.7,-48.33 -533.4,-108.38 -967.6,-119.14 -33.8,-0.79 -66.9,-1.23 -99.1,-1.23" /></g><path
       inkscape:connector-curvature="0"
       id="path5807"
       style="display:inline;fill:#2e5b9a;fill-opacity:1;fill-rule:nonzero;stroke:none;stroke-width:0.1"
       d="m 1534.9285,874.83614 76.6,-3.19 -20.39,-211.46 c 0,0 -57.1,36.44 -56.21,75.66 0.9,39.21 0,138.99 0,138.99"
       inkscape:label="seduta 2b" /><g
       transform="matrix(0.138612,0,0,0.138612,13.218503,-50.783863)"
       id="g5809"><path
         inkscape:connector-curvature="0"
         id="path5811"
         style="fill:#f09959;fill-opacity:1;fill-rule:nonzero;stroke:none"
         d="m 13705.9,6535.64 c 467.2,70.92 626,48.55 912,-483.65 285.9,-532.13 666.5,-1490.27 885.4,-1614.07 329.6,-186.35 438.9,-643.23 574.2,-622.74 135.4,20.56 222.5,-39.25 75.2,-161.68 -147.3,-122.35 -385.1,-226.6 -466.4,-204.89 -81.3,21.72 -144.5,373.13 -356.8,487.19 -212.4,114.13 -148.6,207.85 -134.7,308.77 14,100.93 -620,565.54 -1097.9,1143.41 -292,353.14 -442.4,586.17 -464.7,797.4 -22.3,211.24 73.7,350.26 73.7,350.26" /></g><g
       transform="matrix(0.126402,0,0,0.126402,13.218503,-50.783863)"
       id="g5813"><path
         inkscape:connector-curvature="0"
         id="path5815"
         style="fill:#e38540;fill-opacity:1;fill-rule:nonzero;stroke:none"
         d="m 16300,5050.85 c -119,301.89 -238.4,800.14 -350.5,1256.94 -159.6,649.67 -326.9,803.86 -432.8,873.16 -128.1,32.12 -279.8,17.41 -486.8,-14 0,0 -105.3,-152.45 -80.9,-384.09 24.4,-231.64 189.4,-487.17 509.6,-874.43 275.9,-333.62 599.2,-632.82 841.4,-857.58" /></g><g
       transform="matrix(0.117763,0,0,0.117763,13.218503,-50.783863)"
       id="g5817"><path
         inkscape:connector-curvature="0"
         id="path5819"
         style="fill:#2e5b9a;fill-opacity:1;fill-rule:nonzero;stroke:none"
         d="m 16300,7141.49 c 0,0 -146.3,-1104.09 -282.6,-1216.35 -97.4,-80.24 -166.4,-85.59 -234.6,243.71 -68.1,329.31 105.9,1558.31 105.9,1558.31 l 411.3,-585.67" /></g><g
       transform="matrix(0.119385,0,0,0.119385,13.218503,-50.783863)"
       id="g5821"><path
         inkscape:connector-curvature="0"
         id="path5823"
         style="fill:#f09959;fill-opacity:1;fill-rule:nonzero;stroke:none"
         d="m 15963.5,6455.1 -1335.8,-224.48 754.2,1081.46 573.9,116.85 344.2,-79.16 -336.5,-894.67" /></g><g
       transform="matrix(0.132769,0,0,0.132769,13.218503,-50.783863)"
       id="g5825"><path
         inkscape:connector-curvature="0"
         id="path5827"
         style="fill:#2e5b9a;fill-opacity:1;fill-rule:nonzero;stroke:none"
         d="m 15863.6,4431.39 c -38.9,-156.96 -34.3,-272.95 33.4,-331.1 67.7,-58.07 323.3,-490.1 323.3,-490.1 l 79.7,12.12 -184.5,395.28 -251.9,413.8" /></g><g
       transform="matrix(0.138612,0,0,0.138612,13.218503,-50.783863)"
       id="g5829"><path
         inkscape:connector-curvature="0"
         id="path5831"
         style="fill:#2e5b9a;fill-opacity:1;fill-rule:nonzero;stroke:none"
         d="m 15686.3,3448.61 c 81.3,-21.71 319.1,82.54 466.4,204.89 147.3,122.43 60.2,182.24 -75.2,161.68 -7.6,-1.16 -15.1,-0.65 -22.6,1.15 -67.6,-151 -290,-264.26 -361.7,-104.75 -71.1,158.06 -375.7,472.68 -498.4,539.99 0.2,-2.45 0.3,-4.83 0,-7 -13.9,-100.92 -77.7,-194.64 134.7,-308.77 212.3,-114.06 275.5,-465.47 356.8,-487.19" /></g><g
       transform="matrix(0.121533,0,0,0.121533,13.218503,-50.783863)"
       id="g5833"><path
         inkscape:connector-curvature="0"
         id="path5835"
         style="fill:#e38540;fill-opacity:1;fill-rule:nonzero;stroke:none"
         d="m 12953.7,7411.27 c -465.5,-835.5 -147.5,-1366.47 418.4,-1420.61 565.8,-54.06 1459.1,49.21 1979.8,481.93 520.7,432.64 948.1,890.21 888.4,958.43 -59.7,68.29 -3286.6,-19.75 -3286.6,-19.75" /></g><g
       transform="matrix(0.126017,0,0,0.126017,13.218503,-50.783863)"
       id="g5837"><path
         inkscape:connector-curvature="0"
         id="path5839"
         style="fill:#f09959;fill-opacity:1;fill-rule:nonzero;stroke:none"
         d="m 15039,6546.33 c 91.9,275.84 197.9,487.47 403.1,491.36 215.8,3.97 348.5,-108.24 357.7,-461.21 11,-420.33 25.8,-1812.37 6.4,-2431.33 -14.7,-468.59 121.9,-618.57 110.3,-1106.99 -8.7,-367.89 383.5,-182.04 232,-372.89 -104.2,-131.17 -414.3,-88.24 -604.7,-64.04 -169.8,21.59 87.8,530.25 -147.1,666.26 -201.5,116.65 -205.5,306.15 -78.2,449.54 127.3,143.48 14.1,567.78 -70.7,864.89 -84.9,297.02 -216.6,618.4 -303,1320.77 -24.7,200.29 38,475.17 94.2,643.64" /></g><g
       transform="matrix(0.125607,0,0,0.125607,13.218503,-50.783863)"
       id="g5841"><path
         inkscape:connector-curvature="0"
         id="path5843"
         style="fill:#2e5b9a;fill-opacity:1;fill-rule:nonzero;stroke:none"
         d="m 16066.6,2824.68 c -65.2,-19.91 -145.6,-41.88 -215.6,-44.19 -142,-4.7 -184.6,151.42 -194,363.43 -8.2,185.19 -142.7,476.81 -280.7,595.03 -2.5,-3.34 -5.1,-6.68 -7.9,-9.79 -127.7,-143.86 -123.7,-333.98 78.5,-451.01 235.7,-136.45 -22.7,-646.78 147.6,-668.43 191,-24.28 502.2,-67.35 606.7,64.25 98.8,124.43 -23.8,134.31 -134.6,150.71" /></g><g
       transform="matrix(0.119085,0,0,0.119085,13.218503,-50.783863)"
       id="g5845"><path
         inkscape:connector-curvature="0"
         id="path5847"
         style="fill:#2e5b9a;fill-opacity:1;fill-rule:nonzero;stroke:none"
         d="m 16243.8,3989.08 c 0,0 -218.3,-228 -198.3,-322.8 20,-94.8 87.2,-334.3 98.5,-518.96 11.2,-184.57 21.2,-396.52 21.2,-396.52 0,0 78.6,0 84.8,22.34 6.3,22.25 50,750.39 50,750.39 l -56.2,465.55" /></g><g
       transform="matrix(0.116553,0,0,0.116553,13.218503,-50.783863)"
       id="g5849"><path
         inkscape:connector-curvature="0"
         id="path5851"
         style="fill:#75a1de;fill-opacity:1;fill-rule:nonzero;stroke:none"
         d="m 13273.4,7807.36 c 0,0 -287.9,-1222.01 75.8,-1560.75 363.8,-338.73 1874.5,-34.06 2230.4,-13.72 240.9,13.72 474.1,-280.31 474.1,-280.31 0,0 -168.3,681.84 -53.6,1232.41 114.7,550.56 299.9,587.63 299.9,587.63 l -246.3,34.74 h -2780.3" /></g><g
       transform="matrix(0.107803,0,0,0.107803,13.218503,-50.783863)"
       id="g5853"><path
         inkscape:connector-curvature="0"
         id="path5855"
         style="fill:#a8ceff;fill-opacity:1;fill-rule:nonzero;stroke:none"
         d="m 14280.2,8786.49 c 133.1,-282.46 -143.3,-770.3 -46.5,-910.83 97,-140.54 651.6,-19.67 1015,272.81 363.5,292.57 1051.3,356.85 1051.3,356.85 l -2019.8,281.17" /></g><g
       transform="matrix(0.113096,0,0,0.113096,13.218503,-50.783863)"
       id="g5857"><path
         inkscape:connector-curvature="0"
         id="path5859"
         style="fill:#2e5b9a;fill-opacity:1;fill-rule:nonzero;stroke:none"
         d="m 14148.6,6080.57 c 1048.1,-39.35 2151.4,-20.78 2151.4,135.46 0,156.15 -47.3,266.5 -859,203.45 -811.7,-63.04 -1363.4,-149.78 -1607.7,-94.61 -244.3,55.18 315.3,-244.3 315.3,-244.3" /></g><g
       transform="matrix(0.176515,0,0,0.176515,13.218503,-50.783863)"
       id="g5861"><path
         inkscape:connector-curvature="0"
         id="path5863"
         style="fill:#2e5b9a;fill-opacity:1;fill-rule:nonzero;stroke:none"
         d="M 16226.9,5070.16 H 6764.68 c -40.39,0 -73.14,32.74 -73.14,73.13 v 36.54 c 0,40.4 32.75,73.14 73.14,73.14 h 9462.22 c 40.4,0 73.1,-32.74 73.1,-73.14 v -36.54 c 0,-40.39 -32.7,-73.13 -73.1,-73.13" /></g><g
       transform="matrix(0.190043,0,0,0.190043,13.218503,-50.783863)"
       id="g5865"><path
         inkscape:connector-curvature="0"
         id="path5867"
         style="fill:#f09959;fill-opacity:1;fill-rule:nonzero;stroke:none"
         d="m 16239.6,7154.86 c 60.4,-213.06 -87.2,-432.59 -249.8,-478.74 -162.5,-46.09 -278.6,98.66 -339,311.72 -60.4,213.06 22.4,423.12 184.9,469.26 162.6,46.1 343.4,-89.19 403.9,-302.24" /></g><g
       transform="matrix(0.186521,0,0,0.186521,13.218503,-50.783863)"
       id="g5869"><path
         inkscape:connector-curvature="0"
         id="path5871"
         style="fill:#f09959;fill-opacity:1;fill-rule:nonzero;stroke:none"
         d="m 15617.4,3083.72 c 0,0 424.6,-659.44 481.9,-688.07 57.3,-28.68 200.7,-35.87 146.9,-143.36 -53.7,-107.5 -75.2,-530.4 -125.4,-551.9 -50.2,-21.49 -480.2,-71.68 -415.7,0 64.5,71.69 104.2,35.82 136.7,164.87 32.6,128.99 78.3,372.71 17.4,422.84 -61,50.18 -433.6,501.77 -433.6,501.77 l 191.8,293.85" /></g><g
       transform="matrix(0.158285,0,0,0.158285,13.218503,-50.783863)"
       id="g5873"><path
         inkscape:connector-curvature="0"
         id="path5875"
         style="fill:#f09959;fill-opacity:1;fill-rule:nonzero;stroke:none"
         d="m 15885.4,3300.12 c 0,0 -608.2,-1002.31 -720.8,-1092.4 -112.6,-90.09 -484.3,-225.29 -180.2,-247.78 304.1,-22.55 450.5,101.34 641.9,157.69 191.5,56.29 428,90.09 337.9,236.48 -90.1,146.38 -52.7,465.99 141.5,668.72 194.3,202.74 -220.3,277.29 -220.3,277.29" /></g><g
       transform="matrix(0.186692,0,0,0.186692,13.218503,-50.783863)"
       id="g5877"><path
         inkscape:connector-curvature="0"
         id="path5879"
         style="fill:#6791c9;fill-opacity:1;fill-rule:nonzero;stroke:none"
         d="m 16099.5,4768.55 c 0,0 -1276.4,33.37 -1782.4,-381.91 -296,-448.82 -1012.1,-1772.92 -1067.8,-1918.83 38.2,-38.19 253,-107.13 348.5,-97.54 281.7,335.85 654,626.22 802.1,889.64 182.5,324.66 238.7,486.96 534.7,515.61 296,28.66 964.4,124.11 1164.9,124.11 200.5,0 0,868.92 0,868.92" /></g><g
       transform="matrix(0.197144,0,0,0.197144,13.218503,-50.783863)"
       id="g5881"><path
         inkscape:connector-curvature="0"
         id="path5883"
         style="fill:#2e5b9a;fill-opacity:1;fill-rule:nonzero;stroke:none"
         d="m 16300,1571.44 h -63.4 l -454.3,1895.62 h 139.4 L 16300,1571.44" /></g><g
       transform="matrix(0.181261,0,0,0.181261,13.218503,-50.783863)"
       id="g5885"><path
         inkscape:connector-curvature="0"
         id="path5887"
         style="fill:#2e5b9a;fill-opacity:1;fill-rule:nonzero;stroke:none"
         d="m 15664,1709.14 h 69 l 567,2134.6 h -151.6 L 15664,1709.14" /></g><g
       transform="matrix(0.196252,0,0,0.196252,13.218503,-50.783863)"
       id="g5889"><path
         inkscape:connector-curvature="0"
         id="path5891"
         style="fill:#75a1de;fill-opacity:1;fill-rule:nonzero;stroke:none"
         d="m 16007,4619.41 -706,-121.83 c 0,0 -938,-8.61 -1366.8,-88.51 -390.2,-72.66 -447.7,-515.91 0,-1126.3 254.2,-346.75 469.2,-623.33 908.8,-935.18 111.9,82.09 154.6,113.17 185.6,310.72 -31.9,43.62 -114.2,316.69 -139.8,370.14 -243.2,508.33 -567.7,693.19 -572.2,743.18 54.5,88.56 1443.5,-461.6 1719.7,-137.99 263.7,308.99 -29.3,985.77 -29.3,985.77" /></g><g
       transform="matrix(0.197921,0,0,0.197921,13.218503,-50.783863)"
       id="g5893"><path
         inkscape:connector-curvature="0"
         id="path5895"
         style="fill:#f37168;fill-opacity:1;fill-rule:nonzero;stroke:none"
         d="m 15901.1,6165.12 c -184.4,25.92 -372.2,-9.14 -547.8,-136.26 -153.4,-156.43 -327,-414.36 -316.4,-839.83 13.5,-540.37 -83.6,-575.08 17.7,-723.67 422.6,-174.52 1145.3,-924.26 975.1,-120.46 -123.2,582 270.3,1015.81 -47.1,1661.42 -25.9,52.55 -58.2,103.53 -81.5,158.8" /></g><g
       transform="matrix(0.194202,0,0,0.194202,13.218503,-50.783863)"
       id="g5897"><path
         inkscape:connector-curvature="0"
         id="path5899"
         style="fill:#d54a41;fill-opacity:1;fill-rule:nonzero;stroke:none"
         d="m 15324.8,5081.16 c -8.4,-287.13 -48.9,-371.68 -17.9,-461.69 175.5,-17.92 496.7,-88.2 577,-200.56 91.7,-128.48 183.6,-146.86 140.7,-52.01 -42.8,94.85 -156,229.5 18.4,691.5 174.4,461.99 257,774.09 85.6,1095.35 l -803.8,-1072.59" /></g><g
       transform="matrix(0.193077,0,0,0.193077,13.218503,-50.783863)"
       id="g5901"><path
         inkscape:connector-curvature="0"
         id="path5903"
         style="fill:#f09959;fill-opacity:1;fill-rule:nonzero;stroke:none"
         d="m 16300,6319.8 c -116.4,275.49 -145,585 -145,585 l -304.6,-90.02 c 0,0 173.1,-387.72 6.9,-526.21 -35.3,-29.42 -76.3,-65.16 -118.8,-108.45 180,130.31 372.5,166.25 561.5,139.68" /></g><g
       transform="matrix(0.191612,0,0,0.191612,13.218503,-50.783863)"
       id="g5905"><path
         inkscape:connector-curvature="0"
         id="path5907"
         style="fill:#e38540;fill-opacity:1;fill-rule:nonzero;stroke:none"
         d="m 16287.8,6883.69 c -18.2,16.18 -40.9,36.38 -64.8,57.51 l -250.4,-74 -0.6,-1.36 c 6.1,-13.83 69.9,-162.67 78.3,-305.82 74.6,45.3 156.3,119.09 249.7,248.05 -5.1,28.6 -9.1,54.12 -12.2,75.62" /></g><g
       transform="matrix(0.193528,0,0,0.193528,13.218503,-50.783863)"
       id="g5909"><path
         inkscape:connector-curvature="0"
         id="path5911"
         style="fill:#f09959;fill-opacity:1;fill-rule:nonzero;stroke:none"
         d="m 16048.4,6218.7 c -313.1,-109.49 -278.4,-439.32 -566.5,-925.71 -149.1,-251.69 -287.6,-247.92 -287.6,-247.92 0,0 -349.6,-2.84 -772.6,48.88 -264.9,32.4 -281.7,-46.45 -97.5,-112.33 371.5,-132.8 757.1,-275.78 1067.9,-241.26 310.9,34.57 842.5,827.68 870,1034.17 37.9,285.54 -56.1,499.3 -213.7,444.17" /></g><g
       transform="matrix(0.198327,0,0,0.198327,13.218503,-50.783863)"
       id="g5913"><path
         inkscape:connector-curvature="0"
         id="path5915"
         style="fill:#2e5b9a;fill-opacity:1;fill-rule:nonzero;stroke:none"
         d="m 15502.8,3375.74 c -19,0 -38.4,0.25 -58.3,0.75 -248.3,6.16 -417.3,40.49 -553.2,68.13 -160.7,32.62 -249.2,50.62 -353.5,0.75 -35.2,-16.79 -77.3,-1.91 -94.1,33.28 -16.9,35.19 -2,77.3 33.2,94.14 147,70.23 271,45.02 442.5,10.18 130.4,-26.52 292.8,-59.5 528.6,-65.34 265.5,-6.56 428,33.27 511,125.29 74.1,82.19 96,219.19 68.7,431.21 -9.3,71.8 -18.5,131.5 -26.6,184.14 -22.9,147.79 -38,245.45 -19.3,395.96 17.3,140.33 63.9,327.49 171.7,690.68 11.1,37.36 50.4,58.64 87.8,47.55 37.4,-11.1 58.7,-50.37 47.6,-87.74 -201.7,-679.33 -191.5,-745.68 -148.3,-1024.87 8.3,-53.5 17.7,-114.15 27.1,-187.72 32.9,-255.89 -0.1,-428.68 -103.9,-543.75 -106.9,-118.59 -281.3,-172.64 -561,-172.64" /></g><g
       transform="matrix(0.155899,0,0,0.155899,13.218503,-50.783863)"
       id="g5917"><path
         inkscape:connector-curvature="0"
         id="path5919"
         style="fill:#d54a41;fill-opacity:1;fill-rule:nonzero;stroke:none"
         d="m 16170.4,2492.89 c -409.7,-200.32 -630.1,-315.2 -761.5,-304.23 -31,2.56 -56.7,5.77 -78.2,9.1 -146.2,-86.33 -379.4,-188.39 -117,-207.82 308.7,-22.9 457.4,102.88 651.8,160.1 194.4,57.15 434.5,91.47 343,240.09 -17.5,28.48 -30.2,63.44 -38.1,102.76" /></g><g
       transform="matrix(0.186412,0,0,0.186412,13.218503,-50.783863)"
       id="g5921"><path
         inkscape:connector-curvature="0"
         id="path5923"
         style="fill:#d54a41;fill-opacity:1;fill-rule:nonzero;stroke:none"
         d="m 16146.1,2383.06 c -8.4,-271.28 -45.7,-540.1 -211.6,-590.9 -43.9,-13.46 -84,-15.39 -119.5,-10.67 -26.1,-32.24 -57.9,-32.62 -100.7,-80.09 -64.5,-71.73 365.8,-21.52 416,0 50.2,21.51 71.7,444.66 125.5,552.21 44.2,88.36 -44.7,109.01 -109.7,129.45" /></g><g
       transform="matrix(0.170417,0,0,0.170417,13.218503,-50.783863)"
       id="g5925"><path
         inkscape:connector-curvature="0"
         id="path5927"
         style="fill:#75a1de;fill-opacity:1;fill-rule:nonzero;stroke:none"
         d="m 16217.8,5424.22 h -1190.6 c -32,0 -61,18.54 -74.5,47.53 l -481.2,1035.58 c -19.1,41.13 -1.2,89.95 39.9,109.08 41.2,19.13 90,1.29 109.1,-39.9 l 459.1,-987.99 h 1138.2 c 45.5,0 82.2,-36.79 82.2,-82.15 0,-45.36 -36.7,-82.15 -82.2,-82.15" /></g><g
       transform="matrix(0.176258,0,0,0.176258,13.218503,-50.783863)"
       id="g5929"><path
         inkscape:connector-curvature="0"
         id="path5931"
         style="fill:#f09959;fill-opacity:1;fill-rule:nonzero;stroke:none"
         d="m 15921.3,5583.08 c -232.6,3.34 -463.3,142 -577.9,121.75 -114.6,-20.2 -488.8,-279.76 -441.6,-289.92 47.2,-10.09 343.8,143.66 353.9,146.04 10.1,2.33 74.2,-106.55 232.6,-146.49 158.5,-40 1.2,118.75 492.3,-29.62 319.4,-96.45 -59.3,198.24 -59.3,198.24" /></g><g
       transform="matrix(0.193077,0,0,0.193077,13.218503,-50.783863)"
       id="g5933"><path
         inkscape:connector-curvature="0"
         id="path5935"
         style="fill:#f2e5de;fill-opacity:1;fill-rule:nonzero;stroke:none"
         d="m 16268.8,6571.2 31.2,-251.4 c 0,0 -274.8,-16.31 -411.5,-93.28 -136.8,-76.91 -338.6,-299.2 -338.6,-299.2 l 164.9,283.82 23.7,181.59 530.3,178.47" /></g><g
       transform="matrix(0.193947,0,0,0.193947,13.218503,-50.783863)"
       id="g5937"><path
         inkscape:connector-curvature="0"
         id="path5939"
         style="fill:#f2e5de;fill-opacity:1;fill-rule:nonzero;stroke:none"
         d="m 16079.4,6235.38 c -203.2,38.1 -297.2,-143.96 -428.9,-441.16 -131.7,-297.19 -356.7,-658.12 -401.4,-704.68 -44.7,-46.5 -753.6,0 -753.6,0 0,0 -21.5,-205.26 0,-229.75 21.4,-24.49 143.9,-21.45 143.9,-21.45 0,0 49.1,-39.13 95,-70.12 46,-30.99 435.1,-89.2 615.9,-80.02 180.7,9.23 346.1,24.54 370.6,52.12 24.6,27.54 517.8,787.33 548.5,1060.04 30.6,272.65 -86.3,415.58 -190,435.02" /></g><g
       transform="matrix(0.194595,0,0,0.194595,13.218503,-50.783863)"
       id="g5941"><path
         inkscape:connector-curvature="0"
         id="path5943"
         style="fill:#303c60;fill-opacity:1;fill-rule:nonzero;stroke:none"
         d="m 15428.7,7460.47 c -383,-18.35 -323,-594.52 -323,-594.52 0,0 99.5,-30.73 307.9,3.65 -16,61.82 -9.2,219.84 -9.2,219.84 0,0 24.3,-128.27 55,-206.12 44.1,-20.2 93.9,-2.26 178.6,18.19 43.5,-183.05 166.5,-260.44 250.7,-286.9 93,-29.24 191.5,-64.08 301.4,-9.15 109.9,54.98 49.5,616.82 -8.9,729.77 -87.6,169.64 -233.3,321.39 -485.2,241.27 -126.3,-40.24 -267.3,-116.03 -267.3,-116.03" /></g><g
       transform="matrix(0.214401,0,0,0.214401,13.218503,-50.783863)"
       id="g5945"><path
         inkscape:connector-curvature="0"
         id="path5947"
         style="fill:#303c60;fill-opacity:1;fill-rule:nonzero;stroke:none"
         d="m 14607.9,6150.22 142.1,-207.61 c 0,0 -157.5,-393.56 300.6,-571.82 358.8,-139.65 316.5,-385.68 154.4,-633.12 -162.1,-247.43 97,-463.52 97,-463.52 0,0 39.5,274.11 388.1,325.84 475.3,70.52 609.9,708.67 254.9,1027.74 -293.8,264.04 -383.2,45.39 -582,282.33 -198.9,236.94 -574.2,76.91 -574.2,76.91 l -137.6,200.65 -43.3,-37.4" /></g><g
       transform="matrix(0.213326,0,0,0.213326,13.218503,-50.783863)"
       id="g5949"><path
         inkscape:connector-curvature="0"
         id="path5951"
         style="fill:#303c60;fill-opacity:1;fill-rule:nonzero;stroke:none"
         d="m 16189.6,5011.29 c -1.8,0 -3.7,0.47 -5.5,1.4 -5.5,3.05 -7.5,9.99 -4.5,15.52 120.4,220.04 22.1,486.63 -27.3,558.82 -5.2,7.64 -10.1,15.37 -15.4,23.53 -48.5,75.84 -109,170.21 -431.2,228.19 -77.2,13.88 -139.7,59.86 -206,108.52 -137.5,100.88 -293.3,215.21 -631.7,59.49 -5.7,-2.67 -12.5,-0.14 -15.2,5.58 -2.6,5.72 -0.1,12.51 5.7,15.14 350.6,161.39 512.2,42.8 654.7,-61.83 64.1,-47.02 124.6,-91.46 196.6,-104.44 332,-59.77 395.4,-158.77 446.4,-238.32 5.1,-8.02 10,-15.61 15,-22.93 29.8,-43.54 66.5,-133.69 81.6,-236.96 13.1,-89.53 14.4,-222.24 -53.2,-345.76 -2,-3.8 -6,-5.95 -10,-5.95" /></g><g
       transform="matrix(0.193453,0,0,0.193453,13.218503,-50.783863)"
       id="g5953"><path
         inkscape:connector-curvature="0"
         id="path5955"
         style="fill:#303c60;fill-opacity:1;fill-rule:nonzero;stroke:none"
         d="m 16105.5,6581.84 c -25.1,0 -52.3,2.18 -81.5,6.57 -134.3,20.11 -314.5,96.46 -328.6,525.55 -0.3,6.98 5.2,12.77 12.1,13.03 7.2,0.31 12.8,-5.22 13,-12.2 5.9,-177.62 41.2,-309.07 104.9,-390.74 48.5,-62.14 112.8,-97.34 202.3,-110.73 125.3,-18.81 208.5,4.45 247.1,69.12 3.6,5.94 11.3,7.91 17.3,4.34 6,-3.57 7.9,-11.32 4.3,-17.27 -34.8,-58.3 -98.9,-87.67 -190.9,-87.67" /></g><path
       inkscape:connector-curvature="0"
       id="path5957"
       style="fill:#96cfe0;fill-opacity:1;fill-rule:nonzero;stroke:none;stroke-width:0.1"
       d="m 802.8915,1163.5961 c -86.504,-49.47 -206.823,-255.07996 -181.423,-288.63996 25.401,-33.55 161.763,54.68 161.763,54.68 l 19.66,233.95996" /><path
       inkscape:connector-curvature="0"
       id="path5959"
       style="fill:#303c60;fill-opacity:1;fill-rule:nonzero;stroke:none;stroke-width:0.1"
       d="m 964.5035,1402.0361 c -33.033,0.9 -20.775,25.45 -58.76,15.65 -19.97,-5.16 -5.228,-13.37 -31.171,-10.7 -25.945,2.68 -38.711,5.35 -41.981,-11.58 -3.271,-16.94 -4.852,-22.29 -17.33,-24.96 -12.478,-2.67 -18.113,-24.96 0,-40.11 18.114,-15.15 9.308,-21.39 5.297,-33.87 -4.01,-12.48 9.661,-13.37 17.086,-24.95 7.425,-11.59 -6.836,-13.78 3.86,-23.83 10.695,-10.04 25.697,-9.15 25.697,-9.15 l 45.026,86.33 52.276,77.17" /><g
       transform="matrix(0.108752,0,0,0.108752,13.218503,-50.783863)"
       id="g5961"><path
         inkscape:connector-curvature="0"
         id="path5963"
         style="fill:#2e5b9a;fill-opacity:1;fill-rule:nonzero;stroke:none"
         d="m 14935.5,3830.84 c 0,0 442.6,-12.32 786.8,122.94 344.1,135.26 577.7,344.18 516.3,98.39 -61.4,-245.88 -344.2,-667.66 -590.1,-708.77 -245.9,-41.1 -331.9,-311.63 -467.1,-311.63 -135.3,0 -332,311.63 -676.1,467.31 -313.8,141.88 430.2,331.76 430.2,331.76" /></g><path
       inkscape:connector-curvature="0"
       id="path5965"
       style="fill:#2e5b9a;fill-opacity:1;fill-rule:nonzero;stroke:none;stroke-width:0.1"
       d="m 1258.1985,370.33614 c 0,0 20.25,-27.91 55.47,-47.33 36.38,-20.05 78.36,-29.7 52.33,-38.77 -26.02,-9.07 -64.08,-16.12 -101.19,-5.34 -26.04,7.56 -56.56,9.14 -64.62,21.44 -8.06,12.3 9.49,43.19 2.19,89.35 -5.85,36.99 55.82,-19.35 55.82,-19.35" /><g
       transform="matrix(0.100392,0,0,0.100392,13.218503,-50.783863)"
       id="g5967"><path
         inkscape:connector-curvature="0"
         id="path5969"
         style="fill:#3e6bab;fill-opacity:1;fill-rule:nonzero;stroke:none"
         d="m 10156.4,8663.83 c 0,0 2777,-1039.82 3000.8,-1330.58 223.7,-290.66 3142.8,-2938.68 3142.8,-3133.91 0,-195.34 -497.2,-550.54 -497.2,-550.54 0,0 -2503.5,1535.97 -3125,2317.21 -621.6,781.34 -2138.3,1157.96 -2944.64,1230.28 -806.36,72.41 423.24,1467.54 423.24,1467.54" /></g><path
       inkscape:connector-curvature="0"
       id="path5971"
       style="fill:#4476bd;fill-opacity:1;fill-rule:nonzero;stroke:none;stroke-width:0.1"
       d="m 1043.5285,818.99614 c 0,0 190.74,7.13 231.74,0 41,-7.13 130.93,-7.05 72.11,-173.06 -46.11,-130.12 -61.32,-294.86 -61.32,-294.86 l -91.68,-22.52 c 0,0 3.64,296.23 47.38,375.1 -31.85,-5.25 -90.32,-15.49 -171.36,-38.67 -150.329,-42.99 -232.754,-21.46 -232.754,-21.46 l -22.383,78.44 228.267,97.03" /><path
       inkscape:connector-curvature="0"
       id="path5973"
       style="fill:#a86b48;fill-opacity:1;fill-rule:nonzero;stroke:none;stroke-width:0.1"
       d="m 884.2495,1311.4561 -46.605,-137.7 58.878,-38.77 33.366,118.98 -45.639,57.49" /><path
       inkscape:connector-curvature="0"
       id="path5975"
       style="fill:#7a4e34;fill-opacity:1;fill-rule:nonzero;stroke:none;stroke-width:0.1"
       d="m 901.7885,1153.7661 28.1,100.2 -45.639,57.49 -17.048,-50.37 c 5.884,-45.49 20.098,-83.12 34.587,-107.32" /><path
       inkscape:connector-curvature="0"
       id="path5977"
       style="fill:#a86b48;fill-opacity:1;fill-rule:nonzero;stroke:none;stroke-width:0.1"
       d="m 1003.1305,1288.1461 c 1.512,-41.88 -19.06,-78.13 -51.758,-81.35 -32.697,-3.23 -62.538,27.97 -66.65,69.68 -4.113,41.7 19.06,78.12 51.757,81.35 32.698,3.22 64.264,-3.59 66.651,-69.68" /><path
       inkscape:connector-curvature="0"
       id="path5979"
       style="fill:#a2dff2;fill-opacity:1;fill-rule:nonzero;stroke:none;stroke-width:0.1"
       d="m 815.2615,1177.7661 c -143.056,-96.61 -54.079,-252.72996 -22.666,-366.81996 26.756,-97.17 25.884,-155.9 29.894,-155.9 4.011,0 102.396,14.71 158.545,65.51 56.154,50.8 94.114,100.01 94.114,100.01 0,0 -71.94,12.81 -95.451,105.87 -11.935,47.23996 -6.509,72.88996 -33.717,147.75996 -27.209,74.86 -130.719,103.57 -130.719,103.57" /><path
       inkscape:connector-curvature="0"
       id="path5981"
       style="fill:#a2dff2;fill-opacity:1;fill-rule:nonzero;stroke:none;stroke-width:0.1"
       d="m 815.2615,1177.7661 15.322,37.49 c 0,0 48.577,-32.09 67.962,-47.24 19.385,-15.15 31.343,-18.72 31.343,-18.72 0,0 7.007,-53.74 2.456,-48.86 -57.334,61.45 -117.083,77.33 -117.083,77.33" /><path
       inkscape:connector-curvature="0"
       id="path5983"
       style="fill:#2e5b9a;fill-opacity:1;fill-rule:nonzero;stroke:none;stroke-width:0.1"
       d="m 751.8605,259.01614 h 12.491 l 89.571,373.71 h -27.48 l -74.582,-373.71" /><path
       inkscape:connector-curvature="0"
       id="path5985"
       style="fill:#2e5b9a;fill-opacity:1;fill-rule:nonzero;stroke:none;stroke-width:0.1"
       d="m 1126.0285,259.01614 h -12.49 l -102.778,386.92 h 27.478 l 87.79,-386.92" /><path
       inkscape:connector-curvature="0"
       id="path5987"
       style="fill:#2e5b9a;fill-opacity:1;fill-rule:nonzero;stroke:none;stroke-width:0.1"
       d="m 891.0065,618.72614 c -50.037,0 -81.737,8.98 -101.966,28.69 -25.077,24.43 -30.266,62.27 -30.341,111.57 -0.158,103.65 -5.89,125.08 -35.07,188.37 -3.237,7.01996 -0.169,15.33996 6.853,18.57996 7.022,3.23 15.339,0.17 18.575,-6.86 30.843,-66.89996 37.476,-91.48996 37.642,-200.04996 0.076,-49.96 6.415,-76.49 21.879,-91.55 15.864,-15.46 44.539,-21.83 92.979,-20.62 46.77,1.16 78.964,7.7 104.832,12.96 34.019,6.91 58.609,11.91 87.759,-2.02 6.98,-3.34 9.93,-11.69 6.59,-18.67 -3.33,-6.98 -11.69,-9.93 -18.66,-6.6 -20.69,9.89 -38.25,6.32 -70.112,-0.15 -26.946,-5.48 -60.48,-12.29 -109.718,-13.51 -3.844,-0.1 -7.595,-0.14 -11.242,-0.14" /><path
       inkscape:connector-curvature="0"
       id="path5989"
       style="fill:#3e6bab;fill-opacity:1;fill-rule:nonzero;stroke:none;stroke-width:0.1"
       d="m 1509.1385,875.21614 h -202.92 c -7.73,0 -14,6.26 -14,14 0,7.73 6.27,14 14,14 h 193.98 l 78.24,168.36996 c 3.26,7.01 11.58,10.06 18.59,6.8 7.02,-3.26 10.06,-11.58 6.8,-18.6 l -82,-176.46996 c -2.29,-4.94 -7.25,-8.1 -12.69,-8.1" /><path
       inkscape:connector-curvature="0"
       id="path5991"
       style="fill:#96cfe0;fill-opacity:1;fill-rule:nonzero;stroke:none;stroke-width:0.1"
       d="m 820.5585,1037.1061 c 0,0 35.652,-108.73996 79.771,-153.74996 44.119,-45.01 132.909,-60.14 160.709,-58.37 -22.16,8.91 -64.368,34.27 -81.341,101.45 -11.935,47.23996 -6.509,72.88996 -33.717,147.75996 -20.198,55.57 -82.431,85.71 -113.167,97.55 38.363,-27.56 86.328,-72.93 101.068,-107.46 16.361,-38.33 -113.323,-27.18 -113.323,-27.18" /><path
       inkscape:connector-curvature="0"
       id="path5993"
       style="fill:#a86b48;fill-opacity:1;fill-rule:nonzero;stroke:none;stroke-width:0.1"
       d="m 1312.6385,941.67614 c 0,0 61.49,28.06996 68.18,25.39996 6.68,-2.68 74.86,-43.84996 74.86,-50.66996 0,-6.82 -60.16,25.42 -60.16,25.42 0,0 6.69,-17.82 2.68,-26.37 -4.01,-8.54 -50.26,-8.54 -91.98,-5.87 -41.71,2.67 6.42,32.09 6.42,32.09" /><path
       inkscape:connector-curvature="0"
       id="path5995"
       style="fill:#a2dff2;fill-opacity:1;fill-rule:nonzero;stroke:none;stroke-width:0.1"
       d="m 822.5245,1121.1161 c -56.688,-116.19 137.77,-233.96996 253.134,-244.43996 115.37,-10.48 252.43,27.28 252.43,27.28 l -15.45,37.72 c 0,0 -231.13,30.15996 -236.98,34.38996 -5.85,4.22 -232.372,187.6 -253.134,145.05" /><path
       inkscape:connector-curvature="0"
       id="path5997"
       style="fill:#a86b48;fill-opacity:1;fill-rule:nonzero;stroke:none;stroke-width:0.1"
       d="m 896.2295,1307.5361 c 5.255,-13.82 1.402,-28.1 -8.605,-31.91 -10.007,-3.81 -22.378,4.31 -27.633,18.13 -5.254,13.82 -1.401,28.1 8.605,31.91 10.007,3.8 22.379,-4.31 27.633,-18.13" /><path
       inkscape:connector-curvature="0"
       id="path5999"
       style="fill:#303c60;fill-opacity:1;fill-rule:nonzero;stroke:none;stroke-width:0.1"
       d="m 1003.2085,1395.9961 c 15.66,6.54 33.3,13.54 27.84,-13.07 -2.37,-11.59 0,-8.32 4.16,-19.02 4.16,-10.69 -10.48,-19.09 -15.23,-25.03 -4.76,-5.94 6.92,-12.4 -2.59,-19.53 -9.509,-7.13 -22.043,2.64 -30.9,0 -26.442,-7.89 -23.174,12.91 -38.029,17.23 -14.855,4.33 -22.136,3.66 -24.956,-5.85 -2.82,-9.51 10.399,-40.79 -0.891,-37.82 -11.29,2.97 -13.832,-22.28 -16.869,-36.55 -3.037,-14.26 -10.783,9.85 -10.282,26.16 0.768,25.02 -5.443,35.53 -14.659,42.53 -9.216,7 -13.14,70.65 31.425,73.03 44.565,2.38 44.848,6.68 63.863,10.7 19.014,4.02 19.98,-15.76 27.118,-12.78" /><g
       transform="matrix(0.219172,0,0,0.219172,13.218503,-50.783863)"
       id="g6001"><path
         inkscape:connector-curvature="0"
         id="path6003"
         style="fill:#74b570;fill-opacity:1;fill-rule:nonzero;stroke:none"
         d="m 15916.7,3284.64 c 129.6,-118.36 73.3,-236.76 -22.6,-456.58 -95.8,-219.83 -112.7,-1031.57 -112.7,-1031.57 l 78.9,11.27 c 0,0 -11.3,834.28 95.8,1059.76 107.1,225.49 152.2,338.18 248,264.91 95.9,-73.28 -287.4,152.21 -287.4,152.21" /></g><g
       transform="matrix(0.228111,0,0,0.228111,13.218503,-50.783863)"
       id="g6005"><path
         inkscape:connector-curvature="0"
         id="path6007"
         style="fill:#9cd499;fill-opacity:1;fill-rule:nonzero;stroke:none"
         d="m 15224.5,3303.17 c 15.1,67.42 105,140.33 225.1,202.23 -17.9,-99.43 -75.1,-261.98 -15.8,-295.34 79.9,-44.93 7.7,182.02 38.6,306.74 112.8,55.1 248.5,100.12 373.5,122.53 -0.2,-0.49 -0.4,-0.93 -0.5,-1.41 -70.5,-178.73 -162.5,-249.13 -124.6,-276.18 28.5,-20.39 121.4,186.05 244.1,291.88 92.1,4.91 170,-7.54 216,-44.06 71.3,-56.38 119.1,-106.4 47.5,-278.11 -41,-29.24 -94,-50.2 -155.6,-56.38 -162.4,-16.26 -238.3,-21.65 -124.6,-75.84 55.8,-26.52 149.1,1.49 224.8,18.59 -24.6,-45.24 -54.8,-96.45 -91.4,-154.79 -23.3,-37 -48.9,-69.09 -76.2,-96.89 -52.3,-10.04 -98,-10.12 -122.1,0.22 -75.9,32.49 -270.8,135.42 -319.6,92.06 -47.7,-42.39 361.1,-69.26 332.8,-177.02 -198.2,-114.15 -424.9,-59.84 -465,44.98 -53.8,140.77 -252.5,173.91 -207,376.79" /></g><g
       transform="matrix(0.218793,0,0,0.218793,13.218503,-50.783863)"
       id="g6009"><path
         inkscape:connector-curvature="0"
         id="path6011"
         style="fill:#74b570;fill-opacity:1;fill-rule:nonzero;stroke:none"
         d="m 16300,2640.95 c -225.9,169.43 -457.4,11.33 -576,-169.39 -118.5,-180.67 -33.8,-587.22 -33.8,-587.22 0,0 45.1,0 45.1,16.91 0,16.96 -124.2,479.96 169.4,688.92 183.7,130.67 316.2,67.74 333.2,5.62 16.9,-62.11 -73.4,-175.05 -73.4,-175.05 l 135.5,220.21" /></g><g
       transform="matrix(0.215837,0,0,0.215837,13.218503,-50.783863)"
       id="g6013"><path
         inkscape:connector-curvature="0"
         id="path6015"
         style="fill:#9cd499;fill-opacity:1;fill-rule:nonzero;stroke:none"
         d="m 15996.6,3030.11 c 229,0 303.4,-354.89 240.4,-560.93 -62.9,-206.08 -148.8,-589.57 -148.8,-589.57 l -57.2,57.22 c 0,0 217.5,538.05 166,778.46 -51.6,240.42 -177.5,280.49 -200.4,280.49 -22.9,0 0,34.33 0,34.33" /></g><g
       transform="matrix(0.21516,0,0,0.21516,13.218503,-50.783863)"
       id="g6017"><path
         inkscape:connector-curvature="0"
         id="path6019"
         style="fill:#74b570;fill-opacity:1;fill-rule:nonzero;stroke:none"
         d="m 16239.6,2475.32 c 16.1,21.43 36.1,39.09 60.4,50.85 -3.2,-17.15 -7.2,-33.61 -11.9,-49.22 -28.8,-94.21 -62.3,-225.32 -90.3,-340.17 -2.6,14.69 -6.5,37.37 -12.6,72.32 -1.4,8.27 -2.5,17.24 -3.3,26.72 22.5,76.5 43.8,159.88 57.7,239.5" /></g><g
       transform="matrix(0.227032,0,0,0.227032,13.218503,-50.783863)"
       id="g6021"><path
         inkscape:connector-curvature="0"
         id="path6023"
         style="fill:#9cd499;fill-opacity:1;fill-rule:nonzero;stroke:none"
         d="m 15449.9,2344.25 c 413.5,174.16 195.6,413.11 560.2,255.29 25.7,-11.1 57,-39.16 88.3,-77.79 -32.5,-9.2 -71.8,-15.85 -115.5,-9.29 -108.8,16.34 -70.7,-70.74 108.8,-92.5 33.9,-4.09 61.4,-9.78 84.2,-17.75 85.6,-164.34 124.1,-380.52 -56.9,-455.66 -35.7,-14.84 -79.8,-23.3 -128.9,-26.47 -55.9,44.4 13.6,301.37 -72.5,265.91 -82.7,-34.1 25.9,-220.28 11,-267.19 -81.6,1.45 -172,14.8 -258.3,36.21 -34.2,19.16 -60.3,44.84 -68.3,78.57 -27.2,114.31 152.4,185.05 157.8,283 5,90.04 -65.8,-198.12 -253.4,-240.53 -169.7,79.24 -249.9,186.8 -56.5,268.2" /></g><g
       transform="matrix(0.214851,0,0,0.214851,13.218503,-50.783863)"
       id="g6025"><path
         inkscape:connector-curvature="0"
         id="path6027"
         style="fill:#9cd499;fill-opacity:1;fill-rule:nonzero;stroke:none"
         d="m 16014.4,2802.5 c 46,97.74 -74.7,120.78 -69,46.03 5.1,-66.28 5.7,-227.27 -62.2,-271.11 -117.2,12.7 -276.6,59.9 -397.1,131.85 -1.5,9.73 -0.1,19.74 5.1,29.98 51.7,103.51 385.2,189.76 281.7,224.25 -82.4,27.5 -226.9,-134.7 -343.3,-216.39 -69.9,53.06 -116.7,116.27 -116.7,186.83 0,95.56 116.1,203.68 266.2,255.39 67.6,-6.84 130.3,-43.75 228.3,-99.33 144.8,-82.05 111.3,50.64 -25.6,129.35 118.2,-6.1 236.1,-56.6 322.9,-177.24 0,0 -8.1,-51.57 46.4,-131.35 148.9,-217.59 -22.9,-344.61 -228.3,-336.37 11.6,57.34 59.9,160.58 91.6,228.11" /></g><g
       transform="matrix(0.225782,0,0,0.225782,13.218503,-50.783863)"
       id="g6029"><path
         inkscape:connector-curvature="0"
         id="path6031"
         style="fill:#74b570;fill-opacity:1;fill-rule:nonzero;stroke:none"
         d="m 15782.3,2568.5 c 107,-82.69 225.8,-179.38 371.8,-245.02 145.9,-65.68 116.7,-279.69 116.7,-279.69 0,0 21.9,184.82 -99.7,248.07 -121.6,63.2 -201.9,138.63 -294.3,153.2 -92.4,14.62 -143.5,29.19 -143.5,29.19 0,0 29.2,58.37 12.2,80.25 -17,21.88 36.8,14 36.8,14" /></g><g
       transform="matrix(0.225916,0,0,0.225916,13.218503,-50.783863)"
       id="g6033"><path
         inkscape:connector-curvature="0"
         id="path6035"
         style="fill:#74b570;fill-opacity:1;fill-rule:nonzero;stroke:none"
         d="m 16300,3537.38 c -391.3,-104.51 -678.1,-354.87 -731.6,-415.64 -53.5,-60.73 -53.5,-77.78 -53.5,-77.78 l 41.4,-77.77 19.4,9.74 c 0,0 -31.6,65.6 51,150.68 142.6,146.73 316,262.53 435.1,313.56 119.1,51.04 238.2,97.21 238.2,97.21" /></g><g
       transform="matrix(0.215685,0,0,0.215685,13.218503,-50.783863)"
       id="g6037"><path
         inkscape:connector-curvature="0"
         id="path6039"
         style="fill:#75a1de;fill-opacity:1;fill-rule:nonzero;stroke:none"
         d="m 15941.7,1436.35 h 156.7 c 111.3,0 201.6,90.27 201.6,201.64 v 359.78 h -559.9 v -359.78 c 0,-111.37 90.3,-201.64 201.6,-201.64" /></g><g
       transform="matrix(0.215685,0,0,0.215685,13.218503,-50.783863)"
       id="g6041"><path
         inkscape:connector-curvature="0"
         id="path6043"
         style="fill:#ffffff;fill-opacity:1;fill-rule:nonzero;stroke:none"
         d="m 16300,1894.06 h -559.9 v 39.4 h 559.9 v -39.4" /></g><g
       transform="matrix(0.215685,0,0,0.215685,13.218503,-50.783863)"
       id="g6045"><path
         inkscape:connector-curvature="0"
         id="path6047"
         style="fill:#ffffff;fill-opacity:1;fill-rule:nonzero;stroke:none"
         d="m 16300,1838.42 h -559.9 v 23.18 h 559.9 v -23.18" /></g><g
       transform="matrix(0.136173,0,0,0.136173,13.218503,-50.783863)"
       id="g6049"><path
         inkscape:connector-curvature="0"
         id="path6051"
         style="fill:#f5dc95;fill-opacity:1;fill-rule:nonzero;stroke:none"
         d="m 14730.6,15065 c 0,672 -540.5,1217.8 -1210.6,1226.4 -673.1,8.6 -1231.6,-533.4 -1242.4,-1206.5 -5.2,-328.5 118.9,-628.1 324.6,-851.1 94.7,-102.8 147.3,-237.4 147.3,-377.2 v -549.8 c 0,-355.7 291,-646.7 646.7,-646.7 h 215.6 c 355.8,0 646.8,291 646.8,646.7 v 549.7 c 0,141 54.3,275.9 149.6,379.7 200.2,218.3 322.4,509.3 322.4,828.8" /></g><g
       transform="matrix(0.133983,0,0,0.133983,13.218503,-50.783863)"
       id="g6053"><path
         inkscape:connector-curvature="0"
         id="path6055"
         style="fill:#faeeca;fill-opacity:1;fill-rule:nonzero;stroke:none"
         d="m 13819,13124.8 h -188.5 c -311,0 -565.4,254.5 -565.4,565.5 v 480.7 c 0,122.2 -46,240 -128.9,329.8 -179.8,195 -288.3,456.9 -283.7,744.2 9.3,583.9 490.1,1055 1072.4,1055 4.7,0 9.3,0 13.9,-0.1 585.8,-7.5 1058.4,-484.7 1058.4,-1072.3 0,-279.4 -106.9,-533.8 -281.9,-724.6 -83.3,-90.9 -130.8,-208.8 -130.8,-332 v -480.7 c 0,-311 -254.4,-565.5 -565.5,-565.5" /></g><g
       transform="matrix(0.12321,0,0,0.12321,13.218503,-50.783863)"
       id="g6057"><path
         inkscape:connector-curvature="0"
         id="path6059"
         style="fill:#94bdf2;fill-opacity:1;fill-rule:nonzero;stroke:none"
         d="m 15125.1,15070.7 h -446.4 c -21,0 -38.5,16 -40.4,36.9 -0.8,8.7 -84.2,870.4 -469.4,1111.7 -19.1,11.9 -24.8,36.9 -12.9,55.9 11.9,19 36.9,24.8 55.9,12.9 375.9,-235.4 482.7,-961.5 503.3,-1136.2 h 367 c -1.5,59.9 1.9,175.6 36.5,325.4 46.2,200.1 159.4,502.1 436.6,803.8 15.1,16.6 40.8,17.6 57.4,2.5 16.4,-15.2 17.6,-40.9 2.4,-57.4 -506.7,-551.5 -450.3,-1104.8 -449.7,-1110.3 1.3,-11.5 -2.4,-23 -10.1,-31.6 -7.6,-8.7 -18.7,-13.6 -30.2,-13.6" /></g><g
       transform="matrix(0.126771,0,0,0.126771,13.218503,-50.783863)"
       id="g6061"><path
         inkscape:connector-curvature="0"
         id="path6063"
         style="fill:#94bdf2;fill-opacity:1;fill-rule:nonzero;stroke:none"
         d="m 13908.5,16158.9 c -26.1,0 -48.6,-4.8 -66.5,-15.4 -38.7,-23 -58.7,-78.1 -59.5,-163.8 -0.8,-91 19.2,-149.5 59.5,-173.9 97.4,-59 324.7,50.6 542.8,165.7 -176.3,94.1 -361.3,187.4 -476.3,187.4 z m 643.9,-187.6 c 216.5,-115.1 443.1,-225.3 543.2,-166.4 41.8,24.7 63.6,83.8 64.8,175.7 1.2,86.7 -17.6,142.5 -55.8,165.7 -96.7,58.9 -331.5,-57.9 -552.2,-175 z m 472.6,-261.5 c -146.5,0 -346.2,104 -556.5,216.8 -271.7,-144.6 -525.3,-274.4 -667.3,-188.3 -66.8,40.5 -98.7,119.7 -97.6,242.1 1,115.3 34.1,193 98.3,230.9 142.2,84.3 396.4,-50.1 666.8,-195.2 275.6,147 535.2,283.9 676.9,197.6 63.7,-38.8 95.2,-117.5 93.7,-234.2 -1.5,-121.3 -36.5,-202.9 -103.7,-242.5 -31.9,-18.9 -69.2,-27.2 -110.6,-27.2" /></g><g
       transform="matrix(0.115158,0,0,0.115158,13.218503,-50.783863)"
       id="g6065"><path
         inkscape:connector-curvature="0"
         id="path6067"
         style="fill:#94bdf2;fill-opacity:1;fill-rule:nonzero;stroke:none"
         d="m 16122,14764.1 h -277.9 c -97.9,0 -178,80.1 -178,178 v 26.1 c 0,97.9 80.1,178 178,178 h 277.9 c 97.9,0 178,-80.1 178,-178 v -26.1 c 0,-97.9 -80.1,-178 -178,-178" /></g><g
       transform="matrix(0.119416,0,0,0.119416,13.218503,-50.783863)"
       id="g6069"><path
         inkscape:connector-curvature="0"
         id="path6071"
         style="fill:#94bdf2;fill-opacity:1;fill-rule:nonzero;stroke:none"
         d="m 14497.9,15624.9 v -443.4 c 0,-424.8 347.5,-772.3 772.3,-772.3 h 257.5 c 424.8,0 772.3,347.5 772.3,772.3 v 443.4 h -1802.1" /></g><g
       transform="matrix(0.120096,0,0,0.120096,13.218503,-50.783863)"
       id="g6073"><path
         inkscape:connector-curvature="0"
         id="path6075"
         style="fill:#9ec8ff;fill-opacity:1;fill-rule:nonzero;stroke:none"
         d="m 16200.1,15397.6 h -1754.2 c -55,0 -99.9,45 -99.9,100 v 11.1 c 0,54.9 44.9,99.9 99.9,99.9 h 1754.2 c 54.9,0 99.9,-45 99.9,-99.9 v -11.1 c 0,-55 -45,-100 -99.9,-100" /></g><g
       transform="matrix(0.120096,0,0,0.120096,13.218503,-50.783863)"
       id="g6077"><path
         inkscape:connector-curvature="0"
         id="path6079"
         style="fill:#9ec8ff;fill-opacity:1;fill-rule:nonzero;stroke:none"
         d="m 16206.3,15239.5 -1740.8,-215.1 c -54.6,-6.7 -104.8,32.4 -111.4,87 l -1.5,11 c -6.7,54.5 32.4,104.7 87,111.4 l 1740.9,215.1 c 54.6,6.7 104.7,-32.4 111.4,-87 l 1.4,-11 c 6.7,-54.5 -32.4,-104.7 -87,-111.4" /></g><g
       transform="matrix(0.120096,0,0,0.120096,13.218503,-50.783863)"
       id="g6081"><path
         inkscape:connector-curvature="0"
         id="path6083"
         style="fill:#9ec8ff;fill-opacity:1;fill-rule:nonzero;stroke:none"
         d="m 16206.3,14934.8 -1740.8,-215 c -54.6,-6.8 -104.8,32.3 -111.4,86.9 l -1.5,11 c -6.7,54.5 32.4,104.7 87,111.4 l 1740.9,215.1 c 54.6,6.7 104.7,-32.4 111.4,-87 l 1.4,-11 c 6.7,-54.5 -32.4,-104.7 -87,-111.4" /></g><g
       transform="matrix(0.119248,0,0,0.119248,13.218503,-50.783863)"
       id="g6085"><path
         inkscape:connector-curvature="0"
         id="path6087"
         style="fill:#9ec8ff;fill-opacity:1;fill-rule:nonzero;stroke:none"
         d="m 16213.5,14712.7 -1460.3,-180.4 c -50.4,-6.2 -96.8,29.9 -103,80.4 l -3.4,27.5 c -6.2,50.4 29.9,96.7 80.3,103 l 1460.4,180.3 c 50.4,6.3 96.6,-29.9 102.9,-80.3 l 3.4,-27.5 c 6.2,-50.4 -29.9,-96.8 -80.3,-103" /></g><g
       transform="matrix(0.217994,0,0,0.217994,13.218503,-50.783863)"
       id="g6089"><path
         inkscape:connector-curvature="0"
         id="path6091"
         style="fill:#9ec8ff;fill-opacity:1;fill-rule:nonzero;stroke:none"
         d="m 15785.1,7830.43 h 514.9 c 0,-282.45 -232.4,-514.86 -514.9,-514.86 -282.4,0 -514.8,232.41 -514.8,514.86 0,282.44 232.4,514.86 514.8,514.86 v -514.86" /></g><g
       transform="matrix(0.219147,0,0,0.219147,13.218503,-50.783863)"
       id="g6093"><path
         inkscape:connector-curvature="0"
         id="path6095"
         style="fill:#f39892;fill-opacity:1;fill-rule:nonzero;stroke:none"
         d="m 16300,7860.93 c 0,282.85 -229.3,512.15 -512.2,512.15 v -512.15 h 512.2" /></g><g
       transform="matrix(0.212261,0,0,0.212261,13.218503,-50.783863)"
       id="g6097"><path
         inkscape:connector-curvature="0"
         id="path6099"
         style="fill:#f39892;fill-opacity:1;fill-rule:nonzero;stroke:none"
         d="m 15771.2,8115.94 c 0,-292.03 236.8,-528.77 528.8,-528.77 -290.1,0 -528.8,238.7 -528.8,528.77" /></g><g
       transform="matrix(0.212261,0,0,0.212261,13.218503,-50.783863)"
       id="g6101"><path
         inkscape:connector-curvature="0"
         id="path6103"
         style="fill:#f39892;fill-opacity:1;fill-rule:nonzero;stroke:none"
         d="m 16300,8644.71 c -292,0 -528.8,-236.74 -528.8,-528.77 0,290.07 238.7,528.77 528.8,528.77" /></g><g
       transform="matrix(0.219147,0,0,0.219147,13.218503,-50.783863)"
       id="g6105"><path
         inkscape:connector-curvature="0"
         id="path6107"
         style="fill:#f39892;fill-opacity:1;fill-rule:nonzero;stroke:none"
         d="m 15787.8,7348.78 c 282.9,0 512.2,229.29 512.2,512.15 0,-280.96 -231.2,-512.15 -512.2,-512.15" /></g><g
       transform="matrix(0.109278,0,0,0.109278,13.218503,-50.783863)"
       id="g6109"><path
         inkscape:connector-curvature="0"
         id="path6111"
         style="fill:#9ec8ff;fill-opacity:1;fill-rule:nonzero;stroke:none"
         d="M 11612.3,15650.9 H 11388 v 649.1 h 224.3 v -649.1" /></g><g
       transform="matrix(0.107862,0,0,0.107862,13.218503,-50.783863)"
       id="g6113"><path
         inkscape:connector-curvature="0"
         id="path6115"
         style="fill:#9ec8ff;fill-opacity:1;fill-rule:nonzero;stroke:none"
         d="m 14677.6,15856.3 h -227.3 v 443.7 h 227.3 v -443.7" /></g><g
       transform="matrix(0.115107,0,0,0.115107,13.218503,-50.783863)"
       id="g6117"><path
         inkscape:connector-curvature="0"
         id="path6119"
         style="fill:#9ec8ff;fill-opacity:1;fill-rule:nonzero;stroke:none"
         d="m 11926.7,14858.3 h -213 V 16300 h 213 v -1441.7" /></g><g
       transform="matrix(0.109502,0,0,0.109502,13.218503,-50.783863)"
       id="g6121"><path
         inkscape:connector-curvature="0"
         id="path6123"
         style="fill:#9ec8ff;fill-opacity:1;fill-rule:nonzero;stroke:none"
         d="m 13011.5,15618.8 h -223.8 v 681.2 h 223.8 v -681.2" /></g><g
       transform="matrix(0.110798,0,0,0.110798,13.218503,-50.783863)"
       id="g6125"><path
         inkscape:connector-curvature="0"
         id="path6127"
         style="fill:#9ec8ff;fill-opacity:1;fill-rule:nonzero;stroke:none"
         d="m 13328.2,15436.2 h -221.3 v 863.8 h 221.3 v -863.8" /></g><g
       transform="matrix(0.112151,0,0,0.112151,13.218503,-50.783863)"
       id="g6129"><path
         inkscape:connector-curvature="0"
         id="path6131"
         style="fill:#9ec8ff;fill-opacity:1;fill-rule:nonzero;stroke:none"
         d="m 11777.9,15250 h -218.5 v 1050 h 218.5 v -1050" /></g><g
       transform="matrix(0.113824,0,0,0.113824,13.218503,-50.783863)"
       id="g6133"><path
         inkscape:connector-curvature="0"
         id="path6135"
         style="fill:#9ec8ff;fill-opacity:1;fill-rule:nonzero;stroke:none"
         d="m 13431.7,15025.8 h -215.4 V 16300 h 215.4 v -1274.2" /></g><g
       id="g6137"
       transform="matrix(0.1,0,0,0.1,13.218503,-50.783863)"><g
         clip-path="url(#clipPath6143)"
         id="g6139"><g
           transform="scale(1.22367)"
           id="g6145"><path
             inkscape:connector-curvature="0"
             id="path6147"
             style="fill:#a2dff2;fill-opacity:1;fill-rule:nonzero;stroke:none"
             d="M 4830.71,15657.6 3780.14,16300 3590.11,15083.3 c 493.54,-77.8 983,153.5 1240.6,574.3" /></g><g
           transform="scale(1.26736)"
           id="g6149"><path
             inkscape:connector-curvature="0"
             id="path6151"
             style="fill:#9cd499;fill-opacity:1;fill-rule:nonzero;stroke:none"
             d="m 4665.24,15119.2 c 2.74,4.4 6.31,10.6 6.17,10.4 214.23,358.8 222.89,804.5 26.33,1170.4 -358.96,-188.1 -145.2,-73.8 -1047.92,-561.9 1016.03,-621.4 858.23,-525.5 1015.42,-618.9" /></g><g
           transform="scale(1.31098)"
           id="g6153"><path
             inkscape:connector-curvature="0"
             id="path6155"
             style="fill:#9ec8ff;fill-opacity:1;fill-rule:nonzero;stroke:none"
             d="m 2450.44,15611.6 1077.93,-397.2 1011.2,546.8 c -473,874.7 -1746.18,769.8 -2089.13,-149.6" /></g><g
           transform="scale(1.25561)"
           id="g6157"><path
             inkscape:connector-curvature="0"
             id="path6159"
             style="fill:#f39892;fill-opacity:1;fill-rule:nonzero;stroke:none"
             d="m 3498.77,14699.6 185.19,1185.7 -1125.46,414.7 c -267.63,-717.5 207.39,-1484.9 940.27,-1600.4" /></g><g
           transform="scale(1.28425)"
           id="g6161"><path
             inkscape:connector-curvature="0"
             id="path6163"
             style="fill:#ffffff;fill-opacity:1;fill-rule:nonzero;stroke:none"
             d="m 2429.43,15744.6 c 20.49,0 39.32,-5.3 55.61,-14.4 9.52,52.5 22.76,104.7 39.95,156.1 l 597.49,-220.1 -0.04,0.5 c -1.22,27.2 9.04,52.7 25.97,72.9 l -59.83,22 -536.4,197.7 c 44.02,107.1 102.55,204.5 172.82,290.6 -25.3,9.3 -45.99,27.2 -59.64,50.1 -75.88,-92.8 -138.96,-198.1 -186.2,-313.8 l -0.65,0.2 -13.54,-36.3 -13.66,-36.6 0.64,-0.3 c -18.92,-56.2 -33.43,-113.3 -43.77,-170.8 6.98,1.4 14.09,2.2 21.25,2.2" /></g><g
           transform="scale(1.31098)"
           id="g6165"><path
             inkscape:connector-curvature="0"
             id="path6167"
             style="fill:#e7f3fe;fill-opacity:1;fill-rule:nonzero;stroke:none"
             d="m 4496.48,14668.5 -7.27,4.3 c -40.06,23.7 -57.47,34 -137.32,82.7 l -747.09,456.8 620.19,335.4 c 91.07,49 128.4,68.5 220.89,116.9 22.6,11.8 48.48,25.3 79.22,41.4 161.63,-327.5 151.06,-719.3 -28.62,-1037.5 z m -1101.82,-557.4 162.57,1040.9 423.09,-258.8 c 170.58,-104.3 268.16,-164 329.59,-201.5 l 146.06,-89.3 c -232.98,-353.3 -642.35,-542.8 -1061.31,-491.3 z m 1195.97,1634.3 0.63,0.4 -18.15,33.5 -1.13,2 -14.83,27.6 -0.57,-0.3 c -114.42,198.8 -277.56,357.4 -473.79,459.6 -192.17,100.1 -410.63,144.9 -631.86,129.5 -260.1,-18 -497.07,-115.5 -685.31,-273.3 22.12,-13.4 39.07,-34.3 48.48,-59 176.31,147.9 398.35,239.3 642.12,256.3 425.43,29.5 817.01,-178.7 1031.11,-545.4 l -298.65,-161.5 c -61.65,-33.2 -147.84,-79.8 -292.15,-157.9 -92.45,-50 -208.78,-113 -357.78,-193.6 l -9.2,-4.9 -30.03,18.3 -1.65,-10.4 -210.31,77.5 c 0.21,-26.8 -10.7,-51.6 -28.12,-71 l 226.43,-83.4 -166.56,-1066.4 c -314.56,60.7 -586.74,254.1 -750.98,535.3 -98.16,168 -149.07,354.9 -151.36,543.2 -11.9,-4.3 -24.41,-6.8 -37.07,-6.8 -13.98,0 -27.09,2.6 -39.2,7.2 2.22,-201.8 56.61,-402.1 161.77,-582.1 175.86,-301 467.77,-507.9 805.07,-572.2 l -0.09,-0.6 37.57,-6 37.77,-5.9 0.1,0.6 c 48.79,-6 97.67,-9.1 146.43,-9.1 171.51,0 341.38,37.5 499.34,111 202.24,94.2 372.13,241.4 493.5,426.9 l 0.77,-0.5 7.47,12.3 12.16,19.9 c 1.87,3.1 4.1,6.9 5.38,9 l 0.8,1.4 0.59,1 12.09,19.8 -0.55,0.3 c 194.86,342.5 205.97,765.5 29.76,1117.7" /></g></g></g><g
       transform="matrix(0.132623,0,0,0.132623,13.218503,-50.783863)"
       id="g6169"><path
         inkscape:connector-curvature="0"
         id="path6171"
         style="fill:#9ec8ff;fill-opacity:1;fill-rule:nonzero;stroke:none"
         d="M 9703.67,14831.7 H 6577.79 c -34.02,0 -61.6,27.5 -61.6,61.6 v 1345.1 c 0,34 27.58,61.6 61.6,61.6 h 3125.88 c 34,0 61.6,-27.6 61.6,-61.6 v -1345.1 c 0,-34.1 -27.6,-61.6 -61.6,-61.6" /></g><g
       transform="matrix(0.129484,0,0,0.129484,13.218503,-50.783863)"
       id="g6173"><path
         inkscape:connector-curvature="0"
         id="path6175"
         style="fill:#ffffff;fill-opacity:1;fill-rule:nonzero;stroke:none"
         d="M 9860.04,15261.8 H 6816.11 c -28.15,0 -50.97,22.8 -50.97,50.9 v 936.3 c 0,28.2 22.82,51 50.97,51 h 3043.93 c 28.11,0 50.97,-22.8 50.97,-51 v -936.3 c 0,-28.1 -22.86,-50.9 -50.97,-50.9" /></g><g
       transform="matrix(0.131744,0,0,0.131744,13.218503,-50.783863)"
       id="g6177"><path
         inkscape:connector-curvature="0"
         id="path6179"
         style="fill:#ffffff;fill-opacity:1;fill-rule:nonzero;stroke:none"
         d="m 6794.89,16184.7 h -72.61 c -15.33,0 -27.77,12.4 -27.77,27.7 v 59.8 c 0,15.4 12.44,27.8 27.77,27.8 h 72.61 c 15.33,0 27.76,-12.4 27.76,-27.8 v -59.8 c 0,-15.3 -12.43,-27.7 -27.76,-27.7" /></g><g
       transform="matrix(0.131744,0,0,0.131744,13.218503,-50.783863)"
       id="g6181"><path
         inkscape:connector-curvature="0"
         id="path6183"
         style="fill:#ffffff;fill-opacity:1;fill-rule:nonzero;stroke:none"
         d="m 7027.86,16184.7 h -72.61 c -15.33,0 -27.76,12.4 -27.76,27.7 v 59.8 c 0,15.4 12.43,27.8 27.76,27.8 h 72.61 c 15.33,0 27.76,-12.4 27.76,-27.8 v -59.8 c 0,-15.3 -12.43,-27.7 -27.76,-27.7" /></g><g
       transform="matrix(0.131744,0,0,0.131744,13.218503,-50.783863)"
       id="g6185"><path
         inkscape:connector-curvature="0"
         id="path6187"
         style="fill:#ffffff;fill-opacity:1;fill-rule:nonzero;stroke:none"
         d="m 7260.83,16184.7 h -72.61 c -15.33,0 -27.76,12.4 -27.76,27.7 v 59.8 c 0,15.4 12.43,27.8 27.76,27.8 h 72.61 c 15.34,0 27.77,-12.4 27.77,-27.8 v -59.8 c 0,-15.3 -12.43,-27.7 -27.77,-27.7" /></g><g
       transform="matrix(0.128467,0,0,0.128467,13.218503,-50.783863)"
       id="g6189"><path
         inkscape:connector-curvature="0"
         id="path6191"
         style="fill:#9ec8ff;fill-opacity:1;fill-rule:nonzero;stroke:none"
         d="M 9860.4,16199.7 H 8183.24 c -27.56,0 -50.13,22.5 -50.13,50.1 0,27.6 22.57,50.2 50.13,50.2 H 9860.4 c 27.63,0 50.2,-22.6 50.2,-50.2 0,-27.6 -22.57,-50.1 -50.2,-50.1" /></g><g
       transform="matrix(0.122367,0,0,0.122367,13.218503,-50.783863)"
       id="g6193"><path
         inkscape:connector-curvature="0"
         id="path6195"
         style="fill:#9ec8ff;fill-opacity:1;fill-rule:nonzero;stroke:none"
         d="M 9027.7,16194.7 H 7266.9 c -28.98,0 -52.68,23.7 -52.68,52.6 0,29 23.7,52.7 52.68,52.7 h 1760.8 c 28.94,0 52.64,-23.7 52.64,-52.7 0,-28.9 -23.7,-52.6 -52.64,-52.6" /></g><g
       transform="matrix(0.122367,0,0,0.122367,13.218503,-50.783863)"
       id="g6197"><path
         inkscape:connector-curvature="0"
         id="path6199"
         style="fill:#9ec8ff;fill-opacity:1;fill-rule:nonzero;stroke:none"
         d="m 9352.06,16194.7 h -182.24 c -9.89,0 -17.98,8.1 -17.98,18 v 69.3 c 0,9.9 8.09,18 17.98,18 h 182.24 c 9.89,0 17.98,-8.1 17.98,-18 v -69.3 c 0,-9.9 -8.09,-18 -17.98,-18" /></g><g
       transform="matrix(0.122367,0,0,0.122367,13.218503,-50.783863)"
       id="g6201"><path
         inkscape:connector-curvature="0"
         id="path6203"
         style="fill:#9ec8ff;fill-opacity:1;fill-rule:nonzero;stroke:none"
         d="m 9626.73,16194.7 h -182.24 c -9.89,0 -17.98,8.1 -17.98,18 v 69.3 c 0,9.9 8.09,18 17.98,18 h 182.24 c 9.88,0 17.97,-8.1 17.97,-18 v -69.3 c 0,-9.9 -8.09,-18 -17.97,-18" /></g><g
       transform="matrix(0.12649,0,0,0.12649,13.218503,-50.783863)"
       id="g6205"><path
         inkscape:connector-curvature="0"
         id="path6207"
         style="fill:#9ec8ff;fill-opacity:1;fill-rule:nonzero;stroke:none"
         d="M 10031,16230.8 H 7210.16 c -19.03,0 -34.59,15.6 -34.59,34.6 0,19 15.56,34.6 34.59,34.6 H 10031 c 18.9,0 34.5,-15.6 34.5,-34.6 0,-19 -15.6,-34.6 -34.5,-34.6" /></g><g
       transform="matrix(0.125332,0,0,0.125332,13.218503,-50.783863)"
       id="g6209"><path
         inkscape:connector-curvature="0"
         id="path6211"
         style="fill:#9ec8ff;fill-opacity:1;fill-rule:nonzero;stroke:none"
         d="M 10123.6,16230.2 H 7276.77 c -19.19,0 -34.9,15.7 -34.9,34.9 0,19.2 15.71,34.9 34.9,34.9 h 2846.83 c 19.2,0 34.9,-15.7 34.9,-34.9 0,-19.2 -15.7,-34.9 -34.9,-34.9" /></g><g
       transform="matrix(0.143879,0,0,0.143879,13.218503,-50.783863)"
       id="g6213"><path
         inkscape:connector-curvature="0"
         id="path6215"
         style="fill:#ffb8b3;fill-opacity:1;fill-rule:nonzero;stroke:none"
         d="m 16300,14533.2 h -1278.9 v 745.3 h 961.8 c 123.9,-123.8 193.3,-193.2 317.1,-317 v -428.3" /></g><g
       transform="matrix(0.143879,0,0,0.143879,13.218503,-50.783863)"
       id="g6217"><path
         inkscape:connector-curvature="0"
         id="path6219"
         style="fill:#f39892;fill-opacity:1;fill-rule:nonzero;stroke:none"
         d="m 15959.4,15278.5 v -397.8 h 340.6 v 76.4 l -319.2,319.3 -21.4,2.1" /></g><g
       transform="matrix(0.143879,0,0,0.143879,13.218503,-50.783863)"
       id="g6221"><path
         inkscape:connector-curvature="0"
         id="path6223"
         style="fill:#ffb8b3;fill-opacity:1;fill-rule:nonzero;stroke:none"
         d="m 15982.9,15278.5 v -321.4 h 317.1 l -317.1,321.4" /></g><g
       transform="matrix(0.139094,0,0,0.139094,13.218503,-50.783863)"
       id="g6225"><path
         inkscape:connector-curvature="0"
         id="path6227"
         style="fill:#ffffff;fill-opacity:1;fill-rule:nonzero;stroke:none"
         d="m 16276.6,15514.8 h -589.5 c -12.8,0 -23.4,10.6 -23.4,23.4 0,12.9 10.6,23.4 23.4,23.4 h 589.5 c 12.9,0 23.4,-10.5 23.4,-23.4 0,-12.8 -10.5,-23.4 -23.4,-23.4" /></g><g
       transform="matrix(0.139094,0,0,0.139094,13.218503,-50.783863)"
       id="g6229"><path
         inkscape:connector-curvature="0"
         id="path6231"
         style="fill:#ffffff;fill-opacity:1;fill-rule:nonzero;stroke:none"
         d="m 16276.6,15395.3 h -589.5 c -12.8,0 -23.4,10.5 -23.4,23.4 0,12.8 10.6,23.3 23.4,23.3 h 589.5 c 12.9,0 23.4,-10.5 23.4,-23.3 0,-12.9 -10.5,-23.4 -23.4,-23.4" /></g><g
       transform="matrix(0.139094,0,0,0.139094,13.218503,-50.783863)"
       id="g6233"><path
         inkscape:connector-curvature="0"
         id="path6235"
         style="fill:#ffffff;fill-opacity:1;fill-rule:nonzero;stroke:none"
         d="m 16276.6,15269.5 h -589.5 c -12.8,0 -23.4,10.5 -23.4,23.4 0,12.8 10.6,23.3 23.4,23.3 h 589.5 c 12.9,0 23.4,-10.5 23.4,-23.3 0,-12.9 -10.5,-23.4 -23.4,-23.4" /></g><g
       transform="matrix(0.138235,0,0,0.138235,13.218503,-50.783863)"
       id="g6237"><path
         inkscape:connector-curvature="0"
         id="path6239"
         style="fill:#3e6bab;fill-opacity:1;fill-rule:nonzero;stroke:none"
         d="m 16300,15842.7 c 0,-21.9 -17.8,-39.8 -39.8,-39.8 -21.9,0 -39.8,17.9 -39.8,39.8 0,22 17.9,39.8 39.8,39.8 22,0 39.8,-17.8 39.8,-39.8" /></g><g
       transform="matrix(0.135902,0,0,0.135902,13.218503,-50.783863)"
       id="g6241"><path
         inkscape:connector-curvature="0"
         id="path6243"
         style="fill:#fae8b6;fill-opacity:1;fill-rule:nonzero;stroke:none"
         d="m 11238.2,15118.1 -844.8,163.2 196.8,1018.7 844.9,-163.2 -196.9,-1018.7" /></g><g
       transform="matrix(0.131971,0,0,0.131971,13.218503,-50.783863)"
       id="g6245"><path
         inkscape:connector-curvature="0"
         id="path6247"
         style="fill:#9ec8ff;fill-opacity:1;fill-rule:nonzero;stroke:none"
         d="m 11591.5,16163.9 -461.2,89.1 c -12.3,2.4 -20.4,14.3 -18.1,26.6 2.4,12.3 14.4,20.4 26.7,18 l 461.3,-89.1 c 12.2,-2.4 20.3,-14.3 18,-26.6 -2.4,-12.3 -14.4,-20.4 -26.7,-18" /></g><g
       transform="matrix(0.131038,0,0,0.131038,13.218503,-50.783863)"
       id="g6249"><path
         inkscape:connector-curvature="0"
         id="path6251"
         style="fill:#9ec8ff;fill-opacity:1;fill-rule:nonzero;stroke:none"
         d="m 11651.7,16162.9 -464.6,89.8 c -12.3,2.3 -20.5,14.4 -18.1,26.8 2.4,12.3 14.4,20.5 26.8,18.1 l 464.6,-89.7 c 12.3,-2.4 20.5,-14.5 18.1,-26.9 -2.4,-12.3 -14.5,-20.5 -26.8,-18.1" /></g><g
       transform="matrix(0.130079,0,0,0.130079,13.218503,-50.783863)"
       id="g6253"><path
         inkscape:connector-curvature="0"
         id="path6255"
         style="fill:#9ec8ff;fill-opacity:1;fill-rule:nonzero;stroke:none"
         d="m 11714.4,16161.9 -468,90.4 c -12.5,2.4 -20.6,14.6 -18.3,27 2.4,12.5 14.6,20.7 27,18.3 l 468,-90.4 c 12.5,-2.4 20.7,-14.6 18.3,-27 -2.4,-12.5 -14.6,-20.7 -27,-18.3" /></g><g
       transform="matrix(0.135155,0,0,0.135155,13.218503,-50.783863)"
       id="g6257"><path
         inkscape:connector-curvature="0"
         id="path6259"
         style="fill:#3e6bab;fill-opacity:1;fill-rule:nonzero;stroke:none"
         d="m 11013.6,16252.8 c -3.8,-20.1 -23.2,-33.2 -43.3,-29.3 -20.1,3.9 -33.2,23.3 -29.4,43.3 4,20.1 23.4,33.2 43.4,29.3 20.1,-3.9 33.2,-23.3 29.3,-43.3" /></g><g
       transform="matrix(0.149571,0,0,0.149571,13.218503,-50.783863)"
       id="g6261"><path
         inkscape:connector-curvature="0"
         id="path6263"
         style="fill:#9ec8ff;fill-opacity:1;fill-rule:nonzero;stroke:none"
         d="m 16247.4,12976.9 -1187.9,125.1 78.4,744.7 941.9,-99.2 c 86,-106.2 134.2,-165.8 220.2,-272 l -52.6,-498.6" /></g><g
       transform="matrix(0.149118,0,0,0.149118,13.218503,-50.783863)"
       id="g6265"><path
         inkscape:connector-curvature="0"
         id="path6267"
         style="fill:#ffffff;fill-opacity:1;fill-rule:nonzero;stroke:none"
         d="m 16111.8,13735.9 -887.1,93.5 -66.3,-630.3 1102.7,-116.1 38.9,369 -215.7,22.7 27.5,261.2" /></g><g
       transform="matrix(0.146551,0,0,0.146551,13.218503,-50.783863)"
       id="g6269"><path
         inkscape:connector-curvature="0"
         id="path6271"
         style="fill:#9ec8ff;fill-opacity:1;fill-rule:nonzero;stroke:none"
         d="m 16271.7,13743.6 -584.7,61.6 c -13.3,1.4 -23.2,13.5 -21.7,26.9 1.3,13.4 13.5,23.2 26.9,21.8 l 584.6,-61.6 c 13.4,-1.4 23.2,-13.5 21.8,-26.9 -1.4,-13.4 -13.5,-23.2 -26.9,-21.8" /></g><g
       transform="matrix(0.146429,0,0,0.146429,13.218503,-50.783863)"
       id="g6273"><path
         inkscape:connector-curvature="0"
         id="path6275"
         style="fill:#9ec8ff;fill-opacity:1;fill-rule:nonzero;stroke:none"
         d="m 16271.7,13626.1 -585.2,61.7 c -13.4,1.4 -23.2,13.5 -21.8,26.9 1.5,13.4 13.6,23.2 26.9,21.8 l 585.2,-61.6 c 13.4,-1.4 23.2,-13.6 21.8,-27 -1.4,-13.4 -13.5,-23.2 -26.9,-21.8" /></g><g
       transform="matrix(0.146302,0,0,0.146302,13.218503,-50.783863)"
       id="g6277"><path
         inkscape:connector-curvature="0"
         id="path6279"
         style="fill:#9ec8ff;fill-opacity:1;fill-rule:nonzero;stroke:none"
         d="m 16271.6,13503.2 -585.6,61.7 c -13.5,1.4 -23.2,13.6 -21.9,27 1.5,13.4 13.6,23.2 27,21.8 l 585.7,-61.7 c 13.4,-1.4 23.2,-13.5 21.8,-27 -1.5,-13.4 -13.6,-23.2 -27,-21.8" /></g><g
       transform="matrix(0.143324,0,0,0.143324,13.218503,-50.783863)"
       id="g6281"><path
         inkscape:connector-curvature="0"
         id="path6283"
         style="fill:#3e6bab;fill-opacity:1;fill-rule:nonzero;stroke:none"
         d="m 16300,14270.8 c 0,-21.1 -17.2,-38.3 -38.4,-38.3 -21.1,0 -38.3,17.2 -38.3,38.3 0,21.2 17.2,38.4 38.3,38.4 21.2,0 38.4,-17.2 38.4,-38.4" /></g><g
       transform="matrix(0.203255,0,0,0.203255,13.218503,-50.783863)"
       id="g6285"><path
         inkscape:connector-curvature="0"
         id="path6287"
         style="fill:#9cd499;fill-opacity:1;fill-rule:nonzero;stroke:none"
         d="m 16300,10490.4 c 0,-166.7 -135.1,-301.8 -301.8,-301.8 -166.7,0 -301.9,135.1 -301.9,301.8 0,166.7 135.2,301.9 301.9,301.9 166.7,0 301.8,-135.2 301.8,-301.9" /></g><g
       transform="matrix(0.201504,0,0,0.201504,13.218503,-50.783863)"
       id="g6289"><path
         inkscape:connector-curvature="0"
         id="path6291"
         style="fill:#ffffff;fill-opacity:1;fill-rule:nonzero;stroke:none"
         d="m 16107,10477.4 h -0.6 c -4.1,0.1 -7.9,2 -10.6,5 l -82.7,94 c -5.4,6.2 -4.9,15.6 1.3,21 6.2,5.4 15.6,4.8 21,-1.3 l 72.3,-82.2 165.5,161.9 c 5.9,5.8 15.3,5.7 21,-0.2 5.8,-5.9 5.7,-15.3 -0.2,-21.1 l -176.6,-172.9 c -2.8,-2.7 -6.6,-4.2 -10.4,-4.2" /></g><g
       transform="matrix(0.105648,0,0,0.105648,13.218503,-50.783863)"
       id="g6293"><path
         inkscape:connector-curvature="0"
         id="path6295"
         style="fill:#9ec8ff;fill-opacity:1;fill-rule:nonzero;stroke:none"
         d="m 4614.56,14791.8 h 3347.9 c 85.82,0 156.03,70.2 156.03,156 V 16144 c 0,85.8 -70.21,156 -156.03,156 h -3347.9 c -85.8,0 -156,-70.2 -156,-156 v -1196.2 c 0,-85.8 70.2,-156 156,-156" /></g><path
       inkscape:connector-curvature="0"
       id="path6297"
       style="fill:#9ec8ff;fill-opacity:1;fill-rule:nonzero;stroke:none;stroke-width:0.1"
       d="m 824.2205,1535.9861 v -87.91 l -101.302,101.3 c 0,0 99.242,-13.39 101.302,-13.39" /><g
       transform="matrix(0.104679,0,0,0.104679,13.218503,-50.783863)"
       id="g6299"><path
         inkscape:connector-curvature="0"
         id="path6301"
         style="fill:#ffffff;fill-opacity:1;fill-rule:nonzero;stroke:none"
         d="m 4824.38,15079.7 h 3044.71 c 73.42,0 133.5,60 133.5,133.5 v 953.3 c 0,73.4 -60.08,133.5 -133.5,133.5 H 4824.38 c -73.42,0 -133.49,-60.1 -133.49,-133.5 v -953.3 c 0,-73.5 60.07,-133.5 133.49,-133.5" /></g><g
       transform="matrix(0.103584,0,0,0.103584,13.218503,-50.783863)"
       id="g6303"><path
         inkscape:connector-curvature="0"
         id="path6305"
         style="fill:#9ec8ff;fill-opacity:1;fill-rule:nonzero;stroke:none"
         d="m 6264.67,16167.4 h 1511.72 c 36.46,0 66.31,29.8 66.31,66.3 0,36.5 -29.85,66.3 -66.31,66.3 H 6264.67 c -36.47,0 -66.3,-29.8 -66.3,-66.3 0,-36.5 29.83,-66.3 66.3,-66.3" /></g><g
       transform="matrix(0.101603,0,0,0.101603,13.218503,-50.783863)"
       id="g6307"><path
         inkscape:connector-curvature="0"
         id="path6309"
         style="fill:#9ec8ff;fill-opacity:1;fill-rule:nonzero;stroke:none"
         d="m 5099.48,16224.1 h 2858.5 c 20.67,0 37.58,16.9 37.58,37.5 v 0.8 c 0,20.7 -16.91,37.6 -37.58,37.6 h -2858.5 c -20.67,0 -37.57,-16.9 -37.57,-37.6 v -0.8 c 0,-20.6 16.9,-37.5 37.57,-37.5" /></g><g
       transform="matrix(0.100686,0,0,0.100686,13.218503,-50.783863)"
       id="g6311"><path
         inkscape:connector-curvature="0"
         id="path6313"
         style="fill:#9ec8ff;fill-opacity:1;fill-rule:nonzero;stroke:none"
         d="m 5145.93,16223.4 h 2884.54 c 20.85,0 37.92,17 37.92,37.9 v 0.8 c 0,20.8 -17.07,37.9 -37.92,37.9 H 5145.93 c -20.85,0 -37.92,-17.1 -37.92,-37.9 v -0.8 c 0,-20.9 17.07,-37.9 37.92,-37.9" /></g><g
       transform="matrix(0.191971,0,0,0.191971,13.218503,-50.783863)"
       id="g6315"><path
         inkscape:connector-curvature="0"
         id="path6317"
         style="fill:#9ec8ff;fill-opacity:1;fill-rule:nonzero;stroke:none"
         d="m 16166.5,8720.39 h 96.6 c 20.4,0 36.9,16.53 36.9,36.92 v 79.52 c 0,20.4 -16.5,36.93 -36.9,36.93 h -96.6 c -20.4,0 -36.9,-16.53 -36.9,-36.93 v -79.52 c 0,-20.39 16.5,-36.92 36.9,-36.92" /></g><g
       transform="matrix(0.188321,0,0,0.188321,13.218503,-50.783863)"
       id="g6319"><path
         inkscape:connector-curvature="0"
         id="path6321"
         style="fill:#9ec8ff;fill-opacity:1;fill-rule:nonzero;stroke:none"
         d="m 16163.9,8889.37 h 98.5 c 20.8,0 37.6,16.84 37.6,37.63 v 81.07 c 0,20.78 -16.8,37.63 -37.6,37.63 h -98.5 c -20.8,0 -37.6,-16.85 -37.6,-37.63 V 8927 c 0,-20.79 16.8,-37.63 37.6,-37.63" /></g><g
       transform="matrix(0.184672,0,0,0.184672,13.218503,-50.783863)"
       id="g6323"><path
         inkscape:connector-curvature="0"
         id="path6325"
         style="fill:#9ec8ff;fill-opacity:1;fill-rule:nonzero;stroke:none"
         d="m 16161.2,9065.02 h 100.4 c 21.2,0 38.4,17.18 38.4,38.38 v 82.66 c 0,21.2 -17.2,38.38 -38.4,38.38 h -100.4 c -21.2,0 -38.3,-17.18 -38.3,-38.38 v -82.66 c 0,-21.2 17.1,-38.38 38.3,-38.38" /></g></g></svg>