<?xml version="1.0" encoding="UTF-8" standalone="no"?>
<!-- Created with Inkscape (http://www.inkscape.org/) -->

<svg
   xmlns:dc="http://purl.org/dc/elements/1.1/"
   xmlns:cc="http://creativecommons.org/ns#"
   xmlns:rdf="http://www.w3.org/1999/02/22-rdf-syntax-ns#"
   xmlns:svg="http://www.w3.org/2000/svg"
   xmlns="http://www.w3.org/2000/svg"
   xmlns:sodipodi="http://sodipodi.sourceforge.net/DTD/sodipodi-0.dtd"
   xmlns:inkscape="http://www.inkscape.org/namespaces/inkscape"
   version="1.1"
   id="svg856"
   xml:space="preserve"
   width="2309.1396"
   height="1544.7999"
   viewBox="0 0 2309.1397 1544.7999"
   sodipodi:docname="passione.svg"
   inkscape:version="0.92.4 (5da689c313, 2019-01-14)"><metadata
     id="metadata862"><rdf:RDF><cc:Work
         rdf:about=""><dc:format>image/svg+xml</dc:format><dc:type
           rdf:resource="http://purl.org/dc/dcmitype/StillImage" /><dc:title></dc:title></cc:Work></rdf:RDF></metadata><defs
     id="defs860" /><sodipodi:namedview
     pagecolor="#ffffff"
     bordercolor="#666666"
     borderopacity="1"
     objecttolerance="10"
     gridtolerance="10"
     guidetolerance="10"
     inkscape:pageopacity="0"
     inkscape:pageshadow="2"
     inkscape:window-width="1699"
     inkscape:window-height="1056"
     id="namedview858"
     showgrid="false"
     fit-margin-top="0"
     fit-margin-left="0"
     fit-margin-right="0"
     fit-margin-bottom="0"
     inkscape:zoom="0.21455641"
     inkscape:cx="551.06587"
     inkscape:cy="674.55779"
     inkscape:window-x="129"
     inkscape:window-y="0"
     inkscape:window-maximized="1"
     inkscape:current-layer="g864" /><g
     id="g864"
     inkscape:groupmode="layer"
     inkscape:label="ink_ext_XXXXXX"
     transform="matrix(1.3333333,0,0,-1.3333333,-1194.4534,2041.6275)"><g
       transform="scale(0.102071)"
       id="g872"><path
         inkscape:connector-curvature="0"
         id="path874"
         style="fill:#184655;fill-opacity:1;fill-rule:nonzero;stroke:none"
         d="m 14533.2,12461.4 c -18.1,0 -35.5,10.3 -43.5,27.9 -11.1,24 -0.6,52.4 23.4,63.5 l 1712.3,788.4 c 24,11.1 52.6,0.6 63.5,-23.5 11.1,-24 0.6,-52.4 -23.4,-63.5 l -1712.3,-788.4 c -6.5,-3 -13.3,-4.4 -20,-4.4" /></g><path
       inkscape:connector-curvature="0"
       id="path876"
       style="fill:#184655;fill-opacity:1;fill-rule:nonzero;stroke:none;stroke-width:0.1"
       d="m 1469.72,957.08 c -0.2,0 -0.41,0.01 -0.62,0.04 -2.68,0.34 -4.57,2.79 -4.23,5.47 l 46.93,367.66 c 0.35,2.68 2.79,4.58 5.47,4.23 2.68,-0.34 4.57,-2.79 4.23,-5.47 l -46.93,-367.66 c -0.32,-2.47 -2.42,-4.27 -4.85,-4.27" /><g
       transform="scale(0.106186)"
       id="g878"><path
         inkscape:connector-curvature="0"
         id="path880"
         style="fill:#f7cc7f;fill-opacity:1;fill-rule:nonzero;stroke:none"
         d="m 16230.2,12531 c -147.8,351.4 -461.8,554.5 -701.2,453.8 -239.4,-100.8 -313.6,-467.3 -165.7,-818.7 36.6,-86.7 83.2,-164.4 136.3,-230.7 l 800.4,336.9 c -10.3,84.4 -33.2,172 -69.8,258.7" /></g><path
       inkscape:connector-curvature="0"
       id="path882"
       style="fill:#184655;fill-opacity:1;fill-rule:nonzero;stroke:none;stroke-width:0.1"
       d="m 1530.43,1290.71 c 0,-10.62 -8.61,-19.23 -19.23,-19.23 -10.62,0 -19.23,8.61 -19.23,19.23 0,10.62 8.61,19.23 19.23,19.23 10.62,0 19.23,-8.61 19.23,-19.23" /><g
       transform="scale(0.131282)"
       id="g884"><path
         inkscape:connector-curvature="0"
         id="path886"
         style="fill:#b75742;fill-opacity:1;fill-rule:nonzero;stroke:none"
         d="m 16185.9,7252.01 c -244.7,31.69 -512.9,104.51 -512.9,104.51 0,0 -43.8,493.1 -45.5,511.4 -15.8,253.22 -47.2,422.03 116.6,602.43 77.8,85.66 439.4,33.1 499.8,-271.77 56.1,-282.56 -3,-683.32 -41.4,-934.08 l -2.1,-14.39 -14.5,1.9" /></g><path
       inkscape:connector-curvature="0"
       id="path888"
       style="fill:#355389;fill-opacity:1;fill-rule:nonzero;stroke:none;stroke-width:0.1"
       d="m 1232.58,541.38 c 0,0 -166.54,119.52 -189.99,171.34 -23.46,51.82 22.83,46.85 22.83,46.85 0,0 -67.877,92.15 -50.99,123.4 16.89,31.25 45.82,16.04 45.82,16.04 0,0 -24.87,102.35 1.6,109.93 49.31,14.1 92.75,-121.18 92.75,-121.18 0,0 5.21,53.9 26.38,49.45 47.16,-9.91 24.75,-132.7 24.75,-132.7 0,0 13.15,46.08 39.23,26.08 46.79,-35.89 -12.38,-289.21 -12.38,-289.21" /><path
       inkscape:connector-curvature="0"
       id="path890"
       style="fill:#466eb6;fill-opacity:1;fill-rule:nonzero;stroke:none;stroke-width:0.1"
       d="m 1249.99,837.33 c -24.73,17.15 -41.56,-9.13 -41.56,-9.13 0,0 19.48,98.06 -27.45,109.01 -24.65,5.76 -26.38,-49.45 -26.38,-49.45 0,0 -43.44,135.28 -92.75,121.18 l 171.27,-465.61 c 6.64,29.43 56.32,266.63 16.87,294" /><path
       inkscape:connector-curvature="0"
       id="path892"
       style="fill:#9bc1f9;fill-opacity:1;fill-rule:nonzero;stroke:none;stroke-width:0.1"
       d="m 1186.87,578.51 c 0,0 -171.29,-0.07 -195.115,2.7 -23.825,2.77 2.498,24.04 2.498,24.04 0,0 -53.3,-1.94 -61.424,11.02 -8.124,12.97 13.645,18.07 13.645,18.07 0,0 -53.08,15.39 -50.546,26.67 4.72,21.03 63.344,7.32 63.344,7.32 0,0 -21.773,10.57 -12.924,20.4 13.345,14.82 70.342,-25.47 70.342,-25.47 0,0 -17.507,35.15 -8.77,45.6 34.09,40.8 178.95,-130.35 178.95,-130.35" /><path
       inkscape:connector-curvature="0"
       id="path894"
       style="fill:#86b1f2;fill-opacity:1;fill-rule:nonzero;stroke:none;stroke-width:0.1"
       d="m 1229.34,537.53 c 0,0 164.04,31.84 200.3,62.29 36.26,30.45 -8.22,32.82 -8.22,32.82 0,0 97.25,36.83 96.02,66.55 -1.23,29.71 -42.97,31.47 -42.97,31.47 0,0 58.03,51.98 46.12,77.18 -18.31,38.73 -101.31,-34.71 -101.31,-34.71 0,0 2.01,63.95 -23.73,70.11 -38.82,9.28 -72.35,-110.81 -72.35,-110.81 0,0 -5.93,28.99 -32.59,23.46 -47.85,-9.91 -61.27,-218.36 -61.27,-218.36" /><path
       inkscape:connector-curvature="0"
       id="path896"
       style="fill:#f47458;fill-opacity:1;fill-rule:nonzero;stroke:none;stroke-width:0.1"
       d="m 1139,385.7 h 230.21 c 29.32,33.16 32.26,82.15 31.6,132.25 -0.32,25.3 10.39,44.05 1.62,65.71 l -296.81,-4.13 c -8.2,-22 -12.6,-46.17 -12.27,-71.48 0.62,-47.73 17.93,-90.76 45.65,-122.35" /><g
       transform="scale(0.157151)"
       id="g898"><path
         inkscape:connector-curvature="0"
         id="path900"
         style="fill:#13375b;fill-opacity:1;fill-rule:nonzero;stroke:none"
         d="M 16238.4,2487.99 H 6046.84 c -32.28,0 -58.44,-26.15 -58.44,-58.41 v 0 c 0,-32.27 26.16,-58.48 58.44,-58.48 H 16240.1 c 33.2,0 59.9,27.74 58.3,61.28 -1.5,31.43 -28.5,55.61 -60,55.61" /></g><g
       transform="scale(0.122597)"
       id="g902"><path
         inkscape:connector-curvature="0"
         id="path904"
         style="fill:#f7cc7f;fill-opacity:1;fill-rule:nonzero;stroke:none"
         d="m 15775.8,12065.4 c 278.8,86.4 524.2,-213.3 385.7,-471.5 -24.9,-46.4 -31.1,-100.6 -19.5,-151.9 l 39.6,-176.7 c 11,-48.7 -17.4,-97.6 -65,-112.4 l -105.6,-32.7 c -47.7,-14.8 -98.7,9.5 -117.3,55.8 -67.6,169.1 -80.3,236.4 -169.2,282.4 -260.2,134.6 -227.4,520.6 51.3,607" /></g><g
       transform="scale(0.121314)"
       id="g906"><path
         inkscape:connector-curvature="0"
         id="path908"
         style="fill:#fae0b2;fill-opacity:1;fill-rule:nonzero;stroke:none"
         d="m 15864.4,11893.5 c -13.8,-11.9 -9.1,-37.1 4.3,-49.9 19.1,-18.2 51.5,-21 78.8,-22.5 -11.8,28.4 -20.7,53.8 -38.1,68.4 -12.2,10.2 -43.5,5.3 -45,4 z m 278.2,38.6 c -8.7,-23.5 -6.3,-49.1 0,-75.8 33.2,14.8 52.3,32.1 58.4,53.1 10.2,35 -38.5,75.6 -58.4,22.7 z m 105.9,-452 c -50.1,139.8 -99.8,295.8 -116.6,354.7 -51.1,-19.9 -105.6,-30.1 -160.3,-30.2 47.1,-113.8 91.7,-229.9 132.9,-345.8 l -15,-5.3 c -41.7,117.8 -87.2,235.8 -135.2,351.4 -33.4,1.3 -72.6,4.5 -96.5,27.2 -11.2,10.6 -17.9,26.9 -17.6,42.4 1,41.3 48,53.4 79.4,27.2 20.8,-17.4 30.5,-45.3 45.4,-81.2 55.6,-0.7 111,9.4 162.8,29.7 -7.4,30.1 -10.5,59.5 0,87.5 36.9,98.3 172.2,-30.6 18.9,-96.9 13,-46.1 63.4,-206.4 116.7,-355.4 l -14.9,-5.3" /></g><g
       transform="scale(0.121789)"
       id="g910"><path
         inkscape:connector-curvature="0"
         id="path912"
         style="fill:#96d9c9;fill-opacity:1;fill-rule:nonzero;stroke:none"
         d="m 16248.3,11522.4 c 0.3,-1.5 0.5,-3 0.8,-4.5 l 39.9,-177.9 c 11,-49 -17.6,-98.3 -65.5,-113.1 l -106.3,-33 c -48,-14.8 -99.3,9.6 -118.1,56.3 -30.2,75.7 -49.5,131.1 -69.6,173.4 l 318.8,98.8" /></g><g
       transform="scale(0.119704)"
       id="g914"><path
         inkscape:connector-curvature="0"
         id="path916"
         style="fill:#fae0b2;fill-opacity:1;fill-rule:nonzero;stroke:none"
         d="m 16292.5,12575 6.8,183.4 c 0.7,17.7 -13.2,32.6 -30.9,33.3 -17.8,0.7 -32.6,-13.2 -33.3,-30.9 l -6.9,-183.4 c -0.7,-17.8 13.2,-32.7 30.9,-33.4 17.8,-0.6 32.7,13.3 33.4,31" /></g><g
       transform="scale(0.123547)"
       id="g918"><path
         inkscape:connector-curvature="0"
         id="path920"
         style="fill:#fae0b2;fill-opacity:1;fill-rule:nonzero;stroke:none"
         d="m 16121.4,11930 159.3,97.8 c 14.7,9.1 19.3,28.2 10.3,42.9 -9.1,14.7 -28.2,19.3 -42.9,10.3 l -159.3,-97.9 c -14.6,-9 -19.2,-28.2 -10.2,-42.9 9,-14.6 28.2,-19.2 42.8,-10.2" /></g><g
       transform="scale(0.125421)"
       id="g922"><path
         inkscape:connector-curvature="0"
         id="path924"
         style="fill:#fae0b2;fill-opacity:1;fill-rule:nonzero;stroke:none"
         d="m 16294.7,11330.1 c 5.3,16.1 -3.5,33.4 -19.6,38.7 -60.3,19.7 -122.7,33.6 -185.6,41.6 -16.8,2.1 -32.1,-9.8 -34.3,-26.6 -2.1,-16.9 9.8,-32.2 26.7,-34.3 59,-7.5 117.6,-20.6 174.2,-39.1 16,-5.2 33.4,3.5 38.6,19.7" /></g><g
       transform="scale(0.116608)"
       id="g926"><path
         inkscape:connector-curvature="0"
         id="path928"
         style="fill:#fae0b2;fill-opacity:1;fill-rule:nonzero;stroke:none"
         d="m 16285.1,12698.9 c 13.6,12 14.9,32.9 2.8,46.6 -57.5,64.8 -108.2,135.8 -151.1,211 -9,15.9 -29.2,21.5 -45,12.4 -15.8,-9 -21.4,-29.2 -12.4,-45 45.1,-79.2 98.7,-154 159,-222.2 12.2,-13.7 33.1,-14.9 46.7,-2.8" /></g><g
       transform="scale(0.116034)"
       id="g930"><path
         inkscape:connector-curvature="0"
         id="path932"
         style="fill:#fae0b2;fill-opacity:1;fill-rule:nonzero;stroke:none"
         d="m 16296.9,12442.3 c -3.1,18.1 -20.3,30.2 -38.4,27.1 l -212,-36.6 c -18.1,-3.2 -30.3,-20.3 -27.1,-38.4 3.1,-18 20.2,-30.1 38.3,-27 l 212.1,36.6 c 18,3.1 30.2,20.2 27.1,38.3" /></g><g
       transform="scale(0.116782)"
       id="g934"><path
         inkscape:connector-curvature="0"
         id="path936"
         style="fill:#fae0b2;fill-opacity:1;fill-rule:nonzero;stroke:none"
         d="m 16135.3,11724.7 c 2.7,1.4 5.2,3.1 7.5,5.2 54.5,49.5 103.9,105.1 146.7,165.2 10.5,14.8 7.1,35.4 -7.7,46 -14.9,10.5 -35.5,7.1 -46,-7.8 -40.1,-56.2 -86.3,-108.2 -137.4,-154.7 -13.4,-12.2 -14.4,-33.1 -2.2,-46.5 10.2,-11.2 26.3,-13.8 39.1,-7.4" /></g><g
       transform="scale(0.123566)"
       id="g938"><path
         inkscape:connector-curvature="0"
         id="path940"
         style="fill:#13375b;fill-opacity:1;fill-rule:nonzero;stroke:none"
         d="M 13431.9,6320.66 H 16300 v 944.92 h -2868.1 v -944.92" /></g><g
       transform="scale(0.109075)"
       id="g942"><path
         inkscape:connector-curvature="0"
         id="path944"
         style="fill:#fae0b2;fill-opacity:1;fill-rule:nonzero;stroke:none"
         d="M 13869.9,4115.32 H 16300 V 8292.06 H 13869.9 V 4115.32" /></g><g
       transform="scale(0.101217)"
       id="g946"><path
         inkscape:connector-curvature="0"
         id="path948"
         style="fill:#184655;fill-opacity:1;fill-rule:nonzero;stroke:none"
         d="m 16034.3,3857.57 h 265.7 v 588.44 h -265.7 v -588.44" /></g><path
       inkscape:connector-curvature="0"
       id="path950"
       style="fill:#184655;fill-opacity:1;fill-rule:nonzero;stroke:none;stroke-width:0.1"
       d="m 1473.83,390.48 h 26.9 v 58.61 h -26.9 v -58.61" /><g
       transform="scale(0.147934)"
       id="g952"><path
         inkscape:connector-curvature="0"
         id="path954"
         style="fill:#355389;fill-opacity:1;fill-rule:nonzero;stroke:none"
         d="m 16108.2,2642.2 h 191.8 c -263.1,170.88 -414,614.53 -492.5,911.62 -152.1,572.08 -186.5,1129.76 -187.1,1134.22 l -260.5,-37.99 c 82.1,-541.32 304.5,-1596.32 748.3,-2007.85" /></g><g
       transform="scale(0.110334)"
       id="g956"><path
         inkscape:connector-curvature="0"
         id="path958"
         style="fill:#355389;fill-opacity:1;fill-rule:nonzero;stroke:none"
         d="M 12393.4,4068.36 H 16300 V 8197.45 H 12393.4 V 4068.36" /></g><path
       inkscape:connector-curvature="0"
       id="path960"
       style="fill:#184655;fill-opacity:1;fill-rule:nonzero;stroke:none;stroke-width:0.1"
       d="m 1368,390.24 h 31.72 V 914.57 H 1368 V 390.24" /><g
       transform="scale(0.101533)"
       id="g962"><path
         inkscape:connector-curvature="0"
         id="path964"
         style="fill:#b75742;fill-opacity:1;fill-rule:nonzero;stroke:none"
         d="m 13412.3,9131.89 h 2701 c 103.1,0 186.7,86.78 186.7,193.74 v 115.23 c 0,106.96 -83.6,193.73 -186.7,193.73 h -2701 v 0 c 123.6,-140.05 125.6,-354.17 5,-496.88 l -5,-5.82" /></g><path
       inkscape:connector-curvature="0"
       id="path966"
       style="fill:#fae0b2;fill-opacity:1;fill-rule:nonzero;stroke:none;stroke-width:0.1"
       d="m 1366.03,972.38 h 152.1 c 10.48,0 18.97,-8.81 18.97,-19.67 v 0 c 0,-10.87 -8.49,-19.67 -18.97,-19.67 h -152.12 c 7.11,12.06 7.1,27.3 0.02,39.34" /><g
       transform="scale(0.103234)"
       id="g968"><path
         inkscape:connector-curvature="0"
         id="path970"
         style="fill:#f47458;fill-opacity:1;fill-rule:nonzero;stroke:none"
         d="m 13962.8,9821.94 h 2212.7 c 68.8,0 124.5,-55.71 124.5,-124.41 v -104.64 c 0,-68.77 -55.7,-124.47 -124.5,-124.47 h -2212.7 l 1.1,1.26 c 94.7,98.51 94.2,254.36 -1.1,352.26" /></g><path
       inkscape:connector-curvature="0"
       id="path972"
       style="fill:#fae0b2;fill-opacity:1;fill-rule:nonzero;stroke:none;stroke-width:0.1"
       d="m 1445.47,1008.55 h 122.12 c 7.09,0 12.84,-5.75 12.84,-12.84 v 0 c 0,-7.09 -5.75,-12.84 -12.84,-12.84 h -122.11 c 4.48,7.95 4.48,17.74 -0.01,25.68" /><g
       transform="scale(0.130088)"
       id="g974"><path
         inkscape:connector-curvature="0"
         id="path976"
         style="fill:#f48c7f;fill-opacity:1;fill-rule:nonzero;stroke:none"
         d="m 16079.6,8453.76 c -132.2,167.85 -412.4,61.79 -308.4,-494.38 0.5,-3.12 28.9,-436.76 16.2,-604.42 -133.3,30.98 -376,111.54 -553.3,120.61 0,0 -216.8,211.24 -302,249.67 -63.2,28.47 -234.6,14.07 -234.6,14.07 0,0 -249.9,-131.98 -230.6,-174.57 26.5,-58.27 170.5,107.16 249.2,80.25 0,0 -182.2,-102.16 -138.8,-120.61 43.4,-18.52 116.2,5.77 151.6,8.23 35.4,2.46 163.3,-102.93 262.9,-155.28 16.5,-8.69 54.9,-42.43 130,-83.64 76.3,-41.81 156.4,-112.38 260.4,-155.28 279.8,-115.3 590.8,-268.2 698.4,-186.18 l -0.5,1.23 c 122.9,145.36 219.9,1220.44 -0.5,1500.3" /></g><g
       transform="scale(0.150711)"
       id="g978"><path
         inkscape:connector-curvature="0"
         id="path980"
         style="fill:#13375b;fill-opacity:1;fill-rule:nonzero;stroke:none"
         d="m 16086.4,7001.2 v 0 c -128.8,27.6 -258,-44.56 -290.7,-162.42 l -481.2,-1730.26 c -17.1,-61.51 -77.3,-104.51 -146.3,-104.51 h -1469.9 c -122.4,0 -221.7,-99.26 -221.7,-221.74 v 0 c 0,-119.31 94.5,-217.24 213.7,-221.56 l 1767.2,-64.23 c 117.6,0 248.9,158.79 277.2,263.82 l 532.5,1969.05 c 32.8,121.16 -48.6,243.54 -180.8,271.85" /></g><g
       transform="scale(0.128693)"
       id="g982"><path
         inkscape:connector-curvature="0"
         id="path984"
         style="fill:#13375b;fill-opacity:1;fill-rule:nonzero;stroke:none"
         d="m 16067.6,3037.22 h 111.4 c 100.6,692.11 121,1503.19 8.6,2550.49 l -269.7,-5.52 c 179,-1039.45 208.4,-1851.15 149.7,-2544.97" /></g><g
       transform="scale(0.124007)"
       id="g986"><path
         inkscape:connector-curvature="0"
         id="path988"
         style="fill:#184655;fill-opacity:1;fill-rule:nonzero;stroke:none"
         d="m 15997.8,3138.22 h 302.2 v 4275.89 h -302.2 V 3138.22" /></g><g
       transform="scale(0.117234)"
       id="g990"><path
         inkscape:connector-curvature="0"
         id="path992"
         style="fill:#f7a491;fill-opacity:1;fill-rule:nonzero;stroke:none"
         d="m 16300,4266.33 c -83.1,-154.56 -286.3,-664.06 -293.9,-702.7 -2.3,-11.17 -31.1,-48.28 -40.6,-55.36 -262.4,-26.27 -454.4,114.64 -600,253.51 137.5,-9.72 347.8,25.85 378.4,31.14 79.9,13.56 71.3,256.32 116.9,529.02 70.7,-32.41 336.2,37.7 439.2,-55.61" /></g><g
       transform="scale(0.115126)"
       id="g994"><path
         inkscape:connector-curvature="0"
         id="path996"
         style="fill:#355389;fill-opacity:1;fill-rule:nonzero;stroke:none"
         d="m 16300,3632.27 c -22.2,-86.86 -114,-246.95 -131.8,-242.34 -21.3,5.47 -809.8,288.55 -877.6,401.55 -41.9,69.76 173.7,73.06 347.3,64.2 148.3,-141.41 616.5,-245.91 662.1,-223.41" /></g><g
       transform="scale(0.135229)"
       id="g998"><path
         inkscape:connector-curvature="0"
         id="path1000"
         style="fill:#3c8f7c;fill-opacity:1;fill-rule:nonzero;stroke:none"
         d="m 16300,5588.13 -1386.6,-152.63 -744.5,-1908.97 -452.4,88.51 c 0,0 253.9,2039.87 401.8,2210.54 403.5,465.58 1813.1,410.49 1813.1,410.49 l 368.6,-647.94" /></g><g
       transform="scale(0.125333)"
       id="g1002"><path
         inkscape:connector-curvature="0"
         id="path1004"
         style="fill:#f7a491;fill-opacity:1;fill-rule:nonzero;stroke:none"
         d="m 16287,3876.25 c -6.3,-97.98 -28.7,-216.7 -24.3,-331.12 2.9,-76.76 31.4,-170.11 34.8,-184.55 2.5,-10.37 -7.5,-53.14 -12.9,-62.87 -212.8,-124.63 -430.9,-79.71 -608.9,-18.51 120.7,45.47 204.7,135.96 235.1,168.91 51.3,55.69 14.7,222.77 -52.9,472.34 72.8,0 305.1,-5.03 429.1,-44.2" /></g><g
       transform="scale(0.141633)"
       id="g1006"><path
         inkscape:connector-curvature="0"
         id="path1008"
         style="fill:#50bfa5;fill-opacity:1;fill-rule:nonzero;stroke:none"
         d="m 15403.9,6135.22 c 0,0 -1386,-75.06 -1735.4,-586.52 -261.5,-382.75 389.6,-2270.44 389.6,-2270.44 l 391.8,72.23 c 0,0 -90.3,1279.08 -155.5,1701.15 -11.1,71.53 -62,282.78 -62,282.78 0,0 1484.8,-146.02 1725.7,-20.76 240.9,125.25 341.9,465 235.9,686.63 -106,221.63 -790.1,134.93 -790.1,134.93" /></g><g
       transform="scale(0.125629)"
       id="g1010"><path
         inkscape:connector-curvature="0"
         id="path1012"
         style="fill:#355389;fill-opacity:1;fill-rule:nonzero;stroke:none"
         d="m 16258.2,3355.9 c 27.6,-50.46 41.8,-245.96 25.3,-248.91 -19.8,-3.5 -850.3,-50.06 -949.9,18.15 -61.5,42.11 157.1,87.4 305,146.31 177.7,-61.06 610.7,30.4 619.6,84.45" /></g><g
       transform="scale(0.141585)"
       id="g1014"><path
         inkscape:connector-curvature="0"
         id="path1016"
         style="fill:#f47458;fill-opacity:1;fill-rule:nonzero;stroke:none"
         d="m 14637.5,8109.59 c -123.5,-21.6 -131.1,-121.32 -131.1,-121.32 l -126.5,-527.13 c 0,0 -11.6,-223.29 14,-308.73 49.9,-166.2 150.7,-231.74 315.8,-288.25 218.8,-74.86 305.3,-263.59 399.8,-373.63 163.7,-191.05 30.4,-419.6 30.4,-419.6 l 435.4,-137.45 651.5,87.44 c 0,0 73.2,112.72 -186.1,740.41 -225.1,545.08 -764.7,1459.97 -1403.2,1348.26" /></g><g
       transform="scale(0.145141)"
       id="g1018"><path
         inkscape:connector-curvature="0"
         id="path1020"
         style="fill:#355389;fill-opacity:1;fill-rule:nonzero;stroke:none"
         d="m 14611.9,2693.05 h 97.1 c 125.6,925.86 87.6,1957.41 -36.5,2879.76 -13.7,102.59 63.2,195.05 166.6,199.94 l 1460.9,69.18 v 100.86 c -0.6,0.07 -1235.2,75.59 -1789.8,107.42 -105.1,5.99 -186.6,-90.33 -163.5,-193.06 16.3,-72.13 35.7,-162.81 56.9,-271.39 182.5,-925.31 282.8,-1950.94 208.3,-2892.71" /></g><g
       transform="scale(0.133377)"
       id="g1022"><path
         inkscape:connector-curvature="0"
         id="path1024"
         style="fill:#f7a491;fill-opacity:1;fill-rule:nonzero;stroke:none"
         d="m 16051.5,8487.15 c -149.1,163.71 -412.9,58.65 -295.7,-483.82 0.7,-3.03 -0.3,-525.52 -14.7,-689.04 -150.2,30.21 -474,175.89 -679.2,224.78 0,0 -208.3,200.07 -304.4,237.54 -71.3,27.76 -264.6,13.72 -264.6,13.72 0,0 -281.8,-128.71 -260,-170.26 29.9,-56.81 192.3,104.5 281,78.24 0,0 -205.5,-99.58 -156.5,-117.62 48.9,-18.03 131,5.63 170.9,8.04 39.9,2.42 149.5,-115.57 261.9,-166.63 18.5,-8.47 96.5,-26.16 181.2,-66.43 86,-40.78 940.5,-637.74 1019,-515.45 208.2,323.97 309.6,1373.97 61.1,1646.93" /></g><g
       transform="scale(0.133321)"
       id="g1026"><path
         inkscape:connector-curvature="0"
         id="path1028"
         style="fill:#b75742;fill-opacity:1;fill-rule:nonzero;stroke:none"
         d="m 16187.6,7390.41 c -241,31.2 -505.1,102.91 -505.1,102.91 0,0 -43,485.57 -44.7,503.59 -15.6,249.34 -46.5,415.57 114.9,593.21 76.6,84.35 432.6,32.59 492.1,-267.61 55.2,-278.24 -3,-672.89 -40.8,-919.8 l -2.1,-14.18 -14.3,1.88" /></g><g
       transform="scale(0.143948)"
       id="g1030"><path
         inkscape:connector-curvature="0"
         id="path1032"
         style="fill:#b75742;fill-opacity:1;fill-rule:nonzero;stroke:none"
         d="m 14296.1,8831.51 c 17.1,148.94 16.9,714.96 361,703.29 344,-11.68 346,-390.29 624.6,65.93 258.2,422.67 734.9,149.5 690.5,-200.26 49.2,-5.07 97.5,-21.54 141,-50.44 150.5,-99.98 186.8,-309.9 81.1,-468.89 -16.8,-25.27 -15.4,-53.75 -36.6,-73.26 10.5,-158.01 -49.2,-325 -198.7,-477.77 -408.1,-417.28 -631.1,145.88 -850.9,159.88 -219.7,13.99 -111.7,-180.42 -322.5,-276.11 -210.9,-95.68 -354.1,-32.95 -588.9,381.87 l -56,112.68 c 0,0 138.2,-25.85 155.4,123.08" /></g><g
       transform="scale(0.127109)"
       id="g1034"><path
         inkscape:connector-curvature="0"
         id="path1036"
         style="fill:#b75742;fill-opacity:1;fill-rule:nonzero;stroke:none"
         d="m 15965.2,10117.6 c 274.2,-191.28 334.8,-678.39 82.5,-911 -164,-151.17 -487.1,-177.47 -666.4,-27.53 -290.9,243.19 -323.4,518.46 -220.2,734.53 133.1,278.8 578,361.8 804.1,204" /></g><g
       transform="scale(0.12843)"
       id="g1038"><path
         inkscape:connector-curvature="0"
         id="path1040"
         style="fill:#f7a491;fill-opacity:1;fill-rule:nonzero;stroke:none"
         d="m 15885.8,9360.36 c 0,0 83.6,-259.52 378,-409.24 36.2,-18.43 -410.7,-737.26 -410.9,-728.68 -1.3,55.48 77.2,379.3 58.2,419.09 -52.4,108.91 -355.8,605.46 -355.8,605.46 l 330.5,113.37" /></g><g
       transform="scale(0.125583)"
       id="g1042"><path
         inkscape:connector-curvature="0"
         id="path1044"
         style="fill:#f47458;fill-opacity:1;fill-rule:nonzero;stroke:none"
         d="m 16073.4,9513.36 -165.4,-56.72 v 0 c 0.3,-0.5 136.4,-223.15 243.7,-405.8 38.1,31.25 71.8,76.51 98.8,138.53 43,99.35 49.5,202.7 33,300.91 -26.9,49.36 -37.5,82.29 -37.5,82.3 l -172.6,-59.22" /></g><g
       transform="scale(0.126275)"
       id="g1046"><path
         inkscape:connector-curvature="0"
         id="path1048"
         style="fill:#f7a491;fill-opacity:1;fill-rule:nonzero;stroke:none"
         d="m 15544.5,10015.4 c 0,0 147.3,62.3 307.5,2.3 160.1,-59.95 448,-449.38 299.7,-790.99 -148.4,-341.61 -503,-171.84 -660.3,44.81 -157.5,216.65 -314.1,543.35 53.1,743.88" /></g><g
       transform="scale(0.126349)"
       id="g1050"><path
         inkscape:connector-curvature="0"
         id="path1052"
         style="fill:#b75742;fill-opacity:1;fill-rule:nonzero;stroke:none"
         d="m 16173.1,9816.21 c -126.8,220.29 -266,349.49 -461.5,299.29 -195.6,-50.1 -371,-83.6 -384.2,-313.12 l -14.1,-39.2 c 0,0 283.3,138.33 400.7,30.09 117.5,-108.24 363.4,-143.62 396.1,-218.69 32.7,-75.07 113.7,-210.99 113.7,-210.99 l 14.5,84.39 c 0,0 61.7,147.96 -65.2,368.23" /></g><g
       transform="scale(0.124585)"
       id="g1054"><path
         inkscape:connector-curvature="0"
         id="path1056"
         style="fill:#f7a491;fill-opacity:1;fill-rule:nonzero;stroke:none"
         d="m 16099.3,9818.4 c 26.8,-69.3 87.5,-109.31 135.5,-89.37 48,19.95 65.2,92.28 38.3,161.59 -26.8,69.3 -87.5,109.3 -135.5,89.37 -48,-19.95 -65.2,-92.3 -38.3,-161.59" /></g><g
       transform="scale(0.112151)"
       id="g1058"><path
         inkscape:connector-curvature="0"
         id="path1060"
         style="fill:#184655;fill-opacity:1;fill-rule:nonzero;stroke:none"
         d="m 15982.4,3479.6 h 317.6 v 4675.21 h -317.6 V 3479.6" /></g><g
       transform="scale(0.106111)"
       id="g1062"><path
         inkscape:connector-curvature="0"
         id="path1064"
         style="fill:#fae0b2;fill-opacity:1;fill-rule:nonzero;stroke:none"
         d="m 15019.2,11220.9 c 0,0 240.6,-81.4 337.8,-334.8 132.1,-344 -72.2,-895.34 -13.7,-1048.9 58.3,-153.58 333.2,-320.97 333.2,-320.97 l 623.5,221.14 c 0,0 -218.1,411.53 -211.9,552.83 6.1,141.3 -15.4,807.8 -276.5,930.7 h -792.4" /></g><g
       transform="scale(0.103212)"
       id="g1066"><path
         inkscape:connector-curvature="0"
         id="path1068"
         style="fill:#13375b;fill-opacity:1;fill-rule:nonzero;stroke:none"
         d="m 16287.4,11390.8 h -517.9 c -6.9,0 -12.7,5.7 -12.7,12.7 0,6.9 5.8,12.6 12.7,12.6 h 517.9 c 7,0 12.6,-5.7 12.6,-12.6 0,-7 -5.6,-12.7 -12.6,-12.7" /></g><g
       transform="scale(0.103791)"
       id="g1070"><path
         inkscape:connector-curvature="0"
         id="path1072"
         style="fill:#13375b;fill-opacity:1;fill-rule:nonzero;stroke:none"
         d="M 16287.5,11229.9 H 15760 c -7,0 -12.6,5.6 -12.6,12.5 0,6.9 5.6,12.6 12.6,12.6 h 527.5 c 6.9,0 12.5,-5.7 12.5,-12.6 0,-6.9 -5.6,-12.5 -12.5,-12.5" /></g><g
       transform="scale(0.103952)"
       id="g1074"><path
         inkscape:connector-curvature="0"
         id="path1076"
         style="fill:#13375b;fill-opacity:1;fill-rule:nonzero;stroke:none"
         d="m 16287.4,11102.8 h -360.5 c -6.9,0 -12.6,5.6 -12.6,12.6 0,6.9 5.7,12.5 12.6,12.5 h 360.5 c 7,0 12.6,-5.6 12.6,-12.5 0,-7 -5.6,-12.6 -12.6,-12.6" /></g><g
       transform="scale(0.103731)"
       id="g1078"><path
         inkscape:connector-curvature="0"
         id="path1080"
         style="fill:#13375b;fill-opacity:1;fill-rule:nonzero;stroke:none"
         d="m 16300,8943.88 h -569.6 v 140.27 h 569.6 v -140.27" /></g><g
       transform="scale(0.116368)"
       id="g1082"><path
         inkscape:connector-curvature="0"
         id="path1084"
         style="fill:#13375b;fill-opacity:1;fill-rule:nonzero;stroke:none"
         d="m 16300,7973.58 h -541.5 v 150.3 h 541.5 v -150.3" /></g><g
       transform="scale(0.100119)"
       id="g1086"><path
         inkscape:connector-curvature="0"
         id="path1088"
         style="fill:#13375b;fill-opacity:1;fill-rule:nonzero;stroke:none"
         d="m 16300,10427.6 h -204 v 345 h 180.1 l 23.9,-345" /></g><g
       transform="scale(0.100959)"
       id="g1090"><path
         inkscape:connector-curvature="0"
         id="path1092"
         style="fill:#466eb6;fill-opacity:1;fill-rule:nonzero;stroke:none"
         d="m 16300,10893.9 c 0,-145 -117.6,-262.5 -262.6,-262.5 -145,0 -262.5,117.5 -262.5,262.5 0,145 117.5,262.6 262.5,262.6 145,0 262.6,-117.6 262.6,-262.6" /></g><g
       transform="scale(0.100186)"
       id="g1094"><path
         inkscape:connector-curvature="0"
         id="path1096"
         style="fill:#13375b;fill-opacity:1;fill-rule:nonzero;stroke:none"
         d="m 16300,10978 c 0,-76.7 -62.2,-138.8 -138.8,-138.8 -76.7,0 -138.8,62.1 -138.8,138.8 0,76.6 62.1,138.8 138.8,138.8 76.6,0 138.8,-62.2 138.8,-138.8" /></g><g
       transform="scale(0.102299)"
       id="g1098"><path
         inkscape:connector-curvature="0"
         id="path1100"
         style="fill:#13375b;fill-opacity:1;fill-rule:nonzero;stroke:none"
         d="m 16300,11073 c 0,-56.3 -45.7,-101.9 -102,-101.9 -56.3,0 -101.9,45.6 -101.9,101.9 0,56.3 45.6,101.9 101.9,101.9 56.3,0 102,-45.6 102,-101.9" /></g><g
       transform="scale(0.102645)"
       id="g1102"><path
         inkscape:connector-curvature="0"
         id="path1104"
         style="fill:#13375b;fill-opacity:1;fill-rule:nonzero;stroke:none"
         d="m 15874.5,10182 -48.5,66.9 c 2.9,2 275.8,200.8 331.3,364 54.3,160.3 -17.4,337.4 -18.1,339.2 l 76.1,31.7 c 3.5,-8.4 84.7,-207.1 20.1,-397.4 -63.8,-188.2 -348.9,-395.7 -360.9,-404.4" /></g><g
       transform="scale(0.106458)"
       id="g1106"><path
         inkscape:connector-curvature="0"
         id="path1108"
         style="fill:#13375b;fill-opacity:1;fill-rule:nonzero;stroke:none"
         d="m 16300,10640.4 c 0,-54.1 -43.9,-97.9 -98,-97.9 -54.1,0 -97.9,43.8 -97.9,97.9 0,54.1 43.8,98 97.9,98 54.1,0 98,-43.9 98,-98" /></g><g
       transform="scale(0.106804)"
       id="g1110"><path
         inkscape:connector-curvature="0"
         id="path1112"
         style="fill:#13375b;fill-opacity:1;fill-rule:nonzero;stroke:none"
         d="m 15891,9785.49 -46.5,64.31 c 2.7,1.91 265.1,193 318.3,349.8 52.3,154.1 -16.7,324.3 -17.4,326 l 73.2,30.5 c 3.4,-8 81.4,-199 19.3,-382 -61.3,-180.77 -335.3,-380.21 -346.9,-388.61" /></g><g
       transform="scale(0.105558)"
       id="g1114"><path
         inkscape:connector-curvature="0"
         id="path1116"
         style="fill:#13375b;fill-opacity:1;fill-rule:nonzero;stroke:none"
         d="m 16300,10718.8 h -583.6 v 49.4 h 583.6 v -49.4" /></g><g
       transform="scale(0.108127)"
       id="g1118"><path
         inkscape:connector-curvature="0"
         id="path1120"
         style="fill:#466eb6;fill-opacity:1;fill-rule:nonzero;stroke:none"
         d="m 16300,10148.1 c 0,-119.9 -84.5,-217.02 -188.9,-217.02 -104.3,0 -188.9,97.12 -188.9,217.02 0,119.9 84.6,217 188.9,217 104.4,0 188.9,-97.1 188.9,-217" /></g><g
       transform="scale(0.106907)"
       id="g1122"><path
         inkscape:connector-curvature="0"
         id="path1124"
         style="fill:#466eb6;fill-opacity:1;fill-rule:nonzero;stroke:none"
         d="m 15828.5,10036.8 h 471.5 v 445.6 h -471.5 v -445.6" /></g><g
       transform="scale(0.105388)"
       id="g1126"><path
         inkscape:connector-curvature="0"
         id="path1128"
         style="fill:#13375b;fill-opacity:1;fill-rule:nonzero;stroke:none"
         d="m 16300,10409.8 c 0,-123 -105.2,-222.6 -235,-222.6 -129.8,0 -235.1,99.6 -235.1,222.6 0,123 105.3,222.7 235.1,222.7 129.8,0 235,-99.7 235,-222.7" /></g><g
       transform="scale(0.114169)"
       id="g1130"><path
         inkscape:connector-curvature="0"
         id="path1132"
         style="fill:#13375b;fill-opacity:1;fill-rule:nonzero;stroke:none"
         d="m 16300,8876.01 c 0,-23.65 -44.1,-42.82 -98.4,-42.82 -54.4,0 -98.6,19.17 -98.6,42.82 0,23.64 44.2,42.82 98.6,42.82 54.3,0 98.4,-19.18 98.4,-42.82" /></g><g
       transform="scale(0.115568)"
       id="g1134"><path
         inkscape:connector-curvature="0"
         id="path1136"
         style="fill:#13375b;fill-opacity:1;fill-rule:nonzero;stroke:none"
         d="m 16300,8662.07 c 0,-22.23 -35.3,-40.14 -78.9,-40.14 -43.6,0 -79,17.91 -79,40.14 0,22.2 35.4,40.18 79,40.18 43.6,0 78.9,-17.98 78.9,-40.18" /></g><g
       transform="scale(0.117328)"
       id="g1138"><path
         inkscape:connector-curvature="0"
         id="path1140"
         style="fill:#13375b;fill-opacity:1;fill-rule:nonzero;stroke:none"
         d="m 16300,8532.17 c 0,-21.89 -34.8,-39.54 -77.7,-39.54 -43,0 -77.8,17.65 -77.8,39.54 0,21.86 34.8,39.58 77.8,39.58 42.9,0 77.7,-17.72 77.7,-39.58" /></g><g
       transform="scale(0.116468)"
       id="g1142"><path
         inkscape:connector-curvature="0"
         id="path1144"
         style="fill:#13375b;fill-opacity:1;fill-rule:nonzero;stroke:none"
         d="m 16300,8684.68 c 0,-22.02 -35.1,-39.87 -78.4,-39.87 -43.3,0 -78.3,17.85 -78.3,39.87 0,22.02 35,39.87 78.3,39.87 43.3,0 78.4,-17.85 78.4,-39.87" /></g><g
       transform="scale(0.115158)"
       id="g1146"><path
         inkscape:connector-curvature="0"
         id="path1148"
         style="fill:#13375b;fill-opacity:1;fill-rule:nonzero;stroke:none"
         d="m 16300,8380.9 h -39.6 v 295.77 h 39.6 V 8380.9" /></g><g
       transform="scale(0.114769)"
       id="g1150"><path
         inkscape:connector-curvature="0"
         id="path1152"
         style="fill:#13375b;fill-opacity:1;fill-rule:nonzero;stroke:none"
         d="m 16300,8642.86 c 0,-22.31 -35.6,-40.43 -79.6,-40.43 -43.9,0 -79.4,18.12 -79.4,40.43 0,22.39 35.5,40.52 79.4,40.52 44,0 79.6,-18.13 79.6,-40.52" /></g><g
       transform="scale(0.114358)"
       id="g1154"><path
         inkscape:connector-curvature="0"
         id="path1156"
         style="fill:#13375b;fill-opacity:1;fill-rule:nonzero;stroke:none"
         d="m 16300,8359.69 h -39.9 v 297.84 h 39.9 v -297.84" /></g><g
       transform="scale(0.113619)"
       id="g1158"><path
         inkscape:connector-curvature="0"
         id="path1160"
         style="fill:#13375b;fill-opacity:1;fill-rule:nonzero;stroke:none"
         d="m 16300,8591.96 h -40.2 v 299.74 h 40.2 v -299.74" /></g><g
       transform="scale(0.116918)"
       id="g1162"><path
         inkscape:connector-curvature="0"
         id="path1164"
         style="fill:#13375b;fill-opacity:1;fill-rule:nonzero;stroke:none"
         d="m 16300,8256.14 h -39 v 291.32 h 39 v -291.32" /></g><g
       transform="scale(0.116048)"
       id="g1166"><path
         inkscape:connector-curvature="0"
         id="path1168"
         style="fill:#13375b;fill-opacity:1;fill-rule:nonzero;stroke:none"
         d="m 16300,8375.6 h -39.3 v 310.34 h 39.3 V 8375.6" /></g><g
       transform="scale(0.117728)"
       id="g1170"><path
         inkscape:connector-curvature="0"
         id="path1172"
         style="fill:#13375b;fill-opacity:1;fill-rule:nonzero;stroke:none"
         d="m 16300,8305.19 v -334.25 h -2751.7 v 902.5 h 418.9 l 162.5,293.45 1015,4.87 100,0.45 c -42.1,-584.79 510.1,-1016.52 1055.3,-867.02" /></g><g
       transform="scale(0.117728)"
       id="g1174"><path
         inkscape:connector-curvature="0"
         id="path1176"
         style="fill:#466eb6;fill-opacity:1;fill-rule:nonzero;stroke:none"
         d="m 16300,8305.19 v -103.04 c -613.4,-148.81 -1195.2,339.48 -1155.3,969.61 l 100,0.45 c -42.1,-584.79 510.1,-1016.52 1055.3,-867.02" /></g><g
       transform="scale(0.113009)"
       id="g1178"><path
         inkscape:connector-curvature="0"
         id="path1180"
         style="fill:#466eb6;fill-opacity:1;fill-rule:nonzero;stroke:none"
         d="m 16282.7,8459.49 h -2024.6 v 697.92 c 0,9.57 -7.7,17.31 -17.2,17.31 -9.6,0 -17.4,-7.74 -17.4,-17.31 v -715.18 c 0,-9.55 7.8,-17.34 17.4,-17.34 h 2041.8 c 9.5,0 17.3,7.79 17.3,17.34 0,9.56 -7.8,17.26 -17.3,17.26" /></g><g
       transform="scale(0.127479)"
       id="g1182"><path
         inkscape:connector-curvature="0"
         id="path1184"
         style="fill:#184655;fill-opacity:1;fill-rule:nonzero;stroke:none"
         d="M 10102.5,7025.7 H 16192 c 59.6,0 108,48.32 108,107.94 v 37.26 c 0,59.62 -48.4,107.94 -108,107.94 h -6089.5 c -59.7,0 -108,-48.32 -108,-107.94 v -37.26 c 0,-59.62 48.3,-107.94 108,-107.94" /></g><path
       inkscape:connector-curvature="0"
       id="path1186"
       style="fill:#b75742;fill-opacity:1;fill-rule:nonzero;stroke:none;stroke-width:0.1"
       d="m 1395.55,980.09 -15.05,-1.41 -13.73,126.7 4.71,24.55 10.35,-23.14 13.72,-126.7" /><path
       inkscape:connector-curvature="0"
       id="path1188"
       style="fill:#f7cc7f;fill-opacity:1;fill-rule:nonzero;stroke:none;stroke-width:0.1"
       d="m 1381.85,1106.56 -0.02,0.23 -7.19,16.06 -4.59,-0.39 -3.2,-16.67 c 4.7,-0.02 10.13,-0.38 15,0.77" /><path
       inkscape:connector-curvature="0"
       id="path1190"
       style="fill:#13375b;fill-opacity:1;fill-rule:nonzero;stroke:none;stroke-width:0.1"
       d="m 1398.28,974.18 -15.05,1.47 13.89,113.31 c 0.47,4.1 3.68,13.01 7.79,12.61 v 0 c 4.2,-0.41 4.63,-9.86 4.16,-14.05 l -10.79,-113.34" /><path
       inkscape:connector-curvature="0"
       id="path1192"
       style="fill:#13375b;fill-opacity:1;fill-rule:nonzero;stroke:none;stroke-width:0.1"
       d="m 1404.21,1091.17 c -0.03,0 -0.07,0.01 -0.11,0.01 -0.47,0.06 -0.81,0.49 -0.75,0.96 l 2.02,16.12 c 0.06,0.47 0.48,0.8 0.96,0.75 0.47,-0.06 0.81,-0.49 0.75,-0.97 l -2.01,-16.11 c -0.06,-0.44 -0.43,-0.76 -0.86,-0.76" /><path
       inkscape:connector-curvature="0"
       id="path1194"
       style="fill:#50bfa5;fill-opacity:1;fill-rule:nonzero;stroke:none;stroke-width:0.1"
       d="m 1404.6,927.8 h -42.44 c -6.83,0 -12.38,5.54 -12.38,12.37 v 94.26 h 67.2 v -94.26 c 0,-6.83 -5.54,-12.37 -12.38,-12.37" /><path
       inkscape:connector-curvature="0"
       id="path1196"
       style="fill:#96d9c9;fill-opacity:1;fill-rule:nonzero;stroke:none;stroke-width:0.1"
       d="m 1389.93,940.17 v 94.26 h -40.15 v -94.26 c 0,-6.83 5.55,-12.37 12.38,-12.37 h 15.39 c 6.84,0 12.38,5.54 12.38,12.37" /><g
       transform="scale(0.116588)"
       id="g1198"><path
         inkscape:connector-curvature="0"
         id="path1200"
         style="fill:#96d9c9;fill-opacity:1;fill-rule:nonzero;stroke:none"
         d="m 16207.5,9194.45 -8.9,76.13 c -2.6,21.31 -4.4,47.7 -6,68.85 l -1,0.16 c -8.6,-19.41 -18,-44.41 -26.9,-63.23 l -32.6,-69.06 z m -96.5,-43.06 -26.8,-57.09 c -7.4,-15.66 -24.3,-24.48 -41.3,-21.57 v 0 c -25.5,4.33 -39.5,32.08 -27.9,55.2 l 139.3,277.49 101.4,-17.24 40.9,-308.02 c 3.4,-25.7 -19.1,-47.36 -44.6,-43.01 l -3.5,0.58 c -16.7,2.86 -29.6,16.35 -31.7,33.21 l -7.9,63.8 -97.9,16.65" /></g><g
       transform="scale(0.113925)"
       id="g1202"><path
         inkscape:connector-curvature="0"
         id="path1204"
         style="fill:#fae0b2;fill-opacity:1;fill-rule:nonzero;stroke:none"
         d="m 16093.6,9673.81 c 9.9,3.17 20.9,8.5 36.9,16.16 42.4,20.32 72.3,54.29 51.4,97.94 -20.1,41.82 -65.5,40.46 -112.3,18.05 l -32,-15.32 z m -88.1,183.84 30.7,14.75 c 49.3,23.58 65.9,56.53 51.2,87.28 -15,31.35 -47,36.46 -89.4,16.12 -20.2,-9.71 -31.4,-16.53 -38.7,-21.61 z m -168.9,114.13 c 22.2,16.73 70.3,44.32 117,66.72 57.3,27.4 94.9,38.6 133.6,35.2 36.3,-1.5 70.7,-19.7 88.7,-57.2 17.7,-36.94 12.6,-81.7 -25.8,-121.31 l 0.6,-1.22 c 53.5,9.79 105.7,-9.08 131.3,-62.58 18,-37.52 14.9,-75.28 -0.9,-108.56 -18.7,-38.43 -62.6,-76.13 -145,-115.62 -46.1,-22.09 -82,-35.52 -104.3,-42.48 l -195.2,407.05" /></g><g
       transform="scale(0.1163)"
       id="g1206"><path
         inkscape:connector-curvature="0"
         id="path1208"
         style="fill:#fae0b2;fill-opacity:1;fill-rule:nonzero;stroke:none"
         d="m 16292.3,10060.5 c 7.7,-23.5 -4.8,-48.9 -28.2,-56.9 -21.7,-7.46 -49.5,-14.3 -81.8,-18.46 -168.7,-21.73 -269.1,72.06 -287,211.16 -21.5,166.5 85.3,274.5 233.1,293.6 29.5,3.8 55.7,4 77.1,2.3 25.5,-2 43.8,-25.2 40.7,-50.5 l -0.2,-1.7 c -3,-24.1 -24.4,-41.4 -48.6,-39.4 -15.6,1.3 -33.1,1.1 -52.3,-1.3 -87.6,-11.3 -148.8,-73 -134.9,-181.6 12.7,-97.8 78.5,-151.9 177,-139.2 16.5,2.1 33.7,6.2 49.3,11.1 23.3,7.3 48.1,-5.9 55.8,-29.1 v 0" /></g><g
       transform="scale(0.112883)"
       id="g1210"><path
         inkscape:connector-curvature="0"
         id="path1212"
         style="fill:#96d9c9;fill-opacity:1;fill-rule:nonzero;stroke:none"
         d="m 15927.9,10953.2 c 12.8,1.2 32,7.5 49.4,13.3 126.5,40.7 185.8,137.4 137.2,284.6 -41.4,128.3 -138.7,171.2 -258.5,131.6 -31.1,-10.2 -50.3,-19.6 -61.3,-26.3 z m -306,456.6 c 48.5,25.2 113.7,51.8 184.1,75.1 117.1,38.6 199.9,42.7 274.1,17.5 79.8,-26.4 145,-89 181,-197.8 38.9,-117.9 22.9,-213.5 -19.9,-283.4 -47.1,-75.4 -137.4,-133.6 -258.1,-173.5 -72.3,-23.9 -125,-36.2 -161.2,-43.1 l -200,605.2" /></g><g
       transform="scale(0.156887)"
       id="g1214"><path
         inkscape:connector-curvature="0"
         id="path1216"
         style="fill:#fae0b2;fill-opacity:1;fill-rule:nonzero;stroke:none"
         d="m 16297.1,4152.94 c 2.9,-24.99 -14.9,-47.68 -40,-50.61 -25,-2.87 -47.6,14.98 -50.5,39.96 -3,25.05 14.9,47.68 39.9,50.61 25,2.94 47.6,-14.97 50.6,-39.96" /></g><g
       transform="scale(0.15676)"
       id="g1218"><path
         inkscape:connector-curvature="0"
         id="path1220"
         style="fill:#f47458;fill-opacity:1;fill-rule:nonzero;stroke:none"
         d="m 16242.5,4125.94 c 17,-25.96 57.5,-11.17 53.9,19.58 -1.8,16.01 -16.2,27.75 -32.7,25.84 -21.9,-2.55 -33.1,-27.31 -21.2,-45.42 v 0" /></g><g
       transform="scale(0.159883)"
       id="g1222"><path
         inkscape:connector-curvature="0"
         id="path1224"
         style="fill:#fae0b2;fill-opacity:1;fill-rule:nonzero;stroke:none"
         d="m 16215.8,4007.61 c -16,-18.89 -13.6,-47.1 5.3,-63.05 18.9,-15.95 47,-13.57 63,5.32 15.9,18.89 13.5,47.09 -5.4,63.04 -18.8,15.89 -47,13.51 -62.9,-5.31" /></g><g
       transform="scale(0.159633)"
       id="g1226"><path
         inkscape:connector-curvature="0"
         id="path1228"
         style="fill:#f47458;fill-opacity:1;fill-rule:nonzero;stroke:none"
         d="m 16250.1,3956.7 c 12.3,-10.28 30.5,-8.71 40.9,3.44 8.2,9.71 9,23.93 2,34.58 -1.5,2.32 -3.3,4.45 -5.5,6.27 -5.9,4.95 -13.4,7.39 -21.1,6.7 -25.7,-2.13 -35.7,-34.45 -16.3,-50.99" /></g><g
       transform="scale(0.157957)"
       id="g1230"><path
         inkscape:connector-curvature="0"
         id="path1232"
         style="fill:#fae0b2;fill-opacity:1;fill-rule:nonzero;stroke:none"
         d="m 16209.4,4126.06 c -0.1,-25.01 20.1,-45.33 45.1,-45.39 25,-0.07 45.3,20.13 45.4,45.07 0.1,25.01 -20.1,45.33 -45.1,45.46 -25,0.06 -45.3,-20.14 -45.4,-45.14" /></g><g
       transform="scale(0.157867)"
       id="g1234"><path
         inkscape:connector-curvature="0"
         id="path1236"
         style="fill:#f47458;fill-opacity:1;fill-rule:nonzero;stroke:none"
         d="m 16262.8,4089.96 c 23.3,-0.06 37.2,26.04 24.6,45.3 -16.1,24.51 -53.7,12.66 -53.8,-15.9 -0.1,-16.09 12.9,-29.33 29.2,-29.4" /></g><g
       transform="scale(0.155959)"
       id="g1238"><path
         inkscape:connector-curvature="0"
         id="path1240"
         style="fill:#fae0b2;fill-opacity:1;fill-rule:nonzero;stroke:none"
         d="m 16213.4,4100.04 c 16.1,-19.43 45.1,-22.06 64.5,-5.84 19.5,16.16 22.1,45.08 5.9,64.51 -16.2,19.49 -45.2,22.12 -64.6,5.9 -19.4,-16.22 -22,-45.14 -5.8,-64.57" /></g><g
       transform="scale(0.155834)"
       id="g1242"><path
         inkscape:connector-curvature="0"
         id="path1244"
         style="fill:#f47458;fill-opacity:1;fill-rule:nonzero;stroke:none"
         d="m 16243.9,4105.96 c 10.4,-12.51 29.1,-14.24 41.7,-3.78 12.5,10.46 14.4,29.07 3.8,41.77 -10.4,12.58 -29.2,14.31 -41.8,3.85 -12.5,-10.46 -14.3,-29.07 -3.7,-41.84" /></g><g
       transform="scale(0.15934)"
       id="g1246"><path
         inkscape:connector-curvature="0"
         id="path1248"
         style="fill:#fae0b2;fill-opacity:1;fill-rule:nonzero;stroke:none"
         d="m 16208.7,3495.23 c -11.1,22.16 -2.1,49.14 19.9,60.25 22.2,11.11 49.2,2.2 60.3,-19.96 11.1,-22.15 2.2,-49.14 -20,-60.24 -22.1,-11.11 -49,-2.2 -60.2,19.95" /></g><g
       transform="scale(0.159121)"
       id="g1250"><path
         inkscape:connector-curvature="0"
         id="path1252"
         style="fill:#f47458;fill-opacity:1;fill-rule:nonzero;stroke:none"
         d="m 16241.9,3511.72 c 8.1,-12.32 24.1,-16.59 37.3,-9.99 15.4,7.73 20.8,27.33 11.2,41.91 -8.1,12.38 -24.1,16.66 -37.3,10.06 -15.5,-7.79 -20.8,-27.34 -11.2,-41.98 v 0" /></g><g
       transform="scale(0.16059)"
       id="g1254"><path
         inkscape:connector-curvature="0"
         id="path1256"
         style="fill:#fae0b2;fill-opacity:1;fill-rule:nonzero;stroke:none"
         d="m 16231.8,3618.85 c -22.6,9.72 -33.1,35.93 -23.3,58.48 9.7,22.6 36,33 58.6,23.22 22.5,-9.71 32.9,-35.93 23.2,-58.47 -9.8,-22.6 -35.9,-33 -58.5,-23.23" /></g><g
       transform="scale(0.160329)"
       id="g1258"><path
         inkscape:connector-curvature="0"
         id="path1260"
         style="fill:#f47458;fill-opacity:1;fill-rule:nonzero;stroke:none"
         d="m 16243.1,3652.35 c 12.5,-19.02 41.4,-16.71 50.5,4.43 6.4,14.6 -0.3,31.56 -15,37.86 -26.1,11.29 -51.1,-18.4 -35.5,-42.29 v 0" /></g><g
       transform="scale(0.160452)"
       id="g1262"><path
         inkscape:connector-curvature="0"
         id="path1264"
         style="fill:#fae0b2;fill-opacity:1;fill-rule:nonzero;stroke:none"
         d="m 16263,3833.48 c -23.5,-7.04 -48.4,6.36 -55.4,29.92 -7.1,23.62 6.3,48.42 29.9,55.46 23.5,7.04 48.4,-6.29 55.5,-29.91 7,-23.56 -6.4,-48.37 -30,-55.47" /></g><g
       transform="scale(0.160175)"
       id="g1266"><path
         inkscape:connector-curvature="0"
         id="path1268"
         style="fill:#f47458;fill-opacity:1;fill-rule:nonzero;stroke:none"
         d="m 16295.6,3865.64 c 3.6,6.74 4.4,14.54 2.2,21.97 -7.4,24.54 -40.9,27.91 -53.1,5.43 -3.6,-6.8 -4.4,-14.61 -2.2,-21.97 7.4,-24.54 40.9,-27.97 53.1,-5.43" /></g><g
       transform="scale(0.160098)"
       id="g1270"><path
         inkscape:connector-curvature="0"
         id="path1272"
         style="fill:#fae0b2;fill-opacity:1;fill-rule:nonzero;stroke:none"
         d="m 16271.5,3609.85 c -21.3,12.43 -48.7,5.18 -61.1,-16.12 -12.4,-21.36 -5.2,-48.65 16.1,-61.09 21.3,-12.36 48.7,-5.18 61.1,16.18 12.4,21.3 5.2,48.6 -16.1,61.03" /></g><g
       transform="scale(0.159888)"
       id="g1274"><path
         inkscape:connector-curvature="0"
         id="path1276"
         style="fill:#f47458;fill-opacity:1;fill-rule:nonzero;stroke:none"
         d="m 16270.5,3553.42 c 24.7,6.5 29.5,39.96 7.2,52.91 -13.8,8.01 -31.5,3.32 -39.6,-10.45 -12.9,-22.32 7.8,-49.03 32.4,-42.46" /></g><g
       transform="scale(0.159014)"
       id="g1278"><path
         inkscape:connector-curvature="0"
         id="path1280"
         style="fill:#fae0b2;fill-opacity:1;fill-rule:nonzero;stroke:none"
         d="m 16286.4,4042.98 c -13.8,-20.7 -41.6,-26.48 -62.4,-12.83 -20.7,13.64 -26.4,41.5 -12.8,62.25 13.6,20.76 41.5,26.54 62.3,12.9 20.7,-13.65 26.5,-41.57 12.9,-62.32" /></g><g
       transform="scale(0.158798)"
       id="g1282"><path
         inkscape:connector-curvature="0"
         id="path1284"
         style="fill:#f47458;fill-opacity:1;fill-rule:nonzero;stroke:none"
         d="m 16250.9,4040.87 c 13.4,-8.82 31.5,-5.1 40.3,8.31 8.8,13.35 5.2,31.43 -8.3,40.3 -13.4,8.82 -31.5,5.11 -40.3,-8.31 -6.4,-9.7 -6.4,-22.23 0,-31.99 0.7,-0.82 2.9,-4.78 8.3,-8.31" /></g><g
       transform="scale(0.160687)"
       id="g1286"><path
         inkscape:connector-curvature="0"
         id="path1288"
         style="fill:#fae0b2;fill-opacity:1;fill-rule:nonzero;stroke:none"
         d="m 16244.4,3806.09 c -24.2,-4.17 -40.5,-27.19 -36.3,-51.4 4.2,-24.21 27.2,-40.45 51.4,-36.28 24.3,4.17 40.5,27.19 36.3,51.4 -4.2,24.21 -27.2,40.45 -51.4,36.28" /></g><g
       transform="scale(0.160474)"
       id="g1290"><path
         inkscape:connector-curvature="0"
         id="path1292"
         style="fill:#f47458;fill-opacity:1;fill-rule:nonzero;stroke:none"
         d="m 16269.5,3738.36 c 20.5,3.55 30.5,27.04 19.2,44.18 -6.3,9.6 -17.7,14.58 -29,12.59 -15.7,-2.68 -26.2,-17.64 -23.4,-33.28 2.6,-15.7 17.6,-26.17 33.2,-23.49" /></g><g
       transform="scale(0.159784)"
       id="g1294"><path
         inkscape:connector-curvature="0"
         id="path1296"
         style="fill:#f47458;fill-opacity:1;fill-rule:nonzero;stroke:none"
         d="m 15886.4,3995.33 -7.1,-4.63 295.7,-451.11 7,4.57 -131.4,201.71 193.2,-143.7 5,6.83 -201.3,149.7 240,-72.98 2.5,8.08 -230.4,70.03 240.4,14.14 -0.5,8.39 -250.5,-14.71 230.8,98.45 -3.3,7.76 -221.5,-94.44 175,165.35 -5.8,6.13 -182.3,-172.29 113.5,223.73 -7.5,3.82 -109,-214.72 27.8,239.13 -8.4,1 -29,-249.21 -56.9,244.33 -8.2,-1.88 54.6,-234.5 -132.4,201.02" /></g><g
       transform="scale(0.157412)"
       id="g1298"><path
         inkscape:connector-curvature="0"
         id="path1300"
         style="fill:#f47458;fill-opacity:1;fill-rule:nonzero;stroke:none"
         d="m 15319.9,3224.72 20.1,-30.69 960,628.86 -20.1,30.75 -960,-628.92" /></g><g
       transform="scale(0.152634)"
       id="g1302"><path
         inkscape:connector-curvature="0"
         id="path1304"
         style="fill:#fae0b2;fill-opacity:1;fill-rule:nonzero;stroke:none"
         d="m 16274.5,5465.74 c 25.5,-35.57 17.4,-85.1 -18.2,-110.59 -35.6,-25.55 -85.1,-17.36 -110.7,18.22 -25.4,35.57 -17.3,85.1 18.3,110.59 35.5,25.55 85.1,17.36 110.6,-18.22" /></g><g
       transform="scale(0.152577)"
       id="g1306"><path
         inkscape:connector-curvature="0"
         id="path1308"
         style="fill:#f47458;fill-opacity:1;fill-rule:nonzero;stroke:none"
         d="m 16203,5364.52 c 47.8,-25.17 97,31.52 65.6,75.24 -16.3,22.74 -48.2,28.57 -71.6,11.79 -31.1,-22.35 -27.3,-69.47 6,-87.03 v 0" /></g><g
       transform="scale(0.157731)"
       id="g1310"><path
         inkscape:connector-curvature="0"
         id="path1312"
         style="fill:#fae0b2;fill-opacity:1;fill-rule:nonzero;stroke:none"
         d="m 16141.2,5374.16 c -8.2,-41.53 18.8,-81.91 60.3,-90.15 41.6,-8.25 82,18.83 90.3,60.35 8.2,41.59 -18.9,81.98 -60.4,90.16 -41.6,8.24 -82,-18.77 -90.2,-60.36" /></g><g
       transform="scale(0.157388)"
       id="g1314"><path
         inkscape:connector-curvature="0"
         id="path1316"
         style="fill:#f47458;fill-opacity:1;fill-rule:nonzero;stroke:none"
         d="m 16237.4,5307.51 c 26.8,-5.34 53,12.2 58.3,39.14 4.3,21.41 -6.2,43.46 -25.5,53.62 -4.3,2.23 -8.8,3.82 -13.5,4.77 -13.1,2.6 -26.3,-0.07 -37.4,-7.44 -36.8,-24.58 -25,-81.58 18.1,-90.09" /></g><g
       transform="scale(0.154211)"
       id="g1318"><path
         inkscape:connector-curvature="0"
         id="path1320"
         style="fill:#fae0b2;fill-opacity:1;fill-rule:nonzero;stroke:none"
         d="m 16141.6,5430.94 c 20.9,-37.94 68.5,-51.82 106.5,-30.94 38,20.88 51.9,68.55 31,106.54 -20.9,38.01 -68.6,51.88 -106.6,31 -37.9,-20.88 -51.8,-68.61 -30.9,-106.6" /></g><g
       transform="scale(0.153986)"
       id="g1322"><path
         inkscape:connector-curvature="0"
         id="path1324"
         style="fill:#f47458;fill-opacity:1;fill-rule:nonzero;stroke:none"
         d="m 16264.4,5417.64 c 35.6,19.55 34.7,70.79 -0.7,89.42 -45,23.71 -92.2,-25.97 -68.3,-69.35 13.5,-24.55 44.3,-33.71 69,-20.07" /></g><g
       transform="scale(0.151555)"
       id="g1326"><path
         inkscape:connector-curvature="0"
         id="path1328"
         style="fill:#fae0b2;fill-opacity:1;fill-rule:nonzero;stroke:none"
         d="m 16180.7,5234.09 c 41.1,-15.97 87.4,4.42 103.3,45.52 16,41.11 -4.4,87.37 -45.6,103.33 -41.1,15.97 -87.3,-4.42 -103.3,-45.52 -15.9,-41.11 4.5,-87.37 45.6,-103.33" /></g><g
       transform="scale(0.151388)"
       id="g1330"><path
         inkscape:connector-curvature="0"
         id="path1332"
         style="fill:#f47458;fill-opacity:1;fill-rule:nonzero;stroke:none"
         d="m 16222.8,5258.66 c 26.6,-10.3 56.6,2.91 66.9,29.46 10.3,26.42 -2.6,56.41 -29.5,66.85 -26.5,10.37 -56.6,-2.91 -66.9,-29.46 -10.2,-26.42 2.6,-56.41 29.5,-66.85" /></g><g
       transform="scale(0.160772)"
       id="g1334"><path
         inkscape:connector-curvature="0"
         id="path1336"
         style="fill:#fae0b2;fill-opacity:1;fill-rule:nonzero;stroke:none"
         d="m 16171.9,4449.85 c -34.3,23.45 -43.1,70.35 -19.6,104.62 23.4,34.33 70.3,43.16 104.6,19.65 34.3,-23.45 43.1,-70.28 19.7,-104.62 -23.5,-34.27 -70.3,-43.1 -104.7,-19.65" /></g><g
       transform="scale(0.160353)"
       id="g1338"><path
         inkscape:connector-curvature="0"
         id="path1340"
         style="fill:#f47458;fill-opacity:1;fill-rule:nonzero;stroke:none"
         d="m 16220.7,4487.54 c 21.9,-11.47 48.9,-4.74 63,15.72 16.3,23.88 8.3,57.06 -17.7,70.72 -21.9,11.53 -48.9,4.8 -62.9,-15.66 -16.5,-24.07 -8.4,-57.06 17.6,-70.78 v 0" /></g><g
       transform="scale(0.161173)"
       id="g1342"><path
         inkscape:connector-curvature="0"
         id="path1344"
         style="fill:#fae0b2;fill-opacity:1;fill-rule:nonzero;stroke:none"
         d="m 16228.6,4783.18 c -41.3,-4.09 -78.1,26.06 -82.2,67.32 -4,41.26 26.2,78.05 67.4,82.09 41.3,4.09 78,-26.06 82.1,-67.32 4.1,-41.26 -26.1,-78.05 -67.3,-82.09" /></g><g
       transform="scale(0.160764)"
       id="g1346"><path
         inkscape:connector-curvature="0"
         id="path1348"
         style="fill:#f47458;fill-opacity:1;fill-rule:nonzero;stroke:none"
         d="m 16225.1,4823.91 c 34,-17.91 74.9,9.21 71.1,47.9 -2.7,26.74 -26.5,46.27 -53.2,43.6 -47.9,-4.73 -60.5,-69.05 -17.9,-91.5 v 0" /></g><g
       transform="scale(0.159299)"
       id="g1350"><path
         inkscape:connector-curvature="0"
         id="path1352"
         style="fill:#fae0b2;fill-opacity:1;fill-rule:nonzero;stroke:none"
         d="m 16270.6,5169.41 c -29.3,-30.01 -77.4,-30.58 -107.4,-1.2 -30,29.32 -30.5,77.4 -1.2,107.41 29.3,30.01 77.5,30.51 107.4,1.19 30,-29.31 30.6,-77.46 1.2,-107.4" /></g><g
       transform="scale(0.158875)"
       id="g1354"><path
         inkscape:connector-curvature="0"
         id="path1356"
         style="fill:#f47458;fill-opacity:1;fill-rule:nonzero;stroke:none"
         d="m 16299.5,5224.85 c -0.1,13.15 -5.4,25.49 -14.8,34.68 -31.3,30.59 -84.1,7.93 -83.7,-35.75 0.2,-13.16 5.4,-25.49 14.8,-34.68 31.3,-30.53 84.2,-8 83.7,35.75" /></g><g
       transform="scale(0.161217)"
       id="g1358"><path
         inkscape:connector-curvature="0"
         id="path1360"
         style="fill:#fae0b2;fill-opacity:1;fill-rule:nonzero;stroke:none"
         d="m 16225.6,4744.12 c -41.4,0.86 -75.7,-32.01 -76.6,-73.51 -0.9,-41.43 32,-75.74 73.5,-76.6 41.4,-0.93 75.7,32 76.6,73.44 0.9,41.43 -32,75.74 -73.5,76.67" /></g><g
       transform="scale(0.160956)"
       id="g1362"><path
         inkscape:connector-curvature="0"
         id="path1364"
         style="fill:#f47458;fill-opacity:1;fill-rule:nonzero;stroke:none"
         d="m 16269,4643.62 c 31,29.76 10.7,82.75 -32.6,83.68 -26.8,0.56 -49.1,-20.81 -49.7,-47.59 -0.9,-43.42 51.3,-65.79 82.3,-36.09" /></g><g
       transform="scale(0.155856)"
       id="g1366"><path
         inkscape:connector-curvature="0"
         id="path1368"
         style="fill:#fae0b2;fill-opacity:1;fill-rule:nonzero;stroke:none"
         d="m 16296.7,5444.11 c -3.2,-42.79 -40.6,-74.81 -83.3,-71.54 -42.8,3.28 -74.8,40.55 -71.6,83.35 3.3,42.73 40.7,74.75 83.4,71.54 42.8,-3.27 74.8,-40.62 71.5,-83.35" /></g><g
       transform="scale(0.15559)"
       id="g1370"><path
         inkscape:connector-curvature="0"
         id="path1372"
         style="fill:#f47458;fill-opacity:1;fill-rule:nonzero;stroke:none"
         d="m 16243.9,5393.59 c 27.6,-2.06 51.9,18.7 54,46.34 2.1,27.57 -18.5,51.87 -46.4,53.99 -27.6,2.06 -51.8,-18.7 -53.9,-46.34 -1.5,-19.99 8.9,-38.95 26.7,-48.33 1.7,-0.71 8.5,-4.76 19.6,-5.66" /></g><g
       transform="scale(0.160564)"
       id="g1374"><path
         inkscape:connector-curvature="0"
         id="path1376"
         style="fill:#fae0b2;fill-opacity:1;fill-rule:nonzero;stroke:none"
         d="m 16168,5100.53 c -32.5,-26.1 -37.7,-73.49 -11.6,-105.94 26.1,-32.45 73.5,-37.62 106,-11.59 32.4,26.1 37.6,73.5 11.5,106.01 -26,32.44 -73.5,37.61 -105.9,11.52" /></g><g
       transform="scale(0.160173)"
       id="g1378"><path
         inkscape:connector-curvature="0"
         id="path1380"
         style="fill:#f47458;fill-opacity:1;fill-rule:nonzero;stroke:none"
         d="m 16272.5,5007.96 c 27.5,22.1 23,65.12 -7.8,81.29 -17.2,9.11 -38.2,7.11 -53.4,-5.12 -21,-16.86 -24.4,-47.64 -7.4,-68.68 16.9,-21.1 47.7,-24.28 68.6,-7.49" /></g><g
       transform="scale(0.159752)"
       id="g1382"><path
         inkscape:connector-curvature="0"
         id="path1384"
         style="fill:#f47458;fill-opacity:1;fill-rule:nonzero;stroke:none"
         d="m 15446.3,5005.94 -6.6,-12.64 807.9,-425.72 6.7,12.64 -360.2,190.86 404,-54.27 1.9,14.14 -421,56.59 415.4,88.89 -3,13.96 -398.6,-85.26 344.4,218.03 -7.7,12.08 -358.9,-227.23 261.1,335.08 -11.2,8.76 -250.6,-321.56 123.6,388.48 -13.7,4.38 -128.7,-404.75 -15.4,424.41 -14.3,-0.5 14.8,-407.38 -155.1,377.02 -13.2,-5.45 161.6,-392.85 -284.7,315.23 -10.7,-9.58 273.3,-302.52 -361.1,189.16" /></g><g
       transform="scale(0.155719)"
       id="g1386"><path
         inkscape:connector-curvature="0"
         id="path1388"
         style="fill:#f47458;fill-opacity:1;fill-rule:nonzero;stroke:none"
         d="m 15328.9,3223.88 55.5,-29.28 915.6,1737.23 -55.5,29.22 -915.6,-1737.17" /></g><g
       transform="scale(0.149854)"
       id="g1390"><path
         inkscape:connector-curvature="0"
         id="path1392"
         style="fill:#466eb6;fill-opacity:1;fill-rule:nonzero;stroke:none"
         d="m 16034.1,3298.95 c 0,0 -660.9,490.54 -751.5,701.94 -90.5,211.48 96.2,187.59 96.2,187.59 0,0 -266.9,378.1 -196.1,503.09 70.9,124.92 218.2,-34.64 218.2,-34.64 0,0 -123.8,511.5 -16.1,540 200.5,52.98 365,-497.56 365,-497.56 0,0 -14.8,228.56 110.8,197.8 189.2,-46.45 89.1,-538.53 89.1,-538.53 0,0 60.3,87.29 164.1,4.27 186.2,-148.94 -79.7,-1063.96 -79.7,-1063.96" /></g><g
       transform="scale(0.149999)"
       id="g1394"><path
         inkscape:connector-curvature="0"
         id="path1396"
         style="fill:#355389;fill-opacity:1;fill-rule:nonzero;stroke:none"
         d="m 16126.2,4345.97 c -103.7,82.93 -191.9,8.47 -191.9,8.47 0,0 100,491.6 -89,538 -125.4,30.73 -110.7,-197.6 -110.7,-197.6 0,0 -164.3,550 -364.7,497.07 l 653.6,-1894.62 c 29.2,118.34 276.5,909.68 102.7,1048.68" /></g><g
       transform="scale(0.147401)"
       id="g1398"><path
         inkscape:connector-curvature="0"
         id="path1400"
         style="fill:#86b1f2;fill-opacity:1;fill-rule:nonzero;stroke:none"
         d="m 16300,3371.14 c 0,0 -688.6,0.74 -830.7,120.08 -142.1,119.33 32.2,128.63 32.2,128.63 0,0 -329,174.69 -324.2,291.18 4.7,116.48 116.3,93.01 116.3,93.01 0,0 -227.4,203.73 -180.7,302.51 71.7,151.76 397,-136.1 397,-136.1 0,0 -24.9,115.47 76,139.56 152.2,36.36 306.5,-396.2 306.5,-396.2 0,0 -72.7,194.84 31.8,173.2 187.5,-38.81 375.8,-715.87 375.8,-715.87" /></g><g
       transform="scale(0.155038)"
       id="g1402"><path
         inkscape:connector-curvature="0"
         id="path1404"
         style="fill:#355389;fill-opacity:1;fill-rule:nonzero;stroke:none"
         d="m 15524.3,3168.64 c 0,0 581,495.82 651.9,695.57 70.9,199.76 -99.4,166.86 -99.4,166.86 0,0 223.2,363.33 150.8,474.08 -72.5,110.81 -175.2,45.28 -175.2,45.28 0,0 60.4,387.78 -40.3,407.64 -187.5,36.96 -306.5,-478.91 -306.5,-478.91 0,0 0.2,211.04 -113.4,175.38 -171.3,-53.8 -50.5,-500.46 -50.5,-500.46 0,0 -63.2,166.99 -153.7,84.56 -162.6,-147.9 136.3,-1070 136.3,-1070" /></g><g
       transform="scale(0.1523)"
       id="g1406"><path
         inkscape:connector-curvature="0"
         id="path1408"
         style="fill:#466eb6;fill-opacity:1;fill-rule:nonzero;stroke:none"
         d="m 15624.6,4351.15 c 107,64.15 171.3,-21.41 171.3,-21.41 0,0 -97.8,353.71 76.6,408.47 115.6,36.31 115.5,-178.53 115.5,-178.53 0,0 121.1,525.15 312,487.53 l -499.3,-1814.38 c -34.5,109.13 -303.4,1041.96 -176.1,1118.32" /></g><g
       transform="scale(0.158618)"
       id="g1410"><path
         inkscape:connector-curvature="0"
         id="path1412"
         style="fill:#9bc1f9;fill-opacity:1;fill-rule:nonzero;stroke:none"
         d="m 15231.1,3166.73 c 0,0 623.9,-0.25 710.6,9.84 86.8,10.09 -9.1,87.57 -9.1,87.57 0,0 194.2,-7.06 223.7,40.15 29.7,47.23 -49.7,65.82 -49.7,65.82 0,0 193.4,55.99 184.1,97.09 -17.1,76.6 -230.6,26.67 -230.6,26.67 0,0 79.3,38.52 47,74.27 -48.6,54.03 -256.2,-92.74 -256.2,-92.74 0,0 78,147.4 32,166.06 -82.5,33.54 -651.8,-474.73 -651.8,-474.73" /></g><g
       transform="scale(0.154617)"
       id="g1414"><path
         inkscape:connector-curvature="0"
         id="path1416"
         style="fill:#f47458;fill-opacity:1;fill-rule:nonzero;stroke:none"
         d="m 16087.3,2528.26 h -1065.2 c -135.7,123.91 -218.3,294.6 -215.3,481.77 1.5,94.55 21,177.01 61.5,257.93 l 1373.4,-15.46 c 38,-82.21 58.3,-172.56 56.8,-267.05 -2.9,-178.38 -83,-339.16 -211.2,-457.19" /></g></g></svg>