<?xml version="1.0" encoding="UTF-8" standalone="no"?>
<!-- Created with Inkscape (http://www.inkscape.org/) -->

<svg
   xmlns:dc="http://purl.org/dc/elements/1.1/"
   xmlns:cc="http://creativecommons.org/ns#"
   xmlns:rdf="http://www.w3.org/1999/02/22-rdf-syntax-ns#"
   xmlns:svg="http://www.w3.org/2000/svg"
   xmlns="http://www.w3.org/2000/svg"
   xmlns:sodipodi="http://sodipodi.sourceforge.net/DTD/sodipodi-0.dtd"
   xmlns:inkscape="http://www.inkscape.org/namespaces/inkscape"
   width="183.94684mm"
   height="286.69281mm"
   viewBox="0 0 183.94684 286.69281"
   version="1.1"
   id="svg118042"
   inkscape:version="0.92.4 (5da689c313, 2019-01-14)"
   sodipodi:docname="mi.svg">
  <defs
     id="defs118036">
    <linearGradient
       id="linearGradient158806"
       spreadMethod="pad"
       gradientTransform="matrix(0,-381.57734,440.76418,0,-27.125545,253.26173)"
       gradientUnits="userSpaceOnUse"
       y2="0"
       x2="1"
       y1="-6.9388939e-18"
       x1="-1.110223e-16">
      <stop
         id="stop158800"
         offset="0"
         style="stop-opacity:1;stop-color:#f3eb26" />
      <stop
         id="stop158802"
         offset="0.7727133"
         style="stop-opacity:1;stop-color:#d54b36" />
      <stop
         id="stop158804"
         offset="1"
         style="stop-opacity:1;stop-color:#d54b36" />
    </linearGradient>
    <clipPath
       id="clipPath158834"
       clipPathUnits="userSpaceOnUse">
      <path
         inkscape:connector-curvature="0"
         id="path158832"
         d="m 6027.98,5295.83 c -23.2,0.98 -46.25,2.42 -69.17,4.34 v 0 c 22.93,-1.91 45.97,-3.36 69.17,-4.33 0,-0.01 0,0 0,-0.01" />
    </clipPath>
    <radialGradient
       id="radialGradient158842"
       spreadMethod="pad"
       gradientTransform="matrix(1556.2,0,0,-1457.58,6098.88,6752.05)"
       gradientUnits="userSpaceOnUse"
       r="1"
       cy="0"
       cx="0"
       fy="0"
       fx="0">
      <stop
         id="stop158836"
         offset="0"
         style="stop-opacity:1;stop-color:#efd400" />
      <stop
         id="stop158838"
         offset="0.152416"
         style="stop-opacity:1;stop-color:#efd400" />
      <stop
         id="stop158840"
         offset="1"
         style="stop-opacity:1;stop-color:#cb6f00" />
    </radialGradient>
    <clipPath
       id="clipPath158852"
       clipPathUnits="userSpaceOnUse">
      <path
         inkscape:connector-curvature="0"
         id="path158850"
         d="m 5475.77,5415.89 c -549.35,225.13 -932.95,738.85 -932.95,1336.36 v 0 c 0,-597.5 383.61,-1111.23 932.96,-1336.36 h -0.01" />
    </clipPath>
    <radialGradient
       id="radialGradient158860"
       spreadMethod="pad"
       gradientTransform="matrix(1556.2,0,0,-1457.58,6098.88,6752.05)"
       gradientUnits="userSpaceOnUse"
       r="1"
       cy="0"
       cx="0"
       fy="0"
       fx="0">
      <stop
         id="stop158854"
         offset="0"
         style="stop-opacity:1;stop-color:#fbf92c" />
      <stop
         id="stop158856"
         offset="0.152416"
         style="stop-opacity:1;stop-color:#fbf92c" />
      <stop
         id="stop158858"
         offset="1"
         style="stop-opacity:1;stop-color:#f3eb26" />
    </radialGradient>
    <clipPath
       id="clipPath158870"
       clipPathUnits="userSpaceOnUse">
      <path
         inkscape:connector-curvature="0"
         id="path158868"
         d="m 5918.05,5304.08 c -118.02,12.79 -232.01,37.94 -340.45,74.05 v 0 c 108.44,-36.1 222.43,-61.25 340.45,-74.05 0,0 0,0.01 0,0 m -400.94,95.53 c -13.89,5.25 -27.65,10.67 -41.34,16.28 h 0.01 c 13.68,-5.61 27.45,-11.03 41.34,-16.27 l -0.01,-0.01" />
    </clipPath>
    <radialGradient
       id="radialGradient158878"
       spreadMethod="pad"
       gradientTransform="matrix(1556.2,0,0,-1457.58,6098.88,6752.05)"
       gradientUnits="userSpaceOnUse"
       r="1"
       cy="0"
       cx="0"
       fy="0"
       fx="0">
      <stop
         id="stop158872"
         offset="0"
         style="stop-opacity:1;stop-color:#efd400" />
      <stop
         id="stop158874"
         offset="0.152416"
         style="stop-opacity:1;stop-color:#efd400" />
      <stop
         id="stop158876"
         offset="1"
         style="stop-opacity:1;stop-color:#cb6f00" />
    </radialGradient>
    <clipPath
       id="clipPath158888"
       clipPathUnits="userSpaceOnUse">
      <path
         inkscape:connector-curvature="0"
         id="path158886"
         d="m 5577.6,5378.13 c -20.34,6.77 -40.55,13.95 -60.49,21.48 l 0.01,0.01 c 19.94,-7.54 40.14,-14.71 60.48,-21.49 v 0" />
    </clipPath>
    <radialGradient
       id="radialGradient158896"
       spreadMethod="pad"
       gradientTransform="matrix(1556.2,0,0,-1457.58,6098.88,6752.05)"
       gradientUnits="userSpaceOnUse"
       r="1"
       cy="0"
       cx="0"
       fy="0"
       fx="0">
      <stop
         id="stop158890"
         offset="0"
         style="stop-opacity:1;stop-color:#faf131" />
      <stop
         id="stop158892"
         offset="0.152416"
         style="stop-opacity:1;stop-color:#faf131" />
      <stop
         id="stop158894"
         offset="1"
         style="stop-opacity:1;stop-color:#eecf2b" />
    </radialGradient>
    <clipPath
       id="clipPath158906"
       clipPathUnits="userSpaceOnUse">
      <path
         inkscape:connector-curvature="0"
         id="path158904"
         d="m 7630.23,6492.04 v 0 c 16.24,84.46 24.71,171.38 24.71,260.21 v 0 c 0,-88.84 -8.47,-175.75 -24.71,-260.21" />
    </clipPath>
    <clipPath
       id="clipPath158918"
       clipPathUnits="userSpaceOnUse">
      <path
         inkscape:connector-curvature="0"
         id="path158916"
         d="m 6995.34,5560.39 v 0 c 327.11,216.35 561.1,547.96 634.89,931.65 v 0 c -73.79,-383.69 -307.78,-715.3 -634.89,-931.65" />
    </clipPath>
    <radialGradient
       id="radialGradient158926"
       spreadMethod="pad"
       gradientTransform="matrix(1556.2,0,0,-1457.58,6098.88,6752.05)"
       gradientUnits="userSpaceOnUse"
       r="1"
       cy="0"
       cx="0"
       fy="0"
       fx="0">
      <stop
         id="stop158920"
         offset="0"
         style="stop-opacity:1;stop-color:#fbf92c" />
      <stop
         id="stop158922"
         offset="0.152416"
         style="stop-opacity:1;stop-color:#fbf92c" />
      <stop
         id="stop158924"
         offset="1"
         style="stop-opacity:1;stop-color:#f3eb26" />
    </radialGradient>
    <clipPath
       id="clipPath158936"
       clipPathUnits="userSpaceOnUse">
      <path
         inkscape:connector-curvature="0"
         id="path158934"
         d="m 6098.89,5294.35 c -23.78,0 -47.4,0.49 -70.91,1.48 0,0.01 0,0 0,0.01 23.52,-0.99 47.13,-1.49 70.91,-1.49 333.86,0 643.09,98.47 896.45,266.04 v 0 c -253.35,-167.57 -562.59,-266.04 -896.45,-266.04 m -140.08,5.82 c -13.64,1.14 -27.22,2.44 -40.76,3.91 0,0.01 0,0 0,0 13.54,-1.46 27.12,-2.77 40.76,-3.91 v 0" />
    </clipPath>
    <radialGradient
       id="radialGradient158944"
       spreadMethod="pad"
       gradientTransform="matrix(1556.2,0,0,-1457.58,6098.88,6752.05)"
       gradientUnits="userSpaceOnUse"
       r="1"
       cy="0"
       cx="0"
       fy="0"
       fx="0">
      <stop
         id="stop158938"
         offset="0"
         style="stop-opacity:1;stop-color:#c5340f" />
      <stop
         id="stop158940"
         offset="0.152416"
         style="stop-opacity:1;stop-color:#c5340f" />
      <stop
         id="stop158942"
         offset="1"
         style="stop-opacity:1;stop-color:#3f170d" />
    </radialGradient>
    <clipPath
       id="clipPath158954"
       clipPathUnits="userSpaceOnUse">
      <path
         inkscape:connector-curvature="0"
         id="path158952"
         d="m 6027.98,5295.84 c -23.2,0.97 -46.24,2.42 -69.17,4.33 59.42,78.46 115.32,138.53 153.92,160.45 -3.37,-15.47 -7.31,-29.74 -11.93,-41.75 -16.41,-42.96 -44.5,-73.92 -72.82,-123.03" />
    </clipPath>
    <clipPath
       id="clipPath158966"
       clipPathUnits="userSpaceOnUse">
      <path
         inkscape:connector-curvature="0"
         id="path158964"
         d="m 7630.23,6492.04 c -382.07,726.47 -1144.2,1221.95 -2022,1221.95 -280.36,0 -548.9,-50.54 -797.05,-143 279.9,385.59 752.05,638.77 1287.71,638.77 859.78,0 1556.05,-652.41 1556.05,-1457.51 0,-88.83 -8.47,-175.75 -24.71,-260.21" />
    </clipPath>
    <clipPath
       id="clipPath158978"
       clipPathUnits="userSpaceOnUse">
      <path
         inkscape:connector-curvature="0"
         id="path158976"
         d="m 5475.78,5415.89 c -549.35,225.13 -932.96,738.86 -932.96,1336.36 0,303.53 98.98,585.39 268.36,818.74 248.15,92.46 516.69,143 797.05,143 877.8,0 1639.93,-495.48 2022,-1221.95 -73.79,-383.69 -307.78,-715.3 -634.89,-931.65 -62.02,31.8 -106.3,45.9 -106.3,45.9 l 47.08,87.87 -36.11,29.87 c 0,0 76.88,172.56 83.15,189.83 6.27,17.28 -3.11,50.24 -3.11,50.24 0,0 15.69,12.55 23.53,18.77 7.86,6.31 -9.33,25.16 0.04,83.21 9.4,58.04 -14.11,65.85 -14.11,81.55 0,15.69 10.96,40.84 9.38,65.92 -1.53,25.09 -12.53,169.49 -17.22,192.24 -4.74,22.75 8.59,28.23 0.74,40.77 -7.8,12.62 -18.81,11.79 -17.23,34.54 1.55,22.75 3.9,33.72 3.9,38.45 0,4.73 -5.48,15.69 -5.48,15.69 0,0 -21.95,32.97 -46.29,63.52 -24.27,30.64 -57.24,24.34 -76.84,41.61 -19.63,17.27 -147.46,60.39 -155.3,76.88 -7.86,16.48 -4.69,28.23 -6.27,33.73 -1.59,5.5 -63.03,47.21 -63.03,47.21 0,0 13.36,21.22 17.29,40.81 3.91,19.62 5.08,24.71 5.08,24.71 0,0 5.42,-0.93 13.85,-0.93 14.13,0 36.73,2.62 56.39,16.62 31.33,22.38 101.17,95.73 102.34,104.76 1.2,9.02 34.64,61.2 -9.28,98.85 -10.34,8.86 -23.81,12.25 -38.36,12.25 -47.3,0 -106.02,-35.79 -106.02,-35.79 0,0 -18.81,127.13 -35.29,147.52 -16.48,20.39 -45.46,25.51 -63.52,48.25 -9.88,12.44 -20.1,19.37 -35.23,19.37 -12.54,0 -28.43,-4.75 -50.29,-15.06 -48.24,-22.77 -78.47,-39.23 -95.31,-40.4 -16.86,-1.18 -8.64,-44.73 -14.53,-80.44 -5.86,-35.69 -5.48,-56.86 -5.48,-56.86 0,0 -56.7,32.38 -107.76,32.38 -24.55,0 -47.8,-7.48 -62.83,-29.64 -46.29,-68.26 45.49,-176.54 94.1,-221.26 31.88,-29.29 71.83,-34.34 95.59,-34.34 12.52,0 20.54,1.4 20.54,1.4 l 3.9,-21.98 c 0,0 -30.52,-7.83 -33.63,-21.18 -3.15,-13.33 -7.11,-59.62 -7.11,-59.62 0,0 -61.14,-50.24 -109,-90.24 -47.87,-40.03 -71.41,-32.14 -88.68,-43.93 -17.23,-11.79 -66.63,-41.6 -77.64,-65.93 -11,-24.26 -8.56,-137.27 -8.56,-137.27 0,0 -32.95,33.72 -54.12,48.58 -16.14,11.39 -30,12.75 -35.69,12.75 -1.78,0 -2.76,-0.13 -2.76,-0.13 0,0 25.87,-22 35.29,-73.81 9.42,-51.74 -7.06,-99.65 6.3,-133.36 13.3,-33.72 33.71,-57.3 33.71,-57.3 0,0 3.91,-115.26 2.37,-162.34 -1.58,-47.08 -10.17,-22.01 -14.9,-114.6 -4.73,-92.58 42.34,-106.7 54.88,-145.14 12.57,-38.45 32.17,-62.78 32.17,-62.78 0,0 0,-55 -4.85,-119.59 l -254.75,-47.64 c -18.82,-2.25 -166.68,-19.86 -183.38,-22.81 -13.42,-2.48 -38.86,-13.41 -65.25,-24.67 -22.17,-9.54 -45.15,-19.38 -54.59,-21.87 l -0.07,0.16 h -0.11 c -10.33,-2.64 -48.43,-23.02 -94.9,-49.8" />
    </clipPath>
    <clipPath
       id="clipPath158990"
       clipPathUnits="userSpaceOnUse">
      <path
         inkscape:connector-curvature="0"
         id="path158988"
         d="m 5918.05,5304.08 c -118.02,12.8 -232.01,37.95 -340.45,74.05 -0.49,19.66 -1.04,39.05 -1.43,52.8 -10.59,-4.48 -32.13,-16.01 -59.05,-31.31 -13.89,5.24 -27.66,10.66 -41.34,16.27 46.47,26.78 84.57,47.16 94.9,49.8 h 0.11 l 0.07,-0.16 c 9.44,2.49 32.42,12.33 54.59,21.87 26.39,11.26 51.83,22.19 65.25,24.67 16.7,2.95 164.56,20.56 183.38,22.81 l 254.75,47.64 c -1.97,-26.33 -4.75,-54.24 -8.67,-80.68 -5.21,-1.5 -10.77,-3.6 -16.51,-6.38 -46.12,-22.28 -114.9,-96.01 -185.6,-191.38" />
    </clipPath>
    <clipPath
       id="clipPath159002"
       clipPathUnits="userSpaceOnUse">
      <path
         inkscape:connector-curvature="0"
         id="path159000"
         d="m 5577.6,5378.13 c -20.34,6.78 -40.54,13.95 -60.48,21.49 26.92,15.3 48.46,26.83 59.05,31.31 0.39,-13.75 0.94,-33.14 1.43,-52.8" />
    </clipPath>
    <clipPath
       id="clipPath159014"
       clipPathUnits="userSpaceOnUse">
      <path
         inkscape:connector-curvature="0"
         id="path159012"
         d="m 6098.89,5294.35 c -23.78,0 -47.39,0.5 -70.91,1.49 28.32,49.11 56.41,80.07 72.82,123.03 4.62,12.01 8.56,26.28 11.93,41.75 -38.6,-21.92 -94.5,-81.99 -153.92,-160.45 -13.64,1.14 -27.22,2.45 -40.76,3.91 70.7,95.37 139.48,169.1 185.6,191.38 5.74,2.78 11.3,4.88 16.51,6.38 3.92,26.44 6.7,54.35 8.67,80.68 4.85,64.59 4.85,119.59 4.85,119.59 0,0 -19.6,24.33 -32.17,62.78 -12.54,38.44 -59.61,52.56 -54.88,145.14 4.73,92.59 13.32,67.52 14.9,114.6 1.54,47.08 -2.37,162.34 -2.37,162.34 0,0 -20.41,23.58 -33.71,57.3 -13.36,33.71 3.12,81.62 -6.3,133.36 -9.42,51.81 -35.29,73.81 -35.29,73.81 0,0 0.98,0.13 2.76,0.13 5.69,0 19.55,-1.36 35.69,-12.75 21.17,-14.86 54.12,-48.58 54.12,-48.58 0,0 -2.44,113.01 8.56,137.27 11.01,24.33 60.41,54.14 77.64,65.93 17.27,11.79 40.81,3.9 88.68,43.93 47.86,40 109,90.24 109,90.24 0,0 3.96,46.29 7.11,59.62 3.11,13.35 33.63,21.18 33.63,21.18 l -3.9,21.98 c 0,0 -8.02,-1.4 -20.54,-1.4 -23.76,0 -63.71,5.05 -95.59,34.34 -48.61,44.72 -140.39,153 -94.1,221.26 15.03,22.16 38.28,29.64 62.83,29.64 51.06,0 107.76,-32.38 107.76,-32.38 0,0 -0.38,21.17 5.48,56.86 5.89,35.71 -2.33,79.26 14.53,80.44 16.84,1.17 47.07,17.63 95.31,40.4 21.86,10.31 37.75,15.06 50.29,15.06 15.13,0 25.35,-6.93 35.23,-19.37 18.06,-22.74 47.04,-27.86 63.52,-48.25 16.48,-20.39 35.29,-147.52 35.29,-147.52 0,0 58.72,35.79 106.02,35.79 14.55,0 28.02,-3.39 38.36,-12.25 43.92,-37.65 10.48,-89.83 9.28,-98.85 -1.17,-9.03 -71.01,-82.38 -102.34,-104.76 -19.66,-14 -42.26,-16.62 -56.39,-16.62 -8.43,0 -13.85,0.93 -13.85,0.93 0,0 -1.17,-5.09 -5.08,-24.71 -3.93,-19.59 -17.29,-40.81 -17.29,-40.81 0,0 61.44,-41.71 63.03,-47.21 1.58,-5.5 -1.59,-17.25 6.27,-33.73 7.84,-16.49 135.67,-59.61 155.3,-76.88 19.6,-17.27 52.57,-10.97 76.84,-41.61 24.34,-30.55 46.29,-63.52 46.29,-63.52 0,0 5.48,-10.96 5.48,-15.69 0,-4.73 -2.35,-15.7 -3.9,-38.45 -1.58,-22.75 9.43,-21.92 17.23,-34.54 7.85,-12.54 -5.48,-18.02 -0.74,-40.77 4.69,-22.75 15.69,-167.15 17.22,-192.24 1.58,-25.08 -9.38,-50.23 -9.38,-65.92 0,-15.7 23.51,-23.51 14.11,-81.55 -9.37,-58.05 7.82,-76.9 -0.04,-83.21 -7.84,-6.22 -23.53,-18.77 -23.53,-18.77 0,0 9.38,-32.96 3.11,-50.24 -6.27,-17.27 -83.15,-189.83 -83.15,-189.83 l 36.11,-29.87 -47.08,-87.87 c 0,0 44.28,-14.1 106.3,-45.9 -253.36,-167.57 -562.59,-266.04 -896.45,-266.04" />
    </clipPath>
    <linearGradient
       id="linearGradient5534">
      <stop
         id="stop5536"
         offset="0"
         style="stop-color:#e5b700;stop-opacity:1;" />
      <stop
         style="stop-color:#e5b700;stop-opacity:1;"
         offset="0.12500009"
         id="stop5538" />
      <stop
         id="stop5540"
         offset="0.43333337"
         style="stop-color:#ffdd1e;stop-opacity:1;" />
      <stop
         style="stop-color:#ffffff;stop-opacity:1;"
         offset="0.56666666"
         id="stop5542" />
      <stop
         id="stop5544"
         offset="0.6785714"
         style="stop-color:#ffdd1e;stop-opacity:1;" />
      <stop
         id="stop5546"
         offset="0.87499994"
         style="stop-color:#ffe345;stop-opacity:1;" />
      <stop
         style="stop-color:#fff0bc;stop-opacity:1;"
         offset="1"
         id="stop5548" />
    </linearGradient>
  </defs>
  <sodipodi:namedview
     id="base"
     pagecolor="#ffffff"
     bordercolor="#666666"
     borderopacity="1.0"
     inkscape:pageopacity="0.0"
     inkscape:pageshadow="2"
     inkscape:zoom="0.22186307"
     inkscape:cx="-584.75392"
     inkscape:cy="420.11459"
     inkscape:document-units="mm"
     inkscape:current-layer="layer1"
     showgrid="true"
     inkscape:window-width="1699"
     inkscape:window-height="1056"
     inkscape:window-x="129"
     inkscape:window-y="0"
     inkscape:window-maximized="1"
     objecttolerance="3"
     fit-margin-top="0"
     fit-margin-left="0"
     fit-margin-right="0"
     fit-margin-bottom="0">
    <inkscape:grid
       type="xygrid"
       id="grid160163"
       originx="-141.04258"
       originy="-52.913705" />
  </sodipodi:namedview>
  <metadata
     id="metadata118039">
    <rdf:RDF>
      <cc:Work
         rdf:about="">
        <dc:format>image/svg+xml</dc:format>
        <dc:type
           rdf:resource="http://purl.org/dc/dcmitype/StillImage" />
        <dc:title></dc:title>
      </cc:Work>
    </rdf:RDF>
  </metadata>
  <g
     inkscape:label="Layer 1"
     inkscape:groupmode="layer"
     id="layer1"
     style="display:inline"
     sodipodi:insensitive="true"
     transform="translate(-141.04259,42.606471)">
    <path
       inkscape:connector-curvature="0"
       style="display:inline;fill:#3f170d;fill-opacity:1;fill-rule:nonzero;stroke:none;stroke-width:0.26458332;stroke-opacity:1"
       d="m 190.5,43 c 1.57337,-3.861989 3.21995,-7.684285 4.92174,-11.472639 8.01247,-16.589382 18.77326,-31.932852 32.1769,-44.619252 -20.42356,11.30172 -33.34057,31.19901 -41.65034,53.619172 -1.70112,4.56729 -2.97163,8.776102 -4.35273,13.356772 -5.06252,17.714149 -7.76428,36.215316 -9.39743,52.782127 -0.49717,5.7842 -0.2393,13.89567 -0.4527,19.69715 2.13834,-5.59579 1.69562,-11.7688 2.54471,-17.62426 1.02113,-18.233221 5.34865,-36.044328 11.44271,-53.229322 C 187.26703,51.131089 188.81216,47.236572 190.5,43 Z m 11.19988,19.192591 c -1.68587,0.91212 -3.31457,1.847521 -4.82028,2.8266 -2.23521,1.139718 -13.41637,12.498337 -6.2262,9.696951 3.87948,-1.037978 3.87804,-1.036931 15.51641,-4.150732 -0.0453,7.111682 -20.06628,16.930209 -19.07086,19.467429 2.63919,-0.33454 12.3459,-5.078 6.66981,0.53409 1.17673,4.16001 -11.66021,15.742121 -1.89591,9.840551 6.46094,-2.608981 -3.52893,5.97779 -3.16433,8.80544 -0.42085,4.18331 -7.33842,11.23136 -6.07097,12.95246 6.85146,-2.6012 2.14685,8.14001 -2.40222,6.5536 8.04939,6.88292 -4.63669,6.11832 -5.4079,15.97007 0.4804,6.71725 1.41547,13.56578 -0.0469,20.22881 -5.28908,-8.73015 0.7824,-21.22576 -7.659,-28.53846 -8.07869,-1.26272 -3.29845,-9.28259 -1.87846,-9.15679 -5.18586,-2.89583 -0.88341,-10.12089 4.41982,-5.47271 -1.44954,-7.98061 -4.26799,-15.97402 -2.82556,-24.299981 1.20869,-11.921684 -2.56466,-23.901611 0.22643,-35.718409 0.37271,-2.37228 1.05621,-7.075524 1.9956,-12.658083 l 0.9759,-5.51429 c 0.30283,-1.650767 0.61792,-3.317296 0.95816,-5.008913 l 1.20169,-5.681404 c 2.55533,-11.206661 5.90773,-21.214801 9.81326,-21.278271 5.86122,14.010271 2.87123,-10.44884 8.59089,-10.57885 5.78221,9.83842 14.39474,-27.78318 21.19885,-19.54134 -1.60203,11.14316 10.44108,-9.19417 18.90067,-10.10637 0.94432,6.24899 1.27145,-3.69167 6.17246,-3.80706 6.56373,-1.19205 11.31373,-6.21122 15.79081,-10.1634 -2.09669,8.77656 6.27232,26.57377 -2.10968,30.6609 -13.43695,11.90576 -52.22838,22.2815 -16.42918,21.21287 -1.36011,20.942083 -50.75316,38.30628 -8.07907,26.88894 0.87761,8.993271 -4.33726,14.474427 -11.16134,18.828458 -4.44837,2.721063 -8.65302,4.82946 -13.18292,7.207894 z"
       id="path7529"
       sodipodi:nodetypes="cccccccccccccccccccccccccccccccccccccccccc" />
    <path
       transform="translate(6.0416664e-6,-1.2708333e-6)"
       inkscape:connector-curvature="0"
       id="path158818"
       style="display:inline;fill:#3f170d;fill-opacity:1;fill-rule:evenodd;stroke:none;stroke-width:0.03527778"
       d="m 220.87196,159.13783 c -0.40816,0.63782 -0.75847,1.3081 -1.05374,2.00519 0.66816,-1.94169 1.44356,-3.70276 2.25777,-4.5332 -0.45896,0.82233 -0.85795,1.66511 -1.20403,2.52801 z m 2.60491,-2.96298 c -0.33866,0.28398 -0.65793,0.58102 -0.95955,0.89005 0.12629,-0.3175 0.25717,-0.63323 0.39158,-0.94756 0.0572,-0.008 0.11466,-0.0102 0.17216,-0.007 0.1277,0.007 0.25964,0.0293 0.39581,0.0642 z m -11.86532,-0.14041 c 0.41804,-0.27446 0.86818,-0.47766 1.33491,-0.55915 2.14806,-0.37642 3.21416,0.87383 3.67629,2.73332 -1.30527,-1.20403 -2.96298,-1.99955 -5.0112,-2.17417 z m 6.9289,6.14609 c 0.048,0.0928 0.0938,0.18804 0.1397,0.28293 -0.0688,0.31292 -0.13299,0.62936 -0.19543,0.94827 0.018,-0.40181 0.036,-0.81421 0.0557,-1.2312 z m 0.21379,2.46275 c 0.0596,-0.22049 0.12241,-0.44486 0.18662,-0.67205 -0.031,0.14852 -0.0596,0.29775 -0.0868,0.44768 -0.0339,0.0748 -0.0674,0.14887 -0.0998,0.22437 z m -18.14336,-4.28167 c -0.009,0.16792 -0.0166,0.33549 -0.0243,0.50412 -0.0187,-0.0445 -0.0377,-0.0893 -0.0572,-0.1337 0.0141,-0.18345 0.0272,-0.36654 0.0378,-0.54716 z m -3.37997,-1.6009 c 0.036,0.0825 0.0702,0.1658 0.10266,0.24941 -0.0166,-0.0691 -0.0342,-0.13864 -0.0522,-0.20673 z m -0.8569,-1.50848 c 0.25471,0.35207 0.47731,0.72072 0.66746,1.10243 0.0441,0.0208 0.0864,0.043 0.12912,0.0653 -0.11642,-0.36159 -0.25647,-0.69638 -0.42404,-0.98354 -0.121,-0.0677 -0.24589,-0.12982 -0.37254,-0.18415 z m -0.61947,-0.75177 c 0.13582,0.14675 0.26529,0.29563 0.3884,0.44767 0.10266,0.0183 0.20709,0.0413 0.30974,0.0684 -0.20037,-0.23424 -0.43144,-0.41275 -0.69814,-0.51611 z m 3.28789,4.47111 c -0.10795,0.23106 -0.20391,0.46919 -0.28858,0.71366 0.21908,0.0388 0.40993,0.0737 0.54187,0.0963 l 0.13053,0.0208 c -0.11183,-0.28364 -0.23919,-0.56127 -0.38382,-0.83079 z m 0.38523,-0.70309 -0.0303,0.048 c 0.10442,0.14428 0.20249,0.29245 0.29316,0.44414 -0.0797,-0.16545 -0.16722,-0.32949 -0.26282,-0.49212 z m 0.53799,-0.71826 -0.0656,0.0773 0.0716,0.10407 z m 1.86301,-1.39629 c -0.127,0.0614 -0.24835,0.12594 -0.36547,0.19226 -0.0272,0.26 -0.0533,0.52529 -0.0762,0.79375 0.13652,-0.33196 0.28328,-0.66075 0.44167,-0.98601 z m -2.70298,1.63195 -0.0681,0.10513 0.0737,-0.0949 z m 0.80469,-0.98355 c -0.12771,0.12947 -0.24871,0.26035 -0.36089,0.393 l 0.0579,0.0713 c 0.10054,-0.0924 0.20567,-0.17992 0.31397,-0.26353 z m 0.90558,-0.78105 c -0.049,0.0356 -0.0974,0.0713 -0.14499,0.10795 l -0.0981,0.0787 7.1e-4,0.0106 c 0.043,0.0974 0.0836,0.1972 0.12524,0.29845 l 0.0547,-0.0272 c 0.0194,-0.15804 0.0399,-0.31432 0.0624,-0.46849 z m 1.37901,-0.61348 c -0.22896,0.0381 -0.45438,0.10901 -0.67028,0.20391 -0.0233,0.19262 -0.0455,0.39017 -0.0663,0.5909 0.12347,-0.0416 0.25082,-0.079 0.38205,-0.11395 0.11254,-0.2293 0.23037,-0.45649 0.35455,-0.68086 z m -2.70193,-0.35136 c -0.11395,0.17991 -0.22507,0.37676 -0.33443,0.5909 -0.0656,0.29563 -0.12383,0.61031 -0.17604,0.93592 0.0684,0.066 0.13512,0.133 0.20003,0.20038 0.20355,-0.20603 0.43074,-0.40358 0.68227,-0.58985 -0.0113,-0.121 -0.0226,-0.23989 -0.036,-0.35595 -0.1069,-0.27975 -0.21943,-0.54187 -0.33585,-0.7814 z m 0.0706,-0.71438 c -0.0229,0.048 -0.0441,0.0988 -0.0653,0.14993 0.0303,0.0332 0.0589,0.066 0.0885,0.10019 l 0.0335,-0.0272 c -0.0194,-0.0766 -0.0374,-0.15134 -0.0568,-0.22296 z m 1.75789,-0.5782 c -0.37994,-0.15028 -0.73343,-0.2279 -1.02447,-0.1898 -0.0705,0.009 -0.13829,0.0335 -0.20355,0.0706 0.0709,0.16298 0.13194,0.33902 0.18556,0.52564 l 0.0127,-0.005 -0.012,0.007 c 0.1337,0.46496 0.21907,0.9973 0.26528,1.57832 0.10866,-0.061 0.22296,-0.11853 0.34079,-0.17074 0.11148,-0.6604 0.25506,-1.27353 0.43568,-1.8161 z m 1.39841,0.75565 c -0.31291,-0.20391 -0.63676,-0.39758 -0.95426,-0.55633 -0.0769,0.42333 -0.14641,0.89006 -0.2092,1.38783 0.23565,-0.0557 0.47731,-0.0861 0.71437,-0.0815 0.14253,-0.25223 0.2921,-0.50235 0.44909,-0.75 z m 0.31715,0.21449 -0.0353,-0.0247 -0.0381,0.085 z m 0.83291,0.61242 -0.18768,-0.14429 c -0.71297,0.54046 -1.25095,1.52683 -1.65524,2.65783 0.47978,-0.9144 1.09044,-1.76036 1.84292,-2.51354 z m 0.32914,0.19579 c 0.0801,0.0861 0.16016,0.17322 0.242,0.26388 -0.0787,-0.0649 -0.17109,-0.14041 -0.27481,-0.22472 -0.98319,1.22731 -1.64853,2.56611 -2.09092,4.00756 0.38347,0.0423 0.76165,0.0822 0.95427,0.0723 0.39511,-0.0187 1.03963,-1.18745 1.07456,-1.33844 0.0328,-0.15205 0.69991,-0.64559 0.98496,-0.68086 0.28469,-0.0353 0.74718,0.0896 0.80539,0.29986 0.0582,0.21025 0.42157,0.32032 0.7373,0.52422 0.31644,0.20391 0.60713,0.2032 0.85478,0.41946 0.24765,0.21696 0.30586,0.57185 0.28822,0.83784 -0.0173,0.266 0.50765,0.7927 1.2633,0.82797 0.75636,0.0349 0.54469,0.24836 0.84384,0.41699 0.29916,0.16863 0.58174,0.22225 1.02906,0.29986 0.44661,0.078 0.58102,0.0762 0.93839,-0.21731 0.35701,-0.29351 0.60148,-0.42475 0.60148,-0.42475 0,0 0.84173,-0.0194 1.11337,0.0325 0.27164,0.0512 0.49283,0.44344 0.51541,0.59267 0.0212,0.14887 0.0279,0.18238 1.25412,0.28821 0.28858,0.025 0.60537,0.16969 0.92146,0.37607 -0.60113,-2.69382 -2.01013,-5.04085 -4.84258,-6.65128 2.98732,1.02306 4.66654,2.96933 5.44265,5.3393 0.0635,-0.97085 0.0741,-1.96074 -0.008,-2.8822 -1.45979,-1.59667 -3.44241,-2.667 -6.14116,-2.96616 -0.34254,0.33479 -0.64699,0.69886 -0.90029,1.04775 0.17463,-0.35136 0.38947,-0.7186 0.64206,-1.07456 -0.21202,-0.019 -0.42827,-0.0346 -0.64982,-0.0445 -0.92851,-0.0423 -1.94063,0.0819 -2.78094,0.50941 0.53022,0.68898 0.83749,1.61008 0.96414,2.38796 -0.25471,-0.74789 -0.70097,-1.6189 -1.34409,-2.165 -0.29315,0.19614 -0.55668,0.43991 -0.77611,0.73589 0.17075,-0.3175 0.39441,-0.59478 0.65476,-0.83431 -0.1136,-0.0854 -0.23319,-0.16087 -0.35772,-0.22508 -0.46178,-0.23495 -0.88441,-0.33619 -1.2707,-0.32843 -0.24448,0.2547 -0.47343,0.51364 -0.68827,0.77787 z m -0.40182,-0.42157 0.14782,0.15099 c 0.15381,-0.14993 0.31291,-0.29739 0.47907,-0.44132 -0.2219,0.06 -0.43074,0.1591 -0.62689,0.29033 z m -5.92031,-2.14771 c 0.35665,0.75424 0.50412,1.86055 0.5214,3.09422 l 0.0385,0.031 c 0.0399,-0.0755 0.0811,-0.14887 0.12277,-0.2219 0.0956,-0.63323 0.23918,-1.19803 0.44168,-1.65311 -0.13829,-0.18733 -0.28258,-0.34361 -0.43215,-0.46391 0.17356,0.0914 0.34007,0.20109 0.49706,0.32632 0.0769,-0.15381 0.16157,-0.29316 0.25471,-0.41628 -0.1778,-0.36794 -0.3997,-0.60889 -0.67698,-0.67627 -0.22367,-0.055 -0.48331,-0.0575 -0.76694,-0.0201 z m -0.0808,3.27272 c 0.0279,0.0892 0.055,0.17921 0.0808,0.26988 l 0.003,-0.18733 -0.0787,-0.078 z m -1.30739,-2.87761 c 0.42051,0.68227 0.762,1.38183 1.0361,2.09797 0.12489,0.0688 0.24518,0.14323 0.36054,0.22049 -7e-4,-1.09502 -0.0515,-2.05246 -0.18591,-2.6857 -0.37677,0.0688 -0.78952,0.19932 -1.21073,0.36724 z m -1.19874,0.55422 c 0.66639,0.0116 1.17581,0.26246 1.56245,0.67133 -0.12594,-0.40604 -0.26282,-0.80821 -0.41169,-1.20579 -0.38277,0.15451 -0.77259,0.33937 -1.15076,0.53446 z m 23.21771,9.74866 -0.42121,-0.0282 -0.11148,-0.12983 0.57714,0.0871 z m 106.46164,12.12321 v 66.2922 -0.003 H 141.04258 c 0.70908,-2.06444 1.79705,-4.84506 3.44029,-7.75272 3.85692,-6.82625 8.5919,-13.66071 12.20153,-19.64883 3.60962,-5.98868 4.3508,-9.1186 7.76922,-9.2946 2.66211,-8.49225 0.25259,-0.32177 2.86138,-2.79397 4.26399,-15.9971 0.8008,-5.36924 3.31682,-16.49886 0,0 -4.98405,-7.43656 -8.95068,-13.23269 -3.96628,-5.7972 1.10702,-15.73813 2.68429,-18.18041 1.57762,-2.44228 9.19162,1.36948 14.74999,-0.17745 3.92536,-1.09255 8.88153,0.16898 13.54808,2.23415 0.51788,-0.13018 0.79798,-0.24272 0.84949,-0.31927 0.11571,-0.17286 0.74577,-0.26952 1.08408,0.006 0.33937,0.27481 0.60431,0.44873 1.64959,1.0869 0.51717,0.31539 0.54222,0.82515 0.47696,1.24672 0.18379,0.10019 0.36583,0.20179 0.54716,0.30374 -0.12312,-0.98989 -0.36619,-1.93639 -0.77223,-2.83915 -0.15629,-0.10266 -0.31715,-0.20109 -0.48578,-0.29704 0.14464,0.0494 0.28399,0.10195 0.42157,0.15628 -0.15981,-0.33831 -0.3429,-0.67063 -0.55245,-0.9973 -0.37677,-0.0949 -0.7687,-0.11607 -1.16558,-0.0332 0.33867,-0.12383 0.69215,-0.16616 1.04775,-0.14641 -0.11218,-0.16545 -0.23072,-0.32949 -0.35701,-0.49177 -0.29386,-0.0388 -0.62477,0.004 -0.9973,0.1457 -0.72849,0.27622 -1.28129,1.07138 -1.59562,1.74836 0.11113,-0.40393 0.29387,-0.8516 0.54928,-1.24989 -0.14323,0.0917 -0.26988,0.17533 -0.37888,0.24801 0.17991,-0.16193 0.35524,-0.31574 0.52775,-0.46214 0.26282,-0.35137 0.58914,-0.64418 0.97966,-0.79658 0.1263,-0.097 0.24942,-0.18732 0.37113,-0.27552 -0.11183,-0.121 -0.22825,-0.2413 -0.34925,-0.36124 0.14217,0.10266 0.27869,0.20779 0.41098,0.31574 1.01847,-0.73096 1.86831,-1.16029 2.57316,-1.34479 l -0.007,-0.0123 0.0106,0.0116 c 1.13559,-0.29563 1.89618,0.0505 2.37984,0.81668 0.42263,-0.21766 0.95638,-0.2039 1.62701,0.11324 0.26035,-0.64135 0.5842,-1.15393 0.98566,-1.48378 -0.24412,0.28399 -0.44732,0.88089 -0.61771,1.68169 0.31538,0.18839 0.65863,0.43815 1.03046,0.7553 0.28434,-0.43074 0.59337,-0.85337 0.92886,-1.26683 -0.24941,0.48155 -0.48365,0.96944 -0.70414,1.46368 l 0.133,0.12206 c 0.55174,-0.36618 1.22026,-0.53234 2.03235,-0.41592 0.28787,-0.20285 0.5909,-0.39441 0.90805,-0.57503 -0.25012,0.19861 -0.48895,0.40181 -0.71437,0.60783 0.0374,0.008 0.0755,0.0138 0.11394,0.0222 0.5207,0.11536 0.94862,0.41099 1.29329,0.80292 0.83643,-0.60148 1.92757,-0.90417 2.90794,-0.98601 0.43075,-0.0353 0.84738,-0.0466 1.25095,-0.0346 0.77823,-0.83715 1.77695,-1.45804 2.90654,-1.36808 2.72909,0.21661 3.68159,2.31034 3.79483,4.832 0.0342,0.0455 0.0674,0.0914 0.10125,0.13758 0.012,-0.41874 0.0286,-0.83714 0.0515,-1.252 -0.64734,-2.64937 -1.48307,-4.95371 -2.55305,-5.80955 1.20897,0.63288 2.09444,1.9558 2.73897,3.60504 0.31961,-2.72451 0.97472,-5.04614 2.19145,-6.04485 -0.78846,0.91652 -1.24107,4.40761 -1.51835,8.19503 0.17004,0.68298 0.31256,1.38924 0.43144,2.10396 0.82339,-2.81552 1.99849,-4.94382 3.68195,-5.11422 0.3563,-0.53586 0.74118,-1.06186 1.16028,-1.57691 -0.26987,0.51717 -0.52458,1.04246 -0.76623,1.57339 0.31327,0.0243 0.64452,0.11324 0.99201,0.27516 0.40181,-0.28927 0.82621,-0.56303 1.27423,-0.81809 -0.37782,0.29986 -0.73342,0.60713 -1.06821,0.92146 1.28835,0.69215 2.80917,2.35655 4.60481,5.33929 -0.9398,-1.14759 -3.35844,-3.9564 -5.24087,-4.70853 -0.81844,0.85867 -1.49436,1.76495 -2.05034,2.71675 -0.30268,0.86148 -0.58561,1.73002 -0.85549,2.60455 1.1296,-0.9398 2.59539,-1.52752 4.4697,-1.5875 -2.25284,0.50271 -3.82764,1.66759 -4.95935,3.22334 -0.13617,0.46743 -0.27094,0.93556 -0.40252,1.40335 0.96414,-0.24836 2.10714,-0.16228 2.91924,-0.14253 1.42663,0.0349 0.90628,0.22508 2.53647,0.69427 1.62948,0.46743 1.11125,0.34431 2.60526,0.52423 0.3235,0.0392 0.59126,0.0801 0.82233,0.12171 0.17392,-0.12418 0.32914,-0.27729 0.4773,-0.46638 1.1423,-1.45274 8.56298,8.63248 8.52841,6.98677 -0.0342,-1.64536 6.93455,2.03023 11.2402,1.4665 4.30495,-0.5641 6.95996,-1.2125 6.95996,-1.2125 0,0 14.14004,-5.78556 19.36468,-0.90664 l 0.0215,-0.10548 -0.003,0.12277 c 0.28117,0.26528 0.53763,0.55985 0.76306,0.88935 0.1845,0.27058 0.44591,0.53199 0.76447,0.78493 0.0748,-0.15558 0.14675,-0.29598 0.21308,-0.41981 -0.0378,0.16299 -0.0801,0.32703 -0.12453,0.49213 0.26211,0.20038 0.56515,0.39476 0.90417,0.58349 0.12876,-0.18803 0.24941,-0.35666 0.35665,-0.49777 -0.0758,0.18592 -0.15557,0.37148 -0.24165,0.55916 0.18733,0.10124 0.38523,0.20073 0.59196,0.2988 0.0667,-0.0776 0.13053,-0.14993 0.1898,-0.2159 -0.0416,0.0815 -0.0836,0.16333 -0.12771,0.24483 2.11702,0.9913 5.2571,1.83303 8.92493,2.54388 -2.38513,-1.87431 -1.9177,-1.52859 -7.90858,-6.46042 5.59753,3.96099 5.89139,4.1409 7.56462,5.37633 -1.90747,-2.77671 -3.80789,-5.93619 -4.5078,-7.40481 0.72743,0.82198 0.37748,0.399 1.36278,1.75472 1.36067,1.87078 3.55918,4.68595 5.2832,7.06579 0.26529,0.0462 0.53517,0.0921 0.80469,0.13723 -2.32622,-3.07023 -5.17772,-7.70573 -6.07272,-9.5818 0.72743,0.82127 0.37783,0.39899 1.36314,1.75437 1.21532,1.6711 3.09809,4.09398 4.71487,6.28791 l -0.0469,-0.56057 c -0.75812,-1.68769 -0.97966,-2.25954 -3.55317,-8.27899 2.07856,4.02414 2.86208,5.51921 3.41876,6.60788 -0.11324,-1.50847 -0.16157,-2.58127 -0.51964,-8.47972 1.02588,7.64011 0.98531,7.12118 1.31445,10.06722 l 0.0508,0.10337 c 0.0159,-1.47849 0.0444,-2.96933 0.0949,-4.37656 0.0476,-1.31481 0.11289,-2.55658 0.2032,-3.64526 0.0924,-1.10525 0.21167,-2.05281 0.36513,-2.75872 -0.072,2.80776 -0.0706,5.6896 -0.0377,8.58414 0.40993,-2.8261 0.89746,-5.55272 1.33315,-7.14022 -0.007,2.5333 -0.35949,5.27262 -0.71226,8.04087 1.23049,-3.31576 2.6804,-6.8319 3.65442,-8.63918 -0.52352,2.24155 -1.36207,4.58505 -2.23484,6.95889 1.24777,-2.09655 2.4705,-4.01108 3.33621,-5.14597 -1.2259,3.00955 -3.10479,6.12211 -4.82388,9.25901 -0.0868,0.25153 -0.17145,0.50236 -0.25435,0.75318 l 0.12347,0.25471 c 1.94028,-3.62303 4.67678,-8.22819 6.24311,-10.28206 -1.17193,2.87584 -2.9397,5.84517 -4.59423,8.84131 l 0.15699,-0.15945 c 1.81469,-3.26355 3.99274,-6.858 5.32553,-8.60355 -0.88829,2.18052 -2.12054,4.41502 -3.38525,6.67385 2.27859,-2.21897 4.65702,-4.38503 6.12105,-5.4797 -1.81752,2.32411 -4.17725,4.58153 -6.47524,6.88446 1.06045,-0.7754 2.23555,-1.59984 6.4964,-4.65172 -5.46911,4.554 -5.5305,4.63797 -7.33425,6.0773 1.45662,-0.47696 2.18934,-0.82973 2.25637,-0.97402 0.0885,-0.18803 0.69744,-0.37641 1.0735,-0.15487 0.37606,0.22119 0.66358,0.35419 1.79211,0.83044 1.12854,0.4759 0.387,2.03588 0.70873,1.87078 0.32033,-0.16651 2.0574,-0.0885 2.64337,-0.078 0.58702,0.0109 0.99554,-0.0222 1.18427,-0.21026 0.18803,-0.18803 0.14358,-0.26599 0.54152,-0.33161 0.39899,-0.0674 1.58185,-0.0557 1.96955,-0.133 0.38771,-0.0776 0.85232,-1.32891 0.86255,-1.48343 0.0116,-0.15522 0.5969,-0.74224 0.87383,-0.8195 0.27693,-0.0776 0.75212,-0.0215 0.84137,0.17674 0.0882,0.19967 0.4639,0.25471 0.80751,0.40993 0.3429,0.15557 0.63077,0.11077 0.9077,0.28857 0.27622,0.17674 0.38629,0.51999 0.40922,0.78564 0.0212,0.26493 0.61983,0.70873 1.3716,0.63112 0.75142,-0.0783 0.57468,0.1651 0.89606,0.28751 0.32067,0.12171 0.60854,0.133 1.06186,0.14358 0.45332,0.0113 0.58631,-0.0106 0.89605,-0.35348 0.30974,-0.3429 0.53129,-0.51012 0.53129,-0.51012 0,0 0.82938,-0.14323 1.10595,-0.13229 0.27658,0.0106 0.55281,0.36512 0.59726,0.50906 0.0448,0.14393 0.0557,0.17674 1.28411,0.0995 0.27763,-0.0176 0.59725,0.0709 0.92745,0.21802 1.27459,-0.42016 0.94474,-0.0762 2.25602,-0.29528 1.11371,-0.18591 1.2005,0.0335 2.58233,0.18733 z M 217.33713,164.80661 c -0.0236,-0.21237 -0.0508,-0.42298 -0.0847,-0.63147 0.23848,-1.07139 0.42651,-2.22391 0.49178,-3.34433 0.031,0.0462 0.0621,0.0917 0.0921,0.13758 -0.007,1.59138 0.049,3.14678 0.13159,4.51344 -0.17216,-0.1972 -0.38912,-0.43462 -0.63077,-0.67522"
       inkscape:label="montagnafronte"
       sodipodi:nodetypes="cccccccccccccccccccccccccccccccccccccccccccccccccccccccccccccccccccccccccccccccccccccccccccccccccccccccccccccccccccsccscccccccccccccccccccccccccccccccccccccccccccccccccccccccccccccccccccccccccccccccccccccccccccccccccccccccccccccccccccccccccccccccccccccccccccccccccccccccccccccccccccccccccccccccccccccccccccccccccccccccccccccccccscccccccccccccccccccccccccccc" />
  </g>
</svg>
