<?xml version="1.0" encoding="UTF-8" standalone="no"?>
<!-- Created with Inkscape (http://www.inkscape.org/) -->

<svg
   xmlns:dc="http://purl.org/dc/elements/1.1/"
   xmlns:cc="http://creativecommons.org/ns#"
   xmlns:rdf="http://www.w3.org/1999/02/22-rdf-syntax-ns#"
   xmlns:svg="http://www.w3.org/2000/svg"
   xmlns="http://www.w3.org/2000/svg"
   xmlns:sodipodi="http://sodipodi.sourceforge.net/DTD/sodipodi-0.dtd"
   xmlns:inkscape="http://www.inkscape.org/namespaces/inkscape"
   width="706.4375mm"
   height="170.10396mm"
   viewBox="0 0 706.43749 170.10396"
   version="1.1"
   id="svg118042"
   inkscape:version="0.92.4 (5da689c313, 2019-01-14)"
   sodipodi:docname="mi_monti.svg">
  <defs
     id="defs118036">
    <linearGradient
       id="linearGradient158806"
       spreadMethod="pad"
       gradientTransform="matrix(0,-381.57734,440.76418,0,-27.125545,253.26173)"
       gradientUnits="userSpaceOnUse"
       y2="0"
       x2="1"
       y1="-6.9388939e-18"
       x1="-1.110223e-16">
      <stop
         id="stop158800"
         offset="0"
         style="stop-opacity:1;stop-color:#f3eb26" />
      <stop
         id="stop158802"
         offset="0.7727133"
         style="stop-opacity:1;stop-color:#d54b36" />
      <stop
         id="stop158804"
         offset="1"
         style="stop-opacity:1;stop-color:#d54b36" />
    </linearGradient>
    <clipPath
       id="clipPath158834"
       clipPathUnits="userSpaceOnUse">
      <path
         inkscape:connector-curvature="0"
         id="path158832"
         d="m 6027.98,5295.83 c -23.2,0.98 -46.25,2.42 -69.17,4.34 v 0 c 22.93,-1.91 45.97,-3.36 69.17,-4.33 0,-0.01 0,0 0,-0.01" />
    </clipPath>
    <radialGradient
       id="radialGradient158842"
       spreadMethod="pad"
       gradientTransform="matrix(1556.2,0,0,-1457.58,6098.88,6752.05)"
       gradientUnits="userSpaceOnUse"
       r="1"
       cy="0"
       cx="0"
       fy="0"
       fx="0">
      <stop
         id="stop158836"
         offset="0"
         style="stop-opacity:1;stop-color:#efd400" />
      <stop
         id="stop158838"
         offset="0.152416"
         style="stop-opacity:1;stop-color:#efd400" />
      <stop
         id="stop158840"
         offset="1"
         style="stop-opacity:1;stop-color:#cb6f00" />
    </radialGradient>
    <clipPath
       id="clipPath158852"
       clipPathUnits="userSpaceOnUse">
      <path
         inkscape:connector-curvature="0"
         id="path158850"
         d="m 5475.77,5415.89 c -549.35,225.13 -932.95,738.85 -932.95,1336.36 v 0 c 0,-597.5 383.61,-1111.23 932.96,-1336.36 h -0.01" />
    </clipPath>
    <radialGradient
       id="radialGradient158860"
       spreadMethod="pad"
       gradientTransform="matrix(1556.2,0,0,-1457.58,6098.88,6752.05)"
       gradientUnits="userSpaceOnUse"
       r="1"
       cy="0"
       cx="0"
       fy="0"
       fx="0">
      <stop
         id="stop158854"
         offset="0"
         style="stop-opacity:1;stop-color:#fbf92c" />
      <stop
         id="stop158856"
         offset="0.152416"
         style="stop-opacity:1;stop-color:#fbf92c" />
      <stop
         id="stop158858"
         offset="1"
         style="stop-opacity:1;stop-color:#f3eb26" />
    </radialGradient>
    <clipPath
       id="clipPath158870"
       clipPathUnits="userSpaceOnUse">
      <path
         inkscape:connector-curvature="0"
         id="path158868"
         d="m 5918.05,5304.08 c -118.02,12.79 -232.01,37.94 -340.45,74.05 v 0 c 108.44,-36.1 222.43,-61.25 340.45,-74.05 0,0 0,0.01 0,0 m -400.94,95.53 c -13.89,5.25 -27.65,10.67 -41.34,16.28 h 0.01 c 13.68,-5.61 27.45,-11.03 41.34,-16.27 l -0.01,-0.01" />
    </clipPath>
    <radialGradient
       id="radialGradient158878"
       spreadMethod="pad"
       gradientTransform="matrix(1556.2,0,0,-1457.58,6098.88,6752.05)"
       gradientUnits="userSpaceOnUse"
       r="1"
       cy="0"
       cx="0"
       fy="0"
       fx="0">
      <stop
         id="stop158872"
         offset="0"
         style="stop-opacity:1;stop-color:#efd400" />
      <stop
         id="stop158874"
         offset="0.152416"
         style="stop-opacity:1;stop-color:#efd400" />
      <stop
         id="stop158876"
         offset="1"
         style="stop-opacity:1;stop-color:#cb6f00" />
    </radialGradient>
    <clipPath
       id="clipPath158888"
       clipPathUnits="userSpaceOnUse">
      <path
         inkscape:connector-curvature="0"
         id="path158886"
         d="m 5577.6,5378.13 c -20.34,6.77 -40.55,13.95 -60.49,21.48 l 0.01,0.01 c 19.94,-7.54 40.14,-14.71 60.48,-21.49 v 0" />
    </clipPath>
    <radialGradient
       id="radialGradient158896"
       spreadMethod="pad"
       gradientTransform="matrix(1556.2,0,0,-1457.58,6098.88,6752.05)"
       gradientUnits="userSpaceOnUse"
       r="1"
       cy="0"
       cx="0"
       fy="0"
       fx="0">
      <stop
         id="stop158890"
         offset="0"
         style="stop-opacity:1;stop-color:#faf131" />
      <stop
         id="stop158892"
         offset="0.152416"
         style="stop-opacity:1;stop-color:#faf131" />
      <stop
         id="stop158894"
         offset="1"
         style="stop-opacity:1;stop-color:#eecf2b" />
    </radialGradient>
    <clipPath
       id="clipPath158906"
       clipPathUnits="userSpaceOnUse">
      <path
         inkscape:connector-curvature="0"
         id="path158904"
         d="m 7630.23,6492.04 v 0 c 16.24,84.46 24.71,171.38 24.71,260.21 v 0 c 0,-88.84 -8.47,-175.75 -24.71,-260.21" />
    </clipPath>
    <clipPath
       id="clipPath158918"
       clipPathUnits="userSpaceOnUse">
      <path
         inkscape:connector-curvature="0"
         id="path158916"
         d="m 6995.34,5560.39 v 0 c 327.11,216.35 561.1,547.96 634.89,931.65 v 0 c -73.79,-383.69 -307.78,-715.3 -634.89,-931.65" />
    </clipPath>
    <radialGradient
       id="radialGradient158926"
       spreadMethod="pad"
       gradientTransform="matrix(1556.2,0,0,-1457.58,6098.88,6752.05)"
       gradientUnits="userSpaceOnUse"
       r="1"
       cy="0"
       cx="0"
       fy="0"
       fx="0">
      <stop
         id="stop158920"
         offset="0"
         style="stop-opacity:1;stop-color:#fbf92c" />
      <stop
         id="stop158922"
         offset="0.152416"
         style="stop-opacity:1;stop-color:#fbf92c" />
      <stop
         id="stop158924"
         offset="1"
         style="stop-opacity:1;stop-color:#f3eb26" />
    </radialGradient>
    <clipPath
       id="clipPath158936"
       clipPathUnits="userSpaceOnUse">
      <path
         inkscape:connector-curvature="0"
         id="path158934"
         d="m 6098.89,5294.35 c -23.78,0 -47.4,0.49 -70.91,1.48 0,0.01 0,0 0,0.01 23.52,-0.99 47.13,-1.49 70.91,-1.49 333.86,0 643.09,98.47 896.45,266.04 v 0 c -253.35,-167.57 -562.59,-266.04 -896.45,-266.04 m -140.08,5.82 c -13.64,1.14 -27.22,2.44 -40.76,3.91 0,0.01 0,0 0,0 13.54,-1.46 27.12,-2.77 40.76,-3.91 v 0" />
    </clipPath>
    <radialGradient
       id="radialGradient158944"
       spreadMethod="pad"
       gradientTransform="matrix(1556.2,0,0,-1457.58,6098.88,6752.05)"
       gradientUnits="userSpaceOnUse"
       r="1"
       cy="0"
       cx="0"
       fy="0"
       fx="0">
      <stop
         id="stop158938"
         offset="0"
         style="stop-opacity:1;stop-color:#c5340f" />
      <stop
         id="stop158940"
         offset="0.152416"
         style="stop-opacity:1;stop-color:#c5340f" />
      <stop
         id="stop158942"
         offset="1"
         style="stop-opacity:1;stop-color:#3f170d" />
    </radialGradient>
    <clipPath
       id="clipPath158954"
       clipPathUnits="userSpaceOnUse">
      <path
         inkscape:connector-curvature="0"
         id="path158952"
         d="m 6027.98,5295.84 c -23.2,0.97 -46.24,2.42 -69.17,4.33 59.42,78.46 115.32,138.53 153.92,160.45 -3.37,-15.47 -7.31,-29.74 -11.93,-41.75 -16.41,-42.96 -44.5,-73.92 -72.82,-123.03" />
    </clipPath>
    <clipPath
       id="clipPath158966"
       clipPathUnits="userSpaceOnUse">
      <path
         inkscape:connector-curvature="0"
         id="path158964"
         d="m 7630.23,6492.04 c -382.07,726.47 -1144.2,1221.95 -2022,1221.95 -280.36,0 -548.9,-50.54 -797.05,-143 279.9,385.59 752.05,638.77 1287.71,638.77 859.78,0 1556.05,-652.41 1556.05,-1457.51 0,-88.83 -8.47,-175.75 -24.71,-260.21" />
    </clipPath>
    <clipPath
       id="clipPath158978"
       clipPathUnits="userSpaceOnUse">
      <path
         inkscape:connector-curvature="0"
         id="path158976"
         d="m 5475.78,5415.89 c -549.35,225.13 -932.96,738.86 -932.96,1336.36 0,303.53 98.98,585.39 268.36,818.74 248.15,92.46 516.69,143 797.05,143 877.8,0 1639.93,-495.48 2022,-1221.95 -73.79,-383.69 -307.78,-715.3 -634.89,-931.65 -62.02,31.8 -106.3,45.9 -106.3,45.9 l 47.08,87.87 -36.11,29.87 c 0,0 76.88,172.56 83.15,189.83 6.27,17.28 -3.11,50.24 -3.11,50.24 0,0 15.69,12.55 23.53,18.77 7.86,6.31 -9.33,25.16 0.04,83.21 9.4,58.04 -14.11,65.85 -14.11,81.55 0,15.69 10.96,40.84 9.38,65.92 -1.53,25.09 -12.53,169.49 -17.22,192.24 -4.74,22.75 8.59,28.23 0.74,40.77 -7.8,12.62 -18.81,11.79 -17.23,34.54 1.55,22.75 3.9,33.72 3.9,38.45 0,4.73 -5.48,15.69 -5.48,15.69 0,0 -21.95,32.97 -46.29,63.52 -24.27,30.64 -57.24,24.34 -76.84,41.61 -19.63,17.27 -147.46,60.39 -155.3,76.88 -7.86,16.48 -4.69,28.23 -6.27,33.73 -1.59,5.5 -63.03,47.21 -63.03,47.21 0,0 13.36,21.22 17.29,40.81 3.91,19.62 5.08,24.71 5.08,24.71 0,0 5.42,-0.93 13.85,-0.93 14.13,0 36.73,2.62 56.39,16.62 31.33,22.38 101.17,95.73 102.34,104.76 1.2,9.02 34.64,61.2 -9.28,98.85 -10.34,8.86 -23.81,12.25 -38.36,12.25 -47.3,0 -106.02,-35.79 -106.02,-35.79 0,0 -18.81,127.13 -35.29,147.52 -16.48,20.39 -45.46,25.51 -63.52,48.25 -9.88,12.44 -20.1,19.37 -35.23,19.37 -12.54,0 -28.43,-4.75 -50.29,-15.06 -48.24,-22.77 -78.47,-39.23 -95.31,-40.4 -16.86,-1.18 -8.64,-44.73 -14.53,-80.44 -5.86,-35.69 -5.48,-56.86 -5.48,-56.86 0,0 -56.7,32.38 -107.76,32.38 -24.55,0 -47.8,-7.48 -62.83,-29.64 -46.29,-68.26 45.49,-176.54 94.1,-221.26 31.88,-29.29 71.83,-34.34 95.59,-34.34 12.52,0 20.54,1.4 20.54,1.4 l 3.9,-21.98 c 0,0 -30.52,-7.83 -33.63,-21.18 -3.15,-13.33 -7.11,-59.62 -7.11,-59.62 0,0 -61.14,-50.24 -109,-90.24 -47.87,-40.03 -71.41,-32.14 -88.68,-43.93 -17.23,-11.79 -66.63,-41.6 -77.64,-65.93 -11,-24.26 -8.56,-137.27 -8.56,-137.27 0,0 -32.95,33.72 -54.12,48.58 -16.14,11.39 -30,12.75 -35.69,12.75 -1.78,0 -2.76,-0.13 -2.76,-0.13 0,0 25.87,-22 35.29,-73.81 9.42,-51.74 -7.06,-99.65 6.3,-133.36 13.3,-33.72 33.71,-57.3 33.71,-57.3 0,0 3.91,-115.26 2.37,-162.34 -1.58,-47.08 -10.17,-22.01 -14.9,-114.6 -4.73,-92.58 42.34,-106.7 54.88,-145.14 12.57,-38.45 32.17,-62.78 32.17,-62.78 0,0 0,-55 -4.85,-119.59 l -254.75,-47.64 c -18.82,-2.25 -166.68,-19.86 -183.38,-22.81 -13.42,-2.48 -38.86,-13.41 -65.25,-24.67 -22.17,-9.54 -45.15,-19.38 -54.59,-21.87 l -0.07,0.16 h -0.11 c -10.33,-2.64 -48.43,-23.02 -94.9,-49.8" />
    </clipPath>
    <clipPath
       id="clipPath158990"
       clipPathUnits="userSpaceOnUse">
      <path
         inkscape:connector-curvature="0"
         id="path158988"
         d="m 5918.05,5304.08 c -118.02,12.8 -232.01,37.95 -340.45,74.05 -0.49,19.66 -1.04,39.05 -1.43,52.8 -10.59,-4.48 -32.13,-16.01 -59.05,-31.31 -13.89,5.24 -27.66,10.66 -41.34,16.27 46.47,26.78 84.57,47.16 94.9,49.8 h 0.11 l 0.07,-0.16 c 9.44,2.49 32.42,12.33 54.59,21.87 26.39,11.26 51.83,22.19 65.25,24.67 16.7,2.95 164.56,20.56 183.38,22.81 l 254.75,47.64 c -1.97,-26.33 -4.75,-54.24 -8.67,-80.68 -5.21,-1.5 -10.77,-3.6 -16.51,-6.38 -46.12,-22.28 -114.9,-96.01 -185.6,-191.38" />
    </clipPath>
    <clipPath
       id="clipPath159002"
       clipPathUnits="userSpaceOnUse">
      <path
         inkscape:connector-curvature="0"
         id="path159000"
         d="m 5577.6,5378.13 c -20.34,6.78 -40.54,13.95 -60.48,21.49 26.92,15.3 48.46,26.83 59.05,31.31 0.39,-13.75 0.94,-33.14 1.43,-52.8" />
    </clipPath>
    <clipPath
       id="clipPath159014"
       clipPathUnits="userSpaceOnUse">
      <path
         inkscape:connector-curvature="0"
         id="path159012"
         d="m 6098.89,5294.35 c -23.78,0 -47.39,0.5 -70.91,1.49 28.32,49.11 56.41,80.07 72.82,123.03 4.62,12.01 8.56,26.28 11.93,41.75 -38.6,-21.92 -94.5,-81.99 -153.92,-160.45 -13.64,1.14 -27.22,2.45 -40.76,3.91 70.7,95.37 139.48,169.1 185.6,191.38 5.74,2.78 11.3,4.88 16.51,6.38 3.92,26.44 6.7,54.35 8.67,80.68 4.85,64.59 4.85,119.59 4.85,119.59 0,0 -19.6,24.33 -32.17,62.78 -12.54,38.44 -59.61,52.56 -54.88,145.14 4.73,92.59 13.32,67.52 14.9,114.6 1.54,47.08 -2.37,162.34 -2.37,162.34 0,0 -20.41,23.58 -33.71,57.3 -13.36,33.71 3.12,81.62 -6.3,133.36 -9.42,51.81 -35.29,73.81 -35.29,73.81 0,0 0.98,0.13 2.76,0.13 5.69,0 19.55,-1.36 35.69,-12.75 21.17,-14.86 54.12,-48.58 54.12,-48.58 0,0 -2.44,113.01 8.56,137.27 11.01,24.33 60.41,54.14 77.64,65.93 17.27,11.79 40.81,3.9 88.68,43.93 47.86,40 109,90.24 109,90.24 0,0 3.96,46.29 7.11,59.62 3.11,13.35 33.63,21.18 33.63,21.18 l -3.9,21.98 c 0,0 -8.02,-1.4 -20.54,-1.4 -23.76,0 -63.71,5.05 -95.59,34.34 -48.61,44.72 -140.39,153 -94.1,221.26 15.03,22.16 38.28,29.64 62.83,29.64 51.06,0 107.76,-32.38 107.76,-32.38 0,0 -0.38,21.17 5.48,56.86 5.89,35.71 -2.33,79.26 14.53,80.44 16.84,1.17 47.07,17.63 95.31,40.4 21.86,10.31 37.75,15.06 50.29,15.06 15.13,0 25.35,-6.93 35.23,-19.37 18.06,-22.74 47.04,-27.86 63.52,-48.25 16.48,-20.39 35.29,-147.52 35.29,-147.52 0,0 58.72,35.79 106.02,35.79 14.55,0 28.02,-3.39 38.36,-12.25 43.92,-37.65 10.48,-89.83 9.28,-98.85 -1.17,-9.03 -71.01,-82.38 -102.34,-104.76 -19.66,-14 -42.26,-16.62 -56.39,-16.62 -8.43,0 -13.85,0.93 -13.85,0.93 0,0 -1.17,-5.09 -5.08,-24.71 -3.93,-19.59 -17.29,-40.81 -17.29,-40.81 0,0 61.44,-41.71 63.03,-47.21 1.58,-5.5 -1.59,-17.25 6.27,-33.73 7.84,-16.49 135.67,-59.61 155.3,-76.88 19.6,-17.27 52.57,-10.97 76.84,-41.61 24.34,-30.55 46.29,-63.52 46.29,-63.52 0,0 5.48,-10.96 5.48,-15.69 0,-4.73 -2.35,-15.7 -3.9,-38.45 -1.58,-22.75 9.43,-21.92 17.23,-34.54 7.85,-12.54 -5.48,-18.02 -0.74,-40.77 4.69,-22.75 15.69,-167.15 17.22,-192.24 1.58,-25.08 -9.38,-50.23 -9.38,-65.92 0,-15.7 23.51,-23.51 14.11,-81.55 -9.37,-58.05 7.82,-76.9 -0.04,-83.21 -7.84,-6.22 -23.53,-18.77 -23.53,-18.77 0,0 9.38,-32.96 3.11,-50.24 -6.27,-17.27 -83.15,-189.83 -83.15,-189.83 l 36.11,-29.87 -47.08,-87.87 c 0,0 44.28,-14.1 106.3,-45.9 -253.36,-167.57 -562.59,-266.04 -896.45,-266.04" />
    </clipPath>
    <linearGradient
       id="linearGradient5534">
      <stop
         id="stop5536"
         offset="0"
         style="stop-color:#e5b700;stop-opacity:1;" />
      <stop
         style="stop-color:#e5b700;stop-opacity:1;"
         offset="0.12500009"
         id="stop5538" />
      <stop
         id="stop5540"
         offset="0.43333337"
         style="stop-color:#ffdd1e;stop-opacity:1;" />
      <stop
         style="stop-color:#ffffff;stop-opacity:1;"
         offset="0.56666666"
         id="stop5542" />
      <stop
         id="stop5544"
         offset="0.6785714"
         style="stop-color:#ffdd1e;stop-opacity:1;" />
      <stop
         id="stop5546"
         offset="0.87499994"
         style="stop-color:#ffe345;stop-opacity:1;" />
      <stop
         style="stop-color:#fff0bc;stop-opacity:1;"
         offset="1"
         id="stop5548" />
    </linearGradient>
  </defs>
  <sodipodi:namedview
     id="base"
     pagecolor="#ffffff"
     bordercolor="#666666"
     borderopacity="1.0"
     inkscape:pageopacity="0.0"
     inkscape:pageshadow="2"
     inkscape:zoom="0.31376176"
     inkscape:cx="1342.3026"
     inkscape:cy="657.5767"
     inkscape:document-units="mm"
     inkscape:current-layer="layer4"
     showgrid="true"
     inkscape:window-width="1699"
     inkscape:window-height="1056"
     inkscape:window-x="129"
     inkscape:window-y="0"
     inkscape:window-maximized="1"
     objecttolerance="3"
     fit-margin-top="0"
     fit-margin-left="0"
     fit-margin-right="0"
     fit-margin-bottom="0"
     showguides="true"
     inkscape:guide-bbox="true">
    <inkscape:grid
       type="xygrid"
       id="grid160163"
       originx="380.99999"
       originy="-52.916664" />
    <sodipodi:guide
       position="710.40629,136.26042"
       orientation="0,1"
       id="guide2939"
       inkscape:locked="false" />
  </sodipodi:namedview>
  <metadata
     id="metadata118039">
    <rdf:RDF>
      <cc:Work
         rdf:about="">
        <dc:format>image/svg+xml</dc:format>
        <dc:type
           rdf:resource="http://purl.org/dc/dcmitype/StillImage" />
        <dc:title></dc:title>
      </cc:Work>
    </rdf:RDF>
  </metadata>
  <g
     inkscape:groupmode="layer"
     id="layer4"
     inkscape:label="Layer 2"
     style="display:inline"
     transform="translate(381,-73.979393)">
    <path
       style="display:inline;fill:#cb6f00;fill-opacity:1;fill-rule:evenodd;stroke:none;stroke-width:0.13333334"
       d="m 752.19922,279.60742 -2.49024,0.36133 -10.47851,4.06445 -18.69727,1.67383 -0.54101,0.0645 -41.80469,7.81641 c -2.5093,0.30002 -22.2245,2.64768 -24.45117,3.04102 -1.78934,0.33067 -5.18056,1.78773 -8.69922,3.28906 -2.95601,1.272 -6.02064,2.58401 -7.2793,2.91601 l -0.0117,-0.0215 h -0.0137 c -2.832,0.724 -21.30442,11.4391 -32.95508,19.00977 -2.41867,1.572 -4.45876,2.93603 -5.91211,3.9707 -1.74001,1.24 -3.11418,2.31829 -3.96484,3.1543 h -0.0195 l -0.008,0.0117 c -2.43466,2.40935 -11.77146,0.75224 -11.80078,0.74024 l -2.14454,-0.36914 -1.79101,1.14648 -12.24219,7.79688 c -3.81199,-0.12269 -13.42498,-0.39258 -25.26367,-0.39258 -12.4933,0 -25.99779,8.92475 -36.11914,15.60742 -3.93336,2.59333 -7.29783,4.81831 -9.39649,5.70899 h -0.008 l -0.0332,0.0195 0.002,0.0117 c -2.98669,1.248 -6.65003,1.12564 -9.94336,0.68164 -4.17868,-0.55867 -8.84664,-1.55274 -10.30664,-1.55274 v -0.0195 h -0.008 c -1.23466,0 -8.21418,-1.41877 -16.6875,-3.13477 -11.03599,-2.23333 -24.48168,-4.95064 -32.8457,-5.94531 l -0.0156,-0.01 c -15.58133,-1.85068 -36.85921,2.67815 -36.92187,2.6875 l -1.75586,0.69531 c -0.0907,0.06 -31.25783,19.33825 -33.8125,23.90625 -0.11868,0.20666 -10.56146,2.52561 -19.82813,4.57227 -7.1,1.57466 -13.6051,3.01123 -16.39844,4.2539 v 0.0195 h -0.006 c -5.368,2.39067 -30.7144,8.80231 -30.78907,8.82227 l -13.06054,3.01953 -2.9961,1.93555 -6.54101,8.94336 c -2.22,0.94 -6.98254,2.84276 -10.17188,3.4121 -2.06,0.36284 -5.87713,-0.34015 -9.0918,-0.9414 -2.45867,-0.46401 -4.63389,-0.86719 -6.47656,-0.86719 v -0.0195 h -0.008 c -5.168,0 -39.22766,31.94464 -44.84766,37.25 l -16.46093,5.71875 -1.85743,1.10547 -17.94726,16.85937 c -1.85868,0.85735 -6.64405,3.03907 -7.60938,3.03907 -0.31067,0 -3.5537,-2.7605 -6.98437,-5.20313 -2.92533,-2.0787 -5.6014,-3.98015 -7.30274,-4.74414 h -0.006 c -2.424,-1.08669 -10.55083,-6.19505 -10.57617,-6.20703 l -0.14062,-0.0684 -20.96094,-12.18555 -2.14063,-1.25586 -2.412104,0.8125 c -0.03742,0 -13.39344,4.42325 -23.41211,8.89258 -7.846666,3.50669 -30.467179,4.53946 -35.089844,4.7168 -2.853335,-0.73467 -13.049836,-3.36392 -14.845703,-4.00391 -2.541067,-0.90799 -20.762139,-6.1824 -20.8164059,-6.20508 l -0.5410156,-0.125 -13.7871094,-2.54101 -14.5312501,-3.89258 -0.800781,-0.14258 c -0.04267,-0.0113 -14.704456,-1.70866 -17.097656,-2.41797 -3.301066,-0.98668 -12.727363,0.52702 -16.832032,1.26172 -5.907866,-3.02135 -25.900598,-13.12534 -36.333984,-17.22265 -3.109376,-1.22268 -6.592325,-2.53428 -10.107425,-3.82227 -3.5151,1.28799 -6.99804,2.59959 -10.10742,3.82227 -10.43338,4.09731 -30.42611,14.2013 -36.33398,17.22265 -4.10468,-0.7347 -13.53098,-2.2484 -16.83203,-1.26172 -2.39321,0.70931 -17.05695,2.40595 -17.09961,2.41797 l -0.79883,0.14258 -14.53125,3.89258 -13.78906,2.54101 -0.53907,0.125 c -0.0543,0.0227 -18.27534,5.29709 -20.8164,6.20508 -1.79588,0.63999 -11.99237,3.26921 -14.84571,4.00391 -4.62266,-0.17726 -27.24512,-1.21011 -35.09179,-4.7168 -10.01867,-4.46933 -23.37478,-8.89258 -23.41211,-8.89258 l -2.41016,-0.8125 -2.14258,1.25586 -20.95898,12.1836 -0.14063,0.0703 c -0.0253,0.0113 -8.15217,5.12038 -10.57617,6.20703 h -0.008 c -1.70134,0.76399 -4.37741,2.66548 -7.30273,4.74414 -3.43069,2.44267 -6.67372,5.20313 -6.98438,5.20313 -0.96534,0 -5.75069,-2.18172 -7.60938,-3.03907 l -17.94726,-16.85937 -1.85742,-1.10547 -16.46094,-5.71875 c -5.62001,-5.30536 -39.67773,-37.25 -44.8457,-37.25 h -0.008 v 0.0195 c -1.84267,0 -4.01982,0.40321 -6.47851,0.86719 -3.21464,0.60136 -7.0318,1.30409 -9.0918,0.9414 -3.18931,-0.56931 -7.95185,-2.47405 -10.17187,-3.41406 l -6.53907,-8.94336 -2.99609,-1.93359 -13.06055,-3.01953 c -0.0748,-0.0189 -25.42302,-6.4316 -30.79101,-8.82227 h -0.008 v -0.0195 c -2.79334,-1.24267 -9.2965,-2.67924 -16.39649,-4.2539 -9.26664,-2.04669 -19.70945,-4.3656 -19.82812,-4.57227 -2.55466,-4.568 -33.72183,-23.84625 -33.8125,-23.90625 l -1.75586,-0.69531 c -0.0627,-0.009 -21.34055,-4.53817 -36.92188,-2.6875 l -0.0156,0.01 c -8.36402,0.99466 -13.95229,1.56941 -24.98828,3.80274 -5.0702,7.84009 -4.97156,9.03497 -21.69336,21.01172 -1.46,0 -33.27058,38.84759 -37.44922,39.40625 -38.16545,-4.01696 -24.49999,-33.39535 -39.78516,-46.3125 -15.28516,-12.91714 -12.88136,-29.01525 -16.69336,-28.89258 l -12.24219,-7.79688 -1.79101,-1.14648 -2.14453,0.36914 c -0.0302,0.0121 -9.36609,1.66911 -11.80078,-0.74024 l -0.008,-0.0117 h -0.0176 c -0.8507,-0.83601 -30.51002,37.48219 -32.25,36.24218 -1.45335,-1.03467 -2.48368,22.85519 -4.90235,21.28321 -11.65066,-7.5707 -30.12112,-18.28577 -32.95312,-19.00977 h -0.0137 l -0.0117,0.0215 c -1.2587,-0.332 -4.32134,-1.64402 -7.27735,-2.91602 -3.51862,-1.50133 -6.91183,-2.9584 -8.70117,-3.28906 -2.22796,-0.39324 -21.94187,-2.74102 -24.45117,-3.04102 l -41.80469,-7.8164 -0.54297,-0.0645 -18.69726,-1.67383 -10.47657,-4.06445 -2.47851,-0.36133 c -0.12397,0.009 -16.82356,-61.07313 -38.76756,-49.23047 l -0.012,0.0117 c -2.8746,1.54934 -5.6462,3.00666 -8.2969,4.36133 -2.7346,1.396 -5.2195,2.63736 -7.4355,3.69336 -11.4668,5.50133 -19.0166,8.25195 -22.0899,8.25195 v 0.01 c -3.0187,0 -12.6868,0.87976 -22.9668,1.75976 -9.96,0.85734 -20.4664,1.70508 -25.2851,1.70508 -8.8508,0 -18.7247,47.4758 -18.7793,47.45313 l -53.8028,-14.22461 c -0.043,0 -20.8447,5.83737 -28.0234,7.10937 -7.2693,1.304 -25.3293,-5.59743 -28.7813,-3.13476 0,0 -12.5964,-11.48948 -40.9922,4.83594 l -0.043,0.0215 c -1.344,0.74133 -3.1538,1.68467 -5.3125,2.75 -2.244,1.11733 -4.708,2.30561 -7.252,3.48828 -13.344,6.212 -31.1495,13.66993 -36.6601,13.94727 -8.892,0.44533 -36.2376,3.06054 -36.3203,3.06054 l -1.6329,0.41407 -28.8867,12.03906 -26.5996,7.76562 -2.4394,1.5293 c -0.015,0.0221 -4.9397,0.99022 -10.0995,5.64463 v 515 H 1230 V 407.51978 c -5.4093,-4.84267 -10.1358,-5.62343 -10.1505,-5.64478 l -2.4414,-1.5293 -26.5977,-7.76562 -28.8867,-12.03906 -1.6328,-0.41407 c -0.083,0 -27.4303,-2.61521 -36.3223,-3.06054 -5.5107,-0.27735 -23.3162,-7.73527 -36.6602,-13.94727 -2.544,-1.18267 -5.0059,-2.37095 -7.25,-3.48828 -2.1586,-1.06533 -3.9704,-2.00867 -5.3144,-2.75 l -0.041,-0.0215 c -9.772,-5.4 -33.7752,-25.09749 -33.8379,-25.16016 l -3.2578,-1.18945 c -0.072,-0.0106 -24.3161,-0.89063 -28.9668,-0.89063 -3.744,0 -22.64968,-3.86647 -27.45902,-4.86914 -3.45199,-2.46267 -15.44943,-10.71358 -22.71875,-12.01758 -7.17868,-1.272 -20.91045,-5.08984 -20.95312,-5.08984 l -3.29492,0.082 c -0.0548,0.0227 -21.03996,7.0957 -29.89063,7.0957 -4.81867,0 -15.32515,-0.84774 -25.28515,-1.70508 -10.28002,-0.87999 -19.94813,-1.75976 -22.9668,-1.75976 v -0.01 c -3.07332,0 -10.62317,-2.75062 -22.08984,-8.25195 -2.21598,-1.056 -4.70087,-2.29736 -7.43555,-3.69336 -2.65066,-1.35467 -5.42416,-2.81199 -8.29883,-4.36133 l -0.008,-0.0117 C 796.29591,283.18442 752.32093,279.6165 752.19692,279.60716 Z"
       transform="scale(0.26458333)"
       id="path158812"
       inkscape:connector-curvature="0"
       sodipodi:nodetypes="ccccccccccccccccccccsccccccccsccccccccccccccccccsccccscccccccccccccccccccccccccccccccccccccccsccccsccccccccccccccccccccscccccccccccccccccccccccccccsccccccccccccccccccccccccccccccsccccsccccccccc" />
    <path
       style="display:inline;fill:#eecf2b;fill-opacity:1;fill-rule:evenodd;stroke:none;stroke-width:0.13333334"
       d="m -1022.6211,296.63672 c -11.1832,3.54005 -34.7974,16.45117 -41.7988,16.45117 -9.7533,0 -24.6153,3.20117 -24.6153,3.20117 0,0 -18.2759,0.19108 -24.5625,1.73242 -4.4507,6.29871 -7.0608,14.40853 -8.3515,20.00586 -2.2773,9.81334 29.164,9.14649 29.164,9.14649 l 18.584,14.20898 -14.4023,-13.52343 3.0273,-3.73633 c 0,0 2.2783,-1.3549 7.9649,2.03711 5.688,3.38133 9.0996,3.72265 9.0996,3.72265 l 2.6484,4.39649 9.8653,0.68359 5.6894,-4.74805 7.1973,-6.09179 9.1015,-4.05469 v -4.73633 c 0,0 0.3708,3.38281 3.7813,3.38281 3.4134,0 7.9668,-4.06445 7.9668,-4.06445 l 8.9629,-19.54297 -0.2305,-11.9043 z m 1661.0879,10.81055 c -5.74402,2.428 -35.6116,20.40321 -39.79297,24.56054 -4.38531,4.35467 -16.57617,2.17188 -16.57617,2.17188 l -13.65039,8.70703 c 0,0 -11.21055,-0.4336 -26.81055,-0.4336 -0.90535,0 -1.82456,0.0634 -2.75391,0.16602 -11.74397,7.48667 -28.43099,18.06617 -32.73633,20.46484 -6.82401,3.81733 17.0625,-3.80468 17.0625,-3.80468 0,0 28.58178,-5.70914 32.42579,-7.23047 3.83867,-1.51733 -6.40066,4.95461 -9.38868,6.47461 -2.98401,1.52133 -33.27354,18.65701 -36.68554,21.70898 -3.41466,3.04003 -24.31608,3.80526 -27.30274,4.5586 -2.98397,0.768 -36.26172,9.14257 -36.26172,9.14257 0,0 -39.66715,19.0407 -52.89648,19.80469 -13.224,0.76532 -37.54102,1.90234 -37.54102,1.90234 l 11.94532,11.79883 -19.19727,6.85938 0.42383,20.56836 -13.64844,23.61133 L 358.9707,464 l -12.79492,15.23242 19.62305,0.38086 11.08984,-28.17969 32.84766,-4.94336 -15.35742,24.75 44.36523,-32.36914 59.72266,-39.60351 29.86328,-14.47656 6.82617,-0.3711 c 0,0 12.7964,3.42188 20.90039,3.42188 8.10667,0 11.52148,4.95508 11.52148,4.95508 l 5.54297,-6.09376 h 11.94727 l 1.70508,-4.18554 c 0,0 3.41486,-6.09366 4.26953,-14.09766 0.58533,-5.48666 5.39047,-4.69754 9.17578,-3.9082 1.728,0.36131 3.24286,0.72169 4.04687,0.48437 2.55731,-0.764 19.19922,-16.75195 19.19922,-16.75195 l 5.54297,-5.33398 c 0,0 9.81446,-14.85183 9.81446,-19.42383 0,-3.33067 -0.23264,-11.7484 -0.35547,-16.03906 z m 297.54687,4.53906 c 0,0 -21.93221,7.40625 -31.68555,7.40625 -7.00134,0 -26.07031,-1.79979 -38.26367,-2.81446 l 0.77735,8.87305 9.4707,3.38281 c 0,0 4.55151,4.06446 7.96484,4.06446 3.41057,0 3.78125,-3.38477 3.78125,-3.38477 v 4.73828 l 9.10157,4.05274 7.19726,6.09179 5.68946,4.74805 9.86523,-0.68164 2.64844,-4.39648 c 0,0 3.41161,-0.34132 9.09961,-3.72266 5.68667,-3.392 7.96484,-2.03906 7.96484,-2.03906 l 3.02734,3.73633 -14.40234,13.52343 18.58398,-14.20898 c 0,0 4.16798,-1.35268 1.89063,-11.16602 -1.29082,-5.59733 -0.86953,-11.18174 -0.26953,-14.95507 -6.28668,-1.54134 -12.44141,-3.24805 -12.44141,-3.24805 z M -804.58008,331.25 l -5.6875,5.67578 c -4.69402,9.39405 -10.26828,11.9097 -17.31445,20.48242 l -8.8418,9.98633 -2.26953,20.85156 c 23.4133,13.96487 19.59662,14.62562 47.00391,19.96485 l 1.01172,-21.21289 -3.54493,-6.35547 c 0,0 -3.02859,-2.69791 -4.92187,-4.39258 -1.90141,-1.68933 -6.45313,-5.75195 -6.45313,-5.75195 l 2.65821,-3.72461 6.06054,-1.01172 c 0,0 -1.12571,-1.69779 -3.78711,-4.06445 -2.65598,-2.368 -3.0371,-4.73633 -3.0371,-4.73633 l 3.4121,-6.41992 4.54493,-6.3086 4.04687,-12.57812 z m 1461.31641,12.42188 c 0,0 -3.69514,10.0748 0.57422,12.74414 4.26534,2.66666 3.69336,13.52343 3.69336,13.52343 l 5.54492,-19.02539 z m -1913.32613,3.14062 v 10.49609 l -6.8243,-1.02539 -9.1113,3.39258 -5.6777,4.73633 2.6484,9.13281 c 0,0 -6.818,1.01563 -12.8887,1.01563 -6.06,0 -2.2753,2.70898 -2.2754,2.70898 0,0 4.1687,5.07554 5.3086,8.12891 1.1481,3.03866 -1.1406,4.73437 -1.1406,4.73437 0,0 -5.6774,5.40789 -9.4707,5.74805 -3.796,0.34269 -1.5195,4.39823 -1.5195,6.76758 0,2.376 -3.4141,6.77252 -5.6914,7.7832 -2.2614,1.01734 1.5242,3.72599 2.6601,5.75 1.1401,2.04 0.7559,11.17188 0.7559,11.17188 0,0 1.9043,-2.69719 1.9043,-4.39454 0,-1.69466 1.1348,-9.14257 1.1348,-9.14257 l 3.7851,-3.72266 c 0,0 -1.1388,-4.73924 -0.3828,-6.42187 0.7627,-1.69735 7.207,-6.0918 7.207,-6.0918 0,0 0.3833,0.66984 0.7578,2.36719 0.3801,1.684 4.5497,3.38147 6.8243,5.07617 2.2734,1.68797 0,2.70245 -1.8907,4.39844 -1.8973,1.68531 -3.416,5.07617 -3.416,5.07617 l -7.2051,4.05468 9.1075,-1.01562 c 0,0 3.4045,-5.06609 7.1992,-9.46875 3.7947,-4.39601 7.9629,-13.19727 7.9629,-13.19727 0,0 -1.893,-0.67516 -3.041,-2.36718 -1.128,-1.69735 1.9062,-9.14453 1.9062,-9.14453 l 4.166,-4.73633 c 0,0 6.8153,-0.3399 10.6114,-1.69727 3.7934,-1.34533 7.9707,5.41992 7.9707,5.41992 l 2.6464,-3.04101 8.7227,-3.04883 6.0664,4.0625 28.8164,1.01562 -7.9668,-5.7539 -7.2051,-2.70899 -6.0644,-3.72265 5.3066,-2.36524 -10.2363,-1.02734 -12.8867,-0.32813 -2.2754,-3.39257 -6.8262,-1.01368 -2.2754,-3.38086 -2.2754,-2.02539 z m 136.6933,0.65625 c 0,0 0.5739,10.85677 -3.6914,13.52344 -4.2693,2.66933 -0.5742,12.74414 -0.5742,12.74414 l 9.8105,-7.24219 z m 480.07423,4.06836 c 0,0 -12.38349,3.75539 -14.51953,5.27539 -2.13199,1.52 -17.27948,12.04052 -21.54882,15.08984 -4.26267,3.05201 -14.19404,13.65225 -28.11329,31.31836 -22.83628,18.53534 -21.42939,31.86793 -43.33398,49.93555 l -8.10742,6.85937 -19.6211,3.03711 -20.90234,15.23438 c 0,0 -0.92822,4.54964 -2.4082,9.18164 8.46667,-5.49865 18.16874,-12.06627 19.24609,-13.99023 1.95065,-3.48401 32.66237,-8.27225 38.51172,-10.87891 5.85067,-2.616 31.68945,-9.14453 31.68945,-9.14453 l 13.15821,-3.04102 7.3125,-10.01172 c 0,0 7.8051,-3.47088 12.67578,-4.35351 4.87464,-0.86669 13.16416,1.75 16.57617,1.75 3.41333,0 41.91992,-36.55664 41.91992,-36.55664 l 17.55078,-6.09375 18.52539,-17.4043 c 0,0 7.07091,-3.33966 10.07227,-3.84766 -1.94536,-1.976 -4.60431,-4.11313 -7.26563,-4.50781 -5.12266,-0.76532 -17.36328,-11.38281 -17.36328,-11.38281 l -21.29297,-4.80274 z m 1606.73829,3.69922 -7.95313,2.70898 0.75391,2.02735 c 0,0 -0.75327,2.35716 -3.0293,2.70117 -2.27599,0.33868 -23.88867,0.33789 -23.88867,0.33789 l 6.82617,6.10351 c 0,0 3.02856,2.69792 4.92188,4.39258 1.90132,1.68934 6.45312,5.75196 6.45312,5.75196 l -2.6582,3.72461 -6.06055,1.01171 c 0,0 1.12576,1.69779 3.78711,4.06446 2.65599,2.36798 3.03711,4.73633 3.03711,4.73633 l -3.41211,6.41992 6.0625,-2.02539 -2.2793,5.75976 v 13.53711 l 6.44532,-6.43359 3.04101,-6.08594 c 0,0 2.64515,-8.80273 4.92383,-10.83203 2.27599,-2.03736 9.85547,-6.0918 9.85547,-6.0918 l 4.54883,-8.4707 -1.51758,-13.52734 -16.67383,-2.03516 z m -1904.74414,4.59375 -13.2793,1.69726 c 0,0 -12.88608,0.66993 -14.77539,0.66993 -1.90534,0 -27.67728,-2.02539 -31.47461,-2.02539 -3.79468,0 -12.51288,0.68036 -17.04878,2.70703 -4.5641,2.03199 -3.795,5.41015 -3.795,5.41015 0,0 5.3026,2.38086 7.9492,2.38086 2.6587,0 12.51372,3.37695 12.51372,3.37696 0,0 -4.16772,4.9e-4 -10.62112,0.67382 -6.4333,0.684 -14.7779,1.35906 -16.6699,2.03907 -1.9067,0.672 7.207,1.35351 11.375,1.35351 4.168,0 10.2285,3.38086 10.2285,3.38086 l -17.8203,1.3457 10.2402,3.39063 c 0,0 14.78845,1.35317 18.95512,0.67187 4.16935,-0.672 22.75195,4.06836 22.75195,4.06836 0,0 1.51031,2.70899 6.07031,2.70899 4.54001,0 13.26954,2.36523 13.26954,2.36523 l -6.07032,-0.3418 c 0,10e-6 -7.58167,2.02611 -10.23632,1.35547 -2.65066,-0.68269 -7.58281,-1.69364 -5.68946,-0.68164 1.89067,1.01469 11.75648,5.76143 14.03516,6.77344 2.27199,1.01337 -0.76953,3.04883 -0.76953,3.04883 0,0 -3.02852,-0.34015 -6.8125,-1.02149 -3.79733,-0.67336 -13.26758,-0.67382 -13.26758,-0.67382 0,0 5.30313,2.71247 10.98047,4.39648 5.692,1.69584 9.09961,2.03516 9.09961,2.03516 0,0 -2.26334,2.02826 -5.30469,1.01757 -3.02665,-1.01751 -12.51172,-0.68554 -12.51172,-0.68554 l 17.81641,5.41992 6.07226,-8.46094 c 0,0 13.64002,0.67281 15.91602,1.6875 2.27599,1.02131 1.8e-4,-3.38532 -1.50781,-5.75195 -1.50932,-2.36534 6.4414,-6.77149 6.4414,-6.77149 l -1.52148,-3.04101 -7.58008,-3.72266 -15.16016,-2.70703 -6.82812,-1.68945 3.0332,-5.41602 -6.05859,-2.37109 h 12.50976 l -1.14648,-4.05274 7.96094,2.02735 15.92773,-7.10547 c 0,0 -6.07166,-0.68194 -8.34766,-3.72461 -1.66455,-2.23014 -2.90937,-2.64379 -3.46289,-2.70703 0.88868,0.002 10.61716,0.0449 17.49805,1.01367 7.19868,1.01733 16.68164,-1.35547 16.68164,-1.35547 l -7.58984,-1.01172 -13.25977,-1.35546 z m 1581.91796,2.32617 c 0,0 -7.04482,9.12722 -4.54882,8.92187 2.50132,-0.20666 3.86328,3.6504 3.86328,3.6504 z m -1816.55464,1.92773 6.8144,7.7754 -16.6719,2.0371 -1.5195,13.5254 4.5488,8.4707 c 0,0 7.5815,4.05444 9.8575,6.0918 2.2786,2.02929 4.9218,10.83203 4.9218,10.83203 l 3.041,6.08593 6.4454,6.4336 v -13.53711 l -2.2774,-5.75977 6.0625,2.02539 -3.414,-6.41992 c 0,0 0.383,-2.36834 3.039,-4.73633 2.6614,-2.36666 3.7852,-4.06445 3.7852,-4.06445 l -6.0606,-1.01172 -2.6582,-3.72461 c 0,0 4.5537,-4.06262 6.4551,-5.75195 1.8933,-1.69467 4.9219,-4.39258 4.9219,-4.39258 l 6.8261,-6.10351 c 0,0 -21.6145,7.9e-4 -23.8906,-0.3379 -2.276,-0.34401 -3.0293,-2.70117 -3.0293,-2.70117 l 0.7539,-2.02734 z m 1550.05269,0.49024 c -8.46667,5.49867 -18.1668,12.06623 -19.24414,13.99023 -1.95067,3.48401 -32.66239,8.27224 -38.51172,10.87891 -5.85067,2.616 -31.68945,9.14453 -31.68945,9.14453 l -13.1582,3.04102 -7.3125,10.01171 c 0,10e-6 -7.80512,3.47085 -12.67579,4.35352 -4.87466,0.86665 -13.16417,-1.74805 -16.57617,-1.74805 -3.41333,0 -41.91992,36.55664 -41.91992,36.55664 l -17.55078,6.09375 -18.52539,17.4043 c 0,0 -7.07093,3.3377 -10.07227,3.8457 1.94534,1.97602 4.6043,4.11507 7.26563,4.50977 5.12267,0.76532 14.50586,4.95313 14.50586,4.95313 l 29.86523,8.375 16.20899,14.47851 c 0,0 13.22142,-13.71241 15.35742,-15.23242 2.132,-1.51998 0.84981,-9.89794 5.11914,-12.94727 4.26267,-3.052 18.7691,-8.75886 36.25976,-22.85351 17.48801,-14.08668 40.52539,-36.17578 40.52539,-36.17578 l -9.8125,-5.32813 c 0,0 4.26679,-4.56832 4.68946,-7.23633 0.43067,-2.65731 2.13867,-10.66406 2.13867,-10.66406 l 14.07617,-1.13672 8.10547,-6.85937 19.62109,-3.03711 20.9043,-15.23438 c 0,0 0.92625,-4.55159 2.40625,-9.18359 z m 317.42188,14.78516 c 0,0 -4.96071,5.54453 -7.44336,6.92187 -2.48002,1.38535 -2.47959,1.66573 -21.40625,5.26172 -18.92799,3.6014 -23.26842,1.94625 -30.09375,3.32226 -6.82802,1.39601 -2.48084,1.39639 -3.10352,6.92969 -0.13301,1.184 -0.45702,1.87961 -0.87305,2.27344 l 7.38868,2.42969 c 0,0 18.61071,-0.82617 20.16406,-0.82617 1.54798,0 18.30466,2.77026 22.02734,3.5996 3.72401,0.83868 16.44134,-3.31976 21.72266,-4.42773 5.27335,-1.10668 13.64844,2.21289 13.64844,2.21289 l -1.55274,-7.47461 c 0,0 -0.93077,-5.26447 -3.41211,-5.8125 -2.48133,-0.56133 -1.86523,-3.88086 -1.86523,-3.88086 l 26.06445,-9.41797 z m -62.91993,24.70898 -4.40039,-1.44531 c 0,0 2.86888,2.89511 4.40039,1.44531 z m 145.64649,-22.78125 -8.71875,0.3418 -13.25977,1.35547 -7.58984,1.01171 c 0,0 9.48296,2.37281 16.68164,1.35547 6.88252,-0.96901 16.61543,-1.01171 17.5,-1.01367 0.20332,-0.0232 0.31836,-0.002 0.31836,-0.002 0,0 -0.2767,0.002 -0.31836,0.002 -0.55351,0.0632 -1.80029,0.47677 -3.46484,2.70703 -2.276,3.04263 -8.34571,3.72461 -8.34571,3.72461 l 15.92578,7.10547 7.96094,-2.0293 -1.14648,4.05469 h 12.51172 l -6.0586,2.37109 3.0332,5.41602 -6.82812,1.68945 -15.16016,2.70703 -7.58007,3.72266 -1.52344,3.04102 c 0,0 7.95267,4.40614 6.44336,6.77148 -1.508,2.36667 -3.78381,6.7733 -1.50781,5.75195 2.27599,-1.01465 15.91601,-1.6875 15.91601,-1.6875 l 6.07031,8.46094 17.81641,-5.41992 c 0,0 -9.48507,-0.33164 -12.51172,0.68555 -3.04135,1.01068 -5.30469,-1.01758 -5.30469,-1.01758 0,0 3.40761,-0.33932 9.09961,-2.03516 5.67734,-1.684 10.98242,-4.39648 10.98242,-4.39648 0,0 -9.4722,5e-4 -13.26953,0.67383 -3.78402,0.68133 -6.8125,1.02148 -6.8125,1.02148 0,0 -3.03956,-2.0355 -0.76758,-3.04883 2.27868,-1.012 12.14254,-5.75878 14.03321,-6.77344 1.89335,-1.012 -3.03684,-10e-4 -5.6875,0.68164 -2.65467,0.67068 -10.23633,-1.35546 -10.23633,-1.35546 l -6.07031,0.34179 c 0,0 8.72757,-2.36523 13.26758,-2.36523 4.56,0 6.07226,-2.71094 6.07226,-2.71094 0,0 18.58261,-4.73841 22.75195,-4.0664 4.16667,0.68133 18.95313,-0.67188 18.95313,-0.67188 l 10.24023,-3.39062 -17.82031,-1.34571 c 0,0 6.06049,-3.38086 10.22852,-3.38086 4.16798,0 13.28166,-0.68151 11.375,-1.35351 -1.892,-0.68002 -10.23656,-1.35505 -16.66993,-2.03907 -6.45331,-0.67332 -10.61914,-0.67382 -10.61914,-0.67382 0,0 9.85501,-3.37696 12.51368,-3.37696 2.64665,0 7.94921,-2.38086 7.94922,-2.38086 0,0 0.76713,-3.37817 -3.79688,-5.41015 -4.536,-2.02666 -13.25414,-2.70703 -17.04883,-2.70703 -3.79733,0 -29.56732,2.02539 -31.47265,2.02539 -1.88931,0 -14.77735,-0.66993 -14.77735,-0.66992 z m -1622.32617,6.88867 0.68554,12.57227 c 0,0 1.36196,-3.85511 3.86328,-3.64844 2.496,0.20523 -4.54882,-8.92383 -4.54882,-8.92383 z m 1378.46484,0.43164 -15.35547,9.13281 c 0,0 -8.10761,7.23767 -10.23828,11.04297 -2.136,3.81869 -0.42773,19.80664 -0.42773,19.80664 l 6.82421,12.94727 c 0,0 -11.08756,10.28062 -14.07421,12.94727 -2.98666,2.668 -34.55469,2.66796 -34.55469,2.66796 l -10.66602,-8.3789 h -18.3457 l -47.77734,29.70508 -21.33204,17.50586 17.06836,-8.75782 c 0,0 12.79362,-1.89339 17.48829,-1.52148 4.69198,0.38279 21.75585,-0.3711 21.75585,-0.3711 l 14.07618,-4.57226 56.3125,10.66406 c 0,0 10.23492,-6.47591 11.51757,-10.28125 1.28266,-3.816 -5.12109,-4.19726 -5.12109,-4.19726 l 23.03711,-6.08985 c 0,0 14.93018,0.76367 20.04883,0.76367 5.12269,0 17.0664,2.28516 17.0664,2.28516 0,0 11.94223,6.85635 17.49024,5.70703 5.54532,-1.13469 23.0359,4.18976 27.72656,4.95508 4.69599,0.76399 19.62207,9.14249 21.33008,7.23047 1.70933,-1.90534 11.51953,-7.99414 11.51953,-7.99414 l 13.22266,-3.42578 -29.4336,-14.4668 -15.35742,-1.15039 c 0,0 -17.91587,-1.89966 -23.0332,-4.57031 -5.11597,-2.66669 -3.84029,-3.4202 -1.71094,-4.18555 2.136,-0.768 -11.94336,-10.66406 -11.94336,-10.66406 l -8.95898,-7.99414 -12.79492,-15.61524 0.85156,-10.28125 -9.38477,-12.94531 v 11.04297 l -11.08789,8.37695 7.24805,-14.08398 -2.13086,-6.10157 -2.98828,6.47071 -3.83789,3.82031 -6.40039,16.75195 1.28125,-12.18164 1.70703,-10.28906 7.67773,-7.61328 z m -1019.73438,8.78711 -0.94726,4.5332 c 2.01882,-0.60325 0.94727,-4.5332 0.94726,-4.5332 z m -0.94726,4.5332 c -0.54917,0.16411 -1.31317,0.0965 -2.40625,-0.38085 -5.10335,-2.22743 -2.92978,-5.99257 -7.55273,-0.77735 -4.60434,5.22293 -5.34099,9.81084 -17.92383,24.40235 -12.57755,14.59293 -12.822,14.45117 -15.26172,15.90624 -2.43413,1.4614 -9.71485,2.98633 -9.71485,2.98633 l -19.67187,36.29297 21.18945,-17.86328 c 0,0 3.18228,1.12513 2.42774,3.55469 -0.76608,2.4229 3.32812,5.86133 3.32812,5.86133 l 5.69727,5.08203 c 0,0 1.31116,-8.9123 4.90625,-12.92578 3.60022,-4.0198 13.55964,-12.9552 14.69531,-16.59961 1.14312,-3.63859 7.12255,-19.53437 7.89648,-20.875 0.7767,-1.34521 10.79883,-17.05078 10.79883,-17.05078 z m 1492.39064,1.69727 -4.9238,8.80078 -2.27348,2.02734 -2.27539,3.38086 -6.82617,1.01368 -2.27539,3.39257 -12.88672,0.32813 -10.23633,1.02539 5.30469,2.36719 -6.0625,3.72265 -7.20703,2.70899 -7.96485,5.75195 28.81641,-1.01367 6.0664,-4.0625 8.72071,3.04883 2.64648,3.03906 c 0,0 4.17933,-6.76329 7.97267,-5.41797 3.796,1.35734 10.6113,1.69531 10.6113,1.69531 l 4.166,4.73829 c 0,0 3.0343,7.44718 1.9063,9.14453 -1.1481,1.69198 -3.043,2.36523 -3.043,2.36523 0,0 4.1702,8.80126 7.9649,13.19727 3.7946,4.40265 7.1992,9.4707 7.1992,9.4707 l 9.1074,1.01562 -7.207,-4.05468 c 0,0 -1.5187,-3.3928 -3.416,-5.07813 -1.8894,-1.69599 -4.1621,-2.70847 -1.8887,-4.39648 2.2746,-1.69467 6.4442,-3.39221 6.8242,-5.07617 0.3745,-1.69735 0.7559,-2.36719 0.7559,-2.36719 0,0 6.4443,4.39448 7.207,6.0918 0.756,1.68268 -0.3828,6.41992 -0.3828,6.41992 l 3.7871,3.72265 c 0,0 1.1328,7.44792 1.1328,9.14258 0,1.69735 1.9062,4.39649 1.9062,4.39649 0,0 -0.3841,-9.13188 0.7559,-11.17188 1.136,-2.02401 4.9195,-4.73266 2.6582,-5.75 -2.2773,-1.01068 -5.6894,-5.40916 -5.6894,-7.78516 0,-2.36934 2.2745,-6.42293 -1.5215,-6.76562 -3.7934,-0.34016 -9.4707,-5.74805 -9.4707,-5.74805 0,0 -2.2867,-1.69571 -1.1387,-4.73437 1.14,-3.05333 5.3086,-8.12891 5.3086,-8.12891 0,0 3.7846,-2.71094 -2.2754,-2.71094 -6.0706,0 -12.8906,-1.01367 -12.8906,-1.01367 l 2.6504,-9.13281 -5.6778,-4.73633 -9.1113,-3.39258 -6.8242,1.02539 z m -1455.06642,6.81836 -7.72461,1.53711 -6.19727,1.14062 c 0,0 -5.11724,3.80166 -9.81054,8.375 -4.69202,4.56934 -6.39609,9.13301 -11.94141,15.23438 -5.55069,6.08931 -8.53571,7.23116 -13.65039,9.89648 -5.12402,2.66003 0.42187,7.23828 0.42187,7.23828 l 23.04102,-14.47656 c 0,0 4.26304,-9.89642 7.67773,-13.70312 3.41197,-3.816 8.52669,-4.9537 14.5,-8.76172 5.97336,-3.80266 3.6836,-6.48047 3.6836,-6.48047 z m 1161.84765,7.05078 3.75977,8.75781 c 0,0 -1.58594,2.84479 -1.58594,3.85547 0,1.01598 1.81836,2.44336 1.81836,2.44336 l 1.81641,3.64844 3.41406,2.0293 0.2207,4.25976 5.23243,-2.23633 c 0,0 -0.68258,3.45764 -1.14258,4.45899 -0.45067,1.02531 -1.58399,3.05169 -1.58399,4.87304 0,1.82933 2.72657,3.04883 2.72657,3.04883 l 3.40234,-3.45508 4.54102,-0.40234 c -10e-6,0 -0.21947,3.0417 1.14453,5.06836 1.35734,2.03467 -4.09571,4.25977 -4.09571,4.25977 l 3.64453,-0.61133 3.1836,-3.2461 c 0,0 1.35536,1.83177 3.85937,4.67579 2.48931,2.836 2.04492,4.45507 2.04492,4.45507 0,0 3.85876,-6.68813 4.9961,-7.29883 1.13465,-0.60797 -5.22461,0.60938 -5.22461,0.60938 0,0 -3.41171,-2.02742 -2.95703,-3.24609 0.45335,-1.22268 5.45117,-5.27735 5.45117,-5.27735 l -5.45117,3.25 -4.09375,-1.01367 -0.2168,-4.66406 -3.86914,1.20898 c 0,0 -0.22409,-2.63669 1.36523,-3.44336 1.59334,-0.816 2.03711,-6.49414 2.03711,-6.49414 l -7.26953,8.52149 c 0,0 -0.45052,-3.44371 -0.67578,-4.45703 -0.22533,-1.02267 0.91087,-2.63853 2.26953,-2.84375 0.69026,-0.10538 2.13191,-0.98498 3.39258,-1.83008 -0.0245,0.004 -5.44201,0.81446 -7.25391,0.41406 -1.81867,-0.41469 -3.86914,0.40039 -3.86914,0.40039 0,0 -2.26974,-1.2194 -3.17773,-2.63672 -0.90799,-1.41468 0.96094,-4.91211 0.96094,-4.91211 l -3.12696,0.50586 1.13282,-4.81836 z m 22.1543,18.9043 c 6e-5,-10e-6 0.008,-0.002 0.008,-0.002 l 0.3086,-0.21875 c -0.11655,0.0796 -0.1956,0.13972 -0.31641,0.22071 z m 0.31641,-0.22071 c 1.06819,-0.72945 1.96679,-1.39453 1.96679,-1.39453 z m -838.96289,-13.77734 -35.81641,15.77344 35.92969,-9.07422 c 0,0 -10.88175,7.62115 -13.95313,9.14648 4.16411,-0.65528 15.17188,-6.97461 15.17188,-6.97461 l 6.820311,3.47461 c -1.214665,-0.868 -6.332031,-7.38281 -6.332031,-7.38281 z m -13.83985,15.8457 c -0.28451,0.0448 -0.539,0.0647 -0.7539,0.0527 -0.20963,0.33742 0.11412,0.26496 0.7539,-0.0527 z m 367.30469,-4.33007 c 0,0 5.54588,4.57828 0.42188,7.23828 -5.11467,2.66536 -8.09973,3.80713 -13.65039,9.89648 -5.54534,6.10133 -7.24941,10.66309 -11.94141,15.23242 -4.69334,4.57334 -9.81055,8.37696 -9.81055,8.37696 l -6.82812,-0.75391 -8.10352,4.18945 c 0,0 -1.27997,-3.43562 4.69336,-7.23828 5.97333,-3.80802 11.088,-4.94572 14.5,-8.76172 3.41467,-3.80666 7.67969,-13.70312 7.67969,-13.70312 z m -1162.20312,9.59765 -6.81836,7.85938 1.13086,4.8164 -3.125,-0.50586 c 0,0 1.86697,3.4974 0.95898,4.91211 -0.90799,1.41729 -3.17773,2.63867 -3.17773,2.63868 0,0 -2.05048,-0.817 -3.86914,-0.40235 -1.80898,0.39979 -7.20606,-0.40583 -7.24805,-0.41211 1.25971,0.84427 2.69917,1.72289 3.38867,1.82813 1.35866,0.20523 2.49487,1.82104 2.26953,2.84375 -0.22526,1.01333 -0.67578,4.45703 -0.67578,4.45703 l -7.27148,-8.52149 c 0,0 0.44576,5.67814 2.03906,6.49414 1.58937,0.80667 1.36523,3.44336 1.36523,3.44336 l -3.86914,-1.20703 -0.2168,4.66211 -4.0957,1.01367 -5.45117,-3.25 c 0,0 4.99786,4.05471 5.45117,5.27735 0.45468,1.21871 -2.95508,3.24804 -2.95508,3.24804 0,0 -6.36121,-1.21934 -5.22656,-0.61132 1.13734,0.61065 4.99805,7.30078 4.99805,7.30078 0,0 -0.44638,-1.62103 2.04297,-4.45703 2.50401,-2.84398 3.85937,-4.67383 3.85937,-4.67383 l 3.1836,3.24414 3.64453,0.61328 c 0,0 -5.45301,-2.22709 -4.09571,-4.26172 1.364,-2.02669 1.14454,-5.06836 1.14453,-5.06836 l 4.54102,0.4043 3.4043,3.45508 c 0,0 2.72656,-1.22146 2.72656,-3.05078 0,-1.82136 -1.13331,-3.84579 -1.58398,-4.8711 -0.46001,-1.00135 -1.14258,-4.46094 -1.14258,-4.46094 l 5.23047,2.23633 0.22265,-4.25976 3.41211,-2.02735 1.81641,-3.65039 c 0,0 1.81836,-1.42734 1.81836,-2.44336 0,-1.01064 -1.58399,-3.85547 -1.58399,-3.85547 z m -22.14844,18.90625 c -0.2047,-0.13718 -0.34626,-0.24126 -0.53711,-0.37304 l 0.52344,0.37109 c 0,0 0.0135,0.002 0.0137,0.002 z M 807.25977,444.11133 c 0,0 -3.18511,5.4734 -2.73047,7.30273 0.45736,1.83065 3.17578,5.06641 3.17578,5.06641 0,0 -2.27465,-3.44399 -0.22656,-4.05469 2.04669,-0.60797 3.20703,1.33399 3.20703,1.33399 0,0 3.9808,0.25674 4.54883,2.02734 0.56798,1.78001 2.55468,7.10547 2.55468,7.10547 l -5.39844,7.10547 1.41602,2.02539 5.11914,-3.80664 c 0,0 -5.9668,6.60026 -5.9668,8.3789 0,1.76799 2.84375,5.82032 2.84375,5.82032 l 3.12305,-2.0254 -0.2793,4.3125 2.83594,2.79102 c 0,0 -2.55701,6.59777 -3.125,7.87109 -0.56935,1.26135 0.28937,0.49772 3.69336,-2.79296 3.41201,-3.29866 5.39649,-7.10484 5.39649,-9.13282 0,-2.02265 -0.56836,-6.34961 -0.56836,-6.34961 0,0 -3.0293,4.55308 -3.0293,5.75977 0,1.22268 -2.04688,0.82031 -2.04688,0.82031 l 0.89844,-5.07812 -1.35351,-3.65235 -3.64063,4.26367 -0.22851,-3.84765 7.49804,-12.99024 h -4.08594 l -1.59179,-3.65429 c 0,0 1.13498,-2.83287 -0.45703,-3.24219 -1.58,-0.40668 -2.4918,-1.0166 -2.95313,-2.22461 -0.44534,-1.21867 -2.7207,-2.44141 -2.7207,-2.44141 l -2.95899,-2.02734 -2.27539,0.80859 z m -1118.91602,1.66015 c 0,0 -6.34308,5.09774 -16.09375,9.45508 -0.47067,0.216 -4.77293,1.67311 -5.32227,1.87305 -2.156,2.46667 -7.52992,6.44389 -10.66992,7.19727 -10.46719,5.5512 -15.34288,12.62304 -19.68554,12.62304 -2.29067,0 -9.7645,-3.54714 -16.3125,-6.89648 -1.19373,-0.34265 -2.13234,-0.6234 -2.625,-0.79688 -0.57706,-0.19865 -2.0275,-0.65357 -3.90039,-1.21094 3.86826,3.288 9.38553,7.90794 12.9082,10.5586 5.89867,4.43467 34.04575,14.03635 35.59375,14.3164 1.55066,0.27735 17.96353,-13.72858 19.51953,-13.45117 1.54667,0.27999 -2.55078,12.18946 -2.55078,12.18946 0,0 13.9619,-9.41266 16.7539,-16.88868 2.79467,-7.47734 8.37779,-11.91278 9.92579,-13.30078 0.51199,-0.44266 2.08536,-1.57939 3.9707,-2.91406 z m 1463.95505,0.83008 -9.0879,3.04102 4.5489,2.71094 c 0,0 -7.9623,3.39081 -14.4063,3.72265 -6.4426,0.34269 -9.1015,2.03906 -9.1015,2.03906 l -13.2637,6.07813 -1.1445,4.74609 -9.0958,1.34766 3.4122,1.02344 10.6191,5.4082 c 0,0 4.5396,7e-5 8.709,-2.69727 4.18,-2.71067 6.4531,0.66993 6.4531,0.66993 l -7.9629,4.39843 c 0,0 -6.0687,1.35161 -4.166,2.37696 1.8907,1.01068 10.2266,7.10547 10.2266,7.10547 l 9.0976,0.33984 4.9336,3.37109 1.1406,-4.72656 c 0,0 -5.6877,-2.70992 -9.4824,-3.39258 -3.7853,-0.67332 1.9004,-2.36914 1.9004,-2.36914 0,0 9.0903,0.68347 13.2676,1.35547 4.168,0.68398 15.9189,2.36979 19.7109,4.06445 3.7974,1.69735 6.0742,-3.05078 6.0742,-3.05078 l 6.0586,2.02539 c 0,0 9.8531,2.03907 12.5118,2.03907 2.648,0 6.0709,0.34299 13.2656,1.01367 6.132,0.58133 18.3123,1.88843 21.7949,2.26562 v -0.0937 -0.002 l -15.3457,-3.18359 c 0,0 -16.3021,-3.04883 -18.5781,-3.04883 -2.2734,0 -7.961,-4.05469 -7.961,-4.05469 l -13.6523,-3.04883 c 0,0 -5.6791,1.69431 -7.207,4.40235 -1.5094,2.7013 -18.1914,-4.06446 -18.1914,-4.06446 0,0 6.0696,-6.77136 8.3457,-7.44336 2.2759,-0.68266 23.1264,3.05078 27.6757,3.05078 4.5374,0 30.7055,-8.46257 34.4961,-8.80273 3.7867,-0.34001 -28.44,-7.78426 -32.2226,-10.15625 -3.7947,-2.36935 -33.3731,-8.46094 -33.3731,-8.46094 z m -1051.34958,2.46485 c 0,0 -13.15949,4.33992 -22.910158,8.69726 -0.470668,0.216 -0.985824,0.41139 -1.535156,0.61133 -2.156001,2.46667 -4.750623,4.4244 -7.890625,5.17773 -11.477336,2.77331 -21.405381,2.77149 -25.748047,2.77149 -2.290669,0 -9.762546,-3.54523 -16.310546,-6.89453 -1.193734,-0.34269 -2.134287,-0.6234 -2.626954,-0.79688 -0.577067,-0.19869 -2.027457,-0.65361 -3.90039,-1.21093 3.868266,3.288 9.387489,7.90793 12.910156,10.55859 5.898666,4.43467 28.237156,10.24923 29.785156,10.5293 1.550669,0.2773 12.40689,4.705 13.962891,4.98242 1.546666,0.27998 12.095703,9.41211 12.095703,9.41211 0,0 13.9619,-9.41266 16.75391,-16.88868 2.79466,-7.47734 8.37778,-11.91278 9.92578,-13.30078 0.51199,-0.44265 2.08732,-1.57939 3.97265,-2.91406 z m -288.27734,3.01562 1.54882,4.1543 2.48242,0.55078 c 0,0 -1.85885,1.38608 -1.24218,3.33008 0.6208,1.93466 1.86133,3.59765 1.86133,3.59765 0,0 -7.7544,2.21421 -8.6836,0.54883 -0.93333,-1.65199 -2.17578,-4.97461 -2.17578,-4.97461 l 0.31445,-2.77148 -5.27539,3.59961 5.89453,4.70703 -5.27734,2.21094 3.41602,3.33203 -8.37891,0.82812 1.86328,2.20899 -5.27539,1.38672 -7.13476,2.49218 -4.34376,6.65039 8.37696,-5.54297 7.44531,-0.82617 4.6543,-3.05273 3.41211,1.66601 c 0,0 -2.46408,-3.31836 -0.75782,-3.31835 1.70467,0 3.64978,1.5307 3.89258,0.4414 0.24586,-1.08401 -1.21679,-4.57226 -1.21679,-4.57226 l 4.14453,-1.51758 c 0,0 0.4838,-0.44595 3.4082,-1.08594 2.9204,-0.6627 5.11133,-1.74609 5.11133,-1.74609 l -1.93945,-2.17188 c 0,0 -2.44141,-3.69185 -0.98047,-4.5625 1.46306,-0.86801 2.67773,-1.73633 2.67773,-1.73633 0,0 -4.38152,-1.52956 -5.59766,-1.96289 -1.21666,-0.43468 -1.94902,-1.52327 -2.2246,-1.86328 z m 1258.12302,4.33789 -2.2715,5.07617 -5.3086,2.02735 c 0,0 1.1325,1.69651 6.0645,2.36718 4.9307,0.68266 1.8984,7.10352 1.8984,7.10352 0,0 1.9181,-2.01499 2.3008,-4.04297 0.3707,-2.03603 1.4872,-3.06122 3.0059,-1.36523 1.5227,1.69598 22.3698,-3.04782 26.5351,-3.39063 4.1694,-0.33063 -14.4004,1.02539 -14.4004,1.02539 l -15.164,-3.38476 23.8789,-1.69532 c 0,10e-6 -4.5504,-1.35446 -9.4824,-1.69726 -4.9227,-0.32799 -17.0567,-2.02344 -17.0567,-2.02344 z M 5.0117188,459.39648 c -0.2756002,0.34001 -1.0079428,1.4286 -2.2246094,1.86329 -1.2161335,0.43332 -5.5976563,1.96484 -5.5976563,1.96484 0,0 1.2146676,0.86637 2.6777344,1.73437 1.4609334,0.87066 -0.9804687,4.56446 -0.9804687,4.56446 l -1.9394532,2.16992 c 0,0 2.19092799,1.08343 5.1113282,1.74609 2.9244001,0.63999 3.4082031,1.08594 3.4082031,1.08594 l 4.1445312,1.51758 c 0,0 -1.4626627,3.48826 -1.2167969,4.57226 0.2427999,1.08934 2.1879118,-0.4414 3.8925778,-0.4414 1.706267,0 -0.757812,3.31836 -0.757812,3.31836 l 3.412109,-1.66602 4.654297,3.05274 7.445313,0.82617 8.376953,5.54297 -4.34375,-6.65039 -7.134766,-2.49024 -5.273437,-1.38867 1.861328,-2.20898 -8.378906,-0.82813 3.416015,-3.33203 -5.277344,-2.21094 5.894532,-4.70703 -5.275391,-3.59961 0.314453,2.77149 c 0,0 -1.2404945,3.32261 -2.173828,4.9746 -0.9291999,1.66534 -8.68554688,-0.54687 -8.68554688,-0.54687 1e-8,0 1.24052808,-1.66494 1.86132808,-3.59961 0.6166668,-1.944 -1.24218745,-3.33008 -1.24218745,-3.33008 l 2.48242185,-0.54883 z m -1012.7695188,10.73633 -0.6738,5.47071 -2.2754,-0.8086 -2.959,2.02735 c 0,0 -2.2774,1.22269 -2.7227,2.4414 -0.4613,1.20798 -1.3731,1.81989 -2.9531,2.22656 -1.592,0.40933 -0.457,3.24219 -0.457,3.24219 l -1.5918,3.65235 h -4.086 l 7.5,12.99023 -0.2304,3.84961 -3.6387,-4.26367 -1.3535,3.65039 0.8984,5.07812 c 0,0 -2.0469,0.40237 -2.0469,-0.82031 0,-1.20665 -3.0293,-5.75781 -3.0293,-5.75781 0,0 -0.5703,4.32692 -0.5703,6.34961 0,2.02798 1.9865,5.8322 5.3985,9.13086 3.404,3.29064 4.2607,4.05431 3.6914,2.79297 -0.568,-1.27333 -3.1231,-7.86914 -3.1231,-7.86915 l 2.836,-2.79296 -0.2813,-4.3125 3.125,2.02539 c 0,0 2.8438,-4.05233 2.8438,-5.82032 0,-1.77868 -5.9688,-8.37695 -5.9688,-8.37695 l 5.1211,3.80664 1.416,-2.02734 -5.3984,-7.10547 c 0,0 1.9867,-5.32351 2.5547,-7.10352 0.568,-1.77063 4.5488,-2.02929 4.5488,-2.02929 0,0 1.1584,-1.942 3.2051,-1.33399 2.048,0.61066 -0.2246,4.05469 -0.2246,4.05469 0,0 2.7184,-3.23572 3.1758,-5.06641 0.4546,-1.82933 -2.7305,-7.30078 -2.7305,-7.30078 z m 954.097644,1.98633 -1.464844,1.74805 c 0,0 -5.115414,6.51676 -6.330078,7.38476 l 6.820312,-3.47461 c 0,0 6.235887,5.56869 8.675782,8.31641 -2.177107,-2.99397 -7.458985,-10.49023 -7.458985,-10.49023 l 25.574219,22.82421 z m 7.701172,13.97461 c 0.739337,1.01674 1.13053,1.52744 0.822265,1.03125 -0.160046,-0.25716 -0.452927,-0.61531 -0.822265,-1.03125 z M -1352.7988,472.62305 c 0,0 -29.5765,6.08967 -33.3711,8.45898 -3.7827,2.37199 -36.0093,9.81824 -32.2227,10.1582 3.7907,0.34016 29.9588,8.80079 34.4961,8.80079 4.5494,0 25.3979,-3.73344 27.6738,-3.05079 2.276,0.672 8.3457,7.44532 8.3457,7.44532 0,0 -16.682,6.76384 -18.1914,4.0625 -1.5279,-2.708 -7.207,-4.40235 -7.207,-4.40235 l -13.6504,3.05078 c 0,0 -5.6896,4.05469 -7.9629,4.05469 -2.276,0 -18.5761,3.04883 -18.5761,3.04883 l -15.3457,3.18359 v 0.0957 c 3.4826,-0.3772 15.6609,-1.6843 21.7929,-2.26563 7.1947,-0.67068 10.6177,-1.01367 13.2656,-1.01367 2.6587,0 12.5137,-2.03906 12.5137,-2.03906 l 6.0586,-2.02539 c 0,0 2.2749,4.74616 6.0723,3.04883 3.792,-1.69463 15.5429,-3.37853 19.7109,-4.0625 4.1774,-0.672 13.2676,-1.35547 13.2676,-1.35547 0,0 5.6877,1.69581 1.9023,2.36914 -3.7946,0.68269 -9.4843,3.39257 -9.4843,3.39257 l 1.1406,4.72657 4.9336,-3.37305 9.0976,-0.33984 c 0,0 8.338,-6.09284 10.2286,-7.10352 1.9026,-1.02531 -4.1661,-2.37891 -4.1661,-2.3789 l -7.9648,-4.39649 c 0,0 2.2731,-3.38255 6.4531,-0.67187 4.1693,2.69733 8.709,2.69726 8.709,2.69726 l 10.6191,-5.4082 3.4141,-1.02149 -9.0957,-1.34765 -1.1445,-4.7461 -13.2657,-6.07812 c 0,0 -2.6588,-1.69641 -9.1015,-2.03906 -6.444,-0.33185 -14.4043,-3.72461 -14.4043,-3.72461 l 4.5469,-2.70899 z m 1636.41403,8.0957 -4.95703,1.10742 -18.92773,10.25 c 0,0 15.82261,-6.92773 20.47461,-6.92773 h 11.17187 c 0,0 11.79037,-1.0976 13.95703,-1.9336 2.17601,-0.82802 -5.26975,-1.38824 -10.23242,-1.65625 -4.96667,-0.28006 -11.48633,-0.83984 -11.48633,-0.83984 z m -1554.91013,1.7207 c 0,0 -12.1339,1.69741 -17.0567,2.02539 -4.9319,0.34281 -9.4804,1.69727 -9.4804,1.69727 l 23.8789,1.69336 -15.1641,3.38476 c 0,0 -18.5716,-1.35606 -14.4023,-1.02539 4.1654,0.34281 25.0124,5.08861 26.5351,3.39258 1.5187,-1.69599 2.6371,-0.67076 3.0078,1.36524 0.3826,2.02802 2.2989,4.04297 2.2989,4.04296 0,0 -3.0303,-6.42281 1.9004,-7.10546 4.932,-0.67064 6.0625,-2.36524 6.0625,-2.36524 l -5.3086,-2.0293 z m 1195.779275,0.86524 c 0,0 -18.615924,3.04961 -26.058595,5.54297 -7.45066,2.49067 -12.18296,9.43301 -26.76562,10.54101 -14.58001,1.10532 -12.11445,7.34927 -20.49219,9.5586 -8.37653,2.22534 -37.13449,5.10277 -49.85742,7.05078 -12.71667,1.92933 -21.7165,8.30044 -34.7461,13.28711 -13.03239,4.98534 -48.39648,18.28125 -48.39648,18.28125 0,0 26.6797,-3.05089 31.02344,-3.87891 4.34,-0.83599 14.27148,-1.38281 14.27148,-1.38281 0,0 10.54851,-2.49287 12.41211,-3.88086 1.85987,-1.38403 8.68359,-10.80664 8.68359,-10.80664 0,0 14.89212,-1.10742 18.61719,-1.10742 3.71867,0 14.27149,-4.14454 14.27149,-4.14454 0,0 15.32824,-7.38393 18.12304,-6.83593 2.79227,0.55997 13.21137,9.32625 26.85938,8.76758 13.65466,-0.55733 14.58984,-2.77149 14.58984,-2.77149 l -25.44531,-4.14648 c 0,0 26.06356,-9.97989 28.85156,-11.36524 2.792,-1.37597 9.9304,-3.58517 11.78906,-3.86523 0.78016,-0.11736 4.01417,-1.15088 8.404301,-2.19141 -0.793871,-0.63006 -4.758221,-4.03138 0.0332,-6.29687 5.274667,-2.50402 21.965364,-9.23813 23.832031,-10.35547 z m -23.865234,16.65234 c 0.07985,0.0634 0.285156,0.24609 0.285156,0.24609 0,0 0.742922,-0.38343 1.080078,-0.56054 -0.469244,0.10468 -0.920081,0.20894 -1.365234,0.31445 z m 1.365234,-0.31445 c 5.944049,-1.32603 13.658305,-2.5112 20.837891,-1.6211 2.847473,0.35516 5.266944,1.05974 7.347656,1.93164 -4.286725,-3.4649 -8.634003,-6.72546 -10.304688,-7.10351 -3.310582,-0.7328 -15.17224,5.3701 -17.880859,6.79297 z m 28.185547,0.31054 c 5.268497,4.25847 10.445312,8.83204 10.445312,8.83204 0,0 -2.777219,-5.61874 -10.445312,-8.83204 z m -749.773442,-7.65624 c -5.74397,2.42799 -35.61359,20.40321 -39.79492,24.56054 -4.38535,4.35466 -16.57422,2.17188 -16.57422,2.17188 l -13.65039,8.70703 -12.81445,9.16015 c 3.83868,-1.51732 -6.40065,4.9546 -9.38867,6.47461 -2.98398,1.52134 -33.27159,18.65893 -36.6836,21.71094 -3.41465,3.03999 -24.31603,3.80527 -27.30273,4.55859 -2.98397,0.76801 -36.2617,9.14258 -36.2617,9.14258 0,0 -39.6691,19.0407 -52.8985,19.80469 -13.224,0.76535 -37.541,1.90234 -37.541,1.90234 l 11.9473,11.79688 -19.1973,6.86133 0.4239,20.56836 -13.6485,23.61132 23.8867,-14.47851 -12.7949,15.23242 19.6231,0.38086 11.0918,-28.17969 32.8476,-4.94336 -15.3594,24.75 44.3672,-32.36914 59.72268,-39.60351 29.86329,-14.47657 6.82421,-0.37109 c 0,0 12.79836,3.42188 20.90235,3.42188 8.10667,0 11.51953,4.95507 11.51953,4.95507 l 5.54297,-6.09375 h 11.94726 l 1.70508,-4.18554 c 0,0 3.41487,-6.09368 4.26953,-14.09766 0.58534,-5.48666 5.39044,-4.69756 9.17578,-3.9082 1.728,0.36113 3.24481,0.72173 4.04883,0.48437 2.55734,-0.76399 19.19727,-16.75195 19.19727,-16.75195 l 5.54297,-5.33398 c 0,0 9.81445,-14.85185 9.81445,-19.42383 0,-3.33067 -0.23106,-11.7484 -0.35352,-16.03906 z m 1202.89063,3.3164 2.55859,6.8457 v 6.85743 l 4.69532,2.28515 c 0,0 3.41069,4.57125 7.24804,2.66992 3.83864,-1.90401 8.53906,-4.57226 8.53906,-4.57226 l -4.69921,8.375 c 0,0 10.66821,8.75961 17.49218,12.18359 6.82802,3.432 8.95718,9.52357 15.78516,14.85157 6.82401,5.33465 23.88477,17.90039 23.88477,17.90039 0,0 -8.52825,-13.71123 -9.37891,-15.61524 -0.85467,-1.90533 -6.40039,-14.08594 -6.40039,-14.08594 0,0 -8.53014,-8.75959 -12.80078,-11.04492 -4.26134,-2.28533 -7.67578,-9.51367 -7.67578,-9.51367 l -12.3711,-11.81055 c 0,0 -24.7436,-5.32617 -26.87695,-5.32617 z m 759.92379,1.41797 -9.0996,1.35352 4.5489,13.19726 v -8.46289 c 0,-2.36935 4.5507,-6.08789 4.5507,-6.08789 z m -14.789,6.43164 -3.7871,6.42188 -1.5176,6.43359 6.4433,-6.0918 z m 25.7793,2.36719 -12.1309,0.32812 c 0,0 2.6492,6.09414 3.0332,8.13282 0.38,2.02801 -4.168,11.84179 -4.168,11.84179 0,0 6.4417,7.10209 9.0977,9.46875 2.6493,2.372 18.5742,27.42188 18.5742,27.42188 0,0 -4.166,-17.26198 -4.166,-19.97266 0,-2.70935 -0.7676,-12.52344 -0.7676,-12.52344 0,0 -7.5798,-15.56274 -10.2265,-16.58007 -2.656,-1.01469 0.7539,-8.11719 0.7539,-8.11719 z m -1638.31643,0.9082 c 0,0 -6.5177,0.55979 -11.48438,0.83984 -4.96267,0.26801 -12.41036,0.82827 -10.23437,1.65626 2.16665,0.83598 13.95898,1.93359 13.95898,1.93359 h 11.17188 c 4.65198,0 20.4746,6.92773 20.4746,6.92773 l -18.92968,-10.24804 z m 764.01367,4.72852 c -0.39516,0 -1.07507,0.32806 -1.86524,0.81054 z m -1.86524,0.81054 -9.61523,4.17383 h 4.03125 c 0,0 3.27339,-2.76297 5.58398,-4.17383 z m -169.39453,0.56446 c 0,0 -18.615924,3.04965 -26.058592,5.54297 -7.450666,2.49067 -11.173191,3.87832 -25.755859,4.98632 -14.58,1.10533 -25.751173,8.86295 -34.128907,11.07227 -8.376534,2.22531 -24.5075342,9.14379 -37.230468,11.0918 -12.716668,1.92933 -21.716492,8.30043 -34.746094,13.28711 -13.032401,4.98531 -48.396484,18.2832 -48.396484,18.2832 0,0 26.681655,-3.05093 31.02539,-3.87891 4.339998,-0.83603 14.269532,-1.38476 14.269532,-1.38476 0,0 10.548511,-2.49287 12.412109,-3.88086 1.859868,-1.38403 8.685547,-10.80469 8.685547,-10.80469 0,0 14.890167,-1.10937 18.615234,-1.10937 3.7186671,0 14.2714845,-4.14454 14.2714845,-4.14454 0,0 7.7520746,2.21373 10.5468755,2.76172 2.792266,0.56002 20.787545,-0.26947 34.435546,-0.82812 13.654666,-0.55733 14.589844,-2.77344 14.589844,-2.77344 l -25.445312,-4.14648 c 0,0 26.06356,-9.97993 28.851562,-11.36524 2.791998,-1.37601 9.930397,-3.58517 11.789063,-3.86523 1.861334,-0.27999 12.726497,0.28027 26.062499,1.93359 13.34134,1.66401 22.33789,4.70508 22.33789,4.70508 0,0 -15.51038,-8.02255 -19.23437,-8.86524 -3.72267,-0.82393 -20.476566,0.28125 -20.476566,0.28125 0,0 5.586042,-3.03984 10.859375,-5.5332 5.274671,-2.50397 10.854031,-10.24793 12.720701,-11.36523 z m 151.47266,0.0918 c -0.77088,-6.9e-4 -1.5481,0.0492 -2.2461,0.18555 -2.79066,0.56001 -4.34021,1.66474 -6.82421,3.05274 -2.47867,1.38534 -10.85949,3.87838 -12.41016,4.42773 -1.55067,0.55733 -5.89649,1.94336 -5.89648,1.94336 0,0 -15.201,-1.66807 -17.98633,-1.10938 -2.8,0.552 -18.61914,1.9375 -18.61914,1.9375 l -9.92774,1.38477 -16.13476,0.28125 c 0,0 10.54956,2.77071 12.10156,1.66406 1.552,-1.12002 13.33984,-1.66406 13.33984,-1.66406 0,0 18.61464,-1.9375 20.16797,-1.9375 1.552,0 18.30371,3.04097 19.23438,1.37695 0.93066,-1.65464 15.51109,-5.26378 17.37109,-6.09179 1.864,-0.82799 2.79346,-1.93374 4.9668,-2.76172 2.16933,-0.84 7.44531,-2.22266 7.44531,-2.22266 0,0 -2.26941,-0.46471 -4.58203,-0.4668 z m -843.89844,8.69922 c -2.13332,0 -26.875,5.32617 -26.875,5.32617 l -12.37305,11.81055 c 0,0 -3.41248,7.2303 -7.67382,9.51563 -4.27068,2.28533 -12.80079,11.04296 -12.80079,11.04296 0,0 -5.54572,12.18061 -6.40039,14.08594 -0.85069,1.90402 -9.38086,15.61719 -9.38086,15.61719 0,0 17.06271,-12.56765 23.88672,-17.90234 6.82798,-5.328 8.95718,-11.41761 15.78516,-14.84961 6.82401,-3.42399 17.49023,-12.1836 17.49023,-12.1836 l -4.69921,-8.375 c 0,0 4.70038,2.66634 8.53906,4.57032 3.83735,1.90132 7.25,-2.66993 7.25,-2.66993 l 4.69336,-2.28515 v -6.85742 z m -759.92379,1.41797 c 0,0 4.5527,3.72051 4.5527,6.08984 v 8.46094 l 4.5469,-13.19531 z m 14.789,6.43164 -1.1367,6.76367 6.4434,6.0918 -1.5196,-6.43359 z m -25.7773,2.36914 c 0,0 3.4079,7.10254 0.7519,8.11719 -2.6466,1.01734 -10.2265,16.57813 -10.2265,16.57813 0,0 -0.7657,9.81412 -0.7657,12.52343 0,2.71068 -4.1679,19.97266 -4.1679,19.97266 0,0 15.9268,-25.04793 18.5762,-27.41992 2.6558,-2.36667 9.0957,-9.46875 9.0957,-9.46875 0,0 -4.548,-9.81577 -4.168,-11.84375 0.384,-2.03868 3.0332,-8.13086 3.0332,-8.13086 z m 874.30272,5.63477 1.86132,0.80859 c -0.78923,-0.48174 -1.46653,-0.80859 -1.86132,-0.80859 z m 1.86132,0.80859 c 2.31072,1.41046 5.58594,4.17774 5.58594,4.17774 h 4.03125 z m 17.92578,0.6582 c -2.31261,0.002 -4.58203,0.4668 -4.58203,0.4668 0,0 5.27403,1.38461 7.44336,2.22461 2.17334,0.82802 3.10473,1.9337 4.96875,2.76172 1.85998,0.82798 16.43847,4.43712 17.36914,6.0918 0.93067,1.66397 17.68434,-1.37696 19.23633,-1.37696 1.55335,0 20.16797,1.93555 20.16797,1.93555 0,0 11.78587,0.54408 13.33789,1.66406 1.55199,1.10669 12.10352,-1.66406 12.10352,-1.66406 l -16.13672,-0.28125 -9.92774,-1.38281 c 0,0 -15.81915,-1.3855 -18.61914,-1.9375 -2.78532,-0.55869 -17.98633,1.10742 -17.98633,1.10742 0,0 -4.34581,-1.38603 -5.89648,-1.94336 -1.55066,-0.54932 -9.92951,-3.04239 -12.4082,-4.42773 -2.48398,-1.388 -4.03548,-2.49081 -6.82617,-3.05079 -0.69801,-0.1363 -1.47327,-0.18818 -2.24415,-0.1875 z m 1681.16598,2.74415 -3.8105,4.40234 c 0,0 -0.3702,2.70247 1.1484,6.0918 1.5134,3.38267 9.8575,11.50195 9.8575,11.50195 0,0 -3.4123,-7.10734 -3.795,-8.80469 -0.3706,-1.684 -2.2765,-7.09171 -0.7539,-8.78906 1.508,-1.69599 -2.6465,-4.40234 -2.6465,-4.40234 z M 83.845703,554.41211 c -1.395608,-0.14144 -2.824219,6.79567 -2.824219,8.00781 0,1.388 5.277344,-2.21289 5.277344,-2.21289 l 2.482422,10.79492 0.619141,-11.35351 6.517578,4.16015 -4.341797,-7.20117 c 0,0 -5.586673,1.10928 -7.138672,-1.66406 -0.193834,-0.3465 -0.392424,-0.51104 -0.591797,-0.53125 z M -262.625,564.77344 c -0.19937,0.0202 -0.39796,0.18475 -0.5918,0.53125 -1.552,2.77334 -7.13867,1.66601 -7.13867,1.66601 l -4.34375,7.19922 6.51953,-4.1582 0.61719,11.35351 2.48438,-10.79492 c 0,0 5.27539,3.60089 5.27539,2.21289 0,-1.21218 -1.42666,-8.15121 -2.82227,-8.00976 z m -1158.4316,2.94336 c 0,0 -4.1545,2.70827 -2.6465,4.40429 1.5226,1.69731 -0.3813,7.10506 -0.752,8.78907 -0.3827,1.69731 -3.7949,8.80273 -3.7949,8.80273 0,0 8.3441,-8.11736 9.8574,-11.5 1.5187,-3.38933 1.1465,-6.0918 1.1465,-6.0918 z m 1536.85738,23.33984 -25.816405,26.30664 25.574215,-22.82226 c 0,0 -5.27336,7.48451 -7.45312,10.48242 2.44332,-2.74962 8.66992,-8.31055 8.66992,-8.31055 l 6.82031,3.47461 c -1.21467,-0.86801 -6.33007,-7.38281 -6.33008,-7.38281 z m -7.69531,13.9668 c -0.37173,0.41832 -0.66738,0.77882 -0.82813,1.03711 -0.30885,0.49715 0.086,-0.0164 0.82813,-1.03711 z"
       transform="scale(0.26458333)"
       id="path159283"
       inkscape:connector-curvature="0"
       inkscape:label="neve" />
  </g>
</svg>
