<?xml version="1.0" encoding="UTF-8" standalone="no"?>
<!-- Created with Inkscape (http://www.inkscape.org/) -->

<svg
   xmlns:dc="http://purl.org/dc/elements/1.1/"
   xmlns:cc="http://creativecommons.org/ns#"
   xmlns:rdf="http://www.w3.org/1999/02/22-rdf-syntax-ns#"
   xmlns:svg="http://www.w3.org/2000/svg"
   xmlns="http://www.w3.org/2000/svg"
   xmlns:sodipodi="http://sodipodi.sourceforge.net/DTD/sodipodi-0.dtd"
   xmlns:inkscape="http://www.inkscape.org/namespaces/inkscape"
   width="289.46994mm"
   height="271.46326mm"
   viewBox="0 0 289.46994 271.46326"
   version="1.1"
   id="svg118042"
   inkscape:version="0.92.4 (5da689c313, 2019-01-14)"
   sodipodi:docname="mi_sole_aquile.svg">
  <defs
     id="defs118036">
    <linearGradient
       id="linearGradient158806"
       spreadMethod="pad"
       gradientTransform="matrix(0,-381.57734,440.76418,0,-27.125545,253.26173)"
       gradientUnits="userSpaceOnUse"
       y2="0"
       x2="1"
       y1="-6.9388939e-18"
       x1="-1.110223e-16">
      <stop
         id="stop158800"
         offset="0"
         style="stop-opacity:1;stop-color:#f3eb26" />
      <stop
         id="stop158802"
         offset="0.7727133"
         style="stop-opacity:1;stop-color:#d54b36" />
      <stop
         id="stop158804"
         offset="1"
         style="stop-opacity:1;stop-color:#d54b36" />
    </linearGradient>
    <clipPath
       id="clipPath158834"
       clipPathUnits="userSpaceOnUse">
      <path
         inkscape:connector-curvature="0"
         id="path158832"
         d="m 6027.98,5295.83 c -23.2,0.98 -46.25,2.42 -69.17,4.34 v 0 c 22.93,-1.91 45.97,-3.36 69.17,-4.33 0,-0.01 0,0 0,-0.01" />
    </clipPath>
    <radialGradient
       id="radialGradient158842"
       spreadMethod="pad"
       gradientTransform="matrix(1556.2,0,0,-1457.58,6098.88,6752.05)"
       gradientUnits="userSpaceOnUse"
       r="1"
       cy="0"
       cx="0"
       fy="0"
       fx="0">
      <stop
         id="stop158836"
         offset="0"
         style="stop-opacity:1;stop-color:#efd400" />
      <stop
         id="stop158838"
         offset="0.152416"
         style="stop-opacity:1;stop-color:#efd400" />
      <stop
         id="stop158840"
         offset="1"
         style="stop-opacity:1;stop-color:#cb6f00" />
    </radialGradient>
    <clipPath
       id="clipPath158852"
       clipPathUnits="userSpaceOnUse">
      <path
         inkscape:connector-curvature="0"
         id="path158850"
         d="m 5475.77,5415.89 c -549.35,225.13 -932.95,738.85 -932.95,1336.36 v 0 c 0,-597.5 383.61,-1111.23 932.96,-1336.36 h -0.01" />
    </clipPath>
    <radialGradient
       id="radialGradient158860"
       spreadMethod="pad"
       gradientTransform="matrix(1556.2,0,0,-1457.58,6098.88,6752.05)"
       gradientUnits="userSpaceOnUse"
       r="1"
       cy="0"
       cx="0"
       fy="0"
       fx="0">
      <stop
         id="stop158854"
         offset="0"
         style="stop-opacity:1;stop-color:#fbf92c" />
      <stop
         id="stop158856"
         offset="0.152416"
         style="stop-opacity:1;stop-color:#fbf92c" />
      <stop
         id="stop158858"
         offset="1"
         style="stop-opacity:1;stop-color:#f3eb26" />
    </radialGradient>
    <clipPath
       id="clipPath158870"
       clipPathUnits="userSpaceOnUse">
      <path
         inkscape:connector-curvature="0"
         id="path158868"
         d="m 5918.05,5304.08 c -118.02,12.79 -232.01,37.94 -340.45,74.05 v 0 c 108.44,-36.1 222.43,-61.25 340.45,-74.05 0,0 0,0.01 0,0 m -400.94,95.53 c -13.89,5.25 -27.65,10.67 -41.34,16.28 h 0.01 c 13.68,-5.61 27.45,-11.03 41.34,-16.27 l -0.01,-0.01" />
    </clipPath>
    <radialGradient
       id="radialGradient158878"
       spreadMethod="pad"
       gradientTransform="matrix(1556.2,0,0,-1457.58,6098.88,6752.05)"
       gradientUnits="userSpaceOnUse"
       r="1"
       cy="0"
       cx="0"
       fy="0"
       fx="0">
      <stop
         id="stop158872"
         offset="0"
         style="stop-opacity:1;stop-color:#efd400" />
      <stop
         id="stop158874"
         offset="0.152416"
         style="stop-opacity:1;stop-color:#efd400" />
      <stop
         id="stop158876"
         offset="1"
         style="stop-opacity:1;stop-color:#cb6f00" />
    </radialGradient>
    <clipPath
       id="clipPath158888"
       clipPathUnits="userSpaceOnUse">
      <path
         inkscape:connector-curvature="0"
         id="path158886"
         d="m 5577.6,5378.13 c -20.34,6.77 -40.55,13.95 -60.49,21.48 l 0.01,0.01 c 19.94,-7.54 40.14,-14.71 60.48,-21.49 v 0" />
    </clipPath>
    <radialGradient
       id="radialGradient158896"
       spreadMethod="pad"
       gradientTransform="matrix(1556.2,0,0,-1457.58,6098.88,6752.05)"
       gradientUnits="userSpaceOnUse"
       r="1"
       cy="0"
       cx="0"
       fy="0"
       fx="0">
      <stop
         id="stop158890"
         offset="0"
         style="stop-opacity:1;stop-color:#faf131" />
      <stop
         id="stop158892"
         offset="0.152416"
         style="stop-opacity:1;stop-color:#faf131" />
      <stop
         id="stop158894"
         offset="1"
         style="stop-opacity:1;stop-color:#eecf2b" />
    </radialGradient>
    <clipPath
       id="clipPath158906"
       clipPathUnits="userSpaceOnUse">
      <path
         inkscape:connector-curvature="0"
         id="path158904"
         d="m 7630.23,6492.04 v 0 c 16.24,84.46 24.71,171.38 24.71,260.21 v 0 c 0,-88.84 -8.47,-175.75 -24.71,-260.21" />
    </clipPath>
    <clipPath
       id="clipPath158918"
       clipPathUnits="userSpaceOnUse">
      <path
         inkscape:connector-curvature="0"
         id="path158916"
         d="m 6995.34,5560.39 v 0 c 327.11,216.35 561.1,547.96 634.89,931.65 v 0 c -73.79,-383.69 -307.78,-715.3 -634.89,-931.65" />
    </clipPath>
    <radialGradient
       id="radialGradient158926"
       spreadMethod="pad"
       gradientTransform="matrix(1556.2,0,0,-1457.58,6098.88,6752.05)"
       gradientUnits="userSpaceOnUse"
       r="1"
       cy="0"
       cx="0"
       fy="0"
       fx="0">
      <stop
         id="stop158920"
         offset="0"
         style="stop-opacity:1;stop-color:#fbf92c" />
      <stop
         id="stop158922"
         offset="0.152416"
         style="stop-opacity:1;stop-color:#fbf92c" />
      <stop
         id="stop158924"
         offset="1"
         style="stop-opacity:1;stop-color:#f3eb26" />
    </radialGradient>
    <clipPath
       id="clipPath158936"
       clipPathUnits="userSpaceOnUse">
      <path
         inkscape:connector-curvature="0"
         id="path158934"
         d="m 6098.89,5294.35 c -23.78,0 -47.4,0.49 -70.91,1.48 0,0.01 0,0 0,0.01 23.52,-0.99 47.13,-1.49 70.91,-1.49 333.86,0 643.09,98.47 896.45,266.04 v 0 c -253.35,-167.57 -562.59,-266.04 -896.45,-266.04 m -140.08,5.82 c -13.64,1.14 -27.22,2.44 -40.76,3.91 0,0.01 0,0 0,0 13.54,-1.46 27.12,-2.77 40.76,-3.91 v 0" />
    </clipPath>
    <radialGradient
       id="radialGradient158944"
       spreadMethod="pad"
       gradientTransform="matrix(1556.2,0,0,-1457.58,6098.88,6752.05)"
       gradientUnits="userSpaceOnUse"
       r="1"
       cy="0"
       cx="0"
       fy="0"
       fx="0">
      <stop
         id="stop158938"
         offset="0"
         style="stop-opacity:1;stop-color:#c5340f" />
      <stop
         id="stop158940"
         offset="0.152416"
         style="stop-opacity:1;stop-color:#c5340f" />
      <stop
         id="stop158942"
         offset="1"
         style="stop-opacity:1;stop-color:#3f170d" />
    </radialGradient>
    <clipPath
       id="clipPath158954"
       clipPathUnits="userSpaceOnUse">
      <path
         inkscape:connector-curvature="0"
         id="path158952"
         d="m 6027.98,5295.84 c -23.2,0.97 -46.24,2.42 -69.17,4.33 59.42,78.46 115.32,138.53 153.92,160.45 -3.37,-15.47 -7.31,-29.74 -11.93,-41.75 -16.41,-42.96 -44.5,-73.92 -72.82,-123.03" />
    </clipPath>
    <clipPath
       id="clipPath158966"
       clipPathUnits="userSpaceOnUse">
      <path
         inkscape:connector-curvature="0"
         id="path158964"
         d="m 7630.23,6492.04 c -382.07,726.47 -1144.2,1221.95 -2022,1221.95 -280.36,0 -548.9,-50.54 -797.05,-143 279.9,385.59 752.05,638.77 1287.71,638.77 859.78,0 1556.05,-652.41 1556.05,-1457.51 0,-88.83 -8.47,-175.75 -24.71,-260.21" />
    </clipPath>
    <clipPath
       id="clipPath158978"
       clipPathUnits="userSpaceOnUse">
      <path
         inkscape:connector-curvature="0"
         id="path158976"
         d="m 5475.78,5415.89 c -549.35,225.13 -932.96,738.86 -932.96,1336.36 0,303.53 98.98,585.39 268.36,818.74 248.15,92.46 516.69,143 797.05,143 877.8,0 1639.93,-495.48 2022,-1221.95 -73.79,-383.69 -307.78,-715.3 -634.89,-931.65 -62.02,31.8 -106.3,45.9 -106.3,45.9 l 47.08,87.87 -36.11,29.87 c 0,0 76.88,172.56 83.15,189.83 6.27,17.28 -3.11,50.24 -3.11,50.24 0,0 15.69,12.55 23.53,18.77 7.86,6.31 -9.33,25.16 0.04,83.21 9.4,58.04 -14.11,65.85 -14.11,81.55 0,15.69 10.96,40.84 9.38,65.92 -1.53,25.09 -12.53,169.49 -17.22,192.24 -4.74,22.75 8.59,28.23 0.74,40.77 -7.8,12.62 -18.81,11.79 -17.23,34.54 1.55,22.75 3.9,33.72 3.9,38.45 0,4.73 -5.48,15.69 -5.48,15.69 0,0 -21.95,32.97 -46.29,63.52 -24.27,30.64 -57.24,24.34 -76.84,41.61 -19.63,17.27 -147.46,60.39 -155.3,76.88 -7.86,16.48 -4.69,28.23 -6.27,33.73 -1.59,5.5 -63.03,47.21 -63.03,47.21 0,0 13.36,21.22 17.29,40.81 3.91,19.62 5.08,24.71 5.08,24.71 0,0 5.42,-0.93 13.85,-0.93 14.13,0 36.73,2.62 56.39,16.62 31.33,22.38 101.17,95.73 102.34,104.76 1.2,9.02 34.64,61.2 -9.28,98.85 -10.34,8.86 -23.81,12.25 -38.36,12.25 -47.3,0 -106.02,-35.79 -106.02,-35.79 0,0 -18.81,127.13 -35.29,147.52 -16.48,20.39 -45.46,25.51 -63.52,48.25 -9.88,12.44 -20.1,19.37 -35.23,19.37 -12.54,0 -28.43,-4.75 -50.29,-15.06 -48.24,-22.77 -78.47,-39.23 -95.31,-40.4 -16.86,-1.18 -8.64,-44.73 -14.53,-80.44 -5.86,-35.69 -5.48,-56.86 -5.48,-56.86 0,0 -56.7,32.38 -107.76,32.38 -24.55,0 -47.8,-7.48 -62.83,-29.64 -46.29,-68.26 45.49,-176.54 94.1,-221.26 31.88,-29.29 71.83,-34.34 95.59,-34.34 12.52,0 20.54,1.4 20.54,1.4 l 3.9,-21.98 c 0,0 -30.52,-7.83 -33.63,-21.18 -3.15,-13.33 -7.11,-59.62 -7.11,-59.62 0,0 -61.14,-50.24 -109,-90.24 -47.87,-40.03 -71.41,-32.14 -88.68,-43.93 -17.23,-11.79 -66.63,-41.6 -77.64,-65.93 -11,-24.26 -8.56,-137.27 -8.56,-137.27 0,0 -32.95,33.72 -54.12,48.58 -16.14,11.39 -30,12.75 -35.69,12.75 -1.78,0 -2.76,-0.13 -2.76,-0.13 0,0 25.87,-22 35.29,-73.81 9.42,-51.74 -7.06,-99.65 6.3,-133.36 13.3,-33.72 33.71,-57.3 33.71,-57.3 0,0 3.91,-115.26 2.37,-162.34 -1.58,-47.08 -10.17,-22.01 -14.9,-114.6 -4.73,-92.58 42.34,-106.7 54.88,-145.14 12.57,-38.45 32.17,-62.78 32.17,-62.78 0,0 0,-55 -4.85,-119.59 l -254.75,-47.64 c -18.82,-2.25 -166.68,-19.86 -183.38,-22.81 -13.42,-2.48 -38.86,-13.41 -65.25,-24.67 -22.17,-9.54 -45.15,-19.38 -54.59,-21.87 l -0.07,0.16 h -0.11 c -10.33,-2.64 -48.43,-23.02 -94.9,-49.8" />
    </clipPath>
    <clipPath
       id="clipPath158990"
       clipPathUnits="userSpaceOnUse">
      <path
         inkscape:connector-curvature="0"
         id="path158988"
         d="m 5918.05,5304.08 c -118.02,12.8 -232.01,37.95 -340.45,74.05 -0.49,19.66 -1.04,39.05 -1.43,52.8 -10.59,-4.48 -32.13,-16.01 -59.05,-31.31 -13.89,5.24 -27.66,10.66 -41.34,16.27 46.47,26.78 84.57,47.16 94.9,49.8 h 0.11 l 0.07,-0.16 c 9.44,2.49 32.42,12.33 54.59,21.87 26.39,11.26 51.83,22.19 65.25,24.67 16.7,2.95 164.56,20.56 183.38,22.81 l 254.75,47.64 c -1.97,-26.33 -4.75,-54.24 -8.67,-80.68 -5.21,-1.5 -10.77,-3.6 -16.51,-6.38 -46.12,-22.28 -114.9,-96.01 -185.6,-191.38" />
    </clipPath>
    <clipPath
       id="clipPath159002"
       clipPathUnits="userSpaceOnUse">
      <path
         inkscape:connector-curvature="0"
         id="path159000"
         d="m 5577.6,5378.13 c -20.34,6.78 -40.54,13.95 -60.48,21.49 26.92,15.3 48.46,26.83 59.05,31.31 0.39,-13.75 0.94,-33.14 1.43,-52.8" />
    </clipPath>
    <clipPath
       id="clipPath159014"
       clipPathUnits="userSpaceOnUse">
      <path
         inkscape:connector-curvature="0"
         id="path159012"
         d="m 6098.89,5294.35 c -23.78,0 -47.39,0.5 -70.91,1.49 28.32,49.11 56.41,80.07 72.82,123.03 4.62,12.01 8.56,26.28 11.93,41.75 -38.6,-21.92 -94.5,-81.99 -153.92,-160.45 -13.64,1.14 -27.22,2.45 -40.76,3.91 70.7,95.37 139.48,169.1 185.6,191.38 5.74,2.78 11.3,4.88 16.51,6.38 3.92,26.44 6.7,54.35 8.67,80.68 4.85,64.59 4.85,119.59 4.85,119.59 0,0 -19.6,24.33 -32.17,62.78 -12.54,38.44 -59.61,52.56 -54.88,145.14 4.73,92.59 13.32,67.52 14.9,114.6 1.54,47.08 -2.37,162.34 -2.37,162.34 0,0 -20.41,23.58 -33.71,57.3 -13.36,33.71 3.12,81.62 -6.3,133.36 -9.42,51.81 -35.29,73.81 -35.29,73.81 0,0 0.98,0.13 2.76,0.13 5.69,0 19.55,-1.36 35.69,-12.75 21.17,-14.86 54.12,-48.58 54.12,-48.58 0,0 -2.44,113.01 8.56,137.27 11.01,24.33 60.41,54.14 77.64,65.93 17.27,11.79 40.81,3.9 88.68,43.93 47.86,40 109,90.24 109,90.24 0,0 3.96,46.29 7.11,59.62 3.11,13.35 33.63,21.18 33.63,21.18 l -3.9,21.98 c 0,0 -8.02,-1.4 -20.54,-1.4 -23.76,0 -63.71,5.05 -95.59,34.34 -48.61,44.72 -140.39,153 -94.1,221.26 15.03,22.16 38.28,29.64 62.83,29.64 51.06,0 107.76,-32.38 107.76,-32.38 0,0 -0.38,21.17 5.48,56.86 5.89,35.71 -2.33,79.26 14.53,80.44 16.84,1.17 47.07,17.63 95.31,40.4 21.86,10.31 37.75,15.06 50.29,15.06 15.13,0 25.35,-6.93 35.23,-19.37 18.06,-22.74 47.04,-27.86 63.52,-48.25 16.48,-20.39 35.29,-147.52 35.29,-147.52 0,0 58.72,35.79 106.02,35.79 14.55,0 28.02,-3.39 38.36,-12.25 43.92,-37.65 10.48,-89.83 9.28,-98.85 -1.17,-9.03 -71.01,-82.38 -102.34,-104.76 -19.66,-14 -42.26,-16.62 -56.39,-16.62 -8.43,0 -13.85,0.93 -13.85,0.93 0,0 -1.17,-5.09 -5.08,-24.71 -3.93,-19.59 -17.29,-40.81 -17.29,-40.81 0,0 61.44,-41.71 63.03,-47.21 1.58,-5.5 -1.59,-17.25 6.27,-33.73 7.84,-16.49 135.67,-59.61 155.3,-76.88 19.6,-17.27 52.57,-10.97 76.84,-41.61 24.34,-30.55 46.29,-63.52 46.29,-63.52 0,0 5.48,-10.96 5.48,-15.69 0,-4.73 -2.35,-15.7 -3.9,-38.45 -1.58,-22.75 9.43,-21.92 17.23,-34.54 7.85,-12.54 -5.48,-18.02 -0.74,-40.77 4.69,-22.75 15.69,-167.15 17.22,-192.24 1.58,-25.08 -9.38,-50.23 -9.38,-65.92 0,-15.7 23.51,-23.51 14.11,-81.55 -9.37,-58.05 7.82,-76.9 -0.04,-83.21 -7.84,-6.22 -23.53,-18.77 -23.53,-18.77 0,0 9.38,-32.96 3.11,-50.24 -6.27,-17.27 -83.15,-189.83 -83.15,-189.83 l 36.11,-29.87 -47.08,-87.87 c 0,0 44.28,-14.1 106.3,-45.9 -253.36,-167.57 -562.59,-266.04 -896.45,-266.04" />
    </clipPath>
    <linearGradient
       id="linearGradient5534">
      <stop
         id="stop5536"
         offset="0"
         style="stop-color:#e5b700;stop-opacity:1;" />
      <stop
         style="stop-color:#e5b700;stop-opacity:1;"
         offset="0.12500009"
         id="stop5538" />
      <stop
         id="stop5540"
         offset="0.43333337"
         style="stop-color:#ffdd1e;stop-opacity:1;" />
      <stop
         style="stop-color:#ffffff;stop-opacity:1;"
         offset="0.56666666"
         id="stop5542" />
      <stop
         id="stop5544"
         offset="0.6785714"
         style="stop-color:#ffdd1e;stop-opacity:1;" />
      <stop
         id="stop5546"
         offset="0.87499994"
         style="stop-color:#ffe345;stop-opacity:1;" />
      <stop
         style="stop-color:#fff0bc;stop-opacity:1;"
         offset="1"
         id="stop5548" />
    </linearGradient>
    <filter
       inkscape:collect="always"
       style="color-interpolation-filters:sRGB"
       id="filter169177"
       x="-0.012"
       width="1.024"
       y="-0.012"
       height="1.024">
      <feGaussianBlur
         inkscape:collect="always"
         stdDeviation="1.0499588"
         id="feGaussianBlur169179" />
    </filter>
  </defs>
  <sodipodi:namedview
     id="base"
     pagecolor="#ffffff"
     bordercolor="#666666"
     borderopacity="1.0"
     inkscape:pageopacity="0.0"
     inkscape:pageshadow="2"
     inkscape:zoom="0.31376176"
     inkscape:cx="767.80677"
     inkscape:cy="62.270973"
     inkscape:document-units="mm"
     inkscape:current-layer="layer4"
     showgrid="true"
     inkscape:window-width="1699"
     inkscape:window-height="1056"
     inkscape:window-x="129"
     inkscape:window-y="0"
     inkscape:window-maximized="1"
     objecttolerance="3"
     fit-margin-top="0"
     fit-margin-left="0"
     fit-margin-right="0"
     fit-margin-bottom="0">
    <inkscape:grid
       type="xygrid"
       id="grid160163"
       originx="-35.521092"
       originy="-52.913708" />
  </sodipodi:namedview>
  <metadata
     id="metadata118039">
    <rdf:RDF>
      <cc:Work
         rdf:about="">
        <dc:format>image/svg+xml</dc:format>
        <dc:type
           rdf:resource="http://purl.org/dc/dcmitype/StillImage" />
        <dc:title></dc:title>
      </cc:Work>
    </rdf:RDF>
  </metadata>
  <g
     inkscape:groupmode="layer"
     id="layer4"
     inkscape:label="Layer 2"
     style="display:inline"
     transform="translate(-35.521091,27.376907)">
    <path
       inkscape:connector-curvature="0"
       id="path158810"
       style="display:inline;fill:#f3eb26;fill-opacity:1;fill-rule:evenodd;stroke:none;stroke-width:0.03527778;filter:url(#filter169177)"
       d="m 143.03596,-24.857006 c 57.98812,0 104.9968,47.011444 104.9968,104.997726 0,57.98582 -47.00868,104.99404 -104.9968,104.99404 -57.986739,0 -104.994968,-47.00822 -104.994968,-104.99404 0,-57.986282 47.008229,-104.997726 104.994968,-104.997726"
       inkscape:label="sole" />
    <path
       inkscape:connector-curvature="0"
       id="path158824"
       style="display:inline;fill:#cb6f00;fill-opacity:1;fill-rule:evenodd;stroke:none;stroke-width:0.03527778"
       d="m 97.50483,59.633514 c 0,0 0.328083,0.656872 0.07796,1.000478 -0.25012,0.344311 -0.265642,0.437797 -0.265642,0.437797 l -0.25788,0.43815 c 0,0 0.08608,0.09384 0.750358,-0.132997 0.664633,-0.226836 0.687917,-0.414514 1.25095,-0.437798 0.563033,-0.02328 0.789517,-0.258233 1.305634,-0.23495 0.51576,0.02399 0.95391,-0.122766 0.95391,-0.122766 0,0 -1.16522,-0.635 -1.329622,-0.838553 -0.163689,-0.2032 -0.264936,-0.382764 -0.264936,-0.382764 0,0 1.586448,-0.602192 2.548118,-1.055511 0.96167,-0.453672 1.26612,-0.195086 2.18123,-0.453672 0.91475,-0.257528 2.18898,-0.45332 3.35421,-0.375003 1.16416,0.07796 2.06339,0.414161 2.06339,0.414161 0,0 -0.86783,-0.570795 -0.92251,-0.58667 -0.0543,-0.01552 0.58632,0.04692 1.149,0.211314 0.56338,0.164395 0.89958,-0.0078 0.89958,-0.0078 0,0 -0.88335,-0.148166 -1.21214,-0.312561 -0.32809,-0.164394 -0.96908,-0.219075 -0.96908,-0.219075 0,0 0.77399,-0.1016 1.31374,0 0.53904,0.1016 0.86748,-0.04516 0.86748,-0.04516 0,0 -0.59408,-0.103364 -0.85196,-0.165806 -0.25823,-0.0628 -0.91475,0 -1.04034,0 -0.12488,0 -0.35948,-0.02787 -0.35948,-0.02787 0,0 0.59408,-0.159808 1.07139,-0.198966 0.4766,-0.03881 0.89111,0 0.89111,0 0,0 -0.42192,-0.125236 -0.71931,-0.179917 -0.29704,-0.05468 -1.14124,0.09384 -1.2506,0.1016 -0.10971,0.0081 0.26529,0 -0.11818,0.0081 -0.38206,0.0074 -0.90629,-0.121708 -1.01529,-0.121708 -0.10972,0 -0.21908,0 -0.21908,0 0,0 -1.08655,0 -1.27423,0 -0.18839,0 -0.76624,-0.179211 -1.08656,-0.08961 -0.32103,0.08961 -1.9311,-0.1016 -3.34609,0.273756 -1.41535,0.375003 -1.954398,0.969433 -2.228153,1.055158 -0.273756,0.08608 -1.04775,-0.132644 -1.641828,0.09419 -0.594431,0.226483 -0.750711,0.320322 -0.750711,0.320322 0,0 -0.899231,-0.288925 -2.759428,0 -1.860551,0.289278 -2.157589,0.315031 -3.15842,0.880533 -1.001183,0.565856 -1.907822,0.753534 -2.079978,0.83185 -0.17145,0.07761 -0.124531,0.09313 -0.234244,0.125237 -0.109362,0.03069 -1.09467,0.218369 -1.09467,0.218369 0,0 -0.01517,0.117475 -0.6096,0.218722 -0.594078,0.101953 -0.848431,0.09419 -0.848431,0.09419 0,0 0.289278,0.160161 0.875948,0.08573 0.586316,-0.07408 0.824794,-0.113242 0.824794,-0.113242 0,0 -0.777875,0.386998 -1.172633,0.500239 -0.395111,0.113242 -0.735189,0.191559 -0.735189,0.191559 0,0 0.708025,0.0508 1.160992,-0.105834 0.453319,-0.155928 0.516113,-0.195086 0.516113,-0.195086 0,0 -0.777875,0.410633 -1.040341,0.69215 -0.261409,0.281164 -0.32385,0.476603 -0.32385,0.476603 0,0 0.422275,-0.426156 0.930275,-0.730956 0.508,-0.3048 1.090789,-0.527755 1.090789,-0.527755 0,0 -0.297039,0.285044 -0.821267,0.6096 -0.523875,0.324555 -0.613481,0.707672 -0.613481,0.707672 0,0 0.3556,-0.351719 0.777875,-0.578556 0.422276,-0.226483 0.355953,-0.195438 0.442031,-0.230716 0.08573,-0.03457 0.527403,-0.288925 0.527403,-0.288925 0,0 -0.187678,0.378883 -0.590197,0.578203 -0.40252,0.199672 -0.555273,0.59443 -0.567267,0.633588 -0.01129,0.03881 0.446264,-0.43815 0.844903,-0.512233 0.398639,-0.07444 0.883003,-0.6096 1.289755,-0.754239 0.4064,-0.144991 2.321984,-0.449439 3.088217,-0.856192 0.765881,-0.406752 2.267303,-0.687916 2.845506,-0.547158 0.578203,0.140406 0.437797,0.140406 0.578203,0.156281 0.141111,0.01552 0.969786,0.312561 1.30175,0.07444"
       inkscape:label="aquila1" />
    <path
       inkscape:connector-curvature="0"
       id="path158822"
       style="display:inline;fill:#cb6f00;fill-opacity:1;fill-rule:evenodd;stroke:none;stroke-width:0.03527778"
       d="m 46.134385,82.484689 c 0,0 0.136172,0.05468 0.698853,0.6985 0.563033,0.644877 0.915811,0.434269 1.112308,0.603955 0.19685,0.169334 -0.02681,0.257881 0.23107,0.488245 0.25788,0.230716 0.549275,0.271286 0.705555,0.474839 0.155575,0.203552 0.474486,0.101952 0.569736,0.264583 0.09455,0.162983 0.271287,0.434269 0.325614,0.468136 0.05398,0.03387 0.318206,-0.176389 0.610306,-0.746125 0.291747,-0.570089 0.494947,-1.221317 0.834319,-1.241072 0.33902,-0.02081 0.549275,-0.259645 0.929217,0.115005 0.379942,0.37465 0.942975,0.176389 0.983545,0.230717 0.04092,0.05398 0.07479,0.278342 0.339372,0.29845 0.26423,0.02011 0.318558,-0.101953 0.447322,0.02011 0.129117,0.122062 0.448028,0.19685 0.522464,0.189795 0.07479,-0.0067 0.03387,0.277989 0.467783,0.325967 0.434623,0.04727 0.841023,0 0.841023,0.03387 0,0.03351 0.03422,0.271286 0.386644,0.338667 0.352778,0.06809 0.434622,0.0071 0.434622,0.0071 0,0 -0.224013,0.08149 0.182739,0.183092 0.407459,0.101953 0.502356,-0.05397 0.502356,-0.05397 0,0 0.135819,0.33902 0.617361,0.461081 0.481189,0.122061 0.569383,0 0.569383,0 0,0 0.07479,0.15628 0.407459,0.271286 0.332316,0.115358 0.40005,0 0.40005,0 0,0 0.345722,0.569736 0.637822,0.56268 0.291395,-0.0067 0.352072,-0.142169 0.352072,-0.142169 0,0 -0.03387,0.176389 0.482248,0.339372 0.515055,0.162631 0.610305,0.189795 0.610305,0.189795 0,0 0.841022,1.146175 1.044222,0.902052 0.203906,-0.244122 -0.976488,-1.383594 -0.861483,-1.45168 0.115711,-0.06738 0.881945,0.814211 1.431925,1.282347 0.549275,0.467784 0.583142,0.664634 0.576439,0.311856 -0.0071,-0.352425 -1.641828,-1.892653 -1.668992,-1.93287 -0.02716,-0.04092 0.03387,0.03387 -0.02716,-0.05433 -0.06068,-0.08855 -0.05398,-0.108655 0.23742,0.09454 0.2921,0.203905 1.139825,0.983897 1.641475,1.200855 0.502356,0.216959 0.624064,0.1016 0.624064,0.1016 0,0 -2.150181,-1.627716 -2.285647,-1.743075 -0.13582,-0.115358 -0.162984,-0.2032 -0.162984,-0.2032 0,0 0.760236,0.589845 1.478492,0.888295 0.719314,0.29845 1.391003,0.318911 1.391003,0.318911 0,0 -0.576439,-0.251178 -1.268589,-0.637822 -0.691797,-0.386645 -1.464734,-0.807156 -1.464734,-0.807156 0,0 1.193448,0.502003 1.647826,0.522464 0.45473,0.02046 0.644172,-0.122414 0.644172,-0.122414 0,0 -0.433564,-0.09066 -1.057628,-0.249061 -0.624064,-0.157692 -1.248481,-0.415925 -1.668992,-0.605367 -0.420511,-0.190147 -1.09855,-0.576791 -1.817864,-1.010708 -0.718961,-0.43427 -1.763536,-0.739422 -2.685697,-0.963436 -0.922867,-0.223661 -2.347384,-0.5969 -2.7813,-0.664986 -0.43427,-0.06738 -0.420512,-0.135114 -0.461434,-0.06738 -0.04057,0.06738 -0.257528,-0.02858 -0.257528,-0.02858 0,0 0.230364,-0.03916 -0.529166,-0.554919 -0.759884,-0.515409 -1.492603,-0.447675 -1.492603,-0.447675 0,0 -0.50165,-0.827617 -1.573742,-1.275645 -1.071386,-0.447322 -1.600906,-0.962731 -1.600906,-0.962731 0,0 -1.858433,-0.611011 -2.523419,-0.834319 -0.664281,-0.224014 -0.738717,0.108303 -1.274939,-0.414161 -0.53587,-0.522111 -1.098903,-0.678039 -1.098903,-0.678039 0,0 0.23742,0.128764 0.515408,0.40005 0.277989,0.271286 0.277989,0.271286 0.277989,0.271286 0,0 0.180623,0.155928 0.142875,0.142522 -0.03775,-0.01376 -0.352777,-0.142522 -0.936272,-0.407105 -0.583142,-0.264231 -1.566686,-0.671337 -1.566686,-0.671337 0,0 0.40005,0.379942 0.881592,0.603603 0.481894,0.224014 0.644525,0.366184 0.644525,0.366184 0,0 -1.553281,-0.481542 -1.940278,-0.670984 -0.386292,-0.190147 -0.881592,-0.169686 -0.881592,-0.169686 0,0 0.536222,0.257528 0.936272,0.427214 0.400403,0.169686 0.915459,0.291395 0.915459,0.291395 0,0 -1.030817,-0.115359 -1.329267,-0.169687 -0.298803,-0.05398 -0.861483,-0.02681 -0.861483,-0.02681 0,0 0.589844,0.101248 1.061861,0.226836 0.470958,0.125942 0.782814,0.119239 0.782814,0.119239 0,0 -0.752475,0.09455 -1.024114,0.06032 -0.271639,-0.03351 -0.148873,-0.03351 -0.271639,-0.03351 -0.121356,0 -0.589845,0.257881 -0.589845,0.257881 0,0 0.311856,-0.189794 0.719314,-0.0949 0.407106,0.0949 0.874889,0.0949 0.874889,0.0949 l -1.1938,0.115358 c 0,0 0.488597,0.108303 1.017764,0.149225 0.528814,0.04057 0.671336,0.122061 0.833967,0.257881 0.163336,0.135467 0.277989,0.318558 0.719314,0.40005 0.440266,0.08149 0.352777,0.223661 0.617008,0.406753 0.264583,0.183444 0.617361,0.190147 0.664986,0.210255 0.04762,0.02046 0.09454,0.203553 0.277989,0.271639 0.183445,0.06773 0.142522,0.05398 0.196497,0.07444 0.05433,0.02046 0.129117,-0.01376 0.163336,0.02716 0.03351,0.04092 0.1016,0.23742 0.440267,0.278342 0.339372,0.04057 0.441325,0.128411 0.482247,0.189794 0.04057,0.06138 0.277989,0.311856 0.426862,0.291395 0.149225,-0.02011 0.129116,0.06138 0.183444,0.115711 0.05433,0.05398 0.447675,0.264583 0.583142,0.29845 0.135466,0.03351 0.115358,0.182739 0.182739,0.196497 0.06809,0.01341 0.427919,0.07479 0.427919,0.07479 0,0 0.270933,0.406753 0.800453,0.522464 0.529167,0.115006 0.406753,0.03351 0.637117,0.121708 0.230716,0.08855 0.434269,0.298803 0.434269,0.298803 0,0 -1.756481,0.366183 -3.602214,0.386645"
       inkscape:label="aquila2" />
    <path
       inkscape:connector-curvature="0"
       id="path158820"
       style="display:inline;fill:#cb6f00;fill-opacity:1;fill-rule:evenodd;stroke:none;stroke-width:0.03527778"
       d="m 79.292676,47.50713 c 0,0 -0.05715,0.376766 0.129117,0.606072 0.186619,0.229658 0.516819,0.287161 0.559505,0.542219 0.04339,0.254353 0.06138,0.254353 0.06138,0.365478 0,0.111125 -0.0575,0.158045 -0.0575,0.158045 0,0 -0.0039,-0.08643 -0.122061,-0.16122 -0.118534,-0.07549 -0.161573,-0.02893 -0.254706,-0.08643 -0.09349,-0.05715 -0.498475,-0.121709 -0.764469,-0.06103 -0.264937,0.06103 -0.394053,0.132645 -0.394053,0.132645 0,0 -0.09349,0.954616 -0.316089,1.320447 -0.221897,0.366183 -0.237067,0.379942 -0.358775,0.875594 -0.121708,0.494948 -0.559506,0.617009 -0.803981,0.868187 -0.243769,0.250825 -0.466019,0.408869 -0.595136,0.502002 -0.129469,0.09349 -0.261761,0.344664 -0.55245,0.559859 -0.290689,0.215194 -0.315736,0.208139 -0.405694,0.344311 -0.08925,0.136525 -0.125237,0.179564 -0.125237,0.179564 0,0 -0.02893,-0.04692 0.06773,-0.276225 0.09701,-0.229659 0.14358,-0.290689 0.14358,-0.290689 0,0 -0.09349,0.0039 -0.215194,0.150989 -0.121708,0.146755 -0.236361,0.315736 -0.236361,0.315736 0,0 -0.01446,-0.08996 0.03528,-0.219428 0.0508,-0.129117 0.0575,-0.186267 0.0575,-0.186267 l -0.132291,0.02505 c 0,0 0.07867,-0.323145 0.125589,-0.419806 0.04657,-0.09701 0.164747,-0.254706 0.164747,-0.254706 0,0 -0.08643,0.0039 -0.05362,-0.182738 0.03245,-0.186973 0.14358,-0.376767 0.14358,-0.376767 0,0 -0.115005,0.06773 -0.105833,-0.105833 0.0092,-0.174273 0.299155,-0.514703 0.299155,-0.622653 0,-0.107598 0.0039,-0.103717 0,-0.1397 -0.0032,-0.03634 -0.0321,-0.395111 -0.01411,-0.929217 0.01799,-0.534811 0.237067,-0.915106 0.237067,-0.915106 0,0 -1.402997,0.588434 -1.550458,0.588434 -0.147462,0 0.269169,-0.57397 0.262113,-0.606425 -0.0071,-0.0321 0,-0.362303 0.01835,-0.387703 0.01764,-0.0247 0.07479,-0.121356 0.06773,-0.171803 -0.0071,-0.05009 0.01446,-0.38735 0.01446,-0.38735 l 0.09278,-0.125589 c 0,0 0.108302,0.10407 0,-0.197555 -0.107245,-0.301273 -0.186267,-0.430389 -0.186267,-0.430389 0,0 0.24765,-0.136525 0.836083,0 0.588434,0.136172 1.04387,0.243769 1.287992,0.243769 0.244122,0 0.318911,-0.22225 0.318911,-0.22225 L 77.061,47.241844 c 0,0 -0.04304,0.0071 0.115005,-0.423334 0.157692,-0.430388 0.251178,-0.599369 0.337256,-0.667102 0.08572,-0.06844 -0.06844,-0.118887 0.405341,-0.427567 0.473428,-0.307975 0.868187,-0.616656 1.018823,-0.753181 0.150636,-0.136172 0.441325,-0.519994 0.721078,-0.735541 0.280105,-0.215195 0.33408,-0.226131 0.384175,-0.301273 0.05009,-0.07514 0.276225,-0.423686 0.276225,-0.423686 0,0 0.236713,-0.09278 0.265288,0.158045 0.02893,0.251177 0.208492,-0.441325 0.344312,-0.433917 0.136877,0.0071 0.136877,0.03598 0.136877,0.03598 v 0.157692 c 0,0 0.241653,-0.394758 0.356306,-0.403931 0.115006,-0.0085 0.03281,0.231775 0.03281,0.231775 0,0 0.211314,-0.426861 0.308328,-0.390877 0.09737,0.03563 0.07161,0.166511 0.07161,0.166511 0,0 0.182739,-0.245534 0.197556,-0.0374 0.01411,0.208139 -0.129117,0.423334 -0.06456,0.6223 0.06456,0.19932 -0.115005,0.765881 -0.55245,1.239662 -0.43815,0.473427 -0.904522,0.828675 -1.291872,1.302455 -0.386997,0.473075 -0.825147,1.294695 -0.830439,1.34867"
       inkscape:label="aquila3" />
    <rect
       style="opacity:1;fill:none;fill-opacity:1;fill-rule:evenodd;stroke:none;stroke-width:0.99999994;stroke-linecap:round;stroke-linejoin:round;stroke-miterlimit:4;stroke-dasharray:none;stroke-opacity:1"
       id="rect2937"
       width="227.54167"
       height="21.166666"
       x="96.949348"
       y="222.41968" />
  </g>
</svg>
