<?xml version="1.0" encoding="UTF-8" standalone="no"?>
<!-- Created with Inkscape (http://www.inkscape.org/) -->

<svg
   xmlns:dc="http://purl.org/dc/elements/1.1/"
   xmlns:cc="http://creativecommons.org/ns#"
   xmlns:rdf="http://www.w3.org/1999/02/22-rdf-syntax-ns#"
   xmlns:svg="http://www.w3.org/2000/svg"
   xmlns="http://www.w3.org/2000/svg"
   xmlns:sodipodi="http://sodipodi.sourceforge.net/DTD/sodipodi-0.dtd"
   xmlns:inkscape="http://www.inkscape.org/namespaces/inkscape"
   width="170"
   height="170"
   viewBox="0 0 44.979164 44.979167"
   version="1.1"
   id="svg8"
   inkscape:version="0.92.4 (5da689c313, 2019-01-14)"
   sodipodi:docname="favicon.svg"
   inkscape:export-filename="/home/chiara/fenice/feniceweb/static/brand/favicon.png"
   inkscape:export-xdpi="16.809999"
   inkscape:export-ydpi="16.809999">
  <defs
     id="defs2" />
  <sodipodi:namedview
     id="base"
     pagecolor="#ffffff"
     bordercolor="#666666"
     borderopacity="1.0"
     inkscape:pageopacity="0.0"
     inkscape:pageshadow="2"
     inkscape:zoom="1.4"
     inkscape:cx="29.57827"
     inkscape:cy="228.3081"
     inkscape:document-units="mm"
     inkscape:current-layer="layer6"
     showgrid="false"
     inkscape:window-width="1699"
     inkscape:window-height="1056"
     inkscape:window-x="129"
     inkscape:window-y="0"
     inkscape:window-maximized="1"
     fit-margin-top="0"
     fit-margin-left="0"
     fit-margin-right="0"
     fit-margin-bottom="0"
     units="px">
    <inkscape:grid
       type="xygrid"
       id="grid973"
       originx="7.1794823"
       originy="-52.281591" />
  </sodipodi:namedview>
  <metadata
     id="metadata5">
    <rdf:RDF>
      <cc:Work
         rdf:about="">
        <dc:format>image/svg+xml</dc:format>
        <dc:type
           rdf:resource="http://purl.org/dc/dcmitype/StillImage" />
        <dc:title />
      </cc:Work>
    </rdf:RDF>
  </metadata>
  <g
     inkscape:groupmode="layer"
     id="layer6"
     inkscape:label="area"
     transform="translate(-88.070501,-130.27658)">
    <circle
       style="opacity:1;fill:#ffffff;fill-opacity:1;fill-rule:evenodd;stroke:none;stroke-width:0.26458332;stroke-linecap:round;stroke-linejoin:round;stroke-miterlimit:4;stroke-dasharray:none;stroke-opacity:1"
       id="path1218"
       cx="110.56008"
       cy="152.76616"
       r="22.205072" />
  </g>
  <g
     inkscape:label="ala sotto"
     id="g964"
     inkscape:groupmode="layer"
     transform="translate(7.1794857,-199.73925)">
    <path
       style="opacity:1;fill:#e94025;fill-opacity:1;fill-rule:evenodd;stroke:none;stroke-width:0.5291667;stroke-linecap:round;stroke-linejoin:round;stroke-miterlimit:4;stroke-dasharray:none;stroke-opacity:1"
       d="m 15.309961,200.02392 a 22.205072,22.205072 0 0 0 -17.7353513,8.88938 c 9.6833106,3.08342 17.9146833,7.75496 19.0174453,20.04115 6.567294,-7.86443 10.810886,-15.76748 13.162502,-23.57892 a 22.205072,22.205072 0 0 0 -14.444596,-5.35161 z"
       id="path962"
       inkscape:connector-curvature="0" />
  </g>
  <g
     inkscape:groupmode="layer"
     id="layer2"
     inkscape:label="corpo ala sopra"
     transform="translate(7.1794857,-199.73925)">
    <path
       style="opacity:1;fill:#ff7f6b;fill-opacity:1;fill-rule:evenodd;stroke:none;stroke-width:0.5291667;stroke-linecap:round;stroke-linejoin:round;stroke-miterlimit:4;stroke-dasharray:none;stroke-opacity:1"
       d="m 15.309961,200.02392 a 22.205072,22.205072 0 0 0 -7.8460308,1.44229 c 9.2008718,7.13464 17.2735688,13.88761 9.6629748,26.45161 -0.360431,-0.0151 -0.829204,0.0371 -1.421101,0.14418 -2.416429,0.43716 -2.920407,1.25795 -5.45755,0.60358 0.203867,2.61221 -2.7841148,7.10705 -4.2591695,9.14001 -0.00558,0.008 -0.00693,0.0105 -0.012409,0.0176 -0.1758501,0.008 -0.3817673,0.0897 -0.564306,0.24288 -0.2563125,0.21506 -0.3838469,0.49967 -0.3415824,0.709 l 7.7824729,-6.52983 c -0.01894,-0.10707 0.02069,-0.21638 0.103867,-0.28629 0.128858,-0.1081 0.321281,-0.0915 0.429432,0.0372 0.108098,0.12895 0.09115,0.3213 -0.03772,0.42944 -0.08331,0.0694 -0.197265,0.0893 -0.299207,0.0522 l -7.7829857,6.53035 c 0.1990936,0.0774 0.5012346,0.002 0.7575761,-0.21291 0.1962362,-0.16465 0.3179234,-0.37081 0.3457152,-0.55242 2.2831266,-1.07605 7.2180264,-3.23113 9.7518594,-2.57762 -0.203862,-2.6122 0.691893,-2.9661 1.542026,-5.26996 0.316137,-0.8567 0.459766,-1.45857 0.392223,-1.85519 5.461678,-6.18542 10.247736,-13.31402 14.362946,-20.43802 A 22.205072,22.205072 0 0 0 15.30996,200.02396 Z"
       id="rect955"
       inkscape:connector-curvature="0" />
  </g>
</svg>
